M48
; DRILL file {KiCad (5.1.9)-1} date 05/05/21 15:50:05
; FORMAT={-:-/ absolute / inch / decimal}
; #@! TF.CreationDate,2021-05-05T15:50:05+02:00
; #@! TF.GenerationSoftware,Kicad,Pcbnew,(5.1.9)-1
; #@! TF.FileFunction,Plated,1,2,PTH
FMAT,2
INCH
T1C0.0157
T2C0.0197
T3C0.0236
T4C0.0300
T5C0.0394
T6C0.0433
T7C0.0787
%
G90
G05
T1
X3.7264Y-3.2264
X3.7488Y-3.0413
X3.7921Y-2.9902
X4.0177Y-3.128
X4.0992Y-2.9272
X4.2031Y-2.2047
X4.2409Y-2.9941
X4.2458Y-2.9337
X4.3591Y-2.8051
X4.363Y-2.7185
X4.399Y-2.8055
X4.4211Y-2.5872
X4.4496Y-2.6201
X4.4608Y-2.9037
X4.5126Y-2.6358
X4.5323Y-2.3051
X4.615Y-2.8051
X4.6504Y-3.0217
X5.1458Y-2.6537
X5.1858Y-2.6737
X5.2358Y-2.6737
X5.5958Y-2.2837
X6.2016Y-2.4272
X6.3531Y-2.4547
X6.4281Y-2.4547
T4
X4.3173Y-2.0807
X4.4173Y-2.0807
X4.5173Y-2.0807
X4.6173Y-2.0807
T5
X3.7272Y-2.4937
X3.7272Y-2.5937
X3.7272Y-2.6937
X3.7272Y-2.7937
X3.9012Y-2.7028
X4.0012Y-2.7028
X4.1012Y-2.7028
X5.2758Y-2.1237
X5.2758Y-2.2237
X5.2758Y-2.3237
X5.3758Y-2.1237
X5.3758Y-2.2237
X5.3758Y-2.3237
X5.9281Y-2.3797
X6.0281Y-2.3797
T6
X4.8219Y-2.8797
X4.8219Y-3.0569
X5.0778Y-2.8797
X5.0778Y-3.0569
X5.5874Y-2.3681
X5.5874Y-2.939
X5.6858Y-2.939
X5.7843Y-2.3681
X5.7843Y-2.939
X6.1681Y-2.752
X6.1681Y-2.9291
X6.424Y-2.752
X6.424Y-2.9291
T2
G00X3.439Y-2.6654
M15
G01X3.439Y-2.622
M16
G05
G00X3.519Y-2.5514
M15
G01X3.519Y-2.516
M16
G05
G00X3.519Y-2.7714
M15
G01X3.519Y-2.736
M16
G05
T3
G00X3.3989Y-2.5059
M15
G01X3.4265Y-2.5059
M16
G05
G00X3.4265Y-2.7815
M15
G01X3.3989Y-2.7815
M16
G05
T7
G00X5.4858Y-2.624
M15
G01X5.4858Y-2.6634
M16
G05
G00X5.8858Y-2.6634
M15
G01X5.8858Y-2.624
M16
G05
T0
M30
