G04 #@! TF.GenerationSoftware,KiCad,Pcbnew,(5.1.9)-1*
G04 #@! TF.CreationDate,2021-05-05T15:50:03+02:00*
G04 #@! TF.ProjectId,V0_Display,56305f44-6973-4706-9c61-792e6b696361,rev?*
G04 #@! TF.SameCoordinates,Original*
G04 #@! TF.FileFunction,Legend,Bot*
G04 #@! TF.FilePolarity,Positive*
%FSLAX46Y46*%
G04 Gerber Fmt 4.6, Leading zero omitted, Abs format (unit mm)*
G04 Created by KiCad (PCBNEW (5.1.9)-1) date 2021-05-05 15:50:03*
%MOMM*%
%LPD*%
G01*
G04 APERTURE LIST*
%ADD10C,0.100000*%
%ADD11C,0.150000*%
%ADD12C,0.120000*%
%ADD13C,0.300000*%
G04 APERTURE END LIST*
D10*
X132108857Y-56708190D02*
X132108857Y-56208190D01*
X131942190Y-56565333D01*
X131775523Y-56208190D01*
X131775523Y-56708190D01*
X131442190Y-56208190D02*
X131346952Y-56208190D01*
X131299333Y-56232000D01*
X131251714Y-56279619D01*
X131227904Y-56374857D01*
X131227904Y-56541523D01*
X131251714Y-56636761D01*
X131299333Y-56684380D01*
X131346952Y-56708190D01*
X131442190Y-56708190D01*
X131489809Y-56684380D01*
X131537428Y-56636761D01*
X131561238Y-56541523D01*
X131561238Y-56374857D01*
X131537428Y-56279619D01*
X131489809Y-56232000D01*
X131442190Y-56208190D01*
X131037428Y-56684380D02*
X130966000Y-56708190D01*
X130846952Y-56708190D01*
X130799333Y-56684380D01*
X130775523Y-56660571D01*
X130751714Y-56612952D01*
X130751714Y-56565333D01*
X130775523Y-56517714D01*
X130799333Y-56493904D01*
X130846952Y-56470095D01*
X130942190Y-56446285D01*
X130989809Y-56422476D01*
X131013619Y-56398666D01*
X131037428Y-56351047D01*
X131037428Y-56303428D01*
X131013619Y-56255809D01*
X130989809Y-56232000D01*
X130942190Y-56208190D01*
X130823143Y-56208190D01*
X130751714Y-56232000D01*
X130537428Y-56708190D02*
X130537428Y-56208190D01*
X140066190Y-59248190D02*
X140232857Y-59010095D01*
X140351904Y-59248190D02*
X140351904Y-58748190D01*
X140161428Y-58748190D01*
X140113809Y-58772000D01*
X140090000Y-58795809D01*
X140066190Y-58843428D01*
X140066190Y-58914857D01*
X140090000Y-58962476D01*
X140113809Y-58986285D01*
X140161428Y-59010095D01*
X140351904Y-59010095D01*
X139851904Y-58986285D02*
X139685238Y-58986285D01*
X139613809Y-59248190D02*
X139851904Y-59248190D01*
X139851904Y-58748190D01*
X139613809Y-58748190D01*
X139423333Y-59224380D02*
X139351904Y-59248190D01*
X139232857Y-59248190D01*
X139185238Y-59224380D01*
X139161428Y-59200571D01*
X139137619Y-59152952D01*
X139137619Y-59105333D01*
X139161428Y-59057714D01*
X139185238Y-59033904D01*
X139232857Y-59010095D01*
X139328095Y-58986285D01*
X139375714Y-58962476D01*
X139399523Y-58938666D01*
X139423333Y-58891047D01*
X139423333Y-58843428D01*
X139399523Y-58795809D01*
X139375714Y-58772000D01*
X139328095Y-58748190D01*
X139209047Y-58748190D01*
X139137619Y-58772000D01*
X138923333Y-58986285D02*
X138756666Y-58986285D01*
X138685238Y-59248190D02*
X138923333Y-59248190D01*
X138923333Y-58748190D01*
X138685238Y-58748190D01*
X138542380Y-58748190D02*
X138256666Y-58748190D01*
X138399523Y-59248190D02*
X138399523Y-58748190D01*
X139590000Y-56684380D02*
X139518571Y-56708190D01*
X139399523Y-56708190D01*
X139351904Y-56684380D01*
X139328095Y-56660571D01*
X139304285Y-56612952D01*
X139304285Y-56565333D01*
X139328095Y-56517714D01*
X139351904Y-56493904D01*
X139399523Y-56470095D01*
X139494762Y-56446285D01*
X139542381Y-56422476D01*
X139566190Y-56398666D01*
X139590000Y-56351047D01*
X139590000Y-56303428D01*
X139566190Y-56255809D01*
X139542381Y-56232000D01*
X139494762Y-56208190D01*
X139375714Y-56208190D01*
X139304285Y-56232000D01*
X138804285Y-56660571D02*
X138828095Y-56684380D01*
X138899523Y-56708190D01*
X138947143Y-56708190D01*
X139018571Y-56684380D01*
X139066190Y-56636761D01*
X139090000Y-56589142D01*
X139113809Y-56493904D01*
X139113809Y-56422476D01*
X139090000Y-56327238D01*
X139066190Y-56279619D01*
X139018571Y-56232000D01*
X138947143Y-56208190D01*
X138899523Y-56208190D01*
X138828095Y-56232000D01*
X138804285Y-56255809D01*
X138590000Y-56708190D02*
X138590000Y-56208190D01*
X138304285Y-56708190D02*
X138518571Y-56422476D01*
X138304285Y-56208190D02*
X138590000Y-56493904D01*
X139899524Y-54168190D02*
X139899524Y-53668190D01*
X139732857Y-54025333D01*
X139566190Y-53668190D01*
X139566190Y-54168190D01*
X139328095Y-54168190D02*
X139328095Y-53668190D01*
X139113810Y-54144380D02*
X139042381Y-54168190D01*
X138923333Y-54168190D01*
X138875714Y-54144380D01*
X138851905Y-54120571D01*
X138828095Y-54072952D01*
X138828095Y-54025333D01*
X138851905Y-53977714D01*
X138875714Y-53953904D01*
X138923333Y-53930095D01*
X139018571Y-53906285D01*
X139066190Y-53882476D01*
X139090000Y-53858666D01*
X139113810Y-53811047D01*
X139113810Y-53763428D01*
X139090000Y-53715809D01*
X139066190Y-53692000D01*
X139018571Y-53668190D01*
X138899524Y-53668190D01*
X138828095Y-53692000D01*
X138518571Y-53668190D02*
X138423333Y-53668190D01*
X138375714Y-53692000D01*
X138328095Y-53739619D01*
X138304286Y-53834857D01*
X138304286Y-54001523D01*
X138328095Y-54096761D01*
X138375714Y-54144380D01*
X138423333Y-54168190D01*
X138518571Y-54168190D01*
X138566190Y-54144380D01*
X138613810Y-54096761D01*
X138637619Y-54001523D01*
X138637619Y-53834857D01*
X138613810Y-53739619D01*
X138566190Y-53692000D01*
X138518571Y-53668190D01*
X131846952Y-58772000D02*
X131894571Y-58748190D01*
X131966000Y-58748190D01*
X132037428Y-58772000D01*
X132085047Y-58819619D01*
X132108857Y-58867238D01*
X132132666Y-58962476D01*
X132132666Y-59033904D01*
X132108857Y-59129142D01*
X132085047Y-59176761D01*
X132037428Y-59224380D01*
X131966000Y-59248190D01*
X131918380Y-59248190D01*
X131846952Y-59224380D01*
X131823142Y-59200571D01*
X131823142Y-59033904D01*
X131918380Y-59033904D01*
X131608857Y-59248190D02*
X131608857Y-58748190D01*
X131323142Y-59248190D01*
X131323142Y-58748190D01*
X131085047Y-59248190D02*
X131085047Y-58748190D01*
X130966000Y-58748190D01*
X130894571Y-58772000D01*
X130846952Y-58819619D01*
X130823142Y-58867238D01*
X130799333Y-58962476D01*
X130799333Y-59033904D01*
X130823142Y-59129142D01*
X130846952Y-59176761D01*
X130894571Y-59224380D01*
X130966000Y-59248190D01*
X131085047Y-59248190D01*
X131870762Y-53668190D02*
X132108857Y-53668190D01*
X132132666Y-53906285D01*
X132108857Y-53882476D01*
X132061238Y-53858666D01*
X131942190Y-53858666D01*
X131894571Y-53882476D01*
X131870762Y-53906285D01*
X131846952Y-53953904D01*
X131846952Y-54072952D01*
X131870762Y-54120571D01*
X131894571Y-54144380D01*
X131942190Y-54168190D01*
X132061238Y-54168190D01*
X132108857Y-54144380D01*
X132132666Y-54120571D01*
X131704095Y-53668190D02*
X131537428Y-54168190D01*
X131370762Y-53668190D01*
D11*
X148539047Y-76256380D02*
X148205714Y-77256380D01*
X147872380Y-76256380D01*
X147348571Y-76256380D02*
X147253333Y-76256380D01*
X147158095Y-76304000D01*
X147110476Y-76351619D01*
X147062857Y-76446857D01*
X147015238Y-76637333D01*
X147015238Y-76875428D01*
X147062857Y-77065904D01*
X147110476Y-77161142D01*
X147158095Y-77208761D01*
X147253333Y-77256380D01*
X147348571Y-77256380D01*
X147443809Y-77208761D01*
X147491428Y-77161142D01*
X147539047Y-77065904D01*
X147586666Y-76875428D01*
X147586666Y-76637333D01*
X147539047Y-76446857D01*
X147491428Y-76351619D01*
X147443809Y-76304000D01*
X147348571Y-76256380D01*
X146586666Y-76875428D02*
X145824761Y-76875428D01*
X145348571Y-77256380D02*
X145348571Y-76256380D01*
X145110476Y-76256380D01*
X144967619Y-76304000D01*
X144872380Y-76399238D01*
X144824761Y-76494476D01*
X144777142Y-76684952D01*
X144777142Y-76827809D01*
X144824761Y-77018285D01*
X144872380Y-77113523D01*
X144967619Y-77208761D01*
X145110476Y-77256380D01*
X145348571Y-77256380D01*
X144348571Y-77256380D02*
X144348571Y-76589714D01*
X144348571Y-76256380D02*
X144396190Y-76304000D01*
X144348571Y-76351619D01*
X144300952Y-76304000D01*
X144348571Y-76256380D01*
X144348571Y-76351619D01*
X143920000Y-77208761D02*
X143824761Y-77256380D01*
X143634285Y-77256380D01*
X143539047Y-77208761D01*
X143491428Y-77113523D01*
X143491428Y-77065904D01*
X143539047Y-76970666D01*
X143634285Y-76923047D01*
X143777142Y-76923047D01*
X143872380Y-76875428D01*
X143920000Y-76780190D01*
X143920000Y-76732571D01*
X143872380Y-76637333D01*
X143777142Y-76589714D01*
X143634285Y-76589714D01*
X143539047Y-76637333D01*
X143062857Y-76589714D02*
X143062857Y-77589714D01*
X143062857Y-76637333D02*
X142967619Y-76589714D01*
X142777142Y-76589714D01*
X142681904Y-76637333D01*
X142634285Y-76684952D01*
X142586666Y-76780190D01*
X142586666Y-77065904D01*
X142634285Y-77161142D01*
X142681904Y-77208761D01*
X142777142Y-77256380D01*
X142967619Y-77256380D01*
X143062857Y-77208761D01*
X142015238Y-77256380D02*
X142110476Y-77208761D01*
X142158095Y-77113523D01*
X142158095Y-76256380D01*
X141205714Y-77256380D02*
X141205714Y-76732571D01*
X141253333Y-76637333D01*
X141348571Y-76589714D01*
X141539047Y-76589714D01*
X141634285Y-76637333D01*
X141205714Y-77208761D02*
X141300952Y-77256380D01*
X141539047Y-77256380D01*
X141634285Y-77208761D01*
X141681904Y-77113523D01*
X141681904Y-77018285D01*
X141634285Y-76923047D01*
X141539047Y-76875428D01*
X141300952Y-76875428D01*
X141205714Y-76827809D01*
X140824761Y-76589714D02*
X140586666Y-77256380D01*
X140348571Y-76589714D02*
X140586666Y-77256380D01*
X140681904Y-77494476D01*
X140729523Y-77542095D01*
X140824761Y-77589714D01*
X152777142Y-78001619D02*
X152729523Y-77954000D01*
X152634285Y-77906380D01*
X152396190Y-77906380D01*
X152300952Y-77954000D01*
X152253333Y-78001619D01*
X152205714Y-78096857D01*
X152205714Y-78192095D01*
X152253333Y-78334952D01*
X152824761Y-78906380D01*
X152205714Y-78906380D01*
X151586666Y-77906380D02*
X151491428Y-77906380D01*
X151396190Y-77954000D01*
X151348571Y-78001619D01*
X151300952Y-78096857D01*
X151253333Y-78287333D01*
X151253333Y-78525428D01*
X151300952Y-78715904D01*
X151348571Y-78811142D01*
X151396190Y-78858761D01*
X151491428Y-78906380D01*
X151586666Y-78906380D01*
X151681904Y-78858761D01*
X151729523Y-78811142D01*
X151777142Y-78715904D01*
X151824761Y-78525428D01*
X151824761Y-78287333D01*
X151777142Y-78096857D01*
X151729523Y-78001619D01*
X151681904Y-77954000D01*
X151586666Y-77906380D01*
X150872380Y-78001619D02*
X150824761Y-77954000D01*
X150729523Y-77906380D01*
X150491428Y-77906380D01*
X150396190Y-77954000D01*
X150348571Y-78001619D01*
X150300952Y-78096857D01*
X150300952Y-78192095D01*
X150348571Y-78334952D01*
X150920000Y-78906380D01*
X150300952Y-78906380D01*
X149681904Y-77906380D02*
X149586666Y-77906380D01*
X149491428Y-77954000D01*
X149443809Y-78001619D01*
X149396190Y-78096857D01*
X149348571Y-78287333D01*
X149348571Y-78525428D01*
X149396190Y-78715904D01*
X149443809Y-78811142D01*
X149491428Y-78858761D01*
X149586666Y-78906380D01*
X149681904Y-78906380D01*
X149777142Y-78858761D01*
X149824761Y-78811142D01*
X149872380Y-78715904D01*
X149920000Y-78525428D01*
X149920000Y-78287333D01*
X149872380Y-78096857D01*
X149824761Y-78001619D01*
X149777142Y-77954000D01*
X149681904Y-77906380D01*
X148205714Y-78858761D02*
X148062857Y-78906380D01*
X147824761Y-78906380D01*
X147729523Y-78858761D01*
X147681904Y-78811142D01*
X147634285Y-78715904D01*
X147634285Y-78620666D01*
X147681904Y-78525428D01*
X147729523Y-78477809D01*
X147824761Y-78430190D01*
X148015238Y-78382571D01*
X148110476Y-78334952D01*
X148158095Y-78287333D01*
X148205714Y-78192095D01*
X148205714Y-78096857D01*
X148158095Y-78001619D01*
X148110476Y-77954000D01*
X148015238Y-77906380D01*
X147777142Y-77906380D01*
X147634285Y-77954000D01*
X147205714Y-78906380D02*
X147205714Y-77906380D01*
X146777142Y-78906380D02*
X146777142Y-78382571D01*
X146824761Y-78287333D01*
X146920000Y-78239714D01*
X147062857Y-78239714D01*
X147158095Y-78287333D01*
X147205714Y-78334952D01*
X146158095Y-78906380D02*
X146253333Y-78858761D01*
X146300952Y-78811142D01*
X146348571Y-78715904D01*
X146348571Y-78430190D01*
X146300952Y-78334952D01*
X146253333Y-78287333D01*
X146158095Y-78239714D01*
X146015238Y-78239714D01*
X145920000Y-78287333D01*
X145872380Y-78334952D01*
X145824761Y-78430190D01*
X145824761Y-78715904D01*
X145872380Y-78811142D01*
X145920000Y-78858761D01*
X146015238Y-78906380D01*
X146158095Y-78906380D01*
X145396190Y-78906380D02*
X145396190Y-78239714D01*
X145396190Y-78430190D02*
X145348571Y-78334952D01*
X145300952Y-78287333D01*
X145205714Y-78239714D01*
X145110476Y-78239714D01*
X144920000Y-78239714D02*
X144539047Y-78239714D01*
X144777142Y-77906380D02*
X144777142Y-78763523D01*
X144729523Y-78858761D01*
X144634285Y-78906380D01*
X144539047Y-78906380D01*
X143777142Y-78906380D02*
X143777142Y-78382571D01*
X143824761Y-78287333D01*
X143920000Y-78239714D01*
X144110476Y-78239714D01*
X144205714Y-78287333D01*
X143777142Y-78858761D02*
X143872380Y-78906380D01*
X144110476Y-78906380D01*
X144205714Y-78858761D01*
X144253333Y-78763523D01*
X144253333Y-78668285D01*
X144205714Y-78573047D01*
X144110476Y-78525428D01*
X143872380Y-78525428D01*
X143777142Y-78477809D01*
X142872380Y-78239714D02*
X142872380Y-79049238D01*
X142920000Y-79144476D01*
X142967619Y-79192095D01*
X143062857Y-79239714D01*
X143205714Y-79239714D01*
X143300952Y-79192095D01*
X142872380Y-78858761D02*
X142967619Y-78906380D01*
X143158095Y-78906380D01*
X143253333Y-78858761D01*
X143300952Y-78811142D01*
X143348571Y-78715904D01*
X143348571Y-78430190D01*
X143300952Y-78334952D01*
X143253333Y-78287333D01*
X143158095Y-78239714D01*
X142967619Y-78239714D01*
X142872380Y-78287333D01*
X142015238Y-78858761D02*
X142110476Y-78906380D01*
X142300952Y-78906380D01*
X142396190Y-78858761D01*
X142443809Y-78763523D01*
X142443809Y-78382571D01*
X142396190Y-78287333D01*
X142300952Y-78239714D01*
X142110476Y-78239714D01*
X142015238Y-78287333D01*
X141967619Y-78382571D01*
X141967619Y-78477809D01*
X142443809Y-78573047D01*
X140777142Y-78382571D02*
X140443809Y-78382571D01*
X140300952Y-78906380D02*
X140777142Y-78906380D01*
X140777142Y-77906380D01*
X140300952Y-77906380D01*
X139443809Y-78906380D02*
X139443809Y-77906380D01*
X139443809Y-78858761D02*
X139539047Y-78906380D01*
X139729523Y-78906380D01*
X139824761Y-78858761D01*
X139872380Y-78811142D01*
X139920000Y-78715904D01*
X139920000Y-78430190D01*
X139872380Y-78334952D01*
X139824761Y-78287333D01*
X139729523Y-78239714D01*
X139539047Y-78239714D01*
X139443809Y-78287333D01*
X138967619Y-78906380D02*
X138967619Y-78239714D01*
X138967619Y-77906380D02*
X139015238Y-77954000D01*
X138967619Y-78001619D01*
X138920000Y-77954000D01*
X138967619Y-77906380D01*
X138967619Y-78001619D01*
X138634285Y-78239714D02*
X138253333Y-78239714D01*
X138491428Y-77906380D02*
X138491428Y-78763523D01*
X138443809Y-78858761D01*
X138348571Y-78906380D01*
X138253333Y-78906380D01*
X137920000Y-78906380D02*
X137920000Y-78239714D01*
X137920000Y-77906380D02*
X137967619Y-77954000D01*
X137920000Y-78001619D01*
X137872380Y-77954000D01*
X137920000Y-77906380D01*
X137920000Y-78001619D01*
X137300952Y-78906380D02*
X137396190Y-78858761D01*
X137443809Y-78811142D01*
X137491428Y-78715904D01*
X137491428Y-78430190D01*
X137443809Y-78334952D01*
X137396190Y-78287333D01*
X137300952Y-78239714D01*
X137158095Y-78239714D01*
X137062857Y-78287333D01*
X137015238Y-78334952D01*
X136967619Y-78430190D01*
X136967619Y-78715904D01*
X137015238Y-78811142D01*
X137062857Y-78858761D01*
X137158095Y-78906380D01*
X137300952Y-78906380D01*
X136539047Y-78239714D02*
X136539047Y-78906380D01*
X136539047Y-78334952D02*
X136491428Y-78287333D01*
X136396190Y-78239714D01*
X136253333Y-78239714D01*
X136158095Y-78287333D01*
X136110476Y-78382571D01*
X136110476Y-78906380D01*
X148300952Y-80032571D02*
X148158095Y-80080190D01*
X148110476Y-80127809D01*
X148062857Y-80223047D01*
X148062857Y-80365904D01*
X148110476Y-80461142D01*
X148158095Y-80508761D01*
X148253333Y-80556380D01*
X148634285Y-80556380D01*
X148634285Y-79556380D01*
X148300952Y-79556380D01*
X148205714Y-79604000D01*
X148158095Y-79651619D01*
X148110476Y-79746857D01*
X148110476Y-79842095D01*
X148158095Y-79937333D01*
X148205714Y-79984952D01*
X148300952Y-80032571D01*
X148634285Y-80032571D01*
X147634285Y-80461142D02*
X147586666Y-80508761D01*
X147634285Y-80556380D01*
X147681904Y-80508761D01*
X147634285Y-80461142D01*
X147634285Y-80556380D01*
X145920000Y-80556380D02*
X146396190Y-80556380D01*
X146396190Y-79556380D01*
X145158095Y-80556380D02*
X145158095Y-80032571D01*
X145205714Y-79937333D01*
X145300952Y-79889714D01*
X145491428Y-79889714D01*
X145586666Y-79937333D01*
X145158095Y-80508761D02*
X145253333Y-80556380D01*
X145491428Y-80556380D01*
X145586666Y-80508761D01*
X145634285Y-80413523D01*
X145634285Y-80318285D01*
X145586666Y-80223047D01*
X145491428Y-80175428D01*
X145253333Y-80175428D01*
X145158095Y-80127809D01*
X144681904Y-80556380D02*
X144681904Y-79889714D01*
X144681904Y-79984952D02*
X144634285Y-79937333D01*
X144539047Y-79889714D01*
X144396190Y-79889714D01*
X144300952Y-79937333D01*
X144253333Y-80032571D01*
X144253333Y-80556380D01*
X144253333Y-80032571D02*
X144205714Y-79937333D01*
X144110476Y-79889714D01*
X143967619Y-79889714D01*
X143872380Y-79937333D01*
X143824761Y-80032571D01*
X143824761Y-80556380D01*
X143348571Y-80556380D02*
X143348571Y-79889714D01*
X143348571Y-79984952D02*
X143300952Y-79937333D01*
X143205714Y-79889714D01*
X143062857Y-79889714D01*
X142967619Y-79937333D01*
X142920000Y-80032571D01*
X142920000Y-80556380D01*
X142920000Y-80032571D02*
X142872380Y-79937333D01*
X142777142Y-79889714D01*
X142634285Y-79889714D01*
X142539047Y-79937333D01*
X142491428Y-80032571D01*
X142491428Y-80556380D01*
X141634285Y-80508761D02*
X141729523Y-80556380D01*
X141920000Y-80556380D01*
X142015238Y-80508761D01*
X142062857Y-80413523D01*
X142062857Y-80032571D01*
X142015238Y-79937333D01*
X141920000Y-79889714D01*
X141729523Y-79889714D01*
X141634285Y-79937333D01*
X141586666Y-80032571D01*
X141586666Y-80127809D01*
X142062857Y-80223047D01*
X141158095Y-80556380D02*
X141158095Y-79889714D01*
X141158095Y-80080190D02*
X141110476Y-79984952D01*
X141062857Y-79937333D01*
X140967619Y-79889714D01*
X140872380Y-79889714D01*
X140586666Y-80508761D02*
X140491428Y-80556380D01*
X140300952Y-80556380D01*
X140205714Y-80508761D01*
X140158095Y-80413523D01*
X140158095Y-80365904D01*
X140205714Y-80270666D01*
X140300952Y-80223047D01*
X140443809Y-80223047D01*
X140539047Y-80175428D01*
X140586666Y-80080190D01*
X140586666Y-80032571D01*
X140539047Y-79937333D01*
X140443809Y-79889714D01*
X140300952Y-79889714D01*
X140205714Y-79937333D01*
X151324761Y-81206380D02*
X151134285Y-81206380D01*
X151039047Y-81254000D01*
X150943809Y-81349238D01*
X150896190Y-81539714D01*
X150896190Y-81873047D01*
X150943809Y-82063523D01*
X151039047Y-82158761D01*
X151134285Y-82206380D01*
X151324761Y-82206380D01*
X151420000Y-82158761D01*
X151515238Y-82063523D01*
X151562857Y-81873047D01*
X151562857Y-81539714D01*
X151515238Y-81349238D01*
X151420000Y-81254000D01*
X151324761Y-81206380D01*
X150467619Y-82206380D02*
X150467619Y-81539714D01*
X150467619Y-81730190D02*
X150420000Y-81634952D01*
X150372380Y-81587333D01*
X150277142Y-81539714D01*
X150181904Y-81539714D01*
X149848571Y-82206380D02*
X149848571Y-81539714D01*
X149848571Y-81206380D02*
X149896190Y-81254000D01*
X149848571Y-81301619D01*
X149800952Y-81254000D01*
X149848571Y-81206380D01*
X149848571Y-81301619D01*
X148943809Y-81539714D02*
X148943809Y-82349238D01*
X148991428Y-82444476D01*
X149039047Y-82492095D01*
X149134285Y-82539714D01*
X149277142Y-82539714D01*
X149372380Y-82492095D01*
X148943809Y-82158761D02*
X149039047Y-82206380D01*
X149229523Y-82206380D01*
X149324761Y-82158761D01*
X149372380Y-82111142D01*
X149420000Y-82015904D01*
X149420000Y-81730190D01*
X149372380Y-81634952D01*
X149324761Y-81587333D01*
X149229523Y-81539714D01*
X149039047Y-81539714D01*
X148943809Y-81587333D01*
X148467619Y-82206380D02*
X148467619Y-81539714D01*
X148467619Y-81206380D02*
X148515238Y-81254000D01*
X148467619Y-81301619D01*
X148420000Y-81254000D01*
X148467619Y-81206380D01*
X148467619Y-81301619D01*
X147991428Y-81539714D02*
X147991428Y-82206380D01*
X147991428Y-81634952D02*
X147943809Y-81587333D01*
X147848571Y-81539714D01*
X147705714Y-81539714D01*
X147610476Y-81587333D01*
X147562857Y-81682571D01*
X147562857Y-82206380D01*
X146658095Y-82206380D02*
X146658095Y-81682571D01*
X146705714Y-81587333D01*
X146800952Y-81539714D01*
X146991428Y-81539714D01*
X147086666Y-81587333D01*
X146658095Y-82158761D02*
X146753333Y-82206380D01*
X146991428Y-82206380D01*
X147086666Y-82158761D01*
X147134285Y-82063523D01*
X147134285Y-81968285D01*
X147086666Y-81873047D01*
X146991428Y-81825428D01*
X146753333Y-81825428D01*
X146658095Y-81777809D01*
X146039047Y-82206380D02*
X146134285Y-82158761D01*
X146181904Y-82063523D01*
X146181904Y-81206380D01*
X144467619Y-82206380D02*
X144467619Y-81206380D01*
X144467619Y-82158761D02*
X144562857Y-82206380D01*
X144753333Y-82206380D01*
X144848571Y-82158761D01*
X144896190Y-82111142D01*
X144943809Y-82015904D01*
X144943809Y-81730190D01*
X144896190Y-81634952D01*
X144848571Y-81587333D01*
X144753333Y-81539714D01*
X144562857Y-81539714D01*
X144467619Y-81587333D01*
X143610476Y-82158761D02*
X143705714Y-82206380D01*
X143896190Y-82206380D01*
X143991428Y-82158761D01*
X144039047Y-82063523D01*
X144039047Y-81682571D01*
X143991428Y-81587333D01*
X143896190Y-81539714D01*
X143705714Y-81539714D01*
X143610476Y-81587333D01*
X143562857Y-81682571D01*
X143562857Y-81777809D01*
X144039047Y-81873047D01*
X143181904Y-82158761D02*
X143086666Y-82206380D01*
X142896190Y-82206380D01*
X142800952Y-82158761D01*
X142753333Y-82063523D01*
X142753333Y-82015904D01*
X142800952Y-81920666D01*
X142896190Y-81873047D01*
X143039047Y-81873047D01*
X143134285Y-81825428D01*
X143181904Y-81730190D01*
X143181904Y-81682571D01*
X143134285Y-81587333D01*
X143039047Y-81539714D01*
X142896190Y-81539714D01*
X142800952Y-81587333D01*
X142324761Y-82206380D02*
X142324761Y-81539714D01*
X142324761Y-81206380D02*
X142372380Y-81254000D01*
X142324761Y-81301619D01*
X142277142Y-81254000D01*
X142324761Y-81206380D01*
X142324761Y-81301619D01*
X141420000Y-81539714D02*
X141420000Y-82349238D01*
X141467619Y-82444476D01*
X141515238Y-82492095D01*
X141610476Y-82539714D01*
X141753333Y-82539714D01*
X141848571Y-82492095D01*
X141420000Y-82158761D02*
X141515238Y-82206380D01*
X141705714Y-82206380D01*
X141800952Y-82158761D01*
X141848571Y-82111142D01*
X141896190Y-82015904D01*
X141896190Y-81730190D01*
X141848571Y-81634952D01*
X141800952Y-81587333D01*
X141705714Y-81539714D01*
X141515238Y-81539714D01*
X141420000Y-81587333D01*
X140943809Y-81539714D02*
X140943809Y-82206380D01*
X140943809Y-81634952D02*
X140896190Y-81587333D01*
X140800952Y-81539714D01*
X140658095Y-81539714D01*
X140562857Y-81587333D01*
X140515238Y-81682571D01*
X140515238Y-82206380D01*
X139277142Y-82206380D02*
X139277142Y-81206380D01*
X139277142Y-81587333D02*
X139181904Y-81539714D01*
X138991428Y-81539714D01*
X138896190Y-81587333D01*
X138848571Y-81634952D01*
X138800952Y-81730190D01*
X138800952Y-82015904D01*
X138848571Y-82111142D01*
X138896190Y-82158761D01*
X138991428Y-82206380D01*
X139181904Y-82206380D01*
X139277142Y-82158761D01*
X138467619Y-81539714D02*
X138229523Y-82206380D01*
X137991428Y-81539714D02*
X138229523Y-82206380D01*
X138324761Y-82444476D01*
X138372380Y-82492095D01*
X138467619Y-82539714D01*
X148539047Y-82856380D02*
X147967619Y-82856380D01*
X148253333Y-83856380D02*
X148253333Y-82856380D01*
X147634285Y-83761142D02*
X147586666Y-83808761D01*
X147634285Y-83856380D01*
X147681904Y-83808761D01*
X147634285Y-83761142D01*
X147634285Y-83856380D01*
X146443809Y-83570666D02*
X145967619Y-83570666D01*
X146539047Y-83856380D02*
X146205714Y-82856380D01*
X145872380Y-83856380D01*
X145539047Y-83856380D02*
X145539047Y-82856380D01*
X145539047Y-83237333D02*
X145443809Y-83189714D01*
X145253333Y-83189714D01*
X145158095Y-83237333D01*
X145110476Y-83284952D01*
X145062857Y-83380190D01*
X145062857Y-83665904D01*
X145110476Y-83761142D01*
X145158095Y-83808761D01*
X145253333Y-83856380D01*
X145443809Y-83856380D01*
X145539047Y-83808761D01*
X144634285Y-83856380D02*
X144634285Y-83189714D01*
X144634285Y-83380190D02*
X144586666Y-83284952D01*
X144539047Y-83237333D01*
X144443809Y-83189714D01*
X144348571Y-83189714D01*
X143586666Y-83856380D02*
X143586666Y-83332571D01*
X143634285Y-83237333D01*
X143729523Y-83189714D01*
X143920000Y-83189714D01*
X144015238Y-83237333D01*
X143586666Y-83808761D02*
X143681904Y-83856380D01*
X143920000Y-83856380D01*
X144015238Y-83808761D01*
X144062857Y-83713523D01*
X144062857Y-83618285D01*
X144015238Y-83523047D01*
X143920000Y-83475428D01*
X143681904Y-83475428D01*
X143586666Y-83427809D01*
X143110476Y-83856380D02*
X143110476Y-82856380D01*
X142681904Y-83856380D02*
X142681904Y-83332571D01*
X142729523Y-83237333D01*
X142824761Y-83189714D01*
X142967619Y-83189714D01*
X143062857Y-83237333D01*
X143110476Y-83284952D01*
X141777142Y-83856380D02*
X141777142Y-83332571D01*
X141824761Y-83237333D01*
X141920000Y-83189714D01*
X142110476Y-83189714D01*
X142205714Y-83237333D01*
X141777142Y-83808761D02*
X141872380Y-83856380D01*
X142110476Y-83856380D01*
X142205714Y-83808761D01*
X142253333Y-83713523D01*
X142253333Y-83618285D01*
X142205714Y-83523047D01*
X142110476Y-83475428D01*
X141872380Y-83475428D01*
X141777142Y-83427809D01*
X141300952Y-83856380D02*
X141300952Y-83189714D01*
X141300952Y-83284952D02*
X141253333Y-83237333D01*
X141158095Y-83189714D01*
X141015238Y-83189714D01*
X140920000Y-83237333D01*
X140872380Y-83332571D01*
X140872380Y-83856380D01*
X140872380Y-83332571D02*
X140824761Y-83237333D01*
X140729523Y-83189714D01*
X140586666Y-83189714D01*
X140491428Y-83237333D01*
X140443809Y-83332571D01*
X140443809Y-83856380D01*
D10*
X154621666Y-58791190D02*
X154621666Y-58291190D01*
X154335952Y-58791190D01*
X154335952Y-58291190D01*
X153907380Y-58767380D02*
X153955000Y-58791190D01*
X154050238Y-58791190D01*
X154097857Y-58767380D01*
X154121666Y-58719761D01*
X154121666Y-58529285D01*
X154097857Y-58481666D01*
X154050238Y-58457857D01*
X153955000Y-58457857D01*
X153907380Y-58481666D01*
X153883571Y-58529285D01*
X153883571Y-58576904D01*
X154121666Y-58624523D01*
X153597857Y-58791190D02*
X153645476Y-58767380D01*
X153669285Y-58743571D01*
X153693095Y-58695952D01*
X153693095Y-58553095D01*
X153669285Y-58505476D01*
X153645476Y-58481666D01*
X153597857Y-58457857D01*
X153526428Y-58457857D01*
X153478809Y-58481666D01*
X153455000Y-58505476D01*
X153431190Y-58553095D01*
X153431190Y-58695952D01*
X153455000Y-58743571D01*
X153478809Y-58767380D01*
X153526428Y-58791190D01*
X153597857Y-58791190D01*
X153216904Y-58600714D02*
X152835952Y-58600714D01*
X152502619Y-58291190D02*
X152407380Y-58291190D01*
X152359761Y-58315000D01*
X152312142Y-58362619D01*
X152288333Y-58457857D01*
X152288333Y-58624523D01*
X152312142Y-58719761D01*
X152359761Y-58767380D01*
X152407380Y-58791190D01*
X152502619Y-58791190D01*
X152550238Y-58767380D01*
X152597857Y-58719761D01*
X152621666Y-58624523D01*
X152621666Y-58457857D01*
X152597857Y-58362619D01*
X152550238Y-58315000D01*
X152502619Y-58291190D01*
X151859761Y-58457857D02*
X151859761Y-58791190D01*
X152074047Y-58457857D02*
X152074047Y-58719761D01*
X152050238Y-58767380D01*
X152002619Y-58791190D01*
X151931190Y-58791190D01*
X151883571Y-58767380D01*
X151859761Y-58743571D01*
X151693095Y-58457857D02*
X151502619Y-58457857D01*
X151621666Y-58291190D02*
X151621666Y-58719761D01*
X151597857Y-58767380D01*
X151550238Y-58791190D01*
X151502619Y-58791190D01*
X150693095Y-58315000D02*
X150740714Y-58291190D01*
X150812142Y-58291190D01*
X150883571Y-58315000D01*
X150931190Y-58362619D01*
X150955000Y-58410238D01*
X150978809Y-58505476D01*
X150978809Y-58576904D01*
X150955000Y-58672142D01*
X150931190Y-58719761D01*
X150883571Y-58767380D01*
X150812142Y-58791190D01*
X150764523Y-58791190D01*
X150693095Y-58767380D01*
X150669285Y-58743571D01*
X150669285Y-58576904D01*
X150764523Y-58576904D01*
X150455000Y-58457857D02*
X150455000Y-58791190D01*
X150455000Y-58505476D02*
X150431190Y-58481666D01*
X150383571Y-58457857D01*
X150312142Y-58457857D01*
X150264523Y-58481666D01*
X150240714Y-58529285D01*
X150240714Y-58791190D01*
X149788333Y-58791190D02*
X149788333Y-58291190D01*
X149788333Y-58767380D02*
X149835952Y-58791190D01*
X149931190Y-58791190D01*
X149978809Y-58767380D01*
X150002619Y-58743571D01*
X150026428Y-58695952D01*
X150026428Y-58553095D01*
X150002619Y-58505476D01*
X149978809Y-58481666D01*
X149931190Y-58457857D01*
X149835952Y-58457857D01*
X149788333Y-58481666D01*
D11*
X110410952Y-56817619D02*
X110363333Y-56770000D01*
X110268095Y-56722380D01*
X110030000Y-56722380D01*
X109934761Y-56770000D01*
X109887142Y-56817619D01*
X109839523Y-56912857D01*
X109839523Y-57008095D01*
X109887142Y-57150952D01*
X110458571Y-57722380D01*
X109839523Y-57722380D01*
X109125238Y-58103333D02*
X109172857Y-58055714D01*
X109268095Y-57912857D01*
X109315714Y-57817619D01*
X109363333Y-57674761D01*
X109410952Y-57436666D01*
X109410952Y-57246190D01*
X109363333Y-57008095D01*
X109315714Y-56865238D01*
X109268095Y-56770000D01*
X109172857Y-56627142D01*
X109125238Y-56579523D01*
X108887142Y-56722380D02*
X108553809Y-57722380D01*
X108220476Y-56722380D01*
X107315714Y-57627142D02*
X107363333Y-57674761D01*
X107506190Y-57722380D01*
X107601428Y-57722380D01*
X107744285Y-57674761D01*
X107839523Y-57579523D01*
X107887142Y-57484285D01*
X107934761Y-57293809D01*
X107934761Y-57150952D01*
X107887142Y-56960476D01*
X107839523Y-56865238D01*
X107744285Y-56770000D01*
X107601428Y-56722380D01*
X107506190Y-56722380D01*
X107363333Y-56770000D01*
X107315714Y-56817619D01*
X106315714Y-57627142D02*
X106363333Y-57674761D01*
X106506190Y-57722380D01*
X106601428Y-57722380D01*
X106744285Y-57674761D01*
X106839523Y-57579523D01*
X106887142Y-57484285D01*
X106934761Y-57293809D01*
X106934761Y-57150952D01*
X106887142Y-56960476D01*
X106839523Y-56865238D01*
X106744285Y-56770000D01*
X106601428Y-56722380D01*
X106506190Y-56722380D01*
X106363333Y-56770000D01*
X106315714Y-56817619D01*
X105982380Y-58103333D02*
X105934761Y-58055714D01*
X105839523Y-57912857D01*
X105791904Y-57817619D01*
X105744285Y-57674761D01*
X105696666Y-57436666D01*
X105696666Y-57246190D01*
X105744285Y-57008095D01*
X105791904Y-56865238D01*
X105839523Y-56770000D01*
X105934761Y-56627142D01*
X105982380Y-56579523D01*
X109839523Y-55182380D02*
X110410952Y-55182380D01*
X110125238Y-55182380D02*
X110125238Y-54182380D01*
X110220476Y-54325238D01*
X110315714Y-54420476D01*
X110410952Y-54468095D01*
X109125238Y-55563333D02*
X109172857Y-55515714D01*
X109268095Y-55372857D01*
X109315714Y-55277619D01*
X109363333Y-55134761D01*
X109410952Y-54896666D01*
X109410952Y-54706190D01*
X109363333Y-54468095D01*
X109315714Y-54325238D01*
X109268095Y-54230000D01*
X109172857Y-54087142D01*
X109125238Y-54039523D01*
X108887142Y-54182380D02*
X108553809Y-55182380D01*
X108220476Y-54182380D01*
X107315714Y-55087142D02*
X107363333Y-55134761D01*
X107506190Y-55182380D01*
X107601428Y-55182380D01*
X107744285Y-55134761D01*
X107839523Y-55039523D01*
X107887142Y-54944285D01*
X107934761Y-54753809D01*
X107934761Y-54610952D01*
X107887142Y-54420476D01*
X107839523Y-54325238D01*
X107744285Y-54230000D01*
X107601428Y-54182380D01*
X107506190Y-54182380D01*
X107363333Y-54230000D01*
X107315714Y-54277619D01*
X106315714Y-55087142D02*
X106363333Y-55134761D01*
X106506190Y-55182380D01*
X106601428Y-55182380D01*
X106744285Y-55134761D01*
X106839523Y-55039523D01*
X106887142Y-54944285D01*
X106934761Y-54753809D01*
X106934761Y-54610952D01*
X106887142Y-54420476D01*
X106839523Y-54325238D01*
X106744285Y-54230000D01*
X106601428Y-54182380D01*
X106506190Y-54182380D01*
X106363333Y-54230000D01*
X106315714Y-54277619D01*
X105982380Y-55563333D02*
X105934761Y-55515714D01*
X105839523Y-55372857D01*
X105791904Y-55277619D01*
X105744285Y-55134761D01*
X105696666Y-54896666D01*
X105696666Y-54706190D01*
X105744285Y-54468095D01*
X105791904Y-54325238D01*
X105839523Y-54230000D01*
X105934761Y-54087142D01*
X105982380Y-54039523D01*
X100346190Y-56817619D02*
X100298571Y-56770000D01*
X100203333Y-56722380D01*
X99965238Y-56722380D01*
X99870000Y-56770000D01*
X99822380Y-56817619D01*
X99774761Y-56912857D01*
X99774761Y-57008095D01*
X99822380Y-57150952D01*
X100393809Y-57722380D01*
X99774761Y-57722380D01*
X99060476Y-58103333D02*
X99108095Y-58055714D01*
X99203333Y-57912857D01*
X99250952Y-57817619D01*
X99298571Y-57674761D01*
X99346190Y-57436666D01*
X99346190Y-57246190D01*
X99298571Y-57008095D01*
X99250952Y-56865238D01*
X99203333Y-56770000D01*
X99108095Y-56627142D01*
X99060476Y-56579523D01*
X98155714Y-56770000D02*
X98250952Y-56722380D01*
X98393809Y-56722380D01*
X98536666Y-56770000D01*
X98631904Y-56865238D01*
X98679523Y-56960476D01*
X98727142Y-57150952D01*
X98727142Y-57293809D01*
X98679523Y-57484285D01*
X98631904Y-57579523D01*
X98536666Y-57674761D01*
X98393809Y-57722380D01*
X98298571Y-57722380D01*
X98155714Y-57674761D01*
X98108095Y-57627142D01*
X98108095Y-57293809D01*
X98298571Y-57293809D01*
X97679523Y-57722380D02*
X97679523Y-56722380D01*
X97108095Y-57722380D01*
X97108095Y-56722380D01*
X96631904Y-57722380D02*
X96631904Y-56722380D01*
X96393809Y-56722380D01*
X96250952Y-56770000D01*
X96155714Y-56865238D01*
X96108095Y-56960476D01*
X96060476Y-57150952D01*
X96060476Y-57293809D01*
X96108095Y-57484285D01*
X96155714Y-57579523D01*
X96250952Y-57674761D01*
X96393809Y-57722380D01*
X96631904Y-57722380D01*
X95727142Y-58103333D02*
X95679523Y-58055714D01*
X95584285Y-57912857D01*
X95536666Y-57817619D01*
X95489047Y-57674761D01*
X95441428Y-57436666D01*
X95441428Y-57246190D01*
X95489047Y-57008095D01*
X95536666Y-56865238D01*
X95584285Y-56770000D01*
X95679523Y-56627142D01*
X95727142Y-56579523D01*
X99774761Y-55182380D02*
X100346190Y-55182380D01*
X100060476Y-55182380D02*
X100060476Y-54182380D01*
X100155714Y-54325238D01*
X100250952Y-54420476D01*
X100346190Y-54468095D01*
X99060476Y-55563333D02*
X99108095Y-55515714D01*
X99203333Y-55372857D01*
X99250952Y-55277619D01*
X99298571Y-55134761D01*
X99346190Y-54896666D01*
X99346190Y-54706190D01*
X99298571Y-54468095D01*
X99250952Y-54325238D01*
X99203333Y-54230000D01*
X99108095Y-54087142D01*
X99060476Y-54039523D01*
X98155714Y-54230000D02*
X98250952Y-54182380D01*
X98393809Y-54182380D01*
X98536666Y-54230000D01*
X98631904Y-54325238D01*
X98679523Y-54420476D01*
X98727142Y-54610952D01*
X98727142Y-54753809D01*
X98679523Y-54944285D01*
X98631904Y-55039523D01*
X98536666Y-55134761D01*
X98393809Y-55182380D01*
X98298571Y-55182380D01*
X98155714Y-55134761D01*
X98108095Y-55087142D01*
X98108095Y-54753809D01*
X98298571Y-54753809D01*
X97679523Y-55182380D02*
X97679523Y-54182380D01*
X97108095Y-55182380D01*
X97108095Y-54182380D01*
X96631904Y-55182380D02*
X96631904Y-54182380D01*
X96393809Y-54182380D01*
X96250952Y-54230000D01*
X96155714Y-54325238D01*
X96108095Y-54420476D01*
X96060476Y-54610952D01*
X96060476Y-54753809D01*
X96108095Y-54944285D01*
X96155714Y-55039523D01*
X96250952Y-55134761D01*
X96393809Y-55182380D01*
X96631904Y-55182380D01*
X95727142Y-55563333D02*
X95679523Y-55515714D01*
X95584285Y-55372857D01*
X95536666Y-55277619D01*
X95489047Y-55134761D01*
X95441428Y-54896666D01*
X95441428Y-54706190D01*
X95489047Y-54468095D01*
X95536666Y-54325238D01*
X95584285Y-54230000D01*
X95679523Y-54087142D01*
X95727142Y-54039523D01*
X102370000Y-64837500D02*
X102441428Y-64801785D01*
X102548571Y-64801785D01*
X102655714Y-64837500D01*
X102727142Y-64908928D01*
X102762857Y-64980357D01*
X102798571Y-65123214D01*
X102798571Y-65230357D01*
X102762857Y-65373214D01*
X102727142Y-65444642D01*
X102655714Y-65516071D01*
X102548571Y-65551785D01*
X102477142Y-65551785D01*
X102370000Y-65516071D01*
X102334285Y-65480357D01*
X102334285Y-65230357D01*
X102477142Y-65230357D01*
X102012857Y-65551785D02*
X102012857Y-64801785D01*
X101727142Y-64801785D01*
X101655714Y-64837500D01*
X101620000Y-64873214D01*
X101584285Y-64944642D01*
X101584285Y-65051785D01*
X101620000Y-65123214D01*
X101655714Y-65158928D01*
X101727142Y-65194642D01*
X102012857Y-65194642D01*
X101262857Y-65551785D02*
X101262857Y-64801785D01*
X100762857Y-64801785D02*
X100620000Y-64801785D01*
X100548571Y-64837500D01*
X100477142Y-64908928D01*
X100441428Y-65051785D01*
X100441428Y-65301785D01*
X100477142Y-65444642D01*
X100548571Y-65516071D01*
X100620000Y-65551785D01*
X100762857Y-65551785D01*
X100834285Y-65516071D01*
X100905714Y-65444642D01*
X100941428Y-65301785D01*
X100941428Y-65051785D01*
X100905714Y-64908928D01*
X100834285Y-64837500D01*
X100762857Y-64801785D01*
X103834285Y-66826785D02*
X104262857Y-66826785D01*
X104048571Y-66826785D02*
X104048571Y-66076785D01*
X104120000Y-66183928D01*
X104191428Y-66255357D01*
X104262857Y-66291071D01*
X101834285Y-66148214D02*
X101798571Y-66112500D01*
X101727142Y-66076785D01*
X101548571Y-66076785D01*
X101477142Y-66112500D01*
X101441428Y-66148214D01*
X101405714Y-66219642D01*
X101405714Y-66291071D01*
X101441428Y-66398214D01*
X101870000Y-66826785D01*
X101405714Y-66826785D01*
X99441428Y-66076785D02*
X98977142Y-66076785D01*
X99227142Y-66362500D01*
X99120000Y-66362500D01*
X99048571Y-66398214D01*
X99012857Y-66433928D01*
X98977142Y-66505357D01*
X98977142Y-66683928D01*
X99012857Y-66755357D01*
X99048571Y-66791071D01*
X99120000Y-66826785D01*
X99334285Y-66826785D01*
X99405714Y-66791071D01*
X99441428Y-66755357D01*
X92270000Y-63207142D02*
X92231904Y-63130952D01*
X92231904Y-63016666D01*
X92270000Y-62902380D01*
X92346190Y-62826190D01*
X92422380Y-62788095D01*
X92574761Y-62750000D01*
X92689047Y-62750000D01*
X92841428Y-62788095D01*
X92917619Y-62826190D01*
X92993809Y-62902380D01*
X93031904Y-63016666D01*
X93031904Y-63092857D01*
X92993809Y-63207142D01*
X92955714Y-63245238D01*
X92689047Y-63245238D01*
X92689047Y-63092857D01*
X92498571Y-63588095D02*
X93031904Y-63588095D01*
X92574761Y-63588095D02*
X92536666Y-63626190D01*
X92498571Y-63702380D01*
X92498571Y-63816666D01*
X92536666Y-63892857D01*
X92612857Y-63930952D01*
X93031904Y-63930952D01*
X93031904Y-64654761D02*
X92231904Y-64654761D01*
X92993809Y-64654761D02*
X93031904Y-64578571D01*
X93031904Y-64426190D01*
X92993809Y-64350000D01*
X92955714Y-64311904D01*
X92879523Y-64273809D01*
X92650952Y-64273809D01*
X92574761Y-64311904D01*
X92536666Y-64350000D01*
X92498571Y-64426190D01*
X92498571Y-64578571D01*
X92536666Y-64654761D01*
X93031904Y-65645238D02*
X92231904Y-65645238D01*
X92231904Y-65835714D01*
X92270000Y-65950000D01*
X92346190Y-66026190D01*
X92422380Y-66064285D01*
X92574761Y-66102380D01*
X92689047Y-66102380D01*
X92841428Y-66064285D01*
X92917619Y-66026190D01*
X92993809Y-65950000D01*
X93031904Y-65835714D01*
X93031904Y-65645238D01*
X92727142Y-66445238D02*
X92727142Y-67054761D01*
X93031904Y-66750000D02*
X92422380Y-66750000D01*
X93031904Y-68045238D02*
X92231904Y-68045238D01*
X92231904Y-68235714D01*
X92270000Y-68350000D01*
X92346190Y-68426190D01*
X92422380Y-68464285D01*
X92574761Y-68502380D01*
X92689047Y-68502380D01*
X92841428Y-68464285D01*
X92917619Y-68426190D01*
X92993809Y-68350000D01*
X93031904Y-68235714D01*
X93031904Y-68045238D01*
X92727142Y-68845238D02*
X92727142Y-69454761D01*
X92231904Y-70826190D02*
X92231904Y-70445238D01*
X92612857Y-70407142D01*
X92574761Y-70445238D01*
X92536666Y-70521428D01*
X92536666Y-70711904D01*
X92574761Y-70788095D01*
X92612857Y-70826190D01*
X92689047Y-70864285D01*
X92879523Y-70864285D01*
X92955714Y-70826190D01*
X92993809Y-70788095D01*
X93031904Y-70711904D01*
X93031904Y-70521428D01*
X92993809Y-70445238D01*
X92955714Y-70407142D01*
X92231904Y-71092857D02*
X93031904Y-71359523D01*
X92231904Y-71626190D01*
D12*
X164564113Y-55650000D02*
G75*
G03*
X164564113Y-55650000I-3394113J0D01*
G01*
X164564113Y-80650000D02*
G75*
G03*
X164564113Y-80650000I-3394113J0D01*
G01*
X92564113Y-80650000D02*
G75*
G03*
X92564113Y-80650000I-3394113J0D01*
G01*
X92564113Y-55650000D02*
G75*
G03*
X92564113Y-55650000I-3394113J0D01*
G01*
D10*
X118473571Y-51651571D02*
X118366428Y-51687285D01*
X118187857Y-51687285D01*
X118116428Y-51651571D01*
X118080714Y-51615857D01*
X118045000Y-51544428D01*
X118045000Y-51473000D01*
X118080714Y-51401571D01*
X118116428Y-51365857D01*
X118187857Y-51330142D01*
X118330714Y-51294428D01*
X118402142Y-51258714D01*
X118437857Y-51223000D01*
X118473571Y-51151571D01*
X118473571Y-51080142D01*
X118437857Y-51008714D01*
X118402142Y-50973000D01*
X118330714Y-50937285D01*
X118152142Y-50937285D01*
X118045000Y-50973000D01*
X117723571Y-51687285D02*
X117723571Y-50937285D01*
X117545000Y-50937285D01*
X117437857Y-50973000D01*
X117366428Y-51044428D01*
X117330714Y-51115857D01*
X117295000Y-51258714D01*
X117295000Y-51365857D01*
X117330714Y-51508714D01*
X117366428Y-51580142D01*
X117437857Y-51651571D01*
X117545000Y-51687285D01*
X117723571Y-51687285D01*
X117009285Y-51473000D02*
X116652142Y-51473000D01*
X117080714Y-51687285D02*
X116830714Y-50937285D01*
X116580714Y-51687285D01*
X115795000Y-51651571D02*
X115687857Y-51687285D01*
X115509285Y-51687285D01*
X115437857Y-51651571D01*
X115402142Y-51615857D01*
X115366428Y-51544428D01*
X115366428Y-51473000D01*
X115402142Y-51401571D01*
X115437857Y-51365857D01*
X115509285Y-51330142D01*
X115652142Y-51294428D01*
X115723571Y-51258714D01*
X115759285Y-51223000D01*
X115795000Y-51151571D01*
X115795000Y-51080142D01*
X115759285Y-51008714D01*
X115723571Y-50973000D01*
X115652142Y-50937285D01*
X115473571Y-50937285D01*
X115366428Y-50973000D01*
X114616428Y-51615857D02*
X114652142Y-51651571D01*
X114759285Y-51687285D01*
X114830714Y-51687285D01*
X114937857Y-51651571D01*
X115009285Y-51580142D01*
X115045000Y-51508714D01*
X115080714Y-51365857D01*
X115080714Y-51258714D01*
X115045000Y-51115857D01*
X115009285Y-51044428D01*
X114937857Y-50973000D01*
X114830714Y-50937285D01*
X114759285Y-50937285D01*
X114652142Y-50973000D01*
X114616428Y-51008714D01*
X113937857Y-51687285D02*
X114295000Y-51687285D01*
X114295000Y-50937285D01*
X113116428Y-51687285D02*
X113116428Y-50937285D01*
X112830714Y-50937285D01*
X112759285Y-50973000D01*
X112723571Y-51008714D01*
X112687857Y-51080142D01*
X112687857Y-51187285D01*
X112723571Y-51258714D01*
X112759285Y-51294428D01*
X112830714Y-51330142D01*
X113116428Y-51330142D01*
X112366428Y-51687285D02*
X112366428Y-51187285D01*
X112366428Y-50937285D02*
X112402142Y-50973000D01*
X112366428Y-51008714D01*
X112330714Y-50973000D01*
X112366428Y-50937285D01*
X112366428Y-51008714D01*
X112009285Y-51187285D02*
X112009285Y-51687285D01*
X112009285Y-51258714D02*
X111973571Y-51223000D01*
X111902142Y-51187285D01*
X111795000Y-51187285D01*
X111723571Y-51223000D01*
X111687857Y-51294428D01*
X111687857Y-51687285D01*
X111366428Y-51008714D02*
X111330714Y-50973000D01*
X111259285Y-50937285D01*
X111080714Y-50937285D01*
X111009285Y-50973000D01*
X110973571Y-51008714D01*
X110937857Y-51080142D01*
X110937857Y-51151571D01*
X110973571Y-51258714D01*
X111402142Y-51687285D01*
X110937857Y-51687285D01*
X110045000Y-51687285D02*
X110045000Y-50937285D01*
X109759285Y-50937285D01*
X109687857Y-50973000D01*
X109652142Y-51008714D01*
X109616428Y-51080142D01*
X109616428Y-51187285D01*
X109652142Y-51258714D01*
X109687857Y-51294428D01*
X109759285Y-51330142D01*
X110045000Y-51330142D01*
X109295000Y-51687285D02*
X109295000Y-51187285D01*
X109295000Y-50937285D02*
X109330714Y-50973000D01*
X109295000Y-51008714D01*
X109259285Y-50973000D01*
X109295000Y-50937285D01*
X109295000Y-51008714D01*
X108937857Y-51187285D02*
X108937857Y-51687285D01*
X108937857Y-51258714D02*
X108902142Y-51223000D01*
X108830714Y-51187285D01*
X108723571Y-51187285D01*
X108652142Y-51223000D01*
X108616428Y-51294428D01*
X108616428Y-51687285D01*
X107866428Y-51687285D02*
X108295000Y-51687285D01*
X108080714Y-51687285D02*
X108080714Y-50937285D01*
X108152142Y-51044428D01*
X108223571Y-51115857D01*
X108295000Y-51151571D01*
D13*
X127828571Y-81443571D02*
X128328571Y-80729285D01*
X128685714Y-81443571D02*
X128685714Y-79943571D01*
X128114285Y-79943571D01*
X127971428Y-80015000D01*
X127900000Y-80086428D01*
X127828571Y-80229285D01*
X127828571Y-80443571D01*
X127900000Y-80586428D01*
X127971428Y-80657857D01*
X128114285Y-80729285D01*
X128685714Y-80729285D01*
X127185714Y-80657857D02*
X126685714Y-80657857D01*
X126471428Y-81443571D02*
X127185714Y-81443571D01*
X127185714Y-79943571D01*
X126471428Y-79943571D01*
X125900000Y-81372142D02*
X125685714Y-81443571D01*
X125328571Y-81443571D01*
X125185714Y-81372142D01*
X125114285Y-81300714D01*
X125042857Y-81157857D01*
X125042857Y-81015000D01*
X125114285Y-80872142D01*
X125185714Y-80800714D01*
X125328571Y-80729285D01*
X125614285Y-80657857D01*
X125757142Y-80586428D01*
X125828571Y-80515000D01*
X125900000Y-80372142D01*
X125900000Y-80229285D01*
X125828571Y-80086428D01*
X125757142Y-80015000D01*
X125614285Y-79943571D01*
X125257142Y-79943571D01*
X125042857Y-80015000D01*
X124400000Y-80657857D02*
X123900000Y-80657857D01*
X123685714Y-81443571D02*
X124400000Y-81443571D01*
X124400000Y-79943571D01*
X123685714Y-79943571D01*
X123257142Y-79943571D02*
X122400000Y-79943571D01*
X122828571Y-81443571D02*
X122828571Y-79943571D01*
D12*
X102889000Y-81290580D02*
X102889000Y-81009420D01*
X103909000Y-81290580D02*
X103909000Y-81009420D01*
X159252420Y-62580000D02*
X159533580Y-62580000D01*
X159252420Y-61560000D02*
X159533580Y-61560000D01*
X119133420Y-71978000D02*
X119414580Y-71978000D01*
X119133420Y-70958000D02*
X119414580Y-70958000D01*
X137876000Y-52612000D02*
X136546000Y-52612000D01*
X137876000Y-53942000D02*
X137876000Y-52612000D01*
X135276000Y-52612000D02*
X132676000Y-52612000D01*
X135276000Y-55212000D02*
X135276000Y-52612000D01*
X137876000Y-55212000D02*
X135276000Y-55212000D01*
X132676000Y-52612000D02*
X132676000Y-60352000D01*
X137876000Y-55212000D02*
X137876000Y-60352000D01*
X137876000Y-60352000D02*
X132676000Y-60352000D01*
X118067487Y-54669060D02*
X120400940Y-57002513D01*
X120400940Y-57002513D02*
X117572513Y-59830940D01*
X100750000Y-79500000D02*
X100750000Y-82800000D01*
X100750000Y-82800000D02*
X96750000Y-82800000D01*
X108480000Y-75350000D02*
X108480000Y-78800000D01*
X108480000Y-75350000D02*
X108480000Y-73400000D01*
X98360000Y-75350000D02*
X98360000Y-77300000D01*
X98360000Y-75350000D02*
X98360000Y-73400000D01*
D11*
X111820000Y-61725000D02*
X111820000Y-60300000D01*
X111595000Y-68975000D02*
X111595000Y-68650000D01*
X118845000Y-68975000D02*
X118845000Y-68650000D01*
X118845000Y-61725000D02*
X118845000Y-62050000D01*
X111595000Y-61725000D02*
X111595000Y-62050000D01*
X118845000Y-61725000D02*
X118520000Y-61725000D01*
X118845000Y-68975000D02*
X118520000Y-68975000D01*
X111595000Y-68975000D02*
X111920000Y-68975000D01*
X111595000Y-61725000D02*
X111820000Y-61725000D01*
D12*
X95770000Y-74850000D02*
X91870000Y-74850000D01*
X95770000Y-76850000D02*
X91870000Y-76850000D01*
X95770000Y-74850000D02*
X95770000Y-76850000D01*
X115384970Y-55204781D02*
X115583781Y-55005970D01*
X116106219Y-55926030D02*
X116305030Y-55727219D01*
X120043219Y-54497970D02*
X120242030Y-54696781D01*
X119321970Y-55219219D02*
X119520781Y-55418030D01*
X96260000Y-81009420D02*
X96260000Y-81290580D01*
X95240000Y-81009420D02*
X95240000Y-81290580D01*
X102260000Y-81009420D02*
X102260000Y-81290580D01*
X101240000Y-81009420D02*
X101240000Y-81290580D01*
X112810580Y-58770000D02*
X112529420Y-58770000D01*
X112810580Y-57750000D02*
X112529420Y-57750000D01*
X112529420Y-56226000D02*
X112810580Y-56226000D01*
X112529420Y-57246000D02*
X112810580Y-57246000D01*
X115960580Y-73360000D02*
X115679420Y-73360000D01*
X115960580Y-72340000D02*
X115679420Y-72340000D01*
X115679420Y-74260000D02*
X115960580Y-74260000D01*
X115679420Y-75280000D02*
X115960580Y-75280000D01*
X107930000Y-80891422D02*
X107930000Y-81408578D01*
X106510000Y-80891422D02*
X106510000Y-81408578D01*
X104610000Y-81408578D02*
X104610000Y-80891422D01*
X106030000Y-81408578D02*
X106030000Y-80891422D01*
X122225000Y-76145000D02*
X122225000Y-74645000D01*
X123475000Y-72145000D02*
X127975000Y-72145000D01*
X129225000Y-74645000D02*
X129225000Y-76145000D01*
X127975000Y-78645000D02*
X123475000Y-78645000D01*
X118810000Y-75908578D02*
X118810000Y-75391422D01*
X120230000Y-75908578D02*
X120230000Y-75391422D01*
X100900000Y-55730000D02*
X105000000Y-55730000D01*
X105000000Y-55730000D02*
X105000000Y-53730000D01*
X105000000Y-53730000D02*
X100900000Y-53730000D01*
X100900000Y-53730000D02*
X100900000Y-55730000D01*
X101650000Y-53530000D02*
X101350000Y-53230000D01*
X101350000Y-53230000D02*
X101950000Y-53230000D01*
X101650000Y-53530000D02*
X101950000Y-53230000D01*
X105000000Y-56270000D02*
X100900000Y-56270000D01*
X100900000Y-56270000D02*
X100900000Y-58270000D01*
X100900000Y-58270000D02*
X105000000Y-58270000D01*
X105000000Y-58270000D02*
X105000000Y-56270000D01*
X104250000Y-58470000D02*
X104550000Y-58770000D01*
X104550000Y-58770000D02*
X103950000Y-58770000D01*
X104250000Y-58470000D02*
X103950000Y-58770000D01*
X154445000Y-61775000D02*
X154445000Y-60445000D01*
X153115000Y-61775000D02*
X154445000Y-61775000D01*
X151845000Y-61775000D02*
X151845000Y-59115000D01*
X151845000Y-59115000D02*
X149245000Y-59115000D01*
X151845000Y-61775000D02*
X149245000Y-61775000D01*
X149245000Y-61775000D02*
X149245000Y-59115000D01*
X93340000Y-72290000D02*
X94670000Y-72290000D01*
X93340000Y-70960000D02*
X93340000Y-72290000D01*
X93340000Y-69690000D02*
X96000000Y-69690000D01*
X96000000Y-69690000D02*
X96000000Y-62010000D01*
X93340000Y-69690000D02*
X93340000Y-62010000D01*
X93340000Y-62010000D02*
X96000000Y-62010000D01*
X90232500Y-68850000D02*
X89782500Y-68850000D01*
X90232500Y-68850000D02*
X90232500Y-68400000D01*
X89682500Y-63250000D02*
X89682500Y-63700000D01*
X87832500Y-63250000D02*
X89682500Y-63250000D01*
X85282500Y-71050000D02*
X85532500Y-71050000D01*
X85282500Y-63250000D02*
X85532500Y-63250000D01*
X87832500Y-71050000D02*
X89682500Y-71050000D01*
X89682500Y-71050000D02*
X89682500Y-70600000D01*
X105500000Y-69980000D02*
X105500000Y-68650000D01*
X104170000Y-69980000D02*
X105500000Y-69980000D01*
X102900000Y-69980000D02*
X102900000Y-67320000D01*
X102900000Y-67320000D02*
X97760000Y-67320000D01*
X102900000Y-69980000D02*
X97760000Y-69980000D01*
X97760000Y-69980000D02*
X97760000Y-67320000D01*
D10*
X103849000Y-83700000D02*
X103882333Y-83733333D01*
X103982333Y-83766666D01*
X104049000Y-83766666D01*
X104149000Y-83733333D01*
X104215666Y-83666666D01*
X104249000Y-83600000D01*
X104282333Y-83466666D01*
X104282333Y-83366666D01*
X104249000Y-83233333D01*
X104215666Y-83166666D01*
X104149000Y-83100000D01*
X104049000Y-83066666D01*
X103982333Y-83066666D01*
X103882333Y-83100000D01*
X103849000Y-83133333D01*
X103182333Y-83766666D02*
X103582333Y-83766666D01*
X103382333Y-83766666D02*
X103382333Y-83066666D01*
X103449000Y-83166666D01*
X103515666Y-83233333D01*
X103582333Y-83266666D01*
X102515666Y-83766666D02*
X102915666Y-83766666D01*
X102715666Y-83766666D02*
X102715666Y-83066666D01*
X102782333Y-83166666D01*
X102849000Y-83233333D01*
X102915666Y-83266666D01*
D11*
X160035857Y-63857142D02*
X160083476Y-63904761D01*
X160226333Y-63952380D01*
X160321571Y-63952380D01*
X160464428Y-63904761D01*
X160559666Y-63809523D01*
X160607285Y-63714285D01*
X160654904Y-63523809D01*
X160654904Y-63380952D01*
X160607285Y-63190476D01*
X160559666Y-63095238D01*
X160464428Y-63000000D01*
X160321571Y-62952380D01*
X160226333Y-62952380D01*
X160083476Y-63000000D01*
X160035857Y-63047619D01*
X159083476Y-63952380D02*
X159654904Y-63952380D01*
X159369190Y-63952380D02*
X159369190Y-62952380D01*
X159464428Y-63095238D01*
X159559666Y-63190476D01*
X159654904Y-63238095D01*
X158464428Y-62952380D02*
X158369190Y-62952380D01*
X158273952Y-63000000D01*
X158226333Y-63047619D01*
X158178714Y-63142857D01*
X158131095Y-63333333D01*
X158131095Y-63571428D01*
X158178714Y-63761904D01*
X158226333Y-63857142D01*
X158273952Y-63904761D01*
X158369190Y-63952380D01*
X158464428Y-63952380D01*
X158559666Y-63904761D01*
X158607285Y-63857142D01*
X158654904Y-63761904D01*
X158702523Y-63571428D01*
X158702523Y-63333333D01*
X158654904Y-63142857D01*
X158607285Y-63047619D01*
X158559666Y-63000000D01*
X158464428Y-62952380D01*
X119440666Y-73255142D02*
X119488285Y-73302761D01*
X119631142Y-73350380D01*
X119726380Y-73350380D01*
X119869238Y-73302761D01*
X119964476Y-73207523D01*
X120012095Y-73112285D01*
X120059714Y-72921809D01*
X120059714Y-72778952D01*
X120012095Y-72588476D01*
X119964476Y-72493238D01*
X119869238Y-72398000D01*
X119726380Y-72350380D01*
X119631142Y-72350380D01*
X119488285Y-72398000D01*
X119440666Y-72445619D01*
X118964476Y-73350380D02*
X118774000Y-73350380D01*
X118678761Y-73302761D01*
X118631142Y-73255142D01*
X118535904Y-73112285D01*
X118488285Y-72921809D01*
X118488285Y-72540857D01*
X118535904Y-72445619D01*
X118583523Y-72398000D01*
X118678761Y-72350380D01*
X118869238Y-72350380D01*
X118964476Y-72398000D01*
X119012095Y-72445619D01*
X119059714Y-72540857D01*
X119059714Y-72778952D01*
X119012095Y-72874190D01*
X118964476Y-72921809D01*
X118869238Y-72969428D01*
X118678761Y-72969428D01*
X118583523Y-72921809D01*
X118535904Y-72874190D01*
X118488285Y-72778952D01*
X135609333Y-51064380D02*
X135609333Y-51778666D01*
X135656952Y-51921523D01*
X135752190Y-52016761D01*
X135895047Y-52064380D01*
X135990285Y-52064380D01*
X135228380Y-51064380D02*
X134609333Y-51064380D01*
X134942666Y-51445333D01*
X134799809Y-51445333D01*
X134704571Y-51492952D01*
X134656952Y-51540571D01*
X134609333Y-51635809D01*
X134609333Y-51873904D01*
X134656952Y-51969142D01*
X134704571Y-52016761D01*
X134799809Y-52064380D01*
X135085523Y-52064380D01*
X135180761Y-52016761D01*
X135228380Y-51969142D01*
X120101881Y-58668446D02*
X120438599Y-59005164D01*
X119967194Y-58062355D02*
X120101881Y-58668446D01*
X119495790Y-58533759D01*
X119361103Y-58803133D02*
X119293759Y-58803133D01*
X119192744Y-58836805D01*
X119024385Y-59005164D01*
X118990713Y-59106179D01*
X118990713Y-59173522D01*
X119024385Y-59274538D01*
X119091729Y-59341881D01*
X119226416Y-59409225D01*
X120034538Y-59409225D01*
X119596805Y-59846957D01*
X99176190Y-83636190D02*
X99176190Y-84112380D01*
X99509523Y-83112380D02*
X99176190Y-83636190D01*
X98842857Y-83112380D01*
X97985714Y-84112380D02*
X98557142Y-84112380D01*
X98271428Y-84112380D02*
X98271428Y-83112380D01*
X98366666Y-83255238D01*
X98461904Y-83350476D01*
X98557142Y-83398095D01*
X104033904Y-74984380D02*
X104033904Y-75793904D01*
X103986285Y-75889142D01*
X103938666Y-75936761D01*
X103843428Y-75984380D01*
X103652952Y-75984380D01*
X103557714Y-75936761D01*
X103510095Y-75889142D01*
X103462476Y-75793904D01*
X103462476Y-74984380D01*
X102510095Y-74984380D02*
X102986285Y-74984380D01*
X103033904Y-75460571D01*
X102986285Y-75412952D01*
X102891047Y-75365333D01*
X102652952Y-75365333D01*
X102557714Y-75412952D01*
X102510095Y-75460571D01*
X102462476Y-75555809D01*
X102462476Y-75793904D01*
X102510095Y-75889142D01*
X102557714Y-75936761D01*
X102652952Y-75984380D01*
X102891047Y-75984380D01*
X102986285Y-75936761D01*
X103033904Y-75889142D01*
X115971904Y-64824380D02*
X115971904Y-65633904D01*
X115924285Y-65729142D01*
X115876666Y-65776761D01*
X115781428Y-65824380D01*
X115590952Y-65824380D01*
X115495714Y-65776761D01*
X115448095Y-65729142D01*
X115400476Y-65633904D01*
X115400476Y-64824380D01*
X114495714Y-65157714D02*
X114495714Y-65824380D01*
X114733809Y-64776761D02*
X114971904Y-65491047D01*
X114352857Y-65491047D01*
X94104095Y-78270380D02*
X94104095Y-77270380D01*
X93866000Y-77270380D01*
X93723142Y-77318000D01*
X93627904Y-77413238D01*
X93580285Y-77508476D01*
X93532666Y-77698952D01*
X93532666Y-77841809D01*
X93580285Y-78032285D01*
X93627904Y-78127523D01*
X93723142Y-78222761D01*
X93866000Y-78270380D01*
X94104095Y-78270380D01*
X93151714Y-77365619D02*
X93104095Y-77318000D01*
X93008857Y-77270380D01*
X92770761Y-77270380D01*
X92675523Y-77318000D01*
X92627904Y-77365619D01*
X92580285Y-77460857D01*
X92580285Y-77556095D01*
X92627904Y-77698952D01*
X93199333Y-78270380D01*
X92580285Y-78270380D01*
X115305389Y-54854687D02*
X115372732Y-54854687D01*
X115507419Y-54787343D01*
X115574763Y-54720000D01*
X115642106Y-54585312D01*
X115642106Y-54450625D01*
X115608435Y-54349610D01*
X115507419Y-54181251D01*
X115406404Y-54080236D01*
X115238045Y-53979221D01*
X115137030Y-53945549D01*
X115002343Y-53945549D01*
X114867656Y-54012893D01*
X114800312Y-54080236D01*
X114732969Y-54214923D01*
X114732969Y-54282267D01*
X114564610Y-54922030D02*
X114598282Y-54821015D01*
X114598282Y-54753671D01*
X114564610Y-54652656D01*
X114530938Y-54618984D01*
X114429923Y-54585312D01*
X114362580Y-54585312D01*
X114261564Y-54618984D01*
X114126877Y-54753671D01*
X114093206Y-54854687D01*
X114093206Y-54922030D01*
X114126877Y-55023045D01*
X114160549Y-55056717D01*
X114261564Y-55090389D01*
X114328908Y-55090389D01*
X114429923Y-55056717D01*
X114564610Y-54922030D01*
X114665625Y-54888358D01*
X114732969Y-54888358D01*
X114833984Y-54922030D01*
X114968671Y-55056717D01*
X115002343Y-55157732D01*
X115002343Y-55225076D01*
X114968671Y-55326091D01*
X114833984Y-55460778D01*
X114732969Y-55494450D01*
X114665625Y-55494450D01*
X114564610Y-55460778D01*
X114429923Y-55326091D01*
X114396251Y-55225076D01*
X114396251Y-55157732D01*
X114429923Y-55056717D01*
X120663312Y-54312389D02*
X120663312Y-54379732D01*
X120730656Y-54514419D01*
X120798000Y-54581763D01*
X120932687Y-54649106D01*
X121067374Y-54649106D01*
X121168389Y-54615435D01*
X121336748Y-54514419D01*
X121437763Y-54413404D01*
X121538778Y-54245045D01*
X121572450Y-54144030D01*
X121572450Y-54009343D01*
X121505106Y-53874656D01*
X121437763Y-53807312D01*
X121303076Y-53739969D01*
X121235732Y-53739969D01*
X121067374Y-53436923D02*
X120595969Y-52965519D01*
X120191908Y-53975671D01*
X95818666Y-83763142D02*
X95866285Y-83810761D01*
X96009142Y-83858380D01*
X96104380Y-83858380D01*
X96247238Y-83810761D01*
X96342476Y-83715523D01*
X96390095Y-83620285D01*
X96437714Y-83429809D01*
X96437714Y-83286952D01*
X96390095Y-83096476D01*
X96342476Y-83001238D01*
X96247238Y-82906000D01*
X96104380Y-82858380D01*
X96009142Y-82858380D01*
X95866285Y-82906000D01*
X95818666Y-82953619D01*
X94961523Y-82858380D02*
X95152000Y-82858380D01*
X95247238Y-82906000D01*
X95294857Y-82953619D01*
X95390095Y-83096476D01*
X95437714Y-83286952D01*
X95437714Y-83667904D01*
X95390095Y-83763142D01*
X95342476Y-83810761D01*
X95247238Y-83858380D01*
X95056761Y-83858380D01*
X94961523Y-83810761D01*
X94913904Y-83763142D01*
X94866285Y-83667904D01*
X94866285Y-83429809D01*
X94913904Y-83334571D01*
X94961523Y-83286952D01*
X95056761Y-83239333D01*
X95247238Y-83239333D01*
X95342476Y-83286952D01*
X95390095Y-83334571D01*
X95437714Y-83429809D01*
D10*
X101864666Y-83700000D02*
X101898000Y-83733333D01*
X101998000Y-83766666D01*
X102064666Y-83766666D01*
X102164666Y-83733333D01*
X102231333Y-83666666D01*
X102264666Y-83600000D01*
X102298000Y-83466666D01*
X102298000Y-83366666D01*
X102264666Y-83233333D01*
X102231333Y-83166666D01*
X102164666Y-83100000D01*
X102064666Y-83066666D01*
X101998000Y-83066666D01*
X101898000Y-83100000D01*
X101864666Y-83133333D01*
X101231333Y-83066666D02*
X101564666Y-83066666D01*
X101598000Y-83400000D01*
X101564666Y-83366666D01*
X101498000Y-83333333D01*
X101331333Y-83333333D01*
X101264666Y-83366666D01*
X101231333Y-83400000D01*
X101198000Y-83466666D01*
X101198000Y-83633333D01*
X101231333Y-83700000D01*
X101264666Y-83733333D01*
X101331333Y-83766666D01*
X101498000Y-83766666D01*
X101564666Y-83733333D01*
X101598000Y-83700000D01*
D11*
X112836666Y-59887142D02*
X112884285Y-59934761D01*
X113027142Y-59982380D01*
X113122380Y-59982380D01*
X113265238Y-59934761D01*
X113360476Y-59839523D01*
X113408095Y-59744285D01*
X113455714Y-59553809D01*
X113455714Y-59410952D01*
X113408095Y-59220476D01*
X113360476Y-59125238D01*
X113265238Y-59030000D01*
X113122380Y-58982380D01*
X113027142Y-58982380D01*
X112884285Y-59030000D01*
X112836666Y-59077619D01*
X111979523Y-59315714D02*
X111979523Y-59982380D01*
X112217619Y-58934761D02*
X112455714Y-59649047D01*
X111836666Y-59649047D01*
X112836666Y-55823142D02*
X112884285Y-55870761D01*
X113027142Y-55918380D01*
X113122380Y-55918380D01*
X113265238Y-55870761D01*
X113360476Y-55775523D01*
X113408095Y-55680285D01*
X113455714Y-55489809D01*
X113455714Y-55346952D01*
X113408095Y-55156476D01*
X113360476Y-55061238D01*
X113265238Y-54966000D01*
X113122380Y-54918380D01*
X113027142Y-54918380D01*
X112884285Y-54966000D01*
X112836666Y-55013619D01*
X112503333Y-54918380D02*
X111884285Y-54918380D01*
X112217619Y-55299333D01*
X112074761Y-55299333D01*
X111979523Y-55346952D01*
X111931904Y-55394571D01*
X111884285Y-55489809D01*
X111884285Y-55727904D01*
X111931904Y-55823142D01*
X111979523Y-55870761D01*
X112074761Y-55918380D01*
X112360476Y-55918380D01*
X112455714Y-55870761D01*
X112503333Y-55823142D01*
X114043142Y-72571333D02*
X114090761Y-72523714D01*
X114138380Y-72380857D01*
X114138380Y-72285619D01*
X114090761Y-72142761D01*
X113995523Y-72047523D01*
X113900285Y-71999904D01*
X113709809Y-71952285D01*
X113566952Y-71952285D01*
X113376476Y-71999904D01*
X113281238Y-72047523D01*
X113186000Y-72142761D01*
X113138380Y-72285619D01*
X113138380Y-72380857D01*
X113186000Y-72523714D01*
X113233619Y-72571333D01*
X113233619Y-72952285D02*
X113186000Y-72999904D01*
X113138380Y-73095142D01*
X113138380Y-73333238D01*
X113186000Y-73428476D01*
X113233619Y-73476095D01*
X113328857Y-73523714D01*
X113424095Y-73523714D01*
X113566952Y-73476095D01*
X114138380Y-72904666D01*
X114138380Y-73523714D01*
X114043142Y-74603333D02*
X114090761Y-74555714D01*
X114138380Y-74412857D01*
X114138380Y-74317619D01*
X114090761Y-74174761D01*
X113995523Y-74079523D01*
X113900285Y-74031904D01*
X113709809Y-73984285D01*
X113566952Y-73984285D01*
X113376476Y-74031904D01*
X113281238Y-74079523D01*
X113186000Y-74174761D01*
X113138380Y-74317619D01*
X113138380Y-74412857D01*
X113186000Y-74555714D01*
X113233619Y-74603333D01*
X114138380Y-75555714D02*
X114138380Y-74984285D01*
X114138380Y-75270000D02*
X113138380Y-75270000D01*
X113281238Y-75174761D01*
X113376476Y-75079523D01*
X113424095Y-74984285D01*
D10*
X107236666Y-83766666D02*
X107470000Y-83433333D01*
X107636666Y-83766666D02*
X107636666Y-83066666D01*
X107370000Y-83066666D01*
X107303333Y-83100000D01*
X107270000Y-83133333D01*
X107236666Y-83200000D01*
X107236666Y-83300000D01*
X107270000Y-83366666D01*
X107303333Y-83400000D01*
X107370000Y-83433333D01*
X107636666Y-83433333D01*
X106636666Y-83300000D02*
X106636666Y-83766666D01*
X106803333Y-83033333D02*
X106970000Y-83533333D01*
X106536666Y-83533333D01*
X105436666Y-83766666D02*
X105670000Y-83433333D01*
X105836666Y-83766666D02*
X105836666Y-83066666D01*
X105570000Y-83066666D01*
X105503333Y-83100000D01*
X105470000Y-83133333D01*
X105436666Y-83200000D01*
X105436666Y-83300000D01*
X105470000Y-83366666D01*
X105503333Y-83400000D01*
X105570000Y-83433333D01*
X105836666Y-83433333D01*
X105203333Y-83066666D02*
X104770000Y-83066666D01*
X105003333Y-83333333D01*
X104903333Y-83333333D01*
X104836666Y-83366666D01*
X104803333Y-83400000D01*
X104770000Y-83466666D01*
X104770000Y-83633333D01*
X104803333Y-83700000D01*
X104836666Y-83733333D01*
X104903333Y-83766666D01*
X105103333Y-83766666D01*
X105170000Y-83733333D01*
X105203333Y-83700000D01*
D11*
X127153333Y-76254761D02*
X127010476Y-76302380D01*
X126772380Y-76302380D01*
X126677142Y-76254761D01*
X126629523Y-76207142D01*
X126581904Y-76111904D01*
X126581904Y-76016666D01*
X126629523Y-75921428D01*
X126677142Y-75873809D01*
X126772380Y-75826190D01*
X126962857Y-75778571D01*
X127058095Y-75730952D01*
X127105714Y-75683333D01*
X127153333Y-75588095D01*
X127153333Y-75492857D01*
X127105714Y-75397619D01*
X127058095Y-75350000D01*
X126962857Y-75302380D01*
X126724761Y-75302380D01*
X126581904Y-75350000D01*
X126248571Y-75302380D02*
X126010476Y-76302380D01*
X125820000Y-75588095D01*
X125629523Y-76302380D01*
X125391428Y-75302380D01*
X124534285Y-75302380D02*
X125010476Y-75302380D01*
X125058095Y-75778571D01*
X125010476Y-75730952D01*
X124915238Y-75683333D01*
X124677142Y-75683333D01*
X124581904Y-75730952D01*
X124534285Y-75778571D01*
X124486666Y-75873809D01*
X124486666Y-76111904D01*
X124534285Y-76207142D01*
X124581904Y-76254761D01*
X124677142Y-76302380D01*
X124915238Y-76302380D01*
X125010476Y-76254761D01*
X125058095Y-76207142D01*
X119586666Y-78402380D02*
X119920000Y-77926190D01*
X120158095Y-78402380D02*
X120158095Y-77402380D01*
X119777142Y-77402380D01*
X119681904Y-77450000D01*
X119634285Y-77497619D01*
X119586666Y-77592857D01*
X119586666Y-77735714D01*
X119634285Y-77830952D01*
X119681904Y-77878571D01*
X119777142Y-77926190D01*
X120158095Y-77926190D01*
X118634285Y-78402380D02*
X119205714Y-78402380D01*
X118920000Y-78402380D02*
X118920000Y-77402380D01*
X119015238Y-77545238D01*
X119110476Y-77640476D01*
X119205714Y-77688095D01*
X154897380Y-60111666D02*
X155611666Y-60111666D01*
X155754523Y-60064047D01*
X155849761Y-59968809D01*
X155897380Y-59825952D01*
X155897380Y-59730714D01*
X155325952Y-60730714D02*
X155278333Y-60635476D01*
X155230714Y-60587857D01*
X155135476Y-60540238D01*
X155087857Y-60540238D01*
X154992619Y-60587857D01*
X154945000Y-60635476D01*
X154897380Y-60730714D01*
X154897380Y-60921190D01*
X154945000Y-61016428D01*
X154992619Y-61064047D01*
X155087857Y-61111666D01*
X155135476Y-61111666D01*
X155230714Y-61064047D01*
X155278333Y-61016428D01*
X155325952Y-60921190D01*
X155325952Y-60730714D01*
X155373571Y-60635476D01*
X155421190Y-60587857D01*
X155516428Y-60540238D01*
X155706904Y-60540238D01*
X155802142Y-60587857D01*
X155849761Y-60635476D01*
X155897380Y-60730714D01*
X155897380Y-60921190D01*
X155849761Y-61016428D01*
X155802142Y-61064047D01*
X155706904Y-61111666D01*
X155516428Y-61111666D01*
X155421190Y-61064047D01*
X155373571Y-61016428D01*
X155325952Y-60921190D01*
X95003333Y-72742380D02*
X95003333Y-73456666D01*
X95050952Y-73599523D01*
X95146190Y-73694761D01*
X95289047Y-73742380D01*
X95384285Y-73742380D01*
X94622380Y-72742380D02*
X93955714Y-72742380D01*
X94384285Y-73742380D01*
X90484880Y-66816666D02*
X91199166Y-66816666D01*
X91342023Y-66769047D01*
X91437261Y-66673809D01*
X91484880Y-66530952D01*
X91484880Y-66435714D01*
X91484880Y-67816666D02*
X91484880Y-67245238D01*
X91484880Y-67530952D02*
X90484880Y-67530952D01*
X90627738Y-67435714D01*
X90722976Y-67340476D01*
X90770595Y-67245238D01*
X106000000Y-67173809D02*
X105952380Y-67078571D01*
X105952380Y-66935714D01*
X106000000Y-66792857D01*
X106095238Y-66697619D01*
X106190476Y-66650000D01*
X106380952Y-66602380D01*
X106523809Y-66602380D01*
X106714285Y-66650000D01*
X106809523Y-66697619D01*
X106904761Y-66792857D01*
X106952380Y-66935714D01*
X106952380Y-67030952D01*
X106904761Y-67173809D01*
X106857142Y-67221428D01*
X106523809Y-67221428D01*
X106523809Y-67030952D01*
X106952380Y-67650000D02*
X105952380Y-67650000D01*
X105952380Y-68030952D01*
X106000000Y-68126190D01*
X106047619Y-68173809D01*
X106142857Y-68221428D01*
X106285714Y-68221428D01*
X106380952Y-68173809D01*
X106428571Y-68126190D01*
X106476190Y-68030952D01*
X106476190Y-67650000D01*
X106952380Y-68650000D02*
X105952380Y-68650000D01*
X105952380Y-69316666D02*
X105952380Y-69507142D01*
X106000000Y-69602380D01*
X106095238Y-69697619D01*
X106285714Y-69745238D01*
X106619047Y-69745238D01*
X106809523Y-69697619D01*
X106904761Y-69602380D01*
X106952380Y-69507142D01*
X106952380Y-69316666D01*
X106904761Y-69221428D01*
X106809523Y-69126190D01*
X106619047Y-69078571D01*
X106285714Y-69078571D01*
X106095238Y-69126190D01*
X106000000Y-69221428D01*
X105952380Y-69316666D01*
X106952380Y-70697619D02*
X106952380Y-70126190D01*
X106952380Y-70411904D02*
X105952380Y-70411904D01*
X106095238Y-70316666D01*
X106190476Y-70221428D01*
X106238095Y-70126190D01*
M02*
