G04 #@! TF.GenerationSoftware,KiCad,Pcbnew,(5.1.9)-1*
G04 #@! TF.CreationDate,2021-05-05T15:50:03+02:00*
G04 #@! TF.ProjectId,V0_Display,56305f44-6973-4706-9c61-792e6b696361,rev?*
G04 #@! TF.SameCoordinates,Original*
G04 #@! TF.FileFunction,Soldermask,Top*
G04 #@! TF.FilePolarity,Negative*
%FSLAX46Y46*%
G04 Gerber Fmt 4.6, Leading zero omitted, Abs format (unit mm)*
G04 Created by KiCad (PCBNEW (5.1.9)-1) date 2021-05-05 15:50:03*
%MOMM*%
%LPD*%
G01*
G04 APERTURE LIST*
%ADD10O,1.802000X1.802000*%
%ADD11C,1.626000*%
%ADD12O,2.602000X4.102000*%
%ADD13C,2.102000*%
%ADD14O,1.202000X2.302000*%
%ADD15O,1.202000X2.102000*%
%ADD16O,2.002000X1.302000*%
%ADD17C,3.302000*%
G04 APERTURE END LIST*
D10*
X134006000Y-59022000D03*
X136546000Y-59022000D03*
X134006000Y-56482000D03*
X136546000Y-56482000D03*
X134006000Y-53942000D03*
G36*
G01*
X137447000Y-53092000D02*
X137447000Y-54792000D01*
G75*
G02*
X137396000Y-54843000I-51000J0D01*
G01*
X135696000Y-54843000D01*
G75*
G02*
X135645000Y-54792000I0J51000D01*
G01*
X135645000Y-53092000D01*
G75*
G02*
X135696000Y-53041000I51000J0D01*
G01*
X137396000Y-53041000D01*
G75*
G02*
X137447000Y-53092000I0J-51000D01*
G01*
G37*
D11*
X117280000Y-52850000D03*
X114740000Y-52850000D03*
X112200000Y-52850000D03*
X109660000Y-52850000D03*
G36*
G01*
X156669000Y-61050000D02*
X156669000Y-60050000D01*
G75*
G02*
X156720000Y-59999000I51000J0D01*
G01*
X158220000Y-59999000D01*
G75*
G02*
X158271000Y-60050000I0J-51000D01*
G01*
X158271000Y-61050000D01*
G75*
G02*
X158220000Y-61101000I-51000J0D01*
G01*
X156720000Y-61101000D01*
G75*
G02*
X156669000Y-61050000I0J51000D01*
G01*
G37*
G36*
G01*
X156669000Y-64250000D02*
X156669000Y-63250000D01*
G75*
G02*
X156720000Y-63199000I51000J0D01*
G01*
X158220000Y-63199000D01*
G75*
G02*
X158271000Y-63250000I0J-51000D01*
G01*
X158271000Y-64250000D01*
G75*
G02*
X158220000Y-64301000I-51000J0D01*
G01*
X156720000Y-64301000D01*
G75*
G02*
X156669000Y-64250000I0J51000D01*
G01*
G37*
G36*
G01*
X161569000Y-61050000D02*
X161569000Y-60050000D01*
G75*
G02*
X161620000Y-59999000I51000J0D01*
G01*
X163120000Y-59999000D01*
G75*
G02*
X163171000Y-60050000I0J-51000D01*
G01*
X163171000Y-61050000D01*
G75*
G02*
X163120000Y-61101000I-51000J0D01*
G01*
X161620000Y-61101000D01*
G75*
G02*
X161569000Y-61050000I0J51000D01*
G01*
G37*
G36*
G01*
X161569000Y-64250000D02*
X161569000Y-63250000D01*
G75*
G02*
X161620000Y-63199000I51000J0D01*
G01*
X163120000Y-63199000D01*
G75*
G02*
X163171000Y-63250000I0J-51000D01*
G01*
X163171000Y-64250000D01*
G75*
G02*
X163120000Y-64301000I-51000J0D01*
G01*
X161620000Y-64301000D01*
G75*
G02*
X161569000Y-64250000I0J51000D01*
G01*
G37*
D12*
X149500000Y-67150000D03*
X139340000Y-67150000D03*
D13*
X146920000Y-60150000D03*
X141920000Y-60150000D03*
X146920000Y-74650000D03*
X144420000Y-74650000D03*
X141920000Y-74650000D03*
X163170000Y-69900000D03*
X163170000Y-74400000D03*
X156670000Y-69900000D03*
X156670000Y-74400000D03*
X122475000Y-73145000D03*
X122475000Y-77645000D03*
X128975000Y-73145000D03*
X128975000Y-77645000D03*
D10*
X150575000Y-60445000D03*
G36*
G01*
X153965000Y-61346000D02*
X152265000Y-61346000D01*
G75*
G02*
X152214000Y-61295000I0J51000D01*
G01*
X152214000Y-59595000D01*
G75*
G02*
X152265000Y-59544000I51000J0D01*
G01*
X153965000Y-59544000D01*
G75*
G02*
X154016000Y-59595000I0J-51000D01*
G01*
X154016000Y-61295000D01*
G75*
G02*
X153965000Y-61346000I-51000J0D01*
G01*
G37*
X94670000Y-63340000D03*
X94670000Y-65880000D03*
X94670000Y-68420000D03*
G36*
G01*
X93769000Y-71810000D02*
X93769000Y-70110000D01*
G75*
G02*
X93820000Y-70059000I51000J0D01*
G01*
X95520000Y-70059000D01*
G75*
G02*
X95571000Y-70110000I0J-51000D01*
G01*
X95571000Y-71810000D01*
G75*
G02*
X95520000Y-71861000I-51000J0D01*
G01*
X93820000Y-71861000D01*
G75*
G02*
X93769000Y-71810000I0J51000D01*
G01*
G37*
D14*
X87350500Y-67150000D03*
D15*
X89382500Y-69944000D03*
D16*
X86682500Y-63650000D03*
X86682500Y-70650000D03*
D15*
X89382500Y-64356000D03*
D17*
X89170000Y-80650000D03*
X161170000Y-55650000D03*
X161170000Y-80650000D03*
X89170000Y-55650000D03*
D10*
X99090000Y-68650000D03*
X101630000Y-68650000D03*
G36*
G01*
X105020000Y-69551000D02*
X103320000Y-69551000D01*
G75*
G02*
X103269000Y-69500000I0J51000D01*
G01*
X103269000Y-67800000D01*
G75*
G02*
X103320000Y-67749000I51000J0D01*
G01*
X105020000Y-67749000D01*
G75*
G02*
X105071000Y-67800000I0J-51000D01*
G01*
X105071000Y-69500000D01*
G75*
G02*
X105020000Y-69551000I-51000J0D01*
G01*
G37*
M02*
