G04 #@! TF.GenerationSoftware,KiCad,Pcbnew,(5.1.9)-1*
G04 #@! TF.CreationDate,2021-05-05T15:50:03+02:00*
G04 #@! TF.ProjectId,V0_Display,56305f44-6973-4706-9c61-792e6b696361,rev?*
G04 #@! TF.SameCoordinates,Original*
G04 #@! TF.FileFunction,Copper,L2,Bot*
G04 #@! TF.FilePolarity,Positive*
%FSLAX46Y46*%
G04 Gerber Fmt 4.6, Leading zero omitted, Abs format (unit mm)*
G04 Created by KiCad (PCBNEW (5.1.9)-1) date 2021-05-05 15:50:03*
%MOMM*%
%LPD*%
G01*
G04 APERTURE LIST*
G04 #@! TA.AperFunction,EtchedComponent*
%ADD10C,0.100000*%
G04 #@! TD*
G04 #@! TA.AperFunction,ComponentPad*
%ADD11O,1.700000X1.700000*%
G04 #@! TD*
G04 #@! TA.AperFunction,ComponentPad*
%ADD12R,1.700000X1.700000*%
G04 #@! TD*
G04 #@! TA.AperFunction,SMDPad,CuDef*
%ADD13C,0.100000*%
G04 #@! TD*
G04 #@! TA.AperFunction,SMDPad,CuDef*
%ADD14R,1.400000X1.200000*%
G04 #@! TD*
G04 #@! TA.AperFunction,SMDPad,CuDef*
%ADD15R,1.600000X0.550000*%
G04 #@! TD*
G04 #@! TA.AperFunction,SMDPad,CuDef*
%ADD16R,0.550000X1.600000*%
G04 #@! TD*
G04 #@! TA.AperFunction,SMDPad,CuDef*
%ADD17R,0.900000X1.200000*%
G04 #@! TD*
G04 #@! TA.AperFunction,ComponentPad*
%ADD18C,1.524000*%
G04 #@! TD*
G04 #@! TA.AperFunction,ComponentPad*
%ADD19O,2.500000X4.000000*%
G04 #@! TD*
G04 #@! TA.AperFunction,ComponentPad*
%ADD20C,2.000000*%
G04 #@! TD*
G04 #@! TA.AperFunction,SMDPad,CuDef*
%ADD21R,1.000000X1.500000*%
G04 #@! TD*
G04 #@! TA.AperFunction,ComponentPad*
%ADD22O,1.100000X2.200000*%
G04 #@! TD*
G04 #@! TA.AperFunction,ComponentPad*
%ADD23O,1.100000X2.000000*%
G04 #@! TD*
G04 #@! TA.AperFunction,SMDPad,CuDef*
%ADD24R,1.900000X1.200000*%
G04 #@! TD*
G04 #@! TA.AperFunction,ComponentPad*
%ADD25O,1.900000X1.200000*%
G04 #@! TD*
G04 #@! TA.AperFunction,SMDPad,CuDef*
%ADD26R,1.900000X1.500000*%
G04 #@! TD*
G04 #@! TA.AperFunction,SMDPad,CuDef*
%ADD27R,1.350000X0.400000*%
G04 #@! TD*
G04 #@! TA.AperFunction,ViaPad*
%ADD28C,0.800000*%
G04 #@! TD*
G04 #@! TA.AperFunction,Conductor*
%ADD29C,0.250000*%
G04 #@! TD*
G04 #@! TA.AperFunction,Conductor*
%ADD30C,0.200000*%
G04 #@! TD*
G04 #@! TA.AperFunction,Conductor*
%ADD31C,0.254000*%
G04 #@! TD*
G04 #@! TA.AperFunction,Conductor*
%ADD32C,0.100000*%
G04 #@! TD*
G04 APERTURE END LIST*
D10*
G36*
X102050000Y-55030000D02*
G01*
X102550000Y-55030000D01*
X102550000Y-54430000D01*
X102050000Y-54430000D01*
X102050000Y-55030000D01*
G37*
G36*
X103850000Y-56970000D02*
G01*
X103350000Y-56970000D01*
X103350000Y-57570000D01*
X103850000Y-57570000D01*
X103850000Y-56970000D01*
G37*
G04 #@! TA.AperFunction,SMDPad,CuDef*
G36*
G01*
X103649000Y-80825000D02*
X103149000Y-80825000D01*
G75*
G02*
X102924000Y-80600000I0J225000D01*
G01*
X102924000Y-80150000D01*
G75*
G02*
X103149000Y-79925000I225000J0D01*
G01*
X103649000Y-79925000D01*
G75*
G02*
X103874000Y-80150000I0J-225000D01*
G01*
X103874000Y-80600000D01*
G75*
G02*
X103649000Y-80825000I-225000J0D01*
G01*
G37*
G04 #@! TD.AperFunction*
G04 #@! TA.AperFunction,SMDPad,CuDef*
G36*
G01*
X103649000Y-82375000D02*
X103149000Y-82375000D01*
G75*
G02*
X102924000Y-82150000I0J225000D01*
G01*
X102924000Y-81700000D01*
G75*
G02*
X103149000Y-81475000I225000J0D01*
G01*
X103649000Y-81475000D01*
G75*
G02*
X103874000Y-81700000I0J-225000D01*
G01*
X103874000Y-82150000D01*
G75*
G02*
X103649000Y-82375000I-225000J0D01*
G01*
G37*
G04 #@! TD.AperFunction*
G04 #@! TA.AperFunction,SMDPad,CuDef*
G36*
G01*
X159718000Y-62320000D02*
X159718000Y-61820000D01*
G75*
G02*
X159943000Y-61595000I225000J0D01*
G01*
X160393000Y-61595000D01*
G75*
G02*
X160618000Y-61820000I0J-225000D01*
G01*
X160618000Y-62320000D01*
G75*
G02*
X160393000Y-62545000I-225000J0D01*
G01*
X159943000Y-62545000D01*
G75*
G02*
X159718000Y-62320000I0J225000D01*
G01*
G37*
G04 #@! TD.AperFunction*
G04 #@! TA.AperFunction,SMDPad,CuDef*
G36*
G01*
X158168000Y-62320000D02*
X158168000Y-61820000D01*
G75*
G02*
X158393000Y-61595000I225000J0D01*
G01*
X158843000Y-61595000D01*
G75*
G02*
X159068000Y-61820000I0J-225000D01*
G01*
X159068000Y-62320000D01*
G75*
G02*
X158843000Y-62545000I-225000J0D01*
G01*
X158393000Y-62545000D01*
G75*
G02*
X158168000Y-62320000I0J225000D01*
G01*
G37*
G04 #@! TD.AperFunction*
G04 #@! TA.AperFunction,SMDPad,CuDef*
G36*
G01*
X119599000Y-71718000D02*
X119599000Y-71218000D01*
G75*
G02*
X119824000Y-70993000I225000J0D01*
G01*
X120274000Y-70993000D01*
G75*
G02*
X120499000Y-71218000I0J-225000D01*
G01*
X120499000Y-71718000D01*
G75*
G02*
X120274000Y-71943000I-225000J0D01*
G01*
X119824000Y-71943000D01*
G75*
G02*
X119599000Y-71718000I0J225000D01*
G01*
G37*
G04 #@! TD.AperFunction*
G04 #@! TA.AperFunction,SMDPad,CuDef*
G36*
G01*
X118049000Y-71718000D02*
X118049000Y-71218000D01*
G75*
G02*
X118274000Y-70993000I225000J0D01*
G01*
X118724000Y-70993000D01*
G75*
G02*
X118949000Y-71218000I0J-225000D01*
G01*
X118949000Y-71718000D01*
G75*
G02*
X118724000Y-71943000I-225000J0D01*
G01*
X118274000Y-71943000D01*
G75*
G02*
X118049000Y-71718000I0J225000D01*
G01*
G37*
G04 #@! TD.AperFunction*
D11*
X134006000Y-59022000D03*
X136546000Y-59022000D03*
X134006000Y-56482000D03*
X136546000Y-56482000D03*
X134006000Y-53942000D03*
D12*
X136546000Y-53942000D03*
G04 #@! TA.AperFunction,SMDPad,CuDef*
D13*
G36*
X119269569Y-56153984D02*
G01*
X120118097Y-57002512D01*
X119128147Y-57992462D01*
X118279619Y-57143934D01*
X119269569Y-56153984D01*
G37*
G04 #@! TD.AperFunction*
G04 #@! TA.AperFunction,SMDPad,CuDef*
G36*
X117713934Y-57709619D02*
G01*
X118562462Y-58558147D01*
X117572512Y-59548097D01*
X116723984Y-58699569D01*
X117713934Y-57709619D01*
G37*
G04 #@! TD.AperFunction*
G04 #@! TA.AperFunction,SMDPad,CuDef*
G36*
X116511853Y-56507538D02*
G01*
X117360381Y-57356066D01*
X116370431Y-58346016D01*
X115521903Y-57497488D01*
X116511853Y-56507538D01*
G37*
G04 #@! TD.AperFunction*
G04 #@! TA.AperFunction,SMDPad,CuDef*
G36*
X118067488Y-54951903D02*
G01*
X118916016Y-55800431D01*
X117926066Y-56790381D01*
X117077538Y-55941853D01*
X118067488Y-54951903D01*
G37*
G04 #@! TD.AperFunction*
D14*
X99850000Y-82000000D03*
X97650000Y-82000000D03*
X97650000Y-80300000D03*
X99850000Y-80300000D03*
G04 #@! TA.AperFunction,SMDPad,CuDef*
G36*
G01*
X108015000Y-73850000D02*
X107715000Y-73850000D01*
G75*
G02*
X107565000Y-73700000I0J150000D01*
G01*
X107565000Y-72050000D01*
G75*
G02*
X107715000Y-71900000I150000J0D01*
G01*
X108015000Y-71900000D01*
G75*
G02*
X108165000Y-72050000I0J-150000D01*
G01*
X108165000Y-73700000D01*
G75*
G02*
X108015000Y-73850000I-150000J0D01*
G01*
G37*
G04 #@! TD.AperFunction*
G04 #@! TA.AperFunction,SMDPad,CuDef*
G36*
G01*
X106745000Y-73850000D02*
X106445000Y-73850000D01*
G75*
G02*
X106295000Y-73700000I0J150000D01*
G01*
X106295000Y-72050000D01*
G75*
G02*
X106445000Y-71900000I150000J0D01*
G01*
X106745000Y-71900000D01*
G75*
G02*
X106895000Y-72050000I0J-150000D01*
G01*
X106895000Y-73700000D01*
G75*
G02*
X106745000Y-73850000I-150000J0D01*
G01*
G37*
G04 #@! TD.AperFunction*
G04 #@! TA.AperFunction,SMDPad,CuDef*
G36*
G01*
X105475000Y-73850000D02*
X105175000Y-73850000D01*
G75*
G02*
X105025000Y-73700000I0J150000D01*
G01*
X105025000Y-72050000D01*
G75*
G02*
X105175000Y-71900000I150000J0D01*
G01*
X105475000Y-71900000D01*
G75*
G02*
X105625000Y-72050000I0J-150000D01*
G01*
X105625000Y-73700000D01*
G75*
G02*
X105475000Y-73850000I-150000J0D01*
G01*
G37*
G04 #@! TD.AperFunction*
G04 #@! TA.AperFunction,SMDPad,CuDef*
G36*
G01*
X104205000Y-73850000D02*
X103905000Y-73850000D01*
G75*
G02*
X103755000Y-73700000I0J150000D01*
G01*
X103755000Y-72050000D01*
G75*
G02*
X103905000Y-71900000I150000J0D01*
G01*
X104205000Y-71900000D01*
G75*
G02*
X104355000Y-72050000I0J-150000D01*
G01*
X104355000Y-73700000D01*
G75*
G02*
X104205000Y-73850000I-150000J0D01*
G01*
G37*
G04 #@! TD.AperFunction*
G04 #@! TA.AperFunction,SMDPad,CuDef*
G36*
G01*
X102935000Y-73850000D02*
X102635000Y-73850000D01*
G75*
G02*
X102485000Y-73700000I0J150000D01*
G01*
X102485000Y-72050000D01*
G75*
G02*
X102635000Y-71900000I150000J0D01*
G01*
X102935000Y-71900000D01*
G75*
G02*
X103085000Y-72050000I0J-150000D01*
G01*
X103085000Y-73700000D01*
G75*
G02*
X102935000Y-73850000I-150000J0D01*
G01*
G37*
G04 #@! TD.AperFunction*
G04 #@! TA.AperFunction,SMDPad,CuDef*
G36*
G01*
X101665000Y-73850000D02*
X101365000Y-73850000D01*
G75*
G02*
X101215000Y-73700000I0J150000D01*
G01*
X101215000Y-72050000D01*
G75*
G02*
X101365000Y-71900000I150000J0D01*
G01*
X101665000Y-71900000D01*
G75*
G02*
X101815000Y-72050000I0J-150000D01*
G01*
X101815000Y-73700000D01*
G75*
G02*
X101665000Y-73850000I-150000J0D01*
G01*
G37*
G04 #@! TD.AperFunction*
G04 #@! TA.AperFunction,SMDPad,CuDef*
G36*
G01*
X100395000Y-73850000D02*
X100095000Y-73850000D01*
G75*
G02*
X99945000Y-73700000I0J150000D01*
G01*
X99945000Y-72050000D01*
G75*
G02*
X100095000Y-71900000I150000J0D01*
G01*
X100395000Y-71900000D01*
G75*
G02*
X100545000Y-72050000I0J-150000D01*
G01*
X100545000Y-73700000D01*
G75*
G02*
X100395000Y-73850000I-150000J0D01*
G01*
G37*
G04 #@! TD.AperFunction*
G04 #@! TA.AperFunction,SMDPad,CuDef*
G36*
G01*
X99125000Y-73850000D02*
X98825000Y-73850000D01*
G75*
G02*
X98675000Y-73700000I0J150000D01*
G01*
X98675000Y-72050000D01*
G75*
G02*
X98825000Y-71900000I150000J0D01*
G01*
X99125000Y-71900000D01*
G75*
G02*
X99275000Y-72050000I0J-150000D01*
G01*
X99275000Y-73700000D01*
G75*
G02*
X99125000Y-73850000I-150000J0D01*
G01*
G37*
G04 #@! TD.AperFunction*
G04 #@! TA.AperFunction,SMDPad,CuDef*
G36*
G01*
X99125000Y-78800000D02*
X98825000Y-78800000D01*
G75*
G02*
X98675000Y-78650000I0J150000D01*
G01*
X98675000Y-77000000D01*
G75*
G02*
X98825000Y-76850000I150000J0D01*
G01*
X99125000Y-76850000D01*
G75*
G02*
X99275000Y-77000000I0J-150000D01*
G01*
X99275000Y-78650000D01*
G75*
G02*
X99125000Y-78800000I-150000J0D01*
G01*
G37*
G04 #@! TD.AperFunction*
G04 #@! TA.AperFunction,SMDPad,CuDef*
G36*
G01*
X100395000Y-78800000D02*
X100095000Y-78800000D01*
G75*
G02*
X99945000Y-78650000I0J150000D01*
G01*
X99945000Y-77000000D01*
G75*
G02*
X100095000Y-76850000I150000J0D01*
G01*
X100395000Y-76850000D01*
G75*
G02*
X100545000Y-77000000I0J-150000D01*
G01*
X100545000Y-78650000D01*
G75*
G02*
X100395000Y-78800000I-150000J0D01*
G01*
G37*
G04 #@! TD.AperFunction*
G04 #@! TA.AperFunction,SMDPad,CuDef*
G36*
G01*
X101665000Y-78800000D02*
X101365000Y-78800000D01*
G75*
G02*
X101215000Y-78650000I0J150000D01*
G01*
X101215000Y-77000000D01*
G75*
G02*
X101365000Y-76850000I150000J0D01*
G01*
X101665000Y-76850000D01*
G75*
G02*
X101815000Y-77000000I0J-150000D01*
G01*
X101815000Y-78650000D01*
G75*
G02*
X101665000Y-78800000I-150000J0D01*
G01*
G37*
G04 #@! TD.AperFunction*
G04 #@! TA.AperFunction,SMDPad,CuDef*
G36*
G01*
X102935000Y-78800000D02*
X102635000Y-78800000D01*
G75*
G02*
X102485000Y-78650000I0J150000D01*
G01*
X102485000Y-77000000D01*
G75*
G02*
X102635000Y-76850000I150000J0D01*
G01*
X102935000Y-76850000D01*
G75*
G02*
X103085000Y-77000000I0J-150000D01*
G01*
X103085000Y-78650000D01*
G75*
G02*
X102935000Y-78800000I-150000J0D01*
G01*
G37*
G04 #@! TD.AperFunction*
G04 #@! TA.AperFunction,SMDPad,CuDef*
G36*
G01*
X104205000Y-78800000D02*
X103905000Y-78800000D01*
G75*
G02*
X103755000Y-78650000I0J150000D01*
G01*
X103755000Y-77000000D01*
G75*
G02*
X103905000Y-76850000I150000J0D01*
G01*
X104205000Y-76850000D01*
G75*
G02*
X104355000Y-77000000I0J-150000D01*
G01*
X104355000Y-78650000D01*
G75*
G02*
X104205000Y-78800000I-150000J0D01*
G01*
G37*
G04 #@! TD.AperFunction*
G04 #@! TA.AperFunction,SMDPad,CuDef*
G36*
G01*
X105475000Y-78800000D02*
X105175000Y-78800000D01*
G75*
G02*
X105025000Y-78650000I0J150000D01*
G01*
X105025000Y-77000000D01*
G75*
G02*
X105175000Y-76850000I150000J0D01*
G01*
X105475000Y-76850000D01*
G75*
G02*
X105625000Y-77000000I0J-150000D01*
G01*
X105625000Y-78650000D01*
G75*
G02*
X105475000Y-78800000I-150000J0D01*
G01*
G37*
G04 #@! TD.AperFunction*
G04 #@! TA.AperFunction,SMDPad,CuDef*
G36*
G01*
X106745000Y-78800000D02*
X106445000Y-78800000D01*
G75*
G02*
X106295000Y-78650000I0J150000D01*
G01*
X106295000Y-77000000D01*
G75*
G02*
X106445000Y-76850000I150000J0D01*
G01*
X106745000Y-76850000D01*
G75*
G02*
X106895000Y-77000000I0J-150000D01*
G01*
X106895000Y-78650000D01*
G75*
G02*
X106745000Y-78800000I-150000J0D01*
G01*
G37*
G04 #@! TD.AperFunction*
G04 #@! TA.AperFunction,SMDPad,CuDef*
G36*
G01*
X108015000Y-78800000D02*
X107715000Y-78800000D01*
G75*
G02*
X107565000Y-78650000I0J150000D01*
G01*
X107565000Y-77000000D01*
G75*
G02*
X107715000Y-76850000I150000J0D01*
G01*
X108015000Y-76850000D01*
G75*
G02*
X108165000Y-77000000I0J-150000D01*
G01*
X108165000Y-78650000D01*
G75*
G02*
X108015000Y-78800000I-150000J0D01*
G01*
G37*
G04 #@! TD.AperFunction*
D15*
X110970000Y-62550000D03*
X110970000Y-63350000D03*
X110970000Y-64150000D03*
X110970000Y-64950000D03*
X110970000Y-65750000D03*
X110970000Y-66550000D03*
X110970000Y-67350000D03*
X110970000Y-68150000D03*
D16*
X112420000Y-69600000D03*
X113220000Y-69600000D03*
X114020000Y-69600000D03*
X114820000Y-69600000D03*
X115620000Y-69600000D03*
X116420000Y-69600000D03*
X117220000Y-69600000D03*
X118020000Y-69600000D03*
D15*
X119470000Y-68150000D03*
X119470000Y-67350000D03*
X119470000Y-66550000D03*
X119470000Y-65750000D03*
X119470000Y-64950000D03*
X119470000Y-64150000D03*
X119470000Y-63350000D03*
X119470000Y-62550000D03*
D16*
X118020000Y-61100000D03*
X117220000Y-61100000D03*
X116420000Y-61100000D03*
X115620000Y-61100000D03*
X114820000Y-61100000D03*
X114020000Y-61100000D03*
X113220000Y-61100000D03*
X112420000Y-61100000D03*
D17*
X91870000Y-75850000D03*
X95170000Y-75850000D03*
G04 #@! TA.AperFunction,SMDPad,CuDef*
G36*
G01*
X116251587Y-55412967D02*
X115898033Y-55059413D01*
G75*
G02*
X115898033Y-54741215I159099J159099D01*
G01*
X116216231Y-54423017D01*
G75*
G02*
X116534429Y-54423017I159099J-159099D01*
G01*
X116887983Y-54776571D01*
G75*
G02*
X116887983Y-55094769I-159099J-159099D01*
G01*
X116569785Y-55412967D01*
G75*
G02*
X116251587Y-55412967I-159099J159099D01*
G01*
G37*
G04 #@! TD.AperFunction*
G04 #@! TA.AperFunction,SMDPad,CuDef*
G36*
G01*
X115155571Y-56508983D02*
X114802017Y-56155429D01*
G75*
G02*
X114802017Y-55837231I159099J159099D01*
G01*
X115120215Y-55519033D01*
G75*
G02*
X115438413Y-55519033I159099J-159099D01*
G01*
X115791967Y-55872587D01*
G75*
G02*
X115791967Y-56190785I-159099J-159099D01*
G01*
X115473769Y-56508983D01*
G75*
G02*
X115155571Y-56508983I-159099J159099D01*
G01*
G37*
G04 #@! TD.AperFunction*
G04 #@! TA.AperFunction,SMDPad,CuDef*
G36*
G01*
X119835033Y-55364587D02*
X120188587Y-55011033D01*
G75*
G02*
X120506785Y-55011033I159099J-159099D01*
G01*
X120824983Y-55329231D01*
G75*
G02*
X120824983Y-55647429I-159099J-159099D01*
G01*
X120471429Y-56000983D01*
G75*
G02*
X120153231Y-56000983I-159099J159099D01*
G01*
X119835033Y-55682785D01*
G75*
G02*
X119835033Y-55364587I159099J159099D01*
G01*
G37*
G04 #@! TD.AperFunction*
G04 #@! TA.AperFunction,SMDPad,CuDef*
G36*
G01*
X118739017Y-54268571D02*
X119092571Y-53915017D01*
G75*
G02*
X119410769Y-53915017I159099J-159099D01*
G01*
X119728967Y-54233215D01*
G75*
G02*
X119728967Y-54551413I-159099J-159099D01*
G01*
X119375413Y-54904967D01*
G75*
G02*
X119057215Y-54904967I-159099J159099D01*
G01*
X118739017Y-54586769D01*
G75*
G02*
X118739017Y-54268571I159099J159099D01*
G01*
G37*
G04 #@! TD.AperFunction*
G04 #@! TA.AperFunction,SMDPad,CuDef*
G36*
G01*
X95500000Y-81475000D02*
X96000000Y-81475000D01*
G75*
G02*
X96225000Y-81700000I0J-225000D01*
G01*
X96225000Y-82150000D01*
G75*
G02*
X96000000Y-82375000I-225000J0D01*
G01*
X95500000Y-82375000D01*
G75*
G02*
X95275000Y-82150000I0J225000D01*
G01*
X95275000Y-81700000D01*
G75*
G02*
X95500000Y-81475000I225000J0D01*
G01*
G37*
G04 #@! TD.AperFunction*
G04 #@! TA.AperFunction,SMDPad,CuDef*
G36*
G01*
X95500000Y-79925000D02*
X96000000Y-79925000D01*
G75*
G02*
X96225000Y-80150000I0J-225000D01*
G01*
X96225000Y-80600000D01*
G75*
G02*
X96000000Y-80825000I-225000J0D01*
G01*
X95500000Y-80825000D01*
G75*
G02*
X95275000Y-80600000I0J225000D01*
G01*
X95275000Y-80150000D01*
G75*
G02*
X95500000Y-79925000I225000J0D01*
G01*
G37*
G04 #@! TD.AperFunction*
G04 #@! TA.AperFunction,SMDPad,CuDef*
G36*
G01*
X101500000Y-81475000D02*
X102000000Y-81475000D01*
G75*
G02*
X102225000Y-81700000I0J-225000D01*
G01*
X102225000Y-82150000D01*
G75*
G02*
X102000000Y-82375000I-225000J0D01*
G01*
X101500000Y-82375000D01*
G75*
G02*
X101275000Y-82150000I0J225000D01*
G01*
X101275000Y-81700000D01*
G75*
G02*
X101500000Y-81475000I225000J0D01*
G01*
G37*
G04 #@! TD.AperFunction*
G04 #@! TA.AperFunction,SMDPad,CuDef*
G36*
G01*
X101500000Y-79925000D02*
X102000000Y-79925000D01*
G75*
G02*
X102225000Y-80150000I0J-225000D01*
G01*
X102225000Y-80600000D01*
G75*
G02*
X102000000Y-80825000I-225000J0D01*
G01*
X101500000Y-80825000D01*
G75*
G02*
X101275000Y-80600000I0J225000D01*
G01*
X101275000Y-80150000D01*
G75*
G02*
X101500000Y-79925000I225000J0D01*
G01*
G37*
G04 #@! TD.AperFunction*
G04 #@! TA.AperFunction,SMDPad,CuDef*
G36*
G01*
X112345000Y-58010000D02*
X112345000Y-58510000D01*
G75*
G02*
X112120000Y-58735000I-225000J0D01*
G01*
X111670000Y-58735000D01*
G75*
G02*
X111445000Y-58510000I0J225000D01*
G01*
X111445000Y-58010000D01*
G75*
G02*
X111670000Y-57785000I225000J0D01*
G01*
X112120000Y-57785000D01*
G75*
G02*
X112345000Y-58010000I0J-225000D01*
G01*
G37*
G04 #@! TD.AperFunction*
G04 #@! TA.AperFunction,SMDPad,CuDef*
G36*
G01*
X113895000Y-58010000D02*
X113895000Y-58510000D01*
G75*
G02*
X113670000Y-58735000I-225000J0D01*
G01*
X113220000Y-58735000D01*
G75*
G02*
X112995000Y-58510000I0J225000D01*
G01*
X112995000Y-58010000D01*
G75*
G02*
X113220000Y-57785000I225000J0D01*
G01*
X113670000Y-57785000D01*
G75*
G02*
X113895000Y-58010000I0J-225000D01*
G01*
G37*
G04 #@! TD.AperFunction*
G04 #@! TA.AperFunction,SMDPad,CuDef*
G36*
G01*
X112995000Y-56986000D02*
X112995000Y-56486000D01*
G75*
G02*
X113220000Y-56261000I225000J0D01*
G01*
X113670000Y-56261000D01*
G75*
G02*
X113895000Y-56486000I0J-225000D01*
G01*
X113895000Y-56986000D01*
G75*
G02*
X113670000Y-57211000I-225000J0D01*
G01*
X113220000Y-57211000D01*
G75*
G02*
X112995000Y-56986000I0J225000D01*
G01*
G37*
G04 #@! TD.AperFunction*
G04 #@! TA.AperFunction,SMDPad,CuDef*
G36*
G01*
X111445000Y-56986000D02*
X111445000Y-56486000D01*
G75*
G02*
X111670000Y-56261000I225000J0D01*
G01*
X112120000Y-56261000D01*
G75*
G02*
X112345000Y-56486000I0J-225000D01*
G01*
X112345000Y-56986000D01*
G75*
G02*
X112120000Y-57211000I-225000J0D01*
G01*
X111670000Y-57211000D01*
G75*
G02*
X111445000Y-56986000I0J225000D01*
G01*
G37*
G04 #@! TD.AperFunction*
G04 #@! TA.AperFunction,SMDPad,CuDef*
G36*
G01*
X115495000Y-72600000D02*
X115495000Y-73100000D01*
G75*
G02*
X115270000Y-73325000I-225000J0D01*
G01*
X114820000Y-73325000D01*
G75*
G02*
X114595000Y-73100000I0J225000D01*
G01*
X114595000Y-72600000D01*
G75*
G02*
X114820000Y-72375000I225000J0D01*
G01*
X115270000Y-72375000D01*
G75*
G02*
X115495000Y-72600000I0J-225000D01*
G01*
G37*
G04 #@! TD.AperFunction*
G04 #@! TA.AperFunction,SMDPad,CuDef*
G36*
G01*
X117045000Y-72600000D02*
X117045000Y-73100000D01*
G75*
G02*
X116820000Y-73325000I-225000J0D01*
G01*
X116370000Y-73325000D01*
G75*
G02*
X116145000Y-73100000I0J225000D01*
G01*
X116145000Y-72600000D01*
G75*
G02*
X116370000Y-72375000I225000J0D01*
G01*
X116820000Y-72375000D01*
G75*
G02*
X117045000Y-72600000I0J-225000D01*
G01*
G37*
G04 #@! TD.AperFunction*
G04 #@! TA.AperFunction,SMDPad,CuDef*
G36*
G01*
X116145000Y-75020000D02*
X116145000Y-74520000D01*
G75*
G02*
X116370000Y-74295000I225000J0D01*
G01*
X116820000Y-74295000D01*
G75*
G02*
X117045000Y-74520000I0J-225000D01*
G01*
X117045000Y-75020000D01*
G75*
G02*
X116820000Y-75245000I-225000J0D01*
G01*
X116370000Y-75245000D01*
G75*
G02*
X116145000Y-75020000I0J225000D01*
G01*
G37*
G04 #@! TD.AperFunction*
G04 #@! TA.AperFunction,SMDPad,CuDef*
G36*
G01*
X114595000Y-75020000D02*
X114595000Y-74520000D01*
G75*
G02*
X114820000Y-74295000I225000J0D01*
G01*
X115270000Y-74295000D01*
G75*
G02*
X115495000Y-74520000I0J-225000D01*
G01*
X115495000Y-75020000D01*
G75*
G02*
X115270000Y-75245000I-225000J0D01*
G01*
X114820000Y-75245000D01*
G75*
G02*
X114595000Y-75020000I0J225000D01*
G01*
G37*
G04 #@! TD.AperFunction*
G04 #@! TA.AperFunction,SMDPad,CuDef*
G36*
G01*
X106763750Y-81600000D02*
X107676250Y-81600000D01*
G75*
G02*
X107920000Y-81843750I0J-243750D01*
G01*
X107920000Y-82331250D01*
G75*
G02*
X107676250Y-82575000I-243750J0D01*
G01*
X106763750Y-82575000D01*
G75*
G02*
X106520000Y-82331250I0J243750D01*
G01*
X106520000Y-81843750D01*
G75*
G02*
X106763750Y-81600000I243750J0D01*
G01*
G37*
G04 #@! TD.AperFunction*
G04 #@! TA.AperFunction,SMDPad,CuDef*
G36*
G01*
X106763750Y-79725000D02*
X107676250Y-79725000D01*
G75*
G02*
X107920000Y-79968750I0J-243750D01*
G01*
X107920000Y-80456250D01*
G75*
G02*
X107676250Y-80700000I-243750J0D01*
G01*
X106763750Y-80700000D01*
G75*
G02*
X106520000Y-80456250I0J243750D01*
G01*
X106520000Y-79968750D01*
G75*
G02*
X106763750Y-79725000I243750J0D01*
G01*
G37*
G04 #@! TD.AperFunction*
G04 #@! TA.AperFunction,SMDPad,CuDef*
G36*
G01*
X105776250Y-80700000D02*
X104863750Y-80700000D01*
G75*
G02*
X104620000Y-80456250I0J243750D01*
G01*
X104620000Y-79968750D01*
G75*
G02*
X104863750Y-79725000I243750J0D01*
G01*
X105776250Y-79725000D01*
G75*
G02*
X106020000Y-79968750I0J-243750D01*
G01*
X106020000Y-80456250D01*
G75*
G02*
X105776250Y-80700000I-243750J0D01*
G01*
G37*
G04 #@! TD.AperFunction*
G04 #@! TA.AperFunction,SMDPad,CuDef*
G36*
G01*
X105776250Y-82575000D02*
X104863750Y-82575000D01*
G75*
G02*
X104620000Y-82331250I0J243750D01*
G01*
X104620000Y-81843750D01*
G75*
G02*
X104863750Y-81600000I243750J0D01*
G01*
X105776250Y-81600000D01*
G75*
G02*
X106020000Y-81843750I0J-243750D01*
G01*
X106020000Y-82331250D01*
G75*
G02*
X105776250Y-82575000I-243750J0D01*
G01*
G37*
G04 #@! TD.AperFunction*
D18*
X117280000Y-52850000D03*
X114740000Y-52850000D03*
X112200000Y-52850000D03*
X109660000Y-52850000D03*
D19*
X149500000Y-67150000D03*
X139340000Y-67150000D03*
D20*
X146920000Y-60150000D03*
X141920000Y-60150000D03*
X146920000Y-74650000D03*
X144420000Y-74650000D03*
X141920000Y-74650000D03*
X163170000Y-69900000D03*
X163170000Y-74400000D03*
X156670000Y-69900000D03*
X156670000Y-74400000D03*
X122475000Y-73145000D03*
X122475000Y-77645000D03*
X128975000Y-73145000D03*
X128975000Y-77645000D03*
G04 #@! TA.AperFunction,SMDPad,CuDef*
G36*
G01*
X119976250Y-75200000D02*
X119063750Y-75200000D01*
G75*
G02*
X118820000Y-74956250I0J243750D01*
G01*
X118820000Y-74468750D01*
G75*
G02*
X119063750Y-74225000I243750J0D01*
G01*
X119976250Y-74225000D01*
G75*
G02*
X120220000Y-74468750I0J-243750D01*
G01*
X120220000Y-74956250D01*
G75*
G02*
X119976250Y-75200000I-243750J0D01*
G01*
G37*
G04 #@! TD.AperFunction*
G04 #@! TA.AperFunction,SMDPad,CuDef*
G36*
G01*
X119976250Y-77075000D02*
X119063750Y-77075000D01*
G75*
G02*
X118820000Y-76831250I0J243750D01*
G01*
X118820000Y-76343750D01*
G75*
G02*
X119063750Y-76100000I243750J0D01*
G01*
X119976250Y-76100000D01*
G75*
G02*
X120220000Y-76343750I0J-243750D01*
G01*
X120220000Y-76831250D01*
G75*
G02*
X119976250Y-77075000I-243750J0D01*
G01*
G37*
G04 #@! TD.AperFunction*
D21*
X102950000Y-54730000D03*
X104250000Y-54730000D03*
X101650000Y-54730000D03*
X102950000Y-57270000D03*
X101650000Y-57270000D03*
X104250000Y-57270000D03*
D11*
X150575000Y-60445000D03*
D12*
X153115000Y-60445000D03*
D11*
X94670000Y-63340000D03*
X94670000Y-65880000D03*
X94670000Y-68420000D03*
D12*
X94670000Y-70960000D03*
D22*
X87350500Y-67150000D03*
D23*
X89382500Y-69944000D03*
D24*
X86682500Y-70050000D03*
X86682500Y-64250000D03*
D25*
X86682500Y-63650000D03*
X86682500Y-70650000D03*
D26*
X86682500Y-68150000D03*
D23*
X89382500Y-64356000D03*
D27*
X89382500Y-67150000D03*
X89382500Y-66500000D03*
X89382500Y-65850000D03*
X89382500Y-68450000D03*
X89382500Y-67800000D03*
D26*
X86682500Y-66150000D03*
D11*
X99090000Y-68650000D03*
X101630000Y-68650000D03*
D12*
X104170000Y-68650000D03*
D28*
X161370000Y-62350000D03*
X163275000Y-62350000D03*
X102050000Y-79450002D03*
X94650000Y-81950000D03*
X107720000Y-76050000D03*
X113020000Y-66550000D03*
X112294990Y-65715530D03*
X142134000Y-58006000D03*
X114620000Y-66950000D03*
X110820000Y-69050000D03*
X110720000Y-71250000D03*
X111735507Y-71259812D03*
X104120000Y-74350000D03*
X113305000Y-73754000D03*
X106760000Y-56000000D03*
X96320000Y-75950000D03*
X95220000Y-77250000D03*
X115120000Y-58550000D03*
X117220000Y-71250000D03*
X118120000Y-76750000D03*
X157520000Y-61650000D03*
X107844008Y-74516000D03*
X132990000Y-67912000D03*
X131720000Y-67912000D03*
X130704000Y-67404000D03*
D29*
X89382500Y-66500000D02*
X89382500Y-64650000D01*
X86682500Y-67818000D02*
X87350500Y-67150000D01*
X86682500Y-68150000D02*
X86682500Y-67818000D01*
X86682500Y-66482000D02*
X87350500Y-67150000D01*
X86682500Y-66150000D02*
X86682500Y-66482000D01*
X86682500Y-64250000D02*
X86682500Y-70650000D01*
X101650000Y-57270000D02*
X101650000Y-54730000D01*
X99875000Y-80275000D02*
X99850000Y-80300000D01*
X101750000Y-80275000D02*
X99875000Y-80275000D01*
X95775000Y-82000000D02*
X95750000Y-82025000D01*
X97650000Y-82000000D02*
X95775000Y-82000000D01*
X114820000Y-68739998D02*
X114820000Y-69600000D01*
X115620000Y-67939998D02*
X114820000Y-68739998D01*
X115620000Y-61100000D02*
X115620000Y-67939998D01*
X115620000Y-62450000D02*
X115620000Y-61100000D01*
X115420000Y-62650000D02*
X115620000Y-62450000D01*
X114120000Y-62650000D02*
X115420000Y-62650000D01*
X114020000Y-62550000D02*
X114120000Y-62650000D01*
X101750000Y-80275000D02*
X101750000Y-79750002D01*
X101750000Y-79750002D02*
X102050000Y-79450002D01*
X117820000Y-55647919D02*
X117896777Y-55571142D01*
X117820000Y-58052081D02*
X117820000Y-55647919D01*
X117543223Y-58328858D02*
X117820000Y-58052081D01*
X95750000Y-82025000D02*
X94725000Y-82025000D01*
X94725000Y-82025000D02*
X94650000Y-81950000D01*
X107865000Y-76195000D02*
X107720000Y-76050000D01*
X107865000Y-77825000D02*
X107865000Y-76195000D01*
X114820000Y-72787500D02*
X114882500Y-72850000D01*
X114820000Y-69600000D02*
X114820000Y-72787500D01*
X114020000Y-62550000D02*
X114020000Y-61100000D01*
X161090000Y-62070000D02*
X161370000Y-62350000D01*
X160168000Y-62070000D02*
X161090000Y-62070000D01*
X117346158Y-55871142D02*
X116393008Y-54917992D01*
X117996777Y-55871142D02*
X117346158Y-55871142D01*
X117996777Y-55647207D02*
X119233992Y-54409992D01*
X117996777Y-55871142D02*
X117996777Y-55647207D01*
X114020000Y-59991000D02*
X114020000Y-61100000D01*
X113559000Y-59530000D02*
X114020000Y-59991000D01*
X112416000Y-59530000D02*
X113559000Y-59530000D01*
X111908000Y-59022000D02*
X112416000Y-59530000D01*
X111908000Y-56607500D02*
X111908000Y-59022000D01*
X111782500Y-56482000D02*
X111908000Y-56607500D01*
X92160000Y-68450000D02*
X94670000Y-70960000D01*
X89382500Y-68450000D02*
X92160000Y-68450000D01*
X91820000Y-75150000D02*
X91820000Y-75750000D01*
X94670000Y-72300000D02*
X91820000Y-75150000D01*
X94670000Y-70960000D02*
X94670000Y-72300000D01*
D30*
X93625000Y-66925000D02*
X94670000Y-65880000D01*
X90372502Y-66925000D02*
X93625000Y-66925000D01*
X90297501Y-67000001D02*
X90372502Y-66925000D01*
X89546102Y-67000001D02*
X90297501Y-67000001D01*
X89396103Y-67150000D02*
X89546102Y-67000001D01*
X89382500Y-67150000D02*
X89396103Y-67150000D01*
X102115010Y-77155010D02*
X102785000Y-77825000D01*
X102115010Y-76813598D02*
X102115010Y-77155010D01*
X101851402Y-76549990D02*
X102115010Y-76813598D01*
X101509990Y-76549990D02*
X101851402Y-76549990D01*
X99886000Y-74926000D02*
X101509990Y-76549990D01*
X98602000Y-74926000D02*
X99886000Y-74926000D01*
X97147000Y-73471000D02*
X98602000Y-74926000D01*
X97147000Y-68357000D02*
X97147000Y-73471000D01*
X94670000Y-65880000D02*
X97147000Y-68357000D01*
X90558885Y-67375000D02*
X93625000Y-67375000D01*
X90283884Y-67650001D02*
X90558885Y-67375000D01*
X93625000Y-67375000D02*
X94670000Y-68420000D01*
X89382500Y-67800000D02*
X89532499Y-67650001D01*
X89532499Y-67650001D02*
X90283884Y-67650001D01*
X101515000Y-77191397D02*
X101515000Y-77825000D01*
X99699603Y-75376000D02*
X101515000Y-77191397D01*
X98417000Y-75376000D02*
X99699603Y-75376000D01*
X96697000Y-73656000D02*
X98417000Y-75376000D01*
X96697000Y-68543397D02*
X96697000Y-73656000D01*
X96573603Y-68420000D02*
X96697000Y-68543397D01*
X94670000Y-68420000D02*
X96573603Y-68420000D01*
D29*
X110970000Y-66550000D02*
X113020000Y-66550000D01*
X112260520Y-65750000D02*
X112294990Y-65715530D01*
X110970000Y-65750000D02*
X112260520Y-65750000D01*
X133220000Y-64950000D02*
X119470000Y-64950000D01*
X141020000Y-72750000D02*
X133220000Y-64950000D01*
X155020000Y-72750000D02*
X141020000Y-72750000D01*
X156670000Y-74400000D02*
X155020000Y-72750000D01*
X119470000Y-62550000D02*
X137590000Y-62550000D01*
X137590000Y-62550000D02*
X142134000Y-58006000D01*
X120757500Y-74712500D02*
X119520000Y-74712500D01*
X110970000Y-64950000D02*
X113720000Y-64950000D01*
X122475000Y-73145000D02*
X122325000Y-73145000D01*
X128975000Y-73145000D02*
X122475000Y-73145000D01*
X113720000Y-64950000D02*
X114620000Y-65850000D01*
X119520000Y-74712500D02*
X116820000Y-74712500D01*
X116820000Y-74712500D02*
X116757500Y-74650000D01*
X122325000Y-73145000D02*
X120757500Y-74712500D01*
X114620000Y-65850000D02*
X114620000Y-66950000D01*
X110970000Y-68900000D02*
X110820000Y-69050000D01*
X110970000Y-68150000D02*
X110970000Y-68900000D01*
X112420000Y-69600000D02*
X112370000Y-69600000D01*
X112370000Y-69600000D02*
X110720000Y-71250000D01*
X112610188Y-71259812D02*
X111735507Y-71259812D01*
X113220000Y-70650000D02*
X112610188Y-71259812D01*
X113220000Y-69600000D02*
X113220000Y-70650000D01*
X103220000Y-58540000D02*
X102950000Y-58270000D01*
X106510000Y-58540000D02*
X103220000Y-58540000D01*
X102950000Y-58270000D02*
X102950000Y-57270000D01*
X112200000Y-52850000D02*
X106510000Y-58540000D01*
X108582370Y-52850000D02*
X109660000Y-52850000D01*
X103830000Y-52850000D02*
X108582370Y-52850000D01*
X102950000Y-53730000D02*
X103830000Y-52850000D01*
X102950000Y-54730000D02*
X102950000Y-53730000D01*
X141920000Y-60150000D02*
X137920000Y-64150000D01*
X137920000Y-64150000D02*
X119470000Y-64150000D01*
X133120000Y-65750000D02*
X119470000Y-65750000D01*
X140694999Y-73324999D02*
X133120000Y-65750000D01*
X145594999Y-73324999D02*
X140694999Y-73324999D01*
X146920000Y-74650000D02*
X145594999Y-73324999D01*
X133020000Y-66550000D02*
X119470000Y-66550000D01*
X141120000Y-74650000D02*
X133020000Y-66550000D01*
X141920000Y-74650000D02*
X141120000Y-74650000D01*
X119420000Y-57094365D02*
X119098858Y-56773223D01*
X119420000Y-59700000D02*
X119420000Y-57094365D01*
X118020000Y-61100000D02*
X119420000Y-59700000D01*
X119198858Y-57008578D02*
X120538718Y-55668718D01*
X119198858Y-57073223D02*
X119198858Y-57008578D01*
X106595000Y-79587500D02*
X107220000Y-80212500D01*
X106595000Y-77825000D02*
X106595000Y-79587500D01*
X105325000Y-80207500D02*
X105320000Y-80212500D01*
X105325000Y-77825000D02*
X105325000Y-80207500D01*
X101725000Y-82000000D02*
X101750000Y-82025000D01*
X99850000Y-82000000D02*
X101725000Y-82000000D01*
X95775000Y-80300000D02*
X95750000Y-80275000D01*
X97650000Y-80300000D02*
X95775000Y-80300000D01*
X98920000Y-77950000D02*
X99020000Y-77850000D01*
X116120000Y-57347919D02*
X116341142Y-57126777D01*
X116120000Y-58850000D02*
X116120000Y-57347919D01*
X117220000Y-59950000D02*
X116120000Y-58850000D01*
X117220000Y-61100000D02*
X117220000Y-59950000D01*
X116441142Y-57008578D02*
X115401282Y-55968718D01*
X116441142Y-57426777D02*
X116441142Y-57008578D01*
X104055000Y-72875000D02*
X104055000Y-74285000D01*
X104055000Y-74285000D02*
X104120000Y-74350000D01*
X114201000Y-74650000D02*
X113305000Y-73754000D01*
X114882500Y-74650000D02*
X114201000Y-74650000D01*
X115620000Y-71712500D02*
X116757500Y-72850000D01*
X115620000Y-69600000D02*
X115620000Y-71712500D01*
X109844999Y-64225001D02*
X109920000Y-64150000D01*
X109844999Y-82025001D02*
X109844999Y-64225001D01*
X108969990Y-82900010D02*
X109844999Y-82025001D01*
X106132510Y-82900010D02*
X108969990Y-82900010D01*
X109920000Y-64150000D02*
X110970000Y-64150000D01*
X105320000Y-82087500D02*
X106132510Y-82900010D01*
X107220000Y-82087500D02*
X108882500Y-82087500D01*
X109920000Y-63350000D02*
X110970000Y-63350000D01*
X109394988Y-63875012D02*
X109920000Y-63350000D01*
X109394988Y-81575012D02*
X109394988Y-63875012D01*
X108882500Y-82087500D02*
X109394988Y-81575012D01*
X104250000Y-57270000D02*
X105490000Y-57270000D01*
X105490000Y-57270000D02*
X106760000Y-56000000D01*
X105490000Y-54730000D02*
X104250000Y-54730000D01*
X106760000Y-56000000D02*
X106760000Y-56000000D01*
X106760000Y-56000000D02*
X105490000Y-54730000D01*
X104055000Y-77385000D02*
X104020000Y-77350000D01*
X96220000Y-75850000D02*
X96320000Y-75950000D01*
X95170000Y-75850000D02*
X96220000Y-75850000D01*
X95170000Y-75850000D02*
X95170000Y-77200000D01*
X95170000Y-77200000D02*
X95220000Y-77250000D01*
X104055000Y-77825000D02*
X104055000Y-77315002D01*
X116420000Y-61100000D02*
X116420000Y-59850000D01*
X116420000Y-59850000D02*
X115120000Y-58550000D01*
X117220000Y-69600000D02*
X117220000Y-71250000D01*
X118282500Y-76587500D02*
X118120000Y-76750000D01*
X119520000Y-76587500D02*
X118282500Y-76587500D01*
X117438000Y-71468000D02*
X117220000Y-71250000D01*
X118245000Y-71468000D02*
X117438000Y-71468000D01*
X157940000Y-62070000D02*
X157520000Y-61650000D01*
X158618000Y-62070000D02*
X157940000Y-62070000D01*
X107865000Y-72875000D02*
X107865000Y-74495008D01*
X107865000Y-74495008D02*
X107844008Y-74516000D01*
X131482000Y-68150000D02*
X131720000Y-67912000D01*
X119470000Y-68150000D02*
X131482000Y-68150000D01*
X119470000Y-67350000D02*
X130650000Y-67350000D01*
X130650000Y-67350000D02*
X130704000Y-67404000D01*
X100245000Y-77825000D02*
X100245000Y-78800000D01*
X100245000Y-78800000D02*
X99670001Y-79374999D01*
X98750000Y-81850000D02*
X98900000Y-82000000D01*
X99670001Y-79374999D02*
X98889999Y-79374999D01*
X98889999Y-79374999D02*
X98750000Y-79514998D01*
X98750000Y-79514998D02*
X98750000Y-81850000D01*
X98900000Y-82000000D02*
X99850000Y-82000000D01*
X97650000Y-79150000D02*
X97650000Y-80300000D01*
X98975000Y-77825000D02*
X97650000Y-79150000D01*
X114820000Y-59648000D02*
X114820000Y-61100000D01*
X113432000Y-58260000D02*
X114820000Y-59648000D01*
X113432000Y-56736000D02*
X113432000Y-58260000D01*
X115120000Y-58424000D02*
X113432000Y-56736000D01*
X115120000Y-58550000D02*
X115120000Y-58424000D01*
X132101000Y-68801000D02*
X132990000Y-67912000D01*
X118819000Y-68801000D02*
X132101000Y-68801000D01*
X118020000Y-69600000D02*
X118819000Y-68801000D01*
X104055000Y-79719000D02*
X103399000Y-80375000D01*
X104055000Y-77825000D02*
X104055000Y-79719000D01*
D31*
X164510001Y-69018292D02*
X164305413Y-68944192D01*
X163349605Y-69900000D01*
X164305413Y-70855808D01*
X164510001Y-70781708D01*
X164510001Y-73462531D01*
X164439987Y-73357748D01*
X164212252Y-73130013D01*
X163944463Y-72951082D01*
X163646912Y-72827832D01*
X163331033Y-72765000D01*
X163008967Y-72765000D01*
X162693088Y-72827832D01*
X162395537Y-72951082D01*
X162127748Y-73130013D01*
X161900013Y-73357748D01*
X161721082Y-73625537D01*
X161597832Y-73923088D01*
X161535000Y-74238967D01*
X161535000Y-74561033D01*
X161597832Y-74876912D01*
X161721082Y-75174463D01*
X161900013Y-75442252D01*
X162127748Y-75669987D01*
X162395537Y-75848918D01*
X162693088Y-75972168D01*
X163008967Y-76035000D01*
X163331033Y-76035000D01*
X163646912Y-75972168D01*
X163944463Y-75848918D01*
X164212252Y-75669987D01*
X164439987Y-75442252D01*
X164510001Y-75337469D01*
X164510001Y-83990000D01*
X85830000Y-83990000D01*
X85830000Y-80429872D01*
X86935000Y-80429872D01*
X86935000Y-80870128D01*
X87020890Y-81301925D01*
X87189369Y-81708669D01*
X87433962Y-82074729D01*
X87745271Y-82386038D01*
X88111331Y-82630631D01*
X88518075Y-82799110D01*
X88949872Y-82885000D01*
X89390128Y-82885000D01*
X89821925Y-82799110D01*
X90228669Y-82630631D01*
X90594729Y-82386038D01*
X90605767Y-82375000D01*
X94636928Y-82375000D01*
X94649188Y-82499482D01*
X94685498Y-82619180D01*
X94744463Y-82729494D01*
X94823815Y-82826185D01*
X94920506Y-82905537D01*
X95030820Y-82964502D01*
X95150518Y-83000812D01*
X95275000Y-83013072D01*
X95464250Y-83010000D01*
X95623000Y-82851250D01*
X95623000Y-82052000D01*
X95877000Y-82052000D01*
X95877000Y-82851250D01*
X96035750Y-83010000D01*
X96225000Y-83013072D01*
X96349482Y-83000812D01*
X96435949Y-82974582D01*
X96498815Y-83051185D01*
X96595506Y-83130537D01*
X96705820Y-83189502D01*
X96825518Y-83225812D01*
X96950000Y-83238072D01*
X97364250Y-83235000D01*
X97523000Y-83076250D01*
X97523000Y-82127000D01*
X96776250Y-82127000D01*
X96701250Y-82052000D01*
X95877000Y-82052000D01*
X95623000Y-82052000D01*
X94798750Y-82052000D01*
X94640000Y-82210750D01*
X94636928Y-82375000D01*
X90605767Y-82375000D01*
X90906038Y-82074729D01*
X91150631Y-81708669D01*
X91319110Y-81301925D01*
X91405000Y-80870128D01*
X91405000Y-80429872D01*
X91319110Y-79998075D01*
X91150631Y-79591331D01*
X90906038Y-79225271D01*
X90594729Y-78913962D01*
X90228669Y-78669369D01*
X89821925Y-78500890D01*
X89390128Y-78415000D01*
X88949872Y-78415000D01*
X88518075Y-78500890D01*
X88111331Y-78669369D01*
X87745271Y-78913962D01*
X87433962Y-79225271D01*
X87189369Y-79591331D01*
X87020890Y-79998075D01*
X86935000Y-80429872D01*
X85830000Y-80429872D01*
X85830000Y-71779053D01*
X85967004Y-71836493D01*
X86205500Y-71885000D01*
X86555500Y-71885000D01*
X86555500Y-68581643D01*
X86602381Y-68627725D01*
X86797746Y-68755850D01*
X86809500Y-68760601D01*
X86809500Y-71885000D01*
X87159500Y-71885000D01*
X87397996Y-71836493D01*
X87622446Y-71742390D01*
X87824225Y-71606307D01*
X87995578Y-71433474D01*
X88129921Y-71230533D01*
X88222091Y-71005282D01*
X88225962Y-70967609D01*
X88202179Y-70931265D01*
X88222002Y-70894180D01*
X88257158Y-70778287D01*
X88336304Y-70964813D01*
X88467766Y-71157948D01*
X88634381Y-71321725D01*
X88829746Y-71449850D01*
X89046353Y-71537399D01*
X89072756Y-71537803D01*
X89255500Y-71412361D01*
X89255500Y-70071000D01*
X89509500Y-70071000D01*
X89509500Y-71412361D01*
X89692244Y-71537803D01*
X89718647Y-71537399D01*
X89935254Y-71449850D01*
X90130619Y-71321725D01*
X90297234Y-71157948D01*
X90428696Y-70964813D01*
X90519954Y-70749742D01*
X90567500Y-70521000D01*
X90567500Y-70071000D01*
X89509500Y-70071000D01*
X89255500Y-70071000D01*
X88197500Y-70071000D01*
X88197500Y-70234621D01*
X88129921Y-70069467D01*
X88032963Y-69923000D01*
X88108750Y-69923000D01*
X88214750Y-69817000D01*
X89255500Y-69817000D01*
X89255500Y-69797000D01*
X89509500Y-69797000D01*
X89509500Y-69817000D01*
X90567500Y-69817000D01*
X90567500Y-69367000D01*
X90534866Y-69210000D01*
X91845199Y-69210000D01*
X93181928Y-70546730D01*
X93181928Y-71810000D01*
X93194188Y-71934482D01*
X93230498Y-72054180D01*
X93289463Y-72164494D01*
X93368815Y-72261185D01*
X93465506Y-72340537D01*
X93523606Y-72371592D01*
X91309003Y-74586196D01*
X91279999Y-74609999D01*
X91259351Y-74635159D01*
X91175820Y-74660498D01*
X91065506Y-74719463D01*
X90968815Y-74798815D01*
X90889463Y-74895506D01*
X90830498Y-75005820D01*
X90794188Y-75125518D01*
X90781928Y-75250000D01*
X90781928Y-76450000D01*
X90794188Y-76574482D01*
X90830498Y-76694180D01*
X90889463Y-76804494D01*
X90968815Y-76901185D01*
X91065506Y-76980537D01*
X91175820Y-77039502D01*
X91295518Y-77075812D01*
X91420000Y-77088072D01*
X92320000Y-77088072D01*
X92444482Y-77075812D01*
X92564180Y-77039502D01*
X92674494Y-76980537D01*
X92771185Y-76901185D01*
X92850537Y-76804494D01*
X92909502Y-76694180D01*
X92945812Y-76574482D01*
X92958072Y-76450000D01*
X92958072Y-75250000D01*
X94081928Y-75250000D01*
X94081928Y-76450000D01*
X94094188Y-76574482D01*
X94130498Y-76694180D01*
X94189463Y-76804494D01*
X94252462Y-76881258D01*
X94224774Y-76948102D01*
X94185000Y-77148061D01*
X94185000Y-77351939D01*
X94224774Y-77551898D01*
X94302795Y-77740256D01*
X94416063Y-77909774D01*
X94560226Y-78053937D01*
X94729744Y-78167205D01*
X94918102Y-78245226D01*
X95118061Y-78285000D01*
X95321939Y-78285000D01*
X95521898Y-78245226D01*
X95710256Y-78167205D01*
X95879774Y-78053937D01*
X96023937Y-77909774D01*
X96137205Y-77740256D01*
X96215226Y-77551898D01*
X96255000Y-77351939D01*
X96255000Y-77148061D01*
X96222565Y-76985000D01*
X96421939Y-76985000D01*
X96621898Y-76945226D01*
X96810256Y-76867205D01*
X96979774Y-76753937D01*
X97123937Y-76609774D01*
X97237205Y-76440256D01*
X97315226Y-76251898D01*
X97355000Y-76051939D01*
X97355000Y-75848061D01*
X97315226Y-75648102D01*
X97237205Y-75459744D01*
X97123937Y-75290226D01*
X96979774Y-75146063D01*
X96810256Y-75032795D01*
X96621898Y-74954774D01*
X96421939Y-74915000D01*
X96218061Y-74915000D01*
X96166445Y-74925267D01*
X96150537Y-74895506D01*
X96071185Y-74798815D01*
X95974494Y-74719463D01*
X95864180Y-74660498D01*
X95744482Y-74624188D01*
X95620000Y-74611928D01*
X94720000Y-74611928D01*
X94595518Y-74624188D01*
X94475820Y-74660498D01*
X94365506Y-74719463D01*
X94268815Y-74798815D01*
X94189463Y-74895506D01*
X94130498Y-75005820D01*
X94094188Y-75125518D01*
X94081928Y-75250000D01*
X92958072Y-75250000D01*
X92945812Y-75125518D01*
X92939638Y-75105164D01*
X95181003Y-72863799D01*
X95210001Y-72840001D01*
X95304974Y-72724276D01*
X95375546Y-72592247D01*
X95419003Y-72448986D01*
X95419093Y-72448072D01*
X95520000Y-72448072D01*
X95644482Y-72435812D01*
X95764180Y-72399502D01*
X95874494Y-72340537D01*
X95962001Y-72268722D01*
X95962001Y-73619885D01*
X95958444Y-73656000D01*
X95972635Y-73800085D01*
X96005892Y-73909716D01*
X96014664Y-73938633D01*
X96082914Y-74066320D01*
X96174763Y-74178238D01*
X96202808Y-74201254D01*
X97871746Y-75870193D01*
X97894762Y-75898238D01*
X98006680Y-75990087D01*
X98134367Y-76058337D01*
X98272915Y-76100365D01*
X98380895Y-76111000D01*
X98380904Y-76111000D01*
X98416999Y-76114555D01*
X98453094Y-76111000D01*
X99395157Y-76111000D01*
X99641643Y-76357486D01*
X99610000Y-76383454D01*
X99562829Y-76344742D01*
X99426582Y-76271916D01*
X99278745Y-76227071D01*
X99125000Y-76211928D01*
X98825000Y-76211928D01*
X98671255Y-76227071D01*
X98523418Y-76271916D01*
X98387171Y-76344742D01*
X98267749Y-76442749D01*
X98169742Y-76562171D01*
X98096916Y-76698418D01*
X98052071Y-76846255D01*
X98036928Y-77000000D01*
X98036928Y-77688270D01*
X97139003Y-78586196D01*
X97109999Y-78609999D01*
X97072620Y-78655546D01*
X97015026Y-78725724D01*
X96956617Y-78834999D01*
X96944454Y-78857754D01*
X96900997Y-79001015D01*
X96894459Y-79067398D01*
X96825518Y-79074188D01*
X96705820Y-79110498D01*
X96595506Y-79169463D01*
X96498815Y-79248815D01*
X96419463Y-79345506D01*
X96396686Y-79388118D01*
X96330283Y-79352625D01*
X96168377Y-79303512D01*
X96000000Y-79286928D01*
X95500000Y-79286928D01*
X95331623Y-79303512D01*
X95169717Y-79352625D01*
X95020503Y-79432382D01*
X94889716Y-79539716D01*
X94782382Y-79670503D01*
X94702625Y-79819717D01*
X94653512Y-79981623D01*
X94636928Y-80150000D01*
X94636928Y-80600000D01*
X94653512Y-80768377D01*
X94702625Y-80930283D01*
X94780700Y-81076351D01*
X94744463Y-81120506D01*
X94685498Y-81230820D01*
X94649188Y-81350518D01*
X94636928Y-81475000D01*
X94640000Y-81639250D01*
X94798750Y-81798000D01*
X95623000Y-81798000D01*
X95623000Y-81778000D01*
X95877000Y-81778000D01*
X95877000Y-81798000D01*
X96398750Y-81798000D01*
X96473750Y-81873000D01*
X97523000Y-81873000D01*
X97523000Y-81853000D01*
X97777000Y-81853000D01*
X97777000Y-81873000D01*
X97797000Y-81873000D01*
X97797000Y-82127000D01*
X97777000Y-82127000D01*
X97777000Y-83076250D01*
X97935750Y-83235000D01*
X98350000Y-83238072D01*
X98474482Y-83225812D01*
X98594180Y-83189502D01*
X98704494Y-83130537D01*
X98750000Y-83093191D01*
X98795506Y-83130537D01*
X98905820Y-83189502D01*
X99025518Y-83225812D01*
X99150000Y-83238072D01*
X100550000Y-83238072D01*
X100674482Y-83225812D01*
X100794180Y-83189502D01*
X100904494Y-83130537D01*
X101001185Y-83051185D01*
X101080537Y-82954494D01*
X101103314Y-82911882D01*
X101169717Y-82947375D01*
X101331623Y-82996488D01*
X101500000Y-83013072D01*
X102000000Y-83013072D01*
X102168377Y-82996488D01*
X102330283Y-82947375D01*
X102479497Y-82867618D01*
X102501399Y-82849643D01*
X102569506Y-82905537D01*
X102679820Y-82964502D01*
X102799518Y-83000812D01*
X102924000Y-83013072D01*
X103113250Y-83010000D01*
X103272000Y-82851250D01*
X103272000Y-82052000D01*
X103252000Y-82052000D01*
X103252000Y-81798000D01*
X103272000Y-81798000D01*
X103272000Y-81778000D01*
X103526000Y-81778000D01*
X103526000Y-81798000D01*
X103546000Y-81798000D01*
X103546000Y-82052000D01*
X103526000Y-82052000D01*
X103526000Y-82851250D01*
X103684750Y-83010000D01*
X103874000Y-83013072D01*
X103998482Y-83000812D01*
X104118180Y-82964502D01*
X104208539Y-82916203D01*
X104240208Y-82954792D01*
X104373836Y-83064458D01*
X104526291Y-83145947D01*
X104691715Y-83196128D01*
X104863750Y-83213072D01*
X105370770Y-83213072D01*
X105568711Y-83411012D01*
X105592509Y-83440011D01*
X105708234Y-83534984D01*
X105840263Y-83605556D01*
X105983524Y-83649013D01*
X106095177Y-83660010D01*
X106095185Y-83660010D01*
X106132510Y-83663686D01*
X106169835Y-83660010D01*
X108932668Y-83660010D01*
X108969990Y-83663686D01*
X109007312Y-83660010D01*
X109007323Y-83660010D01*
X109118976Y-83649013D01*
X109262237Y-83605556D01*
X109394266Y-83534984D01*
X109509991Y-83440011D01*
X109533793Y-83411008D01*
X110356003Y-82588799D01*
X110385000Y-82565002D01*
X110479973Y-82449277D01*
X110550545Y-82317248D01*
X110594002Y-82173987D01*
X110604999Y-82062334D01*
X110604999Y-82062333D01*
X110608676Y-82025001D01*
X110604999Y-81987668D01*
X110604999Y-80429872D01*
X158935000Y-80429872D01*
X158935000Y-80870128D01*
X159020890Y-81301925D01*
X159189369Y-81708669D01*
X159433962Y-82074729D01*
X159745271Y-82386038D01*
X160111331Y-82630631D01*
X160518075Y-82799110D01*
X160949872Y-82885000D01*
X161390128Y-82885000D01*
X161821925Y-82799110D01*
X162228669Y-82630631D01*
X162594729Y-82386038D01*
X162906038Y-82074729D01*
X163150631Y-81708669D01*
X163319110Y-81301925D01*
X163405000Y-80870128D01*
X163405000Y-80429872D01*
X163319110Y-79998075D01*
X163150631Y-79591331D01*
X162906038Y-79225271D01*
X162594729Y-78913962D01*
X162228669Y-78669369D01*
X161821925Y-78500890D01*
X161390128Y-78415000D01*
X160949872Y-78415000D01*
X160518075Y-78500890D01*
X160111331Y-78669369D01*
X159745271Y-78913962D01*
X159433962Y-79225271D01*
X159189369Y-79591331D01*
X159020890Y-79998075D01*
X158935000Y-80429872D01*
X110604999Y-80429872D01*
X110604999Y-78780413D01*
X121519192Y-78780413D01*
X121614956Y-79044814D01*
X121904571Y-79185704D01*
X122216108Y-79267384D01*
X122537595Y-79286718D01*
X122856675Y-79242961D01*
X123161088Y-79137795D01*
X123335044Y-79044814D01*
X123430808Y-78780413D01*
X128019192Y-78780413D01*
X128114956Y-79044814D01*
X128404571Y-79185704D01*
X128716108Y-79267384D01*
X129037595Y-79286718D01*
X129356675Y-79242961D01*
X129661088Y-79137795D01*
X129835044Y-79044814D01*
X129930808Y-78780413D01*
X128975000Y-77824605D01*
X128019192Y-78780413D01*
X123430808Y-78780413D01*
X122475000Y-77824605D01*
X121519192Y-78780413D01*
X110604999Y-78780413D01*
X110604999Y-72282402D01*
X110618061Y-72285000D01*
X110821939Y-72285000D01*
X111021898Y-72245226D01*
X111210256Y-72167205D01*
X111220411Y-72160420D01*
X111245251Y-72177017D01*
X111433609Y-72255038D01*
X111633568Y-72294812D01*
X111837446Y-72294812D01*
X112037405Y-72255038D01*
X112225763Y-72177017D01*
X112395281Y-72063749D01*
X112439218Y-72019812D01*
X112572866Y-72019812D01*
X112610188Y-72023488D01*
X112647510Y-72019812D01*
X112647521Y-72019812D01*
X112759174Y-72008815D01*
X112902435Y-71965358D01*
X113034464Y-71894786D01*
X113150189Y-71799813D01*
X113173991Y-71770810D01*
X113731008Y-71213795D01*
X113760001Y-71190001D01*
X113783795Y-71161008D01*
X113783799Y-71161004D01*
X113854973Y-71074277D01*
X113868151Y-71049623D01*
X113874326Y-71038072D01*
X114295000Y-71038072D01*
X114419482Y-71025812D01*
X114420620Y-71025467D01*
X114534250Y-71035000D01*
X114626333Y-70942917D01*
X114649494Y-70930537D01*
X114746185Y-70851185D01*
X114820000Y-70761241D01*
X114860001Y-70809982D01*
X114860001Y-71675168D01*
X114856324Y-71712500D01*
X114860001Y-71749833D01*
X114869934Y-71850684D01*
X114759250Y-71740000D01*
X114595000Y-71736928D01*
X114470518Y-71749188D01*
X114350820Y-71785498D01*
X114240506Y-71844463D01*
X114143815Y-71923815D01*
X114064463Y-72020506D01*
X114005498Y-72130820D01*
X113969188Y-72250518D01*
X113956928Y-72375000D01*
X113960000Y-72564250D01*
X114118750Y-72723000D01*
X114918000Y-72723000D01*
X114918000Y-72703000D01*
X115172000Y-72703000D01*
X115172000Y-72723000D01*
X115192000Y-72723000D01*
X115192000Y-72977000D01*
X115172000Y-72977000D01*
X115172000Y-72997000D01*
X114918000Y-72997000D01*
X114918000Y-72977000D01*
X114118750Y-72977000D01*
X114055231Y-73040520D01*
X113964774Y-72950063D01*
X113795256Y-72836795D01*
X113606898Y-72758774D01*
X113406939Y-72719000D01*
X113203061Y-72719000D01*
X113003102Y-72758774D01*
X112814744Y-72836795D01*
X112645226Y-72950063D01*
X112501063Y-73094226D01*
X112387795Y-73263744D01*
X112309774Y-73452102D01*
X112270000Y-73652061D01*
X112270000Y-73855939D01*
X112309774Y-74055898D01*
X112387795Y-74244256D01*
X112501063Y-74413774D01*
X112645226Y-74557937D01*
X112814744Y-74671205D01*
X113003102Y-74749226D01*
X113203061Y-74789000D01*
X113265198Y-74789000D01*
X113637200Y-75161002D01*
X113660999Y-75190001D01*
X113776724Y-75284974D01*
X113908753Y-75355546D01*
X114048019Y-75397791D01*
X114102382Y-75499497D01*
X114209716Y-75630284D01*
X114340503Y-75737618D01*
X114489717Y-75817375D01*
X114651623Y-75866488D01*
X114820000Y-75883072D01*
X115270000Y-75883072D01*
X115438377Y-75866488D01*
X115600283Y-75817375D01*
X115749497Y-75737618D01*
X115820000Y-75679758D01*
X115890503Y-75737618D01*
X116039717Y-75817375D01*
X116201623Y-75866488D01*
X116370000Y-75883072D01*
X116820000Y-75883072D01*
X116988377Y-75866488D01*
X117150283Y-75817375D01*
X117299497Y-75737618D01*
X117430284Y-75630284D01*
X117537618Y-75499497D01*
X117552048Y-75472500D01*
X118352155Y-75472500D01*
X118440208Y-75579792D01*
X118525756Y-75650000D01*
X118440208Y-75720208D01*
X118413252Y-75753054D01*
X118221939Y-75715000D01*
X118018061Y-75715000D01*
X117818102Y-75754774D01*
X117629744Y-75832795D01*
X117460226Y-75946063D01*
X117316063Y-76090226D01*
X117202795Y-76259744D01*
X117124774Y-76448102D01*
X117085000Y-76648061D01*
X117085000Y-76851939D01*
X117124774Y-77051898D01*
X117202795Y-77240256D01*
X117316063Y-77409774D01*
X117460226Y-77553937D01*
X117629744Y-77667205D01*
X117818102Y-77745226D01*
X118018061Y-77785000D01*
X118221939Y-77785000D01*
X118421898Y-77745226D01*
X118610256Y-77667205D01*
X118679501Y-77620937D01*
X118726291Y-77645947D01*
X118891715Y-77696128D01*
X119063750Y-77713072D01*
X119976250Y-77713072D01*
X120031858Y-77707595D01*
X120833282Y-77707595D01*
X120877039Y-78026675D01*
X120982205Y-78331088D01*
X121075186Y-78505044D01*
X121339587Y-78600808D01*
X122295395Y-77645000D01*
X122654605Y-77645000D01*
X123610413Y-78600808D01*
X123874814Y-78505044D01*
X124015704Y-78215429D01*
X124097384Y-77903892D01*
X124109189Y-77707595D01*
X127333282Y-77707595D01*
X127377039Y-78026675D01*
X127482205Y-78331088D01*
X127575186Y-78505044D01*
X127839587Y-78600808D01*
X128795395Y-77645000D01*
X129154605Y-77645000D01*
X130110413Y-78600808D01*
X130374814Y-78505044D01*
X130515704Y-78215429D01*
X130597384Y-77903892D01*
X130616718Y-77582405D01*
X130572961Y-77263325D01*
X130467795Y-76958912D01*
X130374814Y-76784956D01*
X130110413Y-76689192D01*
X129154605Y-77645000D01*
X128795395Y-77645000D01*
X127839587Y-76689192D01*
X127575186Y-76784956D01*
X127434296Y-77074571D01*
X127352616Y-77386108D01*
X127333282Y-77707595D01*
X124109189Y-77707595D01*
X124116718Y-77582405D01*
X124072961Y-77263325D01*
X123967795Y-76958912D01*
X123874814Y-76784956D01*
X123610413Y-76689192D01*
X122654605Y-77645000D01*
X122295395Y-77645000D01*
X121339587Y-76689192D01*
X121075186Y-76784956D01*
X120934296Y-77074571D01*
X120852616Y-77386108D01*
X120833282Y-77707595D01*
X120031858Y-77707595D01*
X120148285Y-77696128D01*
X120313709Y-77645947D01*
X120466164Y-77564458D01*
X120599792Y-77454792D01*
X120709458Y-77321164D01*
X120790947Y-77168709D01*
X120841128Y-77003285D01*
X120858072Y-76831250D01*
X120858072Y-76509587D01*
X121519192Y-76509587D01*
X122475000Y-77465395D01*
X123430808Y-76509587D01*
X128019192Y-76509587D01*
X128975000Y-77465395D01*
X129930808Y-76509587D01*
X129835044Y-76245186D01*
X129545429Y-76104296D01*
X129233892Y-76022616D01*
X128912405Y-76003282D01*
X128593325Y-76047039D01*
X128288912Y-76152205D01*
X128114956Y-76245186D01*
X128019192Y-76509587D01*
X123430808Y-76509587D01*
X123335044Y-76245186D01*
X123045429Y-76104296D01*
X122733892Y-76022616D01*
X122412405Y-76003282D01*
X122093325Y-76047039D01*
X121788912Y-76152205D01*
X121614956Y-76245186D01*
X121519192Y-76509587D01*
X120858072Y-76509587D01*
X120858072Y-76343750D01*
X120841128Y-76171715D01*
X120790947Y-76006291D01*
X120709458Y-75853836D01*
X120599792Y-75720208D01*
X120514244Y-75650000D01*
X120599792Y-75579792D01*
X120687845Y-75472500D01*
X120720178Y-75472500D01*
X120757500Y-75476176D01*
X120794822Y-75472500D01*
X120794833Y-75472500D01*
X120906486Y-75461503D01*
X121049747Y-75418046D01*
X121181776Y-75347474D01*
X121297501Y-75252501D01*
X121321304Y-75223497D01*
X121877558Y-74667243D01*
X121998088Y-74717168D01*
X122313967Y-74780000D01*
X122636033Y-74780000D01*
X122951912Y-74717168D01*
X123249463Y-74593918D01*
X123517252Y-74414987D01*
X123744987Y-74187252D01*
X123923918Y-73919463D01*
X123929909Y-73905000D01*
X127520091Y-73905000D01*
X127526082Y-73919463D01*
X127705013Y-74187252D01*
X127932748Y-74414987D01*
X128200537Y-74593918D01*
X128498088Y-74717168D01*
X128813967Y-74780000D01*
X129136033Y-74780000D01*
X129451912Y-74717168D01*
X129749463Y-74593918D01*
X130017252Y-74414987D01*
X130244987Y-74187252D01*
X130423918Y-73919463D01*
X130547168Y-73621912D01*
X130610000Y-73306033D01*
X130610000Y-72983967D01*
X130547168Y-72668088D01*
X130423918Y-72370537D01*
X130244987Y-72102748D01*
X130017252Y-71875013D01*
X129749463Y-71696082D01*
X129451912Y-71572832D01*
X129136033Y-71510000D01*
X128813967Y-71510000D01*
X128498088Y-71572832D01*
X128200537Y-71696082D01*
X127932748Y-71875013D01*
X127705013Y-72102748D01*
X127526082Y-72370537D01*
X127520091Y-72385000D01*
X123929909Y-72385000D01*
X123923918Y-72370537D01*
X123744987Y-72102748D01*
X123517252Y-71875013D01*
X123249463Y-71696082D01*
X122951912Y-71572832D01*
X122636033Y-71510000D01*
X122313967Y-71510000D01*
X121998088Y-71572832D01*
X121700537Y-71696082D01*
X121432748Y-71875013D01*
X121205013Y-72102748D01*
X121026082Y-72370537D01*
X120902832Y-72668088D01*
X120840000Y-72983967D01*
X120840000Y-73306033D01*
X120881339Y-73513859D01*
X120572439Y-73822760D01*
X120466164Y-73735542D01*
X120313709Y-73654053D01*
X120148285Y-73603872D01*
X119976250Y-73586928D01*
X119063750Y-73586928D01*
X118891715Y-73603872D01*
X118726291Y-73654053D01*
X118573836Y-73735542D01*
X118440208Y-73845208D01*
X118352155Y-73952500D01*
X117465396Y-73952500D01*
X117430284Y-73909716D01*
X117308780Y-73810000D01*
X117430284Y-73710284D01*
X117537618Y-73579497D01*
X117617375Y-73430283D01*
X117666488Y-73268377D01*
X117683072Y-73100000D01*
X117683072Y-72600000D01*
X117666488Y-72431623D01*
X117618386Y-72273049D01*
X117663716Y-72328284D01*
X117794503Y-72435618D01*
X117943717Y-72515375D01*
X118105623Y-72564488D01*
X118274000Y-72581072D01*
X118724000Y-72581072D01*
X118892377Y-72564488D01*
X119054283Y-72515375D01*
X119200351Y-72437300D01*
X119244506Y-72473537D01*
X119354820Y-72532502D01*
X119474518Y-72568812D01*
X119599000Y-72581072D01*
X119763250Y-72578000D01*
X119922000Y-72419250D01*
X119922000Y-71595000D01*
X120176000Y-71595000D01*
X120176000Y-72419250D01*
X120334750Y-72578000D01*
X120499000Y-72581072D01*
X120623482Y-72568812D01*
X120743180Y-72532502D01*
X120853494Y-72473537D01*
X120950185Y-72394185D01*
X121029537Y-72297494D01*
X121088502Y-72187180D01*
X121124812Y-72067482D01*
X121137072Y-71943000D01*
X121134000Y-71753750D01*
X120975250Y-71595000D01*
X120176000Y-71595000D01*
X119922000Y-71595000D01*
X119902000Y-71595000D01*
X119902000Y-71341000D01*
X119922000Y-71341000D01*
X119922000Y-70516750D01*
X120176000Y-70516750D01*
X120176000Y-71341000D01*
X120975250Y-71341000D01*
X121134000Y-71182250D01*
X121137072Y-70993000D01*
X121124812Y-70868518D01*
X121088502Y-70748820D01*
X121029537Y-70638506D01*
X120950185Y-70541815D01*
X120853494Y-70462463D01*
X120743180Y-70403498D01*
X120623482Y-70367188D01*
X120499000Y-70354928D01*
X120334750Y-70358000D01*
X120176000Y-70516750D01*
X119922000Y-70516750D01*
X119763250Y-70358000D01*
X119599000Y-70354928D01*
X119474518Y-70367188D01*
X119354820Y-70403498D01*
X119244506Y-70462463D01*
X119200351Y-70498700D01*
X119054283Y-70420625D01*
X118933072Y-70383857D01*
X118933072Y-69761729D01*
X119133802Y-69561000D01*
X132063678Y-69561000D01*
X132101000Y-69564676D01*
X132138322Y-69561000D01*
X132138333Y-69561000D01*
X132249986Y-69550003D01*
X132393247Y-69506546D01*
X132525276Y-69435974D01*
X132641001Y-69341001D01*
X132664803Y-69311998D01*
X133029801Y-68947000D01*
X133091939Y-68947000D01*
X133291898Y-68907226D01*
X133480256Y-68829205D01*
X133649774Y-68715937D01*
X133793937Y-68571774D01*
X133863245Y-68468046D01*
X140304558Y-74909360D01*
X140347832Y-75126912D01*
X140471082Y-75424463D01*
X140650013Y-75692252D01*
X140877748Y-75919987D01*
X141145537Y-76098918D01*
X141443088Y-76222168D01*
X141758967Y-76285000D01*
X142081033Y-76285000D01*
X142396912Y-76222168D01*
X142694463Y-76098918D01*
X142962252Y-75919987D01*
X143096826Y-75785413D01*
X143464192Y-75785413D01*
X143559956Y-76049814D01*
X143849571Y-76190704D01*
X144161108Y-76272384D01*
X144482595Y-76291718D01*
X144801675Y-76247961D01*
X145106088Y-76142795D01*
X145280044Y-76049814D01*
X145375808Y-75785413D01*
X144420000Y-74829605D01*
X143464192Y-75785413D01*
X143096826Y-75785413D01*
X143189987Y-75692252D01*
X143254925Y-75595065D01*
X143284587Y-75605808D01*
X144240395Y-74650000D01*
X144226253Y-74635858D01*
X144405858Y-74456253D01*
X144420000Y-74470395D01*
X144434143Y-74456253D01*
X144613748Y-74635858D01*
X144599605Y-74650000D01*
X145555413Y-75605808D01*
X145585075Y-75595065D01*
X145650013Y-75692252D01*
X145877748Y-75919987D01*
X146145537Y-76098918D01*
X146443088Y-76222168D01*
X146758967Y-76285000D01*
X147081033Y-76285000D01*
X147396912Y-76222168D01*
X147694463Y-76098918D01*
X147962252Y-75919987D01*
X148189987Y-75692252D01*
X148368918Y-75424463D01*
X148492168Y-75126912D01*
X148555000Y-74811033D01*
X148555000Y-74488967D01*
X148492168Y-74173088D01*
X148368918Y-73875537D01*
X148189987Y-73607748D01*
X148092239Y-73510000D01*
X154705199Y-73510000D01*
X155103823Y-73908625D01*
X155097832Y-73923088D01*
X155035000Y-74238967D01*
X155035000Y-74561033D01*
X155097832Y-74876912D01*
X155221082Y-75174463D01*
X155400013Y-75442252D01*
X155627748Y-75669987D01*
X155895537Y-75848918D01*
X156193088Y-75972168D01*
X156508967Y-76035000D01*
X156831033Y-76035000D01*
X157146912Y-75972168D01*
X157444463Y-75848918D01*
X157712252Y-75669987D01*
X157939987Y-75442252D01*
X158118918Y-75174463D01*
X158242168Y-74876912D01*
X158305000Y-74561033D01*
X158305000Y-74238967D01*
X158242168Y-73923088D01*
X158118918Y-73625537D01*
X157939987Y-73357748D01*
X157712252Y-73130013D01*
X157444463Y-72951082D01*
X157146912Y-72827832D01*
X156831033Y-72765000D01*
X156508967Y-72765000D01*
X156193088Y-72827832D01*
X156178625Y-72833823D01*
X155583803Y-72239002D01*
X155560001Y-72209999D01*
X155444276Y-72115026D01*
X155312247Y-72044454D01*
X155168986Y-72000997D01*
X155057333Y-71990000D01*
X155057322Y-71990000D01*
X155020000Y-71986324D01*
X154982678Y-71990000D01*
X141334802Y-71990000D01*
X140380215Y-71035413D01*
X155714192Y-71035413D01*
X155809956Y-71299814D01*
X156099571Y-71440704D01*
X156411108Y-71522384D01*
X156732595Y-71541718D01*
X157051675Y-71497961D01*
X157356088Y-71392795D01*
X157530044Y-71299814D01*
X157625808Y-71035413D01*
X162214192Y-71035413D01*
X162309956Y-71299814D01*
X162599571Y-71440704D01*
X162911108Y-71522384D01*
X163232595Y-71541718D01*
X163551675Y-71497961D01*
X163856088Y-71392795D01*
X164030044Y-71299814D01*
X164125808Y-71035413D01*
X163170000Y-70079605D01*
X162214192Y-71035413D01*
X157625808Y-71035413D01*
X156670000Y-70079605D01*
X155714192Y-71035413D01*
X140380215Y-71035413D01*
X139307397Y-69962595D01*
X155028282Y-69962595D01*
X155072039Y-70281675D01*
X155177205Y-70586088D01*
X155270186Y-70760044D01*
X155534587Y-70855808D01*
X156490395Y-69900000D01*
X156849605Y-69900000D01*
X157805413Y-70855808D01*
X158069814Y-70760044D01*
X158210704Y-70470429D01*
X158292384Y-70158892D01*
X158304189Y-69962595D01*
X161528282Y-69962595D01*
X161572039Y-70281675D01*
X161677205Y-70586088D01*
X161770186Y-70760044D01*
X162034587Y-70855808D01*
X162990395Y-69900000D01*
X162034587Y-68944192D01*
X161770186Y-69039956D01*
X161629296Y-69329571D01*
X161547616Y-69641108D01*
X161528282Y-69962595D01*
X158304189Y-69962595D01*
X158311718Y-69837405D01*
X158267961Y-69518325D01*
X158162795Y-69213912D01*
X158069814Y-69039956D01*
X157805413Y-68944192D01*
X156849605Y-69900000D01*
X156490395Y-69900000D01*
X155534587Y-68944192D01*
X155270186Y-69039956D01*
X155129296Y-69329571D01*
X155047616Y-69641108D01*
X155028282Y-69962595D01*
X139307397Y-69962595D01*
X139116953Y-69772152D01*
X139340000Y-69794120D01*
X139709524Y-69757725D01*
X140064848Y-69649939D01*
X140392317Y-69474903D01*
X140679345Y-69239345D01*
X140914903Y-68952317D01*
X141089939Y-68624848D01*
X141197725Y-68269524D01*
X141225000Y-67992597D01*
X141225000Y-66307403D01*
X147615000Y-66307403D01*
X147615000Y-67992596D01*
X147642275Y-68269523D01*
X147750061Y-68624847D01*
X147925097Y-68952317D01*
X148160655Y-69239345D01*
X148447683Y-69474903D01*
X148775152Y-69649939D01*
X149130476Y-69757725D01*
X149500000Y-69794120D01*
X149869523Y-69757725D01*
X150224847Y-69649939D01*
X150552317Y-69474903D01*
X150839345Y-69239345D01*
X151074903Y-68952317D01*
X151175246Y-68764587D01*
X155714192Y-68764587D01*
X156670000Y-69720395D01*
X157625808Y-68764587D01*
X162214192Y-68764587D01*
X163170000Y-69720395D01*
X164125808Y-68764587D01*
X164030044Y-68500186D01*
X163740429Y-68359296D01*
X163428892Y-68277616D01*
X163107405Y-68258282D01*
X162788325Y-68302039D01*
X162483912Y-68407205D01*
X162309956Y-68500186D01*
X162214192Y-68764587D01*
X157625808Y-68764587D01*
X157530044Y-68500186D01*
X157240429Y-68359296D01*
X156928892Y-68277616D01*
X156607405Y-68258282D01*
X156288325Y-68302039D01*
X155983912Y-68407205D01*
X155809956Y-68500186D01*
X155714192Y-68764587D01*
X151175246Y-68764587D01*
X151249939Y-68624848D01*
X151357725Y-68269524D01*
X151385000Y-67992597D01*
X151385000Y-66307403D01*
X151357725Y-66030476D01*
X151249939Y-65675152D01*
X151074903Y-65347683D01*
X150839345Y-65060655D01*
X150552317Y-64825097D01*
X150224848Y-64650061D01*
X149869524Y-64542275D01*
X149500000Y-64505880D01*
X149130477Y-64542275D01*
X148775153Y-64650061D01*
X148447684Y-64825097D01*
X148160656Y-65060655D01*
X147925098Y-65347683D01*
X147750062Y-65675152D01*
X147642275Y-66030476D01*
X147615000Y-66307403D01*
X141225000Y-66307403D01*
X141197725Y-66030476D01*
X141089939Y-65675152D01*
X140914903Y-65347683D01*
X140679345Y-65060655D01*
X140392317Y-64825097D01*
X140064847Y-64650061D01*
X139709523Y-64542275D01*
X139340000Y-64505880D01*
X138970476Y-64542275D01*
X138615152Y-64650061D01*
X138287683Y-64825097D01*
X138000655Y-65060655D01*
X137765097Y-65347683D01*
X137590061Y-65675153D01*
X137482275Y-66030477D01*
X137455000Y-66307404D01*
X137455000Y-67992597D01*
X137467848Y-68123047D01*
X134254801Y-64910000D01*
X137882678Y-64910000D01*
X137920000Y-64913676D01*
X137957322Y-64910000D01*
X137957333Y-64910000D01*
X138068986Y-64899003D01*
X138212247Y-64855546D01*
X138344276Y-64784974D01*
X138460001Y-64690001D01*
X138483804Y-64660997D01*
X141428625Y-61716177D01*
X141443088Y-61722168D01*
X141758967Y-61785000D01*
X142081033Y-61785000D01*
X142396912Y-61722168D01*
X142694463Y-61598918D01*
X142962252Y-61419987D01*
X143096826Y-61285413D01*
X145964192Y-61285413D01*
X146059956Y-61549814D01*
X146349571Y-61690704D01*
X146661108Y-61772384D01*
X146982595Y-61791718D01*
X147301675Y-61747961D01*
X147606088Y-61642795D01*
X147780044Y-61549814D01*
X147875808Y-61285413D01*
X146920000Y-60329605D01*
X145964192Y-61285413D01*
X143096826Y-61285413D01*
X143189987Y-61192252D01*
X143368918Y-60924463D01*
X143492168Y-60626912D01*
X143555000Y-60311033D01*
X143555000Y-60212595D01*
X145278282Y-60212595D01*
X145322039Y-60531675D01*
X145427205Y-60836088D01*
X145520186Y-61010044D01*
X145784587Y-61105808D01*
X146740395Y-60150000D01*
X147099605Y-60150000D01*
X148055413Y-61105808D01*
X148319814Y-61010044D01*
X148421074Y-60801891D01*
X149133519Y-60801891D01*
X149230843Y-61076252D01*
X149379822Y-61326355D01*
X149574731Y-61542588D01*
X149808080Y-61716641D01*
X150070901Y-61841825D01*
X150218110Y-61886476D01*
X150448000Y-61765155D01*
X150448000Y-60572000D01*
X149254186Y-60572000D01*
X149133519Y-60801891D01*
X148421074Y-60801891D01*
X148460704Y-60720429D01*
X148542384Y-60408892D01*
X148561675Y-60088109D01*
X149133519Y-60088109D01*
X149254186Y-60318000D01*
X150448000Y-60318000D01*
X150448000Y-59124845D01*
X150702000Y-59124845D01*
X150702000Y-60318000D01*
X150722000Y-60318000D01*
X150722000Y-60572000D01*
X150702000Y-60572000D01*
X150702000Y-61765155D01*
X150931890Y-61886476D01*
X151079099Y-61841825D01*
X151341920Y-61716641D01*
X151575269Y-61542588D01*
X151651034Y-61458534D01*
X151675498Y-61539180D01*
X151734463Y-61649494D01*
X151813815Y-61746185D01*
X151910506Y-61825537D01*
X152020820Y-61884502D01*
X152140518Y-61920812D01*
X152265000Y-61933072D01*
X153965000Y-61933072D01*
X154089482Y-61920812D01*
X154209180Y-61884502D01*
X154319494Y-61825537D01*
X154416185Y-61746185D01*
X154495537Y-61649494D01*
X154549754Y-61548061D01*
X156485000Y-61548061D01*
X156485000Y-61751939D01*
X156524774Y-61951898D01*
X156602795Y-62140256D01*
X156716063Y-62309774D01*
X156860226Y-62453937D01*
X157029744Y-62567205D01*
X157218102Y-62645226D01*
X157418061Y-62685000D01*
X157491386Y-62685000D01*
X157515724Y-62704974D01*
X157647753Y-62775546D01*
X157665449Y-62780914D01*
X157675382Y-62799497D01*
X157782716Y-62930284D01*
X157913503Y-63037618D01*
X158062717Y-63117375D01*
X158224623Y-63166488D01*
X158393000Y-63183072D01*
X158843000Y-63183072D01*
X159011377Y-63166488D01*
X159173283Y-63117375D01*
X159319351Y-63039300D01*
X159363506Y-63075537D01*
X159473820Y-63134502D01*
X159593518Y-63170812D01*
X159718000Y-63183072D01*
X159882250Y-63180000D01*
X160041000Y-63021250D01*
X160041000Y-62197000D01*
X160295000Y-62197000D01*
X160295000Y-63021250D01*
X160453750Y-63180000D01*
X160618000Y-63183072D01*
X160742482Y-63170812D01*
X160862180Y-63134502D01*
X160972494Y-63075537D01*
X161069185Y-62996185D01*
X161148537Y-62899494D01*
X161207502Y-62789180D01*
X161243812Y-62669482D01*
X161256072Y-62545000D01*
X161253000Y-62355750D01*
X161094250Y-62197000D01*
X160295000Y-62197000D01*
X160041000Y-62197000D01*
X160021000Y-62197000D01*
X160021000Y-61943000D01*
X160041000Y-61943000D01*
X160041000Y-61118750D01*
X160295000Y-61118750D01*
X160295000Y-61943000D01*
X161094250Y-61943000D01*
X161253000Y-61784250D01*
X161256072Y-61595000D01*
X161243812Y-61470518D01*
X161207502Y-61350820D01*
X161148537Y-61240506D01*
X161069185Y-61143815D01*
X160972494Y-61064463D01*
X160862180Y-61005498D01*
X160742482Y-60969188D01*
X160618000Y-60956928D01*
X160453750Y-60960000D01*
X160295000Y-61118750D01*
X160041000Y-61118750D01*
X159882250Y-60960000D01*
X159718000Y-60956928D01*
X159593518Y-60969188D01*
X159473820Y-61005498D01*
X159363506Y-61064463D01*
X159319351Y-61100700D01*
X159173283Y-61022625D01*
X159011377Y-60973512D01*
X158843000Y-60956928D01*
X158393000Y-60956928D01*
X158299817Y-60966106D01*
X158179774Y-60846063D01*
X158010256Y-60732795D01*
X157821898Y-60654774D01*
X157621939Y-60615000D01*
X157418061Y-60615000D01*
X157218102Y-60654774D01*
X157029744Y-60732795D01*
X156860226Y-60846063D01*
X156716063Y-60990226D01*
X156602795Y-61159744D01*
X156524774Y-61348102D01*
X156485000Y-61548061D01*
X154549754Y-61548061D01*
X154554502Y-61539180D01*
X154590812Y-61419482D01*
X154603072Y-61295000D01*
X154603072Y-59595000D01*
X154590812Y-59470518D01*
X154554502Y-59350820D01*
X154495537Y-59240506D01*
X154416185Y-59143815D01*
X154319494Y-59064463D01*
X154209180Y-59005498D01*
X154089482Y-58969188D01*
X153965000Y-58956928D01*
X152265000Y-58956928D01*
X152140518Y-58969188D01*
X152020820Y-59005498D01*
X151910506Y-59064463D01*
X151813815Y-59143815D01*
X151734463Y-59240506D01*
X151675498Y-59350820D01*
X151651034Y-59431466D01*
X151575269Y-59347412D01*
X151341920Y-59173359D01*
X151079099Y-59048175D01*
X150931890Y-59003524D01*
X150702000Y-59124845D01*
X150448000Y-59124845D01*
X150218110Y-59003524D01*
X150070901Y-59048175D01*
X149808080Y-59173359D01*
X149574731Y-59347412D01*
X149379822Y-59563645D01*
X149230843Y-59813748D01*
X149133519Y-60088109D01*
X148561675Y-60088109D01*
X148561718Y-60087405D01*
X148517961Y-59768325D01*
X148412795Y-59463912D01*
X148319814Y-59289956D01*
X148055413Y-59194192D01*
X147099605Y-60150000D01*
X146740395Y-60150000D01*
X145784587Y-59194192D01*
X145520186Y-59289956D01*
X145379296Y-59579571D01*
X145297616Y-59891108D01*
X145278282Y-60212595D01*
X143555000Y-60212595D01*
X143555000Y-59988967D01*
X143492168Y-59673088D01*
X143368918Y-59375537D01*
X143189987Y-59107748D01*
X143096826Y-59014587D01*
X145964192Y-59014587D01*
X146920000Y-59970395D01*
X147875808Y-59014587D01*
X147780044Y-58750186D01*
X147490429Y-58609296D01*
X147178892Y-58527616D01*
X146857405Y-58508282D01*
X146538325Y-58552039D01*
X146233912Y-58657205D01*
X146059956Y-58750186D01*
X145964192Y-59014587D01*
X143096826Y-59014587D01*
X142962252Y-58880013D01*
X142819249Y-58784462D01*
X142937937Y-58665774D01*
X143051205Y-58496256D01*
X143129226Y-58307898D01*
X143169000Y-58107939D01*
X143169000Y-57904061D01*
X143129226Y-57704102D01*
X143051205Y-57515744D01*
X142937937Y-57346226D01*
X142793774Y-57202063D01*
X142624256Y-57088795D01*
X142435898Y-57010774D01*
X142235939Y-56971000D01*
X142032061Y-56971000D01*
X141832102Y-57010774D01*
X141643744Y-57088795D01*
X141474226Y-57202063D01*
X141330063Y-57346226D01*
X141216795Y-57515744D01*
X141138774Y-57704102D01*
X141099000Y-57904061D01*
X141099000Y-57966197D01*
X137275199Y-61790000D01*
X120679981Y-61790000D01*
X120624494Y-61744463D01*
X120514180Y-61685498D01*
X120394482Y-61649188D01*
X120270000Y-61636928D01*
X118933072Y-61636928D01*
X118933072Y-61261729D01*
X119931004Y-60263798D01*
X119960001Y-60240001D01*
X120014242Y-60173908D01*
X120054974Y-60124277D01*
X120125546Y-59992247D01*
X120126541Y-59988967D01*
X120169003Y-59848986D01*
X120180000Y-59737333D01*
X120180000Y-59737323D01*
X120183676Y-59700000D01*
X120180000Y-59662678D01*
X120180000Y-59378890D01*
X132564524Y-59378890D01*
X132609175Y-59526099D01*
X132734359Y-59788920D01*
X132908412Y-60022269D01*
X133124645Y-60217178D01*
X133374748Y-60366157D01*
X133649109Y-60463481D01*
X133879000Y-60342814D01*
X133879000Y-59149000D01*
X132685845Y-59149000D01*
X132564524Y-59378890D01*
X120180000Y-59378890D01*
X120180000Y-57842979D01*
X120569282Y-57453697D01*
X120648634Y-57357006D01*
X120707599Y-57246692D01*
X120743909Y-57126994D01*
X120756169Y-57002512D01*
X120743909Y-56878030D01*
X120707599Y-56758332D01*
X120648634Y-56648018D01*
X120642137Y-56640101D01*
X120643399Y-56638839D01*
X120791827Y-56559502D01*
X120922614Y-56452168D01*
X121276168Y-56098614D01*
X121383502Y-55967827D01*
X121463259Y-55818613D01*
X121512372Y-55656707D01*
X121528956Y-55488330D01*
X121512372Y-55319953D01*
X121463259Y-55158047D01*
X121383502Y-55008833D01*
X121276168Y-54878046D01*
X120957970Y-54559848D01*
X120827183Y-54452514D01*
X120677969Y-54372757D01*
X120519476Y-54324679D01*
X120513877Y-54267833D01*
X120477568Y-54148135D01*
X120418604Y-54037820D01*
X120339251Y-53941129D01*
X120220936Y-53827159D01*
X119996430Y-53827159D01*
X119413597Y-54409992D01*
X119427740Y-54424135D01*
X119248135Y-54603740D01*
X119233992Y-54589597D01*
X119219850Y-54603740D01*
X119040245Y-54424135D01*
X119054387Y-54409992D01*
X118489232Y-53844837D01*
X118264725Y-53844837D01*
X118128733Y-53976485D01*
X118049380Y-54073176D01*
X117990416Y-54183490D01*
X117954107Y-54303188D01*
X117951938Y-54325212D01*
X117943006Y-54326092D01*
X117823308Y-54362401D01*
X117712994Y-54421365D01*
X117616303Y-54500718D01*
X117559174Y-54558700D01*
X117498267Y-54484485D01*
X117362275Y-54352837D01*
X117137771Y-54352837D01*
X117243608Y-54247000D01*
X117417592Y-54247000D01*
X117687490Y-54193314D01*
X117941727Y-54088005D01*
X118170535Y-53935120D01*
X118365120Y-53740535D01*
X118518005Y-53511727D01*
X118547415Y-53440725D01*
X118668837Y-53440725D01*
X118668837Y-53665232D01*
X119233992Y-54230387D01*
X119668639Y-53795740D01*
X132521000Y-53795740D01*
X132521000Y-54088260D01*
X132578068Y-54375158D01*
X132690010Y-54645411D01*
X132852525Y-54888632D01*
X133059368Y-55095475D01*
X133233760Y-55212000D01*
X133059368Y-55328525D01*
X132852525Y-55535368D01*
X132690010Y-55778589D01*
X132578068Y-56048842D01*
X132521000Y-56335740D01*
X132521000Y-56628260D01*
X132578068Y-56915158D01*
X132690010Y-57185411D01*
X132852525Y-57428632D01*
X133059368Y-57635475D01*
X133241534Y-57757195D01*
X133124645Y-57826822D01*
X132908412Y-58021731D01*
X132734359Y-58255080D01*
X132609175Y-58517901D01*
X132564524Y-58665110D01*
X132685845Y-58895000D01*
X133879000Y-58895000D01*
X133879000Y-58875000D01*
X134133000Y-58875000D01*
X134133000Y-58895000D01*
X134153000Y-58895000D01*
X134153000Y-59149000D01*
X134133000Y-59149000D01*
X134133000Y-60342814D01*
X134362891Y-60463481D01*
X134637252Y-60366157D01*
X134887355Y-60217178D01*
X135103588Y-60022269D01*
X135274900Y-59792594D01*
X135392525Y-59968632D01*
X135599368Y-60175475D01*
X135842589Y-60337990D01*
X136112842Y-60449932D01*
X136399740Y-60507000D01*
X136692260Y-60507000D01*
X136979158Y-60449932D01*
X137249411Y-60337990D01*
X137492632Y-60175475D01*
X137699475Y-59968632D01*
X137861990Y-59725411D01*
X137973932Y-59455158D01*
X138031000Y-59168260D01*
X138031000Y-58875740D01*
X137973932Y-58588842D01*
X137861990Y-58318589D01*
X137699475Y-58075368D01*
X137492632Y-57868525D01*
X137318240Y-57752000D01*
X137492632Y-57635475D01*
X137699475Y-57428632D01*
X137861990Y-57185411D01*
X137973932Y-56915158D01*
X138031000Y-56628260D01*
X138031000Y-56335740D01*
X137973932Y-56048842D01*
X137861990Y-55778589D01*
X137699475Y-55535368D01*
X137593979Y-55429872D01*
X158935000Y-55429872D01*
X158935000Y-55870128D01*
X159020890Y-56301925D01*
X159189369Y-56708669D01*
X159433962Y-57074729D01*
X159745271Y-57386038D01*
X160111331Y-57630631D01*
X160518075Y-57799110D01*
X160949872Y-57885000D01*
X161390128Y-57885000D01*
X161821925Y-57799110D01*
X162228669Y-57630631D01*
X162594729Y-57386038D01*
X162906038Y-57074729D01*
X163150631Y-56708669D01*
X163319110Y-56301925D01*
X163405000Y-55870128D01*
X163405000Y-55429872D01*
X163319110Y-54998075D01*
X163150631Y-54591331D01*
X162906038Y-54225271D01*
X162594729Y-53913962D01*
X162228669Y-53669369D01*
X161821925Y-53500890D01*
X161390128Y-53415000D01*
X160949872Y-53415000D01*
X160518075Y-53500890D01*
X160111331Y-53669369D01*
X159745271Y-53913962D01*
X159433962Y-54225271D01*
X159189369Y-54591331D01*
X159020890Y-54998075D01*
X158935000Y-55429872D01*
X137593979Y-55429872D01*
X137567620Y-55403513D01*
X137640180Y-55381502D01*
X137750494Y-55322537D01*
X137847185Y-55243185D01*
X137926537Y-55146494D01*
X137985502Y-55036180D01*
X138021812Y-54916482D01*
X138034072Y-54792000D01*
X138034072Y-53092000D01*
X138021812Y-52967518D01*
X137985502Y-52847820D01*
X137926537Y-52737506D01*
X137847185Y-52640815D01*
X137750494Y-52561463D01*
X137640180Y-52502498D01*
X137520482Y-52466188D01*
X137396000Y-52453928D01*
X135696000Y-52453928D01*
X135571518Y-52466188D01*
X135451820Y-52502498D01*
X135341506Y-52561463D01*
X135244815Y-52640815D01*
X135165463Y-52737506D01*
X135106498Y-52847820D01*
X135084487Y-52920380D01*
X134952632Y-52788525D01*
X134709411Y-52626010D01*
X134439158Y-52514068D01*
X134152260Y-52457000D01*
X133859740Y-52457000D01*
X133572842Y-52514068D01*
X133302589Y-52626010D01*
X133059368Y-52788525D01*
X132852525Y-52995368D01*
X132690010Y-53238589D01*
X132578068Y-53508842D01*
X132521000Y-53795740D01*
X119668639Y-53795740D01*
X119816825Y-53647554D01*
X119816825Y-53423048D01*
X119702855Y-53304733D01*
X119606164Y-53225380D01*
X119495849Y-53166416D01*
X119376151Y-53130107D01*
X119251670Y-53117846D01*
X119127188Y-53130107D01*
X119007490Y-53166416D01*
X118897176Y-53225380D01*
X118800485Y-53304733D01*
X118668837Y-53440725D01*
X118547415Y-53440725D01*
X118623314Y-53257490D01*
X118677000Y-52987592D01*
X118677000Y-52712408D01*
X118623314Y-52442510D01*
X118518005Y-52188273D01*
X118365120Y-51959465D01*
X118170535Y-51764880D01*
X117941727Y-51611995D01*
X117687490Y-51506686D01*
X117417592Y-51453000D01*
X117142408Y-51453000D01*
X116872510Y-51506686D01*
X116618273Y-51611995D01*
X116389465Y-51764880D01*
X116194880Y-51959465D01*
X116041995Y-52188273D01*
X116010000Y-52265515D01*
X115978005Y-52188273D01*
X115825120Y-51959465D01*
X115630535Y-51764880D01*
X115401727Y-51611995D01*
X115147490Y-51506686D01*
X114877592Y-51453000D01*
X114602408Y-51453000D01*
X114332510Y-51506686D01*
X114078273Y-51611995D01*
X113849465Y-51764880D01*
X113654880Y-51959465D01*
X113501995Y-52188273D01*
X113470000Y-52265515D01*
X113438005Y-52188273D01*
X113285120Y-51959465D01*
X113090535Y-51764880D01*
X112861727Y-51611995D01*
X112607490Y-51506686D01*
X112337592Y-51453000D01*
X112062408Y-51453000D01*
X111792510Y-51506686D01*
X111538273Y-51611995D01*
X111309465Y-51764880D01*
X111114880Y-51959465D01*
X110961995Y-52188273D01*
X110930000Y-52265515D01*
X110898005Y-52188273D01*
X110745120Y-51959465D01*
X110550535Y-51764880D01*
X110321727Y-51611995D01*
X110067490Y-51506686D01*
X109797592Y-51453000D01*
X109522408Y-51453000D01*
X109252510Y-51506686D01*
X108998273Y-51611995D01*
X108769465Y-51764880D01*
X108574880Y-51959465D01*
X108487659Y-52090000D01*
X103867323Y-52090000D01*
X103830000Y-52086324D01*
X103792677Y-52090000D01*
X103792667Y-52090000D01*
X103681014Y-52100997D01*
X103537753Y-52144454D01*
X103405723Y-52215026D01*
X103322083Y-52283668D01*
X103289999Y-52309999D01*
X103266201Y-52338997D01*
X102438998Y-53166201D01*
X102410000Y-53189999D01*
X102386202Y-53218997D01*
X102386201Y-53218998D01*
X102315026Y-53305724D01*
X102287079Y-53358009D01*
X102274482Y-53354188D01*
X102150000Y-53341928D01*
X101935750Y-53345000D01*
X101777000Y-53503750D01*
X101777000Y-53859407D01*
X101755219Y-53870988D01*
X101702297Y-53898655D01*
X101700563Y-53900049D01*
X101698596Y-53901095D01*
X101652263Y-53938883D01*
X101605714Y-53976310D01*
X101604283Y-53978015D01*
X101602557Y-53979423D01*
X101564461Y-54025473D01*
X101526053Y-54071246D01*
X101524980Y-54073198D01*
X101523561Y-54074913D01*
X101523000Y-54075951D01*
X101523000Y-53503750D01*
X101364250Y-53345000D01*
X101150000Y-53341928D01*
X101025518Y-53354188D01*
X100905820Y-53390498D01*
X100795506Y-53449463D01*
X100698815Y-53528815D01*
X100619463Y-53625506D01*
X100560498Y-53735820D01*
X100524188Y-53855518D01*
X100511928Y-53980000D01*
X100515000Y-54444250D01*
X100673750Y-54603000D01*
X101415000Y-54603000D01*
X101415000Y-54857000D01*
X100673750Y-54857000D01*
X100515000Y-55015750D01*
X100511928Y-55480000D01*
X100524188Y-55604482D01*
X100560498Y-55724180D01*
X100619463Y-55834494D01*
X100698815Y-55931185D01*
X100782667Y-56000000D01*
X100698815Y-56068815D01*
X100619463Y-56165506D01*
X100560498Y-56275820D01*
X100524188Y-56395518D01*
X100511928Y-56520000D01*
X100515000Y-56984250D01*
X100673750Y-57143000D01*
X101523000Y-57143000D01*
X101523000Y-56043750D01*
X101479250Y-56000000D01*
X101523000Y-55956250D01*
X101523000Y-55383740D01*
X101558883Y-55427737D01*
X101596310Y-55474286D01*
X101598015Y-55475717D01*
X101599423Y-55477443D01*
X101645473Y-55515539D01*
X101691246Y-55553947D01*
X101693198Y-55555020D01*
X101694913Y-55556439D01*
X101747461Y-55584851D01*
X101777000Y-55601091D01*
X101777000Y-55956250D01*
X101820750Y-56000000D01*
X101777000Y-56043750D01*
X101777000Y-57143000D01*
X101797000Y-57143000D01*
X101797000Y-57397000D01*
X101777000Y-57397000D01*
X101777000Y-58496250D01*
X101935750Y-58655000D01*
X102150000Y-58658072D01*
X102274482Y-58645812D01*
X102287079Y-58641991D01*
X102315026Y-58694276D01*
X102320557Y-58701015D01*
X102409999Y-58810001D01*
X102439003Y-58833804D01*
X102656196Y-59050997D01*
X102679999Y-59080001D01*
X102795724Y-59174974D01*
X102927753Y-59245546D01*
X103071014Y-59289003D01*
X103182667Y-59300000D01*
X103182675Y-59300000D01*
X103220000Y-59303676D01*
X103257325Y-59300000D01*
X106472678Y-59300000D01*
X106510000Y-59303676D01*
X106547322Y-59300000D01*
X106547333Y-59300000D01*
X106658986Y-59289003D01*
X106802247Y-59245546D01*
X106934276Y-59174974D01*
X107050001Y-59080001D01*
X107073804Y-59050997D01*
X107389801Y-58735000D01*
X110806928Y-58735000D01*
X110819188Y-58859482D01*
X110855498Y-58979180D01*
X110914463Y-59089494D01*
X110993815Y-59186185D01*
X111090506Y-59265537D01*
X111200820Y-59324502D01*
X111320518Y-59360812D01*
X111445000Y-59373072D01*
X111609250Y-59370000D01*
X111768000Y-59211250D01*
X111768000Y-58387000D01*
X110968750Y-58387000D01*
X110810000Y-58545750D01*
X110806928Y-58735000D01*
X107389801Y-58735000D01*
X108913801Y-57211000D01*
X110806928Y-57211000D01*
X110819188Y-57335482D01*
X110855498Y-57455180D01*
X110878386Y-57498000D01*
X110855498Y-57540820D01*
X110819188Y-57660518D01*
X110806928Y-57785000D01*
X110810000Y-57974250D01*
X110968750Y-58133000D01*
X111768000Y-58133000D01*
X111768000Y-56863000D01*
X110968750Y-56863000D01*
X110810000Y-57021750D01*
X110806928Y-57211000D01*
X108913801Y-57211000D01*
X109863801Y-56261000D01*
X110806928Y-56261000D01*
X110810000Y-56450250D01*
X110968750Y-56609000D01*
X111768000Y-56609000D01*
X111768000Y-55784750D01*
X111609250Y-55626000D01*
X111445000Y-55622928D01*
X111320518Y-55635188D01*
X111200820Y-55671498D01*
X111090506Y-55730463D01*
X110993815Y-55809815D01*
X110914463Y-55906506D01*
X110855498Y-56016820D01*
X110819188Y-56136518D01*
X110806928Y-56261000D01*
X109863801Y-56261000D01*
X111908430Y-54216372D01*
X112062408Y-54247000D01*
X112337592Y-54247000D01*
X112607490Y-54193314D01*
X112861727Y-54088005D01*
X113090535Y-53935120D01*
X113285120Y-53740535D01*
X113438005Y-53511727D01*
X113470000Y-53434485D01*
X113501995Y-53511727D01*
X113654880Y-53740535D01*
X113849465Y-53935120D01*
X114078273Y-54088005D01*
X114332510Y-54193314D01*
X114602408Y-54247000D01*
X114877592Y-54247000D01*
X115147490Y-54193314D01*
X115401727Y-54088005D01*
X115630535Y-53935120D01*
X115825120Y-53740535D01*
X115978005Y-53511727D01*
X116010000Y-53434485D01*
X116041995Y-53511727D01*
X116147406Y-53669485D01*
X116131151Y-53674416D01*
X116020836Y-53733380D01*
X115924145Y-53812733D01*
X115810175Y-53931048D01*
X115810175Y-54155554D01*
X116393008Y-54738387D01*
X116407151Y-54724245D01*
X116586756Y-54903850D01*
X116572613Y-54917992D01*
X116586756Y-54932135D01*
X116407151Y-55111740D01*
X116393008Y-55097597D01*
X116378866Y-55111740D01*
X116199261Y-54932135D01*
X116213403Y-54917992D01*
X115630570Y-54335159D01*
X115406064Y-54335159D01*
X115287749Y-54449129D01*
X115208396Y-54545820D01*
X115149432Y-54656135D01*
X115113123Y-54775833D01*
X115107524Y-54832679D01*
X114949031Y-54880757D01*
X114799817Y-54960514D01*
X114669030Y-55067848D01*
X114350832Y-55386046D01*
X114243498Y-55516833D01*
X114163741Y-55666047D01*
X114135042Y-55760656D01*
X114000283Y-55688625D01*
X113838377Y-55639512D01*
X113670000Y-55622928D01*
X113220000Y-55622928D01*
X113051623Y-55639512D01*
X112889717Y-55688625D01*
X112743649Y-55766700D01*
X112699494Y-55730463D01*
X112589180Y-55671498D01*
X112469482Y-55635188D01*
X112345000Y-55622928D01*
X112180750Y-55626000D01*
X112022000Y-55784750D01*
X112022000Y-56609000D01*
X112042000Y-56609000D01*
X112042000Y-56863000D01*
X112022000Y-56863000D01*
X112022000Y-58133000D01*
X112042000Y-58133000D01*
X112042000Y-58387000D01*
X112022000Y-58387000D01*
X112022000Y-59211250D01*
X112180750Y-59370000D01*
X112345000Y-59373072D01*
X112469482Y-59360812D01*
X112589180Y-59324502D01*
X112699494Y-59265537D01*
X112743649Y-59229300D01*
X112889717Y-59307375D01*
X113051623Y-59356488D01*
X113220000Y-59373072D01*
X113470270Y-59373072D01*
X113892998Y-59795801D01*
X113892998Y-59805166D01*
X113849494Y-59769463D01*
X113826333Y-59757083D01*
X113734250Y-59665000D01*
X113620620Y-59674533D01*
X113619482Y-59674188D01*
X113495000Y-59661928D01*
X112945000Y-59661928D01*
X112820518Y-59674188D01*
X112820000Y-59674345D01*
X112819482Y-59674188D01*
X112695000Y-59661928D01*
X112145000Y-59661928D01*
X112020518Y-59674188D01*
X111900820Y-59710498D01*
X111790506Y-59769463D01*
X111693815Y-59848815D01*
X111614463Y-59945506D01*
X111555498Y-60055820D01*
X111519188Y-60175518D01*
X111506928Y-60300000D01*
X111506928Y-61636928D01*
X110170000Y-61636928D01*
X110045518Y-61649188D01*
X109925820Y-61685498D01*
X109815506Y-61744463D01*
X109718815Y-61823815D01*
X109639463Y-61920506D01*
X109580498Y-62030820D01*
X109544188Y-62150518D01*
X109531928Y-62275000D01*
X109531928Y-62695674D01*
X109495723Y-62715026D01*
X109421980Y-62775546D01*
X109379999Y-62809999D01*
X109356200Y-62838998D01*
X108883986Y-63311213D01*
X108854988Y-63335011D01*
X108831190Y-63364009D01*
X108831189Y-63364010D01*
X108760014Y-63450736D01*
X108689442Y-63582766D01*
X108669048Y-63650000D01*
X108645986Y-63726026D01*
X108638629Y-63800725D01*
X108631312Y-63875012D01*
X108634989Y-63912345D01*
X108634989Y-71569195D01*
X108572251Y-71492749D01*
X108452829Y-71394742D01*
X108316582Y-71321916D01*
X108168745Y-71277071D01*
X108015000Y-71261928D01*
X107715000Y-71261928D01*
X107561255Y-71277071D01*
X107413418Y-71321916D01*
X107277171Y-71394742D01*
X107230000Y-71433454D01*
X107182829Y-71394742D01*
X107046582Y-71321916D01*
X106898745Y-71277071D01*
X106745000Y-71261928D01*
X106445000Y-71261928D01*
X106291255Y-71277071D01*
X106143418Y-71321916D01*
X106007171Y-71394742D01*
X105960000Y-71433454D01*
X105912829Y-71394742D01*
X105776582Y-71321916D01*
X105628745Y-71277071D01*
X105475000Y-71261928D01*
X105175000Y-71261928D01*
X105021255Y-71277071D01*
X104873418Y-71321916D01*
X104737171Y-71394742D01*
X104690000Y-71433454D01*
X104642829Y-71394742D01*
X104506582Y-71321916D01*
X104358745Y-71277071D01*
X104205000Y-71261928D01*
X103905000Y-71261928D01*
X103751255Y-71277071D01*
X103603418Y-71321916D01*
X103467171Y-71394742D01*
X103420000Y-71433454D01*
X103372829Y-71394742D01*
X103236582Y-71321916D01*
X103088745Y-71277071D01*
X102935000Y-71261928D01*
X102635000Y-71261928D01*
X102481255Y-71277071D01*
X102333418Y-71321916D01*
X102197171Y-71394742D01*
X102150000Y-71433454D01*
X102102829Y-71394742D01*
X101966582Y-71321916D01*
X101818745Y-71277071D01*
X101665000Y-71261928D01*
X101365000Y-71261928D01*
X101211255Y-71277071D01*
X101063418Y-71321916D01*
X100927171Y-71394742D01*
X100880000Y-71433454D01*
X100832829Y-71394742D01*
X100696582Y-71321916D01*
X100548745Y-71277071D01*
X100395000Y-71261928D01*
X100095000Y-71261928D01*
X99941255Y-71277071D01*
X99793418Y-71321916D01*
X99657171Y-71394742D01*
X99610000Y-71433454D01*
X99562829Y-71394742D01*
X99426582Y-71321916D01*
X99278745Y-71277071D01*
X99125000Y-71261928D01*
X98825000Y-71261928D01*
X98671255Y-71277071D01*
X98523418Y-71321916D01*
X98387171Y-71394742D01*
X98267749Y-71492749D01*
X98169742Y-71612171D01*
X98096916Y-71748418D01*
X98052071Y-71896255D01*
X98036928Y-72050000D01*
X98036928Y-73321482D01*
X97882000Y-73166554D01*
X97882000Y-69515030D01*
X97936525Y-69596632D01*
X98143368Y-69803475D01*
X98386589Y-69965990D01*
X98656842Y-70077932D01*
X98943740Y-70135000D01*
X99236260Y-70135000D01*
X99523158Y-70077932D01*
X99793411Y-69965990D01*
X100036632Y-69803475D01*
X100243475Y-69596632D01*
X100360000Y-69422240D01*
X100476525Y-69596632D01*
X100683368Y-69803475D01*
X100926589Y-69965990D01*
X101196842Y-70077932D01*
X101483740Y-70135000D01*
X101776260Y-70135000D01*
X102063158Y-70077932D01*
X102333411Y-69965990D01*
X102576632Y-69803475D01*
X102708487Y-69671620D01*
X102730498Y-69744180D01*
X102789463Y-69854494D01*
X102868815Y-69951185D01*
X102965506Y-70030537D01*
X103075820Y-70089502D01*
X103195518Y-70125812D01*
X103320000Y-70138072D01*
X105020000Y-70138072D01*
X105144482Y-70125812D01*
X105264180Y-70089502D01*
X105374494Y-70030537D01*
X105471185Y-69951185D01*
X105550537Y-69854494D01*
X105609502Y-69744180D01*
X105645812Y-69624482D01*
X105658072Y-69500000D01*
X105658072Y-67800000D01*
X105645812Y-67675518D01*
X105609502Y-67555820D01*
X105550537Y-67445506D01*
X105471185Y-67348815D01*
X105374494Y-67269463D01*
X105264180Y-67210498D01*
X105144482Y-67174188D01*
X105020000Y-67161928D01*
X103320000Y-67161928D01*
X103195518Y-67174188D01*
X103075820Y-67210498D01*
X102965506Y-67269463D01*
X102868815Y-67348815D01*
X102789463Y-67445506D01*
X102730498Y-67555820D01*
X102708487Y-67628380D01*
X102576632Y-67496525D01*
X102333411Y-67334010D01*
X102063158Y-67222068D01*
X101776260Y-67165000D01*
X101483740Y-67165000D01*
X101196842Y-67222068D01*
X100926589Y-67334010D01*
X100683368Y-67496525D01*
X100476525Y-67703368D01*
X100360000Y-67877760D01*
X100243475Y-67703368D01*
X100036632Y-67496525D01*
X99793411Y-67334010D01*
X99523158Y-67222068D01*
X99236260Y-67165000D01*
X98943740Y-67165000D01*
X98656842Y-67222068D01*
X98386589Y-67334010D01*
X98143368Y-67496525D01*
X97936525Y-67703368D01*
X97774010Y-67946589D01*
X97768347Y-67960262D01*
X97761087Y-67946680D01*
X97713385Y-67888556D01*
X97692253Y-67862806D01*
X97692250Y-67862803D01*
X97669237Y-67834762D01*
X97641197Y-67811750D01*
X96105344Y-66275897D01*
X96155000Y-66026260D01*
X96155000Y-65733740D01*
X96097932Y-65446842D01*
X95985990Y-65176589D01*
X95823475Y-64933368D01*
X95616632Y-64726525D01*
X95434466Y-64604805D01*
X95551355Y-64535178D01*
X95767588Y-64340269D01*
X95941641Y-64106920D01*
X96066825Y-63844099D01*
X96111476Y-63696890D01*
X95990155Y-63467000D01*
X94797000Y-63467000D01*
X94797000Y-63487000D01*
X94543000Y-63487000D01*
X94543000Y-63467000D01*
X93349845Y-63467000D01*
X93228524Y-63696890D01*
X93273175Y-63844099D01*
X93398359Y-64106920D01*
X93572412Y-64340269D01*
X93788645Y-64535178D01*
X93905534Y-64604805D01*
X93723368Y-64726525D01*
X93516525Y-64933368D01*
X93354010Y-65176589D01*
X93242068Y-65446842D01*
X93185000Y-65733740D01*
X93185000Y-66026260D01*
X93217570Y-66190000D01*
X90683923Y-66190000D01*
X90682279Y-66175000D01*
X90692500Y-66081750D01*
X90625351Y-66014601D01*
X90582300Y-65937067D01*
X90501412Y-65841657D01*
X90420006Y-65777000D01*
X90533750Y-65777000D01*
X90692500Y-65618250D01*
X90681241Y-65515526D01*
X90643021Y-65396424D01*
X90582300Y-65287067D01*
X90505310Y-65196255D01*
X90519954Y-65161742D01*
X90567500Y-64933000D01*
X90567500Y-64483000D01*
X89509500Y-64483000D01*
X89509500Y-65997000D01*
X89255500Y-65997000D01*
X89255500Y-64483000D01*
X88214750Y-64483000D01*
X88108750Y-64377000D01*
X88032963Y-64377000D01*
X88129921Y-64230533D01*
X88197500Y-64065379D01*
X88197500Y-64229000D01*
X89255500Y-64229000D01*
X89255500Y-62887639D01*
X89509500Y-62887639D01*
X89509500Y-64229000D01*
X90567500Y-64229000D01*
X90567500Y-63779000D01*
X90519954Y-63550258D01*
X90428696Y-63335187D01*
X90297234Y-63142052D01*
X90135538Y-62983110D01*
X93228524Y-62983110D01*
X93349845Y-63213000D01*
X94543000Y-63213000D01*
X94543000Y-62019186D01*
X94797000Y-62019186D01*
X94797000Y-63213000D01*
X95990155Y-63213000D01*
X96111476Y-62983110D01*
X96066825Y-62835901D01*
X95941641Y-62573080D01*
X95767588Y-62339731D01*
X95551355Y-62144822D01*
X95301252Y-61995843D01*
X95026891Y-61898519D01*
X94797000Y-62019186D01*
X94543000Y-62019186D01*
X94313109Y-61898519D01*
X94038748Y-61995843D01*
X93788645Y-62144822D01*
X93572412Y-62339731D01*
X93398359Y-62573080D01*
X93273175Y-62835901D01*
X93228524Y-62983110D01*
X90135538Y-62983110D01*
X90130619Y-62978275D01*
X89935254Y-62850150D01*
X89718647Y-62762601D01*
X89692244Y-62762197D01*
X89509500Y-62887639D01*
X89255500Y-62887639D01*
X89072756Y-62762197D01*
X89046353Y-62762601D01*
X88829746Y-62850150D01*
X88634381Y-62978275D01*
X88467766Y-63142052D01*
X88336304Y-63335187D01*
X88257158Y-63521713D01*
X88222002Y-63405820D01*
X88202179Y-63368735D01*
X88225962Y-63332391D01*
X88222091Y-63294718D01*
X88129921Y-63069467D01*
X87995578Y-62866526D01*
X87824225Y-62693693D01*
X87622446Y-62557610D01*
X87397996Y-62463507D01*
X87159500Y-62415000D01*
X86809500Y-62415000D01*
X86809500Y-65539399D01*
X86797746Y-65544150D01*
X86602381Y-65672275D01*
X86555500Y-65718357D01*
X86555500Y-62415000D01*
X86205500Y-62415000D01*
X85967004Y-62463507D01*
X85830000Y-62520947D01*
X85830000Y-58020000D01*
X100511928Y-58020000D01*
X100524188Y-58144482D01*
X100560498Y-58264180D01*
X100619463Y-58374494D01*
X100698815Y-58471185D01*
X100795506Y-58550537D01*
X100905820Y-58609502D01*
X101025518Y-58645812D01*
X101150000Y-58658072D01*
X101364250Y-58655000D01*
X101523000Y-58496250D01*
X101523000Y-57397000D01*
X100673750Y-57397000D01*
X100515000Y-57555750D01*
X100511928Y-58020000D01*
X85830000Y-58020000D01*
X85830000Y-55429872D01*
X86935000Y-55429872D01*
X86935000Y-55870128D01*
X87020890Y-56301925D01*
X87189369Y-56708669D01*
X87433962Y-57074729D01*
X87745271Y-57386038D01*
X88111331Y-57630631D01*
X88518075Y-57799110D01*
X88949872Y-57885000D01*
X89390128Y-57885000D01*
X89821925Y-57799110D01*
X90228669Y-57630631D01*
X90594729Y-57386038D01*
X90906038Y-57074729D01*
X91150631Y-56708669D01*
X91319110Y-56301925D01*
X91405000Y-55870128D01*
X91405000Y-55429872D01*
X91319110Y-54998075D01*
X91150631Y-54591331D01*
X90906038Y-54225271D01*
X90594729Y-53913962D01*
X90228669Y-53669369D01*
X89821925Y-53500890D01*
X89390128Y-53415000D01*
X88949872Y-53415000D01*
X88518075Y-53500890D01*
X88111331Y-53669369D01*
X87745271Y-53913962D01*
X87433962Y-54225271D01*
X87189369Y-54591331D01*
X87020890Y-54998075D01*
X86935000Y-55429872D01*
X85830000Y-55429872D01*
X85830000Y-50310000D01*
X164510000Y-50310000D01*
X164510001Y-69018292D01*
G04 #@! TA.AperFunction,Conductor*
D32*
G36*
X164510001Y-69018292D02*
G01*
X164305413Y-68944192D01*
X163349605Y-69900000D01*
X164305413Y-70855808D01*
X164510001Y-70781708D01*
X164510001Y-73462531D01*
X164439987Y-73357748D01*
X164212252Y-73130013D01*
X163944463Y-72951082D01*
X163646912Y-72827832D01*
X163331033Y-72765000D01*
X163008967Y-72765000D01*
X162693088Y-72827832D01*
X162395537Y-72951082D01*
X162127748Y-73130013D01*
X161900013Y-73357748D01*
X161721082Y-73625537D01*
X161597832Y-73923088D01*
X161535000Y-74238967D01*
X161535000Y-74561033D01*
X161597832Y-74876912D01*
X161721082Y-75174463D01*
X161900013Y-75442252D01*
X162127748Y-75669987D01*
X162395537Y-75848918D01*
X162693088Y-75972168D01*
X163008967Y-76035000D01*
X163331033Y-76035000D01*
X163646912Y-75972168D01*
X163944463Y-75848918D01*
X164212252Y-75669987D01*
X164439987Y-75442252D01*
X164510001Y-75337469D01*
X164510001Y-83990000D01*
X85830000Y-83990000D01*
X85830000Y-80429872D01*
X86935000Y-80429872D01*
X86935000Y-80870128D01*
X87020890Y-81301925D01*
X87189369Y-81708669D01*
X87433962Y-82074729D01*
X87745271Y-82386038D01*
X88111331Y-82630631D01*
X88518075Y-82799110D01*
X88949872Y-82885000D01*
X89390128Y-82885000D01*
X89821925Y-82799110D01*
X90228669Y-82630631D01*
X90594729Y-82386038D01*
X90605767Y-82375000D01*
X94636928Y-82375000D01*
X94649188Y-82499482D01*
X94685498Y-82619180D01*
X94744463Y-82729494D01*
X94823815Y-82826185D01*
X94920506Y-82905537D01*
X95030820Y-82964502D01*
X95150518Y-83000812D01*
X95275000Y-83013072D01*
X95464250Y-83010000D01*
X95623000Y-82851250D01*
X95623000Y-82052000D01*
X95877000Y-82052000D01*
X95877000Y-82851250D01*
X96035750Y-83010000D01*
X96225000Y-83013072D01*
X96349482Y-83000812D01*
X96435949Y-82974582D01*
X96498815Y-83051185D01*
X96595506Y-83130537D01*
X96705820Y-83189502D01*
X96825518Y-83225812D01*
X96950000Y-83238072D01*
X97364250Y-83235000D01*
X97523000Y-83076250D01*
X97523000Y-82127000D01*
X96776250Y-82127000D01*
X96701250Y-82052000D01*
X95877000Y-82052000D01*
X95623000Y-82052000D01*
X94798750Y-82052000D01*
X94640000Y-82210750D01*
X94636928Y-82375000D01*
X90605767Y-82375000D01*
X90906038Y-82074729D01*
X91150631Y-81708669D01*
X91319110Y-81301925D01*
X91405000Y-80870128D01*
X91405000Y-80429872D01*
X91319110Y-79998075D01*
X91150631Y-79591331D01*
X90906038Y-79225271D01*
X90594729Y-78913962D01*
X90228669Y-78669369D01*
X89821925Y-78500890D01*
X89390128Y-78415000D01*
X88949872Y-78415000D01*
X88518075Y-78500890D01*
X88111331Y-78669369D01*
X87745271Y-78913962D01*
X87433962Y-79225271D01*
X87189369Y-79591331D01*
X87020890Y-79998075D01*
X86935000Y-80429872D01*
X85830000Y-80429872D01*
X85830000Y-71779053D01*
X85967004Y-71836493D01*
X86205500Y-71885000D01*
X86555500Y-71885000D01*
X86555500Y-68581643D01*
X86602381Y-68627725D01*
X86797746Y-68755850D01*
X86809500Y-68760601D01*
X86809500Y-71885000D01*
X87159500Y-71885000D01*
X87397996Y-71836493D01*
X87622446Y-71742390D01*
X87824225Y-71606307D01*
X87995578Y-71433474D01*
X88129921Y-71230533D01*
X88222091Y-71005282D01*
X88225962Y-70967609D01*
X88202179Y-70931265D01*
X88222002Y-70894180D01*
X88257158Y-70778287D01*
X88336304Y-70964813D01*
X88467766Y-71157948D01*
X88634381Y-71321725D01*
X88829746Y-71449850D01*
X89046353Y-71537399D01*
X89072756Y-71537803D01*
X89255500Y-71412361D01*
X89255500Y-70071000D01*
X89509500Y-70071000D01*
X89509500Y-71412361D01*
X89692244Y-71537803D01*
X89718647Y-71537399D01*
X89935254Y-71449850D01*
X90130619Y-71321725D01*
X90297234Y-71157948D01*
X90428696Y-70964813D01*
X90519954Y-70749742D01*
X90567500Y-70521000D01*
X90567500Y-70071000D01*
X89509500Y-70071000D01*
X89255500Y-70071000D01*
X88197500Y-70071000D01*
X88197500Y-70234621D01*
X88129921Y-70069467D01*
X88032963Y-69923000D01*
X88108750Y-69923000D01*
X88214750Y-69817000D01*
X89255500Y-69817000D01*
X89255500Y-69797000D01*
X89509500Y-69797000D01*
X89509500Y-69817000D01*
X90567500Y-69817000D01*
X90567500Y-69367000D01*
X90534866Y-69210000D01*
X91845199Y-69210000D01*
X93181928Y-70546730D01*
X93181928Y-71810000D01*
X93194188Y-71934482D01*
X93230498Y-72054180D01*
X93289463Y-72164494D01*
X93368815Y-72261185D01*
X93465506Y-72340537D01*
X93523606Y-72371592D01*
X91309003Y-74586196D01*
X91279999Y-74609999D01*
X91259351Y-74635159D01*
X91175820Y-74660498D01*
X91065506Y-74719463D01*
X90968815Y-74798815D01*
X90889463Y-74895506D01*
X90830498Y-75005820D01*
X90794188Y-75125518D01*
X90781928Y-75250000D01*
X90781928Y-76450000D01*
X90794188Y-76574482D01*
X90830498Y-76694180D01*
X90889463Y-76804494D01*
X90968815Y-76901185D01*
X91065506Y-76980537D01*
X91175820Y-77039502D01*
X91295518Y-77075812D01*
X91420000Y-77088072D01*
X92320000Y-77088072D01*
X92444482Y-77075812D01*
X92564180Y-77039502D01*
X92674494Y-76980537D01*
X92771185Y-76901185D01*
X92850537Y-76804494D01*
X92909502Y-76694180D01*
X92945812Y-76574482D01*
X92958072Y-76450000D01*
X92958072Y-75250000D01*
X94081928Y-75250000D01*
X94081928Y-76450000D01*
X94094188Y-76574482D01*
X94130498Y-76694180D01*
X94189463Y-76804494D01*
X94252462Y-76881258D01*
X94224774Y-76948102D01*
X94185000Y-77148061D01*
X94185000Y-77351939D01*
X94224774Y-77551898D01*
X94302795Y-77740256D01*
X94416063Y-77909774D01*
X94560226Y-78053937D01*
X94729744Y-78167205D01*
X94918102Y-78245226D01*
X95118061Y-78285000D01*
X95321939Y-78285000D01*
X95521898Y-78245226D01*
X95710256Y-78167205D01*
X95879774Y-78053937D01*
X96023937Y-77909774D01*
X96137205Y-77740256D01*
X96215226Y-77551898D01*
X96255000Y-77351939D01*
X96255000Y-77148061D01*
X96222565Y-76985000D01*
X96421939Y-76985000D01*
X96621898Y-76945226D01*
X96810256Y-76867205D01*
X96979774Y-76753937D01*
X97123937Y-76609774D01*
X97237205Y-76440256D01*
X97315226Y-76251898D01*
X97355000Y-76051939D01*
X97355000Y-75848061D01*
X97315226Y-75648102D01*
X97237205Y-75459744D01*
X97123937Y-75290226D01*
X96979774Y-75146063D01*
X96810256Y-75032795D01*
X96621898Y-74954774D01*
X96421939Y-74915000D01*
X96218061Y-74915000D01*
X96166445Y-74925267D01*
X96150537Y-74895506D01*
X96071185Y-74798815D01*
X95974494Y-74719463D01*
X95864180Y-74660498D01*
X95744482Y-74624188D01*
X95620000Y-74611928D01*
X94720000Y-74611928D01*
X94595518Y-74624188D01*
X94475820Y-74660498D01*
X94365506Y-74719463D01*
X94268815Y-74798815D01*
X94189463Y-74895506D01*
X94130498Y-75005820D01*
X94094188Y-75125518D01*
X94081928Y-75250000D01*
X92958072Y-75250000D01*
X92945812Y-75125518D01*
X92939638Y-75105164D01*
X95181003Y-72863799D01*
X95210001Y-72840001D01*
X95304974Y-72724276D01*
X95375546Y-72592247D01*
X95419003Y-72448986D01*
X95419093Y-72448072D01*
X95520000Y-72448072D01*
X95644482Y-72435812D01*
X95764180Y-72399502D01*
X95874494Y-72340537D01*
X95962001Y-72268722D01*
X95962001Y-73619885D01*
X95958444Y-73656000D01*
X95972635Y-73800085D01*
X96005892Y-73909716D01*
X96014664Y-73938633D01*
X96082914Y-74066320D01*
X96174763Y-74178238D01*
X96202808Y-74201254D01*
X97871746Y-75870193D01*
X97894762Y-75898238D01*
X98006680Y-75990087D01*
X98134367Y-76058337D01*
X98272915Y-76100365D01*
X98380895Y-76111000D01*
X98380904Y-76111000D01*
X98416999Y-76114555D01*
X98453094Y-76111000D01*
X99395157Y-76111000D01*
X99641643Y-76357486D01*
X99610000Y-76383454D01*
X99562829Y-76344742D01*
X99426582Y-76271916D01*
X99278745Y-76227071D01*
X99125000Y-76211928D01*
X98825000Y-76211928D01*
X98671255Y-76227071D01*
X98523418Y-76271916D01*
X98387171Y-76344742D01*
X98267749Y-76442749D01*
X98169742Y-76562171D01*
X98096916Y-76698418D01*
X98052071Y-76846255D01*
X98036928Y-77000000D01*
X98036928Y-77688270D01*
X97139003Y-78586196D01*
X97109999Y-78609999D01*
X97072620Y-78655546D01*
X97015026Y-78725724D01*
X96956617Y-78834999D01*
X96944454Y-78857754D01*
X96900997Y-79001015D01*
X96894459Y-79067398D01*
X96825518Y-79074188D01*
X96705820Y-79110498D01*
X96595506Y-79169463D01*
X96498815Y-79248815D01*
X96419463Y-79345506D01*
X96396686Y-79388118D01*
X96330283Y-79352625D01*
X96168377Y-79303512D01*
X96000000Y-79286928D01*
X95500000Y-79286928D01*
X95331623Y-79303512D01*
X95169717Y-79352625D01*
X95020503Y-79432382D01*
X94889716Y-79539716D01*
X94782382Y-79670503D01*
X94702625Y-79819717D01*
X94653512Y-79981623D01*
X94636928Y-80150000D01*
X94636928Y-80600000D01*
X94653512Y-80768377D01*
X94702625Y-80930283D01*
X94780700Y-81076351D01*
X94744463Y-81120506D01*
X94685498Y-81230820D01*
X94649188Y-81350518D01*
X94636928Y-81475000D01*
X94640000Y-81639250D01*
X94798750Y-81798000D01*
X95623000Y-81798000D01*
X95623000Y-81778000D01*
X95877000Y-81778000D01*
X95877000Y-81798000D01*
X96398750Y-81798000D01*
X96473750Y-81873000D01*
X97523000Y-81873000D01*
X97523000Y-81853000D01*
X97777000Y-81853000D01*
X97777000Y-81873000D01*
X97797000Y-81873000D01*
X97797000Y-82127000D01*
X97777000Y-82127000D01*
X97777000Y-83076250D01*
X97935750Y-83235000D01*
X98350000Y-83238072D01*
X98474482Y-83225812D01*
X98594180Y-83189502D01*
X98704494Y-83130537D01*
X98750000Y-83093191D01*
X98795506Y-83130537D01*
X98905820Y-83189502D01*
X99025518Y-83225812D01*
X99150000Y-83238072D01*
X100550000Y-83238072D01*
X100674482Y-83225812D01*
X100794180Y-83189502D01*
X100904494Y-83130537D01*
X101001185Y-83051185D01*
X101080537Y-82954494D01*
X101103314Y-82911882D01*
X101169717Y-82947375D01*
X101331623Y-82996488D01*
X101500000Y-83013072D01*
X102000000Y-83013072D01*
X102168377Y-82996488D01*
X102330283Y-82947375D01*
X102479497Y-82867618D01*
X102501399Y-82849643D01*
X102569506Y-82905537D01*
X102679820Y-82964502D01*
X102799518Y-83000812D01*
X102924000Y-83013072D01*
X103113250Y-83010000D01*
X103272000Y-82851250D01*
X103272000Y-82052000D01*
X103252000Y-82052000D01*
X103252000Y-81798000D01*
X103272000Y-81798000D01*
X103272000Y-81778000D01*
X103526000Y-81778000D01*
X103526000Y-81798000D01*
X103546000Y-81798000D01*
X103546000Y-82052000D01*
X103526000Y-82052000D01*
X103526000Y-82851250D01*
X103684750Y-83010000D01*
X103874000Y-83013072D01*
X103998482Y-83000812D01*
X104118180Y-82964502D01*
X104208539Y-82916203D01*
X104240208Y-82954792D01*
X104373836Y-83064458D01*
X104526291Y-83145947D01*
X104691715Y-83196128D01*
X104863750Y-83213072D01*
X105370770Y-83213072D01*
X105568711Y-83411012D01*
X105592509Y-83440011D01*
X105708234Y-83534984D01*
X105840263Y-83605556D01*
X105983524Y-83649013D01*
X106095177Y-83660010D01*
X106095185Y-83660010D01*
X106132510Y-83663686D01*
X106169835Y-83660010D01*
X108932668Y-83660010D01*
X108969990Y-83663686D01*
X109007312Y-83660010D01*
X109007323Y-83660010D01*
X109118976Y-83649013D01*
X109262237Y-83605556D01*
X109394266Y-83534984D01*
X109509991Y-83440011D01*
X109533793Y-83411008D01*
X110356003Y-82588799D01*
X110385000Y-82565002D01*
X110479973Y-82449277D01*
X110550545Y-82317248D01*
X110594002Y-82173987D01*
X110604999Y-82062334D01*
X110604999Y-82062333D01*
X110608676Y-82025001D01*
X110604999Y-81987668D01*
X110604999Y-80429872D01*
X158935000Y-80429872D01*
X158935000Y-80870128D01*
X159020890Y-81301925D01*
X159189369Y-81708669D01*
X159433962Y-82074729D01*
X159745271Y-82386038D01*
X160111331Y-82630631D01*
X160518075Y-82799110D01*
X160949872Y-82885000D01*
X161390128Y-82885000D01*
X161821925Y-82799110D01*
X162228669Y-82630631D01*
X162594729Y-82386038D01*
X162906038Y-82074729D01*
X163150631Y-81708669D01*
X163319110Y-81301925D01*
X163405000Y-80870128D01*
X163405000Y-80429872D01*
X163319110Y-79998075D01*
X163150631Y-79591331D01*
X162906038Y-79225271D01*
X162594729Y-78913962D01*
X162228669Y-78669369D01*
X161821925Y-78500890D01*
X161390128Y-78415000D01*
X160949872Y-78415000D01*
X160518075Y-78500890D01*
X160111331Y-78669369D01*
X159745271Y-78913962D01*
X159433962Y-79225271D01*
X159189369Y-79591331D01*
X159020890Y-79998075D01*
X158935000Y-80429872D01*
X110604999Y-80429872D01*
X110604999Y-78780413D01*
X121519192Y-78780413D01*
X121614956Y-79044814D01*
X121904571Y-79185704D01*
X122216108Y-79267384D01*
X122537595Y-79286718D01*
X122856675Y-79242961D01*
X123161088Y-79137795D01*
X123335044Y-79044814D01*
X123430808Y-78780413D01*
X128019192Y-78780413D01*
X128114956Y-79044814D01*
X128404571Y-79185704D01*
X128716108Y-79267384D01*
X129037595Y-79286718D01*
X129356675Y-79242961D01*
X129661088Y-79137795D01*
X129835044Y-79044814D01*
X129930808Y-78780413D01*
X128975000Y-77824605D01*
X128019192Y-78780413D01*
X123430808Y-78780413D01*
X122475000Y-77824605D01*
X121519192Y-78780413D01*
X110604999Y-78780413D01*
X110604999Y-72282402D01*
X110618061Y-72285000D01*
X110821939Y-72285000D01*
X111021898Y-72245226D01*
X111210256Y-72167205D01*
X111220411Y-72160420D01*
X111245251Y-72177017D01*
X111433609Y-72255038D01*
X111633568Y-72294812D01*
X111837446Y-72294812D01*
X112037405Y-72255038D01*
X112225763Y-72177017D01*
X112395281Y-72063749D01*
X112439218Y-72019812D01*
X112572866Y-72019812D01*
X112610188Y-72023488D01*
X112647510Y-72019812D01*
X112647521Y-72019812D01*
X112759174Y-72008815D01*
X112902435Y-71965358D01*
X113034464Y-71894786D01*
X113150189Y-71799813D01*
X113173991Y-71770810D01*
X113731008Y-71213795D01*
X113760001Y-71190001D01*
X113783795Y-71161008D01*
X113783799Y-71161004D01*
X113854973Y-71074277D01*
X113868151Y-71049623D01*
X113874326Y-71038072D01*
X114295000Y-71038072D01*
X114419482Y-71025812D01*
X114420620Y-71025467D01*
X114534250Y-71035000D01*
X114626333Y-70942917D01*
X114649494Y-70930537D01*
X114746185Y-70851185D01*
X114820000Y-70761241D01*
X114860001Y-70809982D01*
X114860001Y-71675168D01*
X114856324Y-71712500D01*
X114860001Y-71749833D01*
X114869934Y-71850684D01*
X114759250Y-71740000D01*
X114595000Y-71736928D01*
X114470518Y-71749188D01*
X114350820Y-71785498D01*
X114240506Y-71844463D01*
X114143815Y-71923815D01*
X114064463Y-72020506D01*
X114005498Y-72130820D01*
X113969188Y-72250518D01*
X113956928Y-72375000D01*
X113960000Y-72564250D01*
X114118750Y-72723000D01*
X114918000Y-72723000D01*
X114918000Y-72703000D01*
X115172000Y-72703000D01*
X115172000Y-72723000D01*
X115192000Y-72723000D01*
X115192000Y-72977000D01*
X115172000Y-72977000D01*
X115172000Y-72997000D01*
X114918000Y-72997000D01*
X114918000Y-72977000D01*
X114118750Y-72977000D01*
X114055231Y-73040520D01*
X113964774Y-72950063D01*
X113795256Y-72836795D01*
X113606898Y-72758774D01*
X113406939Y-72719000D01*
X113203061Y-72719000D01*
X113003102Y-72758774D01*
X112814744Y-72836795D01*
X112645226Y-72950063D01*
X112501063Y-73094226D01*
X112387795Y-73263744D01*
X112309774Y-73452102D01*
X112270000Y-73652061D01*
X112270000Y-73855939D01*
X112309774Y-74055898D01*
X112387795Y-74244256D01*
X112501063Y-74413774D01*
X112645226Y-74557937D01*
X112814744Y-74671205D01*
X113003102Y-74749226D01*
X113203061Y-74789000D01*
X113265198Y-74789000D01*
X113637200Y-75161002D01*
X113660999Y-75190001D01*
X113776724Y-75284974D01*
X113908753Y-75355546D01*
X114048019Y-75397791D01*
X114102382Y-75499497D01*
X114209716Y-75630284D01*
X114340503Y-75737618D01*
X114489717Y-75817375D01*
X114651623Y-75866488D01*
X114820000Y-75883072D01*
X115270000Y-75883072D01*
X115438377Y-75866488D01*
X115600283Y-75817375D01*
X115749497Y-75737618D01*
X115820000Y-75679758D01*
X115890503Y-75737618D01*
X116039717Y-75817375D01*
X116201623Y-75866488D01*
X116370000Y-75883072D01*
X116820000Y-75883072D01*
X116988377Y-75866488D01*
X117150283Y-75817375D01*
X117299497Y-75737618D01*
X117430284Y-75630284D01*
X117537618Y-75499497D01*
X117552048Y-75472500D01*
X118352155Y-75472500D01*
X118440208Y-75579792D01*
X118525756Y-75650000D01*
X118440208Y-75720208D01*
X118413252Y-75753054D01*
X118221939Y-75715000D01*
X118018061Y-75715000D01*
X117818102Y-75754774D01*
X117629744Y-75832795D01*
X117460226Y-75946063D01*
X117316063Y-76090226D01*
X117202795Y-76259744D01*
X117124774Y-76448102D01*
X117085000Y-76648061D01*
X117085000Y-76851939D01*
X117124774Y-77051898D01*
X117202795Y-77240256D01*
X117316063Y-77409774D01*
X117460226Y-77553937D01*
X117629744Y-77667205D01*
X117818102Y-77745226D01*
X118018061Y-77785000D01*
X118221939Y-77785000D01*
X118421898Y-77745226D01*
X118610256Y-77667205D01*
X118679501Y-77620937D01*
X118726291Y-77645947D01*
X118891715Y-77696128D01*
X119063750Y-77713072D01*
X119976250Y-77713072D01*
X120031858Y-77707595D01*
X120833282Y-77707595D01*
X120877039Y-78026675D01*
X120982205Y-78331088D01*
X121075186Y-78505044D01*
X121339587Y-78600808D01*
X122295395Y-77645000D01*
X122654605Y-77645000D01*
X123610413Y-78600808D01*
X123874814Y-78505044D01*
X124015704Y-78215429D01*
X124097384Y-77903892D01*
X124109189Y-77707595D01*
X127333282Y-77707595D01*
X127377039Y-78026675D01*
X127482205Y-78331088D01*
X127575186Y-78505044D01*
X127839587Y-78600808D01*
X128795395Y-77645000D01*
X129154605Y-77645000D01*
X130110413Y-78600808D01*
X130374814Y-78505044D01*
X130515704Y-78215429D01*
X130597384Y-77903892D01*
X130616718Y-77582405D01*
X130572961Y-77263325D01*
X130467795Y-76958912D01*
X130374814Y-76784956D01*
X130110413Y-76689192D01*
X129154605Y-77645000D01*
X128795395Y-77645000D01*
X127839587Y-76689192D01*
X127575186Y-76784956D01*
X127434296Y-77074571D01*
X127352616Y-77386108D01*
X127333282Y-77707595D01*
X124109189Y-77707595D01*
X124116718Y-77582405D01*
X124072961Y-77263325D01*
X123967795Y-76958912D01*
X123874814Y-76784956D01*
X123610413Y-76689192D01*
X122654605Y-77645000D01*
X122295395Y-77645000D01*
X121339587Y-76689192D01*
X121075186Y-76784956D01*
X120934296Y-77074571D01*
X120852616Y-77386108D01*
X120833282Y-77707595D01*
X120031858Y-77707595D01*
X120148285Y-77696128D01*
X120313709Y-77645947D01*
X120466164Y-77564458D01*
X120599792Y-77454792D01*
X120709458Y-77321164D01*
X120790947Y-77168709D01*
X120841128Y-77003285D01*
X120858072Y-76831250D01*
X120858072Y-76509587D01*
X121519192Y-76509587D01*
X122475000Y-77465395D01*
X123430808Y-76509587D01*
X128019192Y-76509587D01*
X128975000Y-77465395D01*
X129930808Y-76509587D01*
X129835044Y-76245186D01*
X129545429Y-76104296D01*
X129233892Y-76022616D01*
X128912405Y-76003282D01*
X128593325Y-76047039D01*
X128288912Y-76152205D01*
X128114956Y-76245186D01*
X128019192Y-76509587D01*
X123430808Y-76509587D01*
X123335044Y-76245186D01*
X123045429Y-76104296D01*
X122733892Y-76022616D01*
X122412405Y-76003282D01*
X122093325Y-76047039D01*
X121788912Y-76152205D01*
X121614956Y-76245186D01*
X121519192Y-76509587D01*
X120858072Y-76509587D01*
X120858072Y-76343750D01*
X120841128Y-76171715D01*
X120790947Y-76006291D01*
X120709458Y-75853836D01*
X120599792Y-75720208D01*
X120514244Y-75650000D01*
X120599792Y-75579792D01*
X120687845Y-75472500D01*
X120720178Y-75472500D01*
X120757500Y-75476176D01*
X120794822Y-75472500D01*
X120794833Y-75472500D01*
X120906486Y-75461503D01*
X121049747Y-75418046D01*
X121181776Y-75347474D01*
X121297501Y-75252501D01*
X121321304Y-75223497D01*
X121877558Y-74667243D01*
X121998088Y-74717168D01*
X122313967Y-74780000D01*
X122636033Y-74780000D01*
X122951912Y-74717168D01*
X123249463Y-74593918D01*
X123517252Y-74414987D01*
X123744987Y-74187252D01*
X123923918Y-73919463D01*
X123929909Y-73905000D01*
X127520091Y-73905000D01*
X127526082Y-73919463D01*
X127705013Y-74187252D01*
X127932748Y-74414987D01*
X128200537Y-74593918D01*
X128498088Y-74717168D01*
X128813967Y-74780000D01*
X129136033Y-74780000D01*
X129451912Y-74717168D01*
X129749463Y-74593918D01*
X130017252Y-74414987D01*
X130244987Y-74187252D01*
X130423918Y-73919463D01*
X130547168Y-73621912D01*
X130610000Y-73306033D01*
X130610000Y-72983967D01*
X130547168Y-72668088D01*
X130423918Y-72370537D01*
X130244987Y-72102748D01*
X130017252Y-71875013D01*
X129749463Y-71696082D01*
X129451912Y-71572832D01*
X129136033Y-71510000D01*
X128813967Y-71510000D01*
X128498088Y-71572832D01*
X128200537Y-71696082D01*
X127932748Y-71875013D01*
X127705013Y-72102748D01*
X127526082Y-72370537D01*
X127520091Y-72385000D01*
X123929909Y-72385000D01*
X123923918Y-72370537D01*
X123744987Y-72102748D01*
X123517252Y-71875013D01*
X123249463Y-71696082D01*
X122951912Y-71572832D01*
X122636033Y-71510000D01*
X122313967Y-71510000D01*
X121998088Y-71572832D01*
X121700537Y-71696082D01*
X121432748Y-71875013D01*
X121205013Y-72102748D01*
X121026082Y-72370537D01*
X120902832Y-72668088D01*
X120840000Y-72983967D01*
X120840000Y-73306033D01*
X120881339Y-73513859D01*
X120572439Y-73822760D01*
X120466164Y-73735542D01*
X120313709Y-73654053D01*
X120148285Y-73603872D01*
X119976250Y-73586928D01*
X119063750Y-73586928D01*
X118891715Y-73603872D01*
X118726291Y-73654053D01*
X118573836Y-73735542D01*
X118440208Y-73845208D01*
X118352155Y-73952500D01*
X117465396Y-73952500D01*
X117430284Y-73909716D01*
X117308780Y-73810000D01*
X117430284Y-73710284D01*
X117537618Y-73579497D01*
X117617375Y-73430283D01*
X117666488Y-73268377D01*
X117683072Y-73100000D01*
X117683072Y-72600000D01*
X117666488Y-72431623D01*
X117618386Y-72273049D01*
X117663716Y-72328284D01*
X117794503Y-72435618D01*
X117943717Y-72515375D01*
X118105623Y-72564488D01*
X118274000Y-72581072D01*
X118724000Y-72581072D01*
X118892377Y-72564488D01*
X119054283Y-72515375D01*
X119200351Y-72437300D01*
X119244506Y-72473537D01*
X119354820Y-72532502D01*
X119474518Y-72568812D01*
X119599000Y-72581072D01*
X119763250Y-72578000D01*
X119922000Y-72419250D01*
X119922000Y-71595000D01*
X120176000Y-71595000D01*
X120176000Y-72419250D01*
X120334750Y-72578000D01*
X120499000Y-72581072D01*
X120623482Y-72568812D01*
X120743180Y-72532502D01*
X120853494Y-72473537D01*
X120950185Y-72394185D01*
X121029537Y-72297494D01*
X121088502Y-72187180D01*
X121124812Y-72067482D01*
X121137072Y-71943000D01*
X121134000Y-71753750D01*
X120975250Y-71595000D01*
X120176000Y-71595000D01*
X119922000Y-71595000D01*
X119902000Y-71595000D01*
X119902000Y-71341000D01*
X119922000Y-71341000D01*
X119922000Y-70516750D01*
X120176000Y-70516750D01*
X120176000Y-71341000D01*
X120975250Y-71341000D01*
X121134000Y-71182250D01*
X121137072Y-70993000D01*
X121124812Y-70868518D01*
X121088502Y-70748820D01*
X121029537Y-70638506D01*
X120950185Y-70541815D01*
X120853494Y-70462463D01*
X120743180Y-70403498D01*
X120623482Y-70367188D01*
X120499000Y-70354928D01*
X120334750Y-70358000D01*
X120176000Y-70516750D01*
X119922000Y-70516750D01*
X119763250Y-70358000D01*
X119599000Y-70354928D01*
X119474518Y-70367188D01*
X119354820Y-70403498D01*
X119244506Y-70462463D01*
X119200351Y-70498700D01*
X119054283Y-70420625D01*
X118933072Y-70383857D01*
X118933072Y-69761729D01*
X119133802Y-69561000D01*
X132063678Y-69561000D01*
X132101000Y-69564676D01*
X132138322Y-69561000D01*
X132138333Y-69561000D01*
X132249986Y-69550003D01*
X132393247Y-69506546D01*
X132525276Y-69435974D01*
X132641001Y-69341001D01*
X132664803Y-69311998D01*
X133029801Y-68947000D01*
X133091939Y-68947000D01*
X133291898Y-68907226D01*
X133480256Y-68829205D01*
X133649774Y-68715937D01*
X133793937Y-68571774D01*
X133863245Y-68468046D01*
X140304558Y-74909360D01*
X140347832Y-75126912D01*
X140471082Y-75424463D01*
X140650013Y-75692252D01*
X140877748Y-75919987D01*
X141145537Y-76098918D01*
X141443088Y-76222168D01*
X141758967Y-76285000D01*
X142081033Y-76285000D01*
X142396912Y-76222168D01*
X142694463Y-76098918D01*
X142962252Y-75919987D01*
X143096826Y-75785413D01*
X143464192Y-75785413D01*
X143559956Y-76049814D01*
X143849571Y-76190704D01*
X144161108Y-76272384D01*
X144482595Y-76291718D01*
X144801675Y-76247961D01*
X145106088Y-76142795D01*
X145280044Y-76049814D01*
X145375808Y-75785413D01*
X144420000Y-74829605D01*
X143464192Y-75785413D01*
X143096826Y-75785413D01*
X143189987Y-75692252D01*
X143254925Y-75595065D01*
X143284587Y-75605808D01*
X144240395Y-74650000D01*
X144226253Y-74635858D01*
X144405858Y-74456253D01*
X144420000Y-74470395D01*
X144434143Y-74456253D01*
X144613748Y-74635858D01*
X144599605Y-74650000D01*
X145555413Y-75605808D01*
X145585075Y-75595065D01*
X145650013Y-75692252D01*
X145877748Y-75919987D01*
X146145537Y-76098918D01*
X146443088Y-76222168D01*
X146758967Y-76285000D01*
X147081033Y-76285000D01*
X147396912Y-76222168D01*
X147694463Y-76098918D01*
X147962252Y-75919987D01*
X148189987Y-75692252D01*
X148368918Y-75424463D01*
X148492168Y-75126912D01*
X148555000Y-74811033D01*
X148555000Y-74488967D01*
X148492168Y-74173088D01*
X148368918Y-73875537D01*
X148189987Y-73607748D01*
X148092239Y-73510000D01*
X154705199Y-73510000D01*
X155103823Y-73908625D01*
X155097832Y-73923088D01*
X155035000Y-74238967D01*
X155035000Y-74561033D01*
X155097832Y-74876912D01*
X155221082Y-75174463D01*
X155400013Y-75442252D01*
X155627748Y-75669987D01*
X155895537Y-75848918D01*
X156193088Y-75972168D01*
X156508967Y-76035000D01*
X156831033Y-76035000D01*
X157146912Y-75972168D01*
X157444463Y-75848918D01*
X157712252Y-75669987D01*
X157939987Y-75442252D01*
X158118918Y-75174463D01*
X158242168Y-74876912D01*
X158305000Y-74561033D01*
X158305000Y-74238967D01*
X158242168Y-73923088D01*
X158118918Y-73625537D01*
X157939987Y-73357748D01*
X157712252Y-73130013D01*
X157444463Y-72951082D01*
X157146912Y-72827832D01*
X156831033Y-72765000D01*
X156508967Y-72765000D01*
X156193088Y-72827832D01*
X156178625Y-72833823D01*
X155583803Y-72239002D01*
X155560001Y-72209999D01*
X155444276Y-72115026D01*
X155312247Y-72044454D01*
X155168986Y-72000997D01*
X155057333Y-71990000D01*
X155057322Y-71990000D01*
X155020000Y-71986324D01*
X154982678Y-71990000D01*
X141334802Y-71990000D01*
X140380215Y-71035413D01*
X155714192Y-71035413D01*
X155809956Y-71299814D01*
X156099571Y-71440704D01*
X156411108Y-71522384D01*
X156732595Y-71541718D01*
X157051675Y-71497961D01*
X157356088Y-71392795D01*
X157530044Y-71299814D01*
X157625808Y-71035413D01*
X162214192Y-71035413D01*
X162309956Y-71299814D01*
X162599571Y-71440704D01*
X162911108Y-71522384D01*
X163232595Y-71541718D01*
X163551675Y-71497961D01*
X163856088Y-71392795D01*
X164030044Y-71299814D01*
X164125808Y-71035413D01*
X163170000Y-70079605D01*
X162214192Y-71035413D01*
X157625808Y-71035413D01*
X156670000Y-70079605D01*
X155714192Y-71035413D01*
X140380215Y-71035413D01*
X139307397Y-69962595D01*
X155028282Y-69962595D01*
X155072039Y-70281675D01*
X155177205Y-70586088D01*
X155270186Y-70760044D01*
X155534587Y-70855808D01*
X156490395Y-69900000D01*
X156849605Y-69900000D01*
X157805413Y-70855808D01*
X158069814Y-70760044D01*
X158210704Y-70470429D01*
X158292384Y-70158892D01*
X158304189Y-69962595D01*
X161528282Y-69962595D01*
X161572039Y-70281675D01*
X161677205Y-70586088D01*
X161770186Y-70760044D01*
X162034587Y-70855808D01*
X162990395Y-69900000D01*
X162034587Y-68944192D01*
X161770186Y-69039956D01*
X161629296Y-69329571D01*
X161547616Y-69641108D01*
X161528282Y-69962595D01*
X158304189Y-69962595D01*
X158311718Y-69837405D01*
X158267961Y-69518325D01*
X158162795Y-69213912D01*
X158069814Y-69039956D01*
X157805413Y-68944192D01*
X156849605Y-69900000D01*
X156490395Y-69900000D01*
X155534587Y-68944192D01*
X155270186Y-69039956D01*
X155129296Y-69329571D01*
X155047616Y-69641108D01*
X155028282Y-69962595D01*
X139307397Y-69962595D01*
X139116953Y-69772152D01*
X139340000Y-69794120D01*
X139709524Y-69757725D01*
X140064848Y-69649939D01*
X140392317Y-69474903D01*
X140679345Y-69239345D01*
X140914903Y-68952317D01*
X141089939Y-68624848D01*
X141197725Y-68269524D01*
X141225000Y-67992597D01*
X141225000Y-66307403D01*
X147615000Y-66307403D01*
X147615000Y-67992596D01*
X147642275Y-68269523D01*
X147750061Y-68624847D01*
X147925097Y-68952317D01*
X148160655Y-69239345D01*
X148447683Y-69474903D01*
X148775152Y-69649939D01*
X149130476Y-69757725D01*
X149500000Y-69794120D01*
X149869523Y-69757725D01*
X150224847Y-69649939D01*
X150552317Y-69474903D01*
X150839345Y-69239345D01*
X151074903Y-68952317D01*
X151175246Y-68764587D01*
X155714192Y-68764587D01*
X156670000Y-69720395D01*
X157625808Y-68764587D01*
X162214192Y-68764587D01*
X163170000Y-69720395D01*
X164125808Y-68764587D01*
X164030044Y-68500186D01*
X163740429Y-68359296D01*
X163428892Y-68277616D01*
X163107405Y-68258282D01*
X162788325Y-68302039D01*
X162483912Y-68407205D01*
X162309956Y-68500186D01*
X162214192Y-68764587D01*
X157625808Y-68764587D01*
X157530044Y-68500186D01*
X157240429Y-68359296D01*
X156928892Y-68277616D01*
X156607405Y-68258282D01*
X156288325Y-68302039D01*
X155983912Y-68407205D01*
X155809956Y-68500186D01*
X155714192Y-68764587D01*
X151175246Y-68764587D01*
X151249939Y-68624848D01*
X151357725Y-68269524D01*
X151385000Y-67992597D01*
X151385000Y-66307403D01*
X151357725Y-66030476D01*
X151249939Y-65675152D01*
X151074903Y-65347683D01*
X150839345Y-65060655D01*
X150552317Y-64825097D01*
X150224848Y-64650061D01*
X149869524Y-64542275D01*
X149500000Y-64505880D01*
X149130477Y-64542275D01*
X148775153Y-64650061D01*
X148447684Y-64825097D01*
X148160656Y-65060655D01*
X147925098Y-65347683D01*
X147750062Y-65675152D01*
X147642275Y-66030476D01*
X147615000Y-66307403D01*
X141225000Y-66307403D01*
X141197725Y-66030476D01*
X141089939Y-65675152D01*
X140914903Y-65347683D01*
X140679345Y-65060655D01*
X140392317Y-64825097D01*
X140064847Y-64650061D01*
X139709523Y-64542275D01*
X139340000Y-64505880D01*
X138970476Y-64542275D01*
X138615152Y-64650061D01*
X138287683Y-64825097D01*
X138000655Y-65060655D01*
X137765097Y-65347683D01*
X137590061Y-65675153D01*
X137482275Y-66030477D01*
X137455000Y-66307404D01*
X137455000Y-67992597D01*
X137467848Y-68123047D01*
X134254801Y-64910000D01*
X137882678Y-64910000D01*
X137920000Y-64913676D01*
X137957322Y-64910000D01*
X137957333Y-64910000D01*
X138068986Y-64899003D01*
X138212247Y-64855546D01*
X138344276Y-64784974D01*
X138460001Y-64690001D01*
X138483804Y-64660997D01*
X141428625Y-61716177D01*
X141443088Y-61722168D01*
X141758967Y-61785000D01*
X142081033Y-61785000D01*
X142396912Y-61722168D01*
X142694463Y-61598918D01*
X142962252Y-61419987D01*
X143096826Y-61285413D01*
X145964192Y-61285413D01*
X146059956Y-61549814D01*
X146349571Y-61690704D01*
X146661108Y-61772384D01*
X146982595Y-61791718D01*
X147301675Y-61747961D01*
X147606088Y-61642795D01*
X147780044Y-61549814D01*
X147875808Y-61285413D01*
X146920000Y-60329605D01*
X145964192Y-61285413D01*
X143096826Y-61285413D01*
X143189987Y-61192252D01*
X143368918Y-60924463D01*
X143492168Y-60626912D01*
X143555000Y-60311033D01*
X143555000Y-60212595D01*
X145278282Y-60212595D01*
X145322039Y-60531675D01*
X145427205Y-60836088D01*
X145520186Y-61010044D01*
X145784587Y-61105808D01*
X146740395Y-60150000D01*
X147099605Y-60150000D01*
X148055413Y-61105808D01*
X148319814Y-61010044D01*
X148421074Y-60801891D01*
X149133519Y-60801891D01*
X149230843Y-61076252D01*
X149379822Y-61326355D01*
X149574731Y-61542588D01*
X149808080Y-61716641D01*
X150070901Y-61841825D01*
X150218110Y-61886476D01*
X150448000Y-61765155D01*
X150448000Y-60572000D01*
X149254186Y-60572000D01*
X149133519Y-60801891D01*
X148421074Y-60801891D01*
X148460704Y-60720429D01*
X148542384Y-60408892D01*
X148561675Y-60088109D01*
X149133519Y-60088109D01*
X149254186Y-60318000D01*
X150448000Y-60318000D01*
X150448000Y-59124845D01*
X150702000Y-59124845D01*
X150702000Y-60318000D01*
X150722000Y-60318000D01*
X150722000Y-60572000D01*
X150702000Y-60572000D01*
X150702000Y-61765155D01*
X150931890Y-61886476D01*
X151079099Y-61841825D01*
X151341920Y-61716641D01*
X151575269Y-61542588D01*
X151651034Y-61458534D01*
X151675498Y-61539180D01*
X151734463Y-61649494D01*
X151813815Y-61746185D01*
X151910506Y-61825537D01*
X152020820Y-61884502D01*
X152140518Y-61920812D01*
X152265000Y-61933072D01*
X153965000Y-61933072D01*
X154089482Y-61920812D01*
X154209180Y-61884502D01*
X154319494Y-61825537D01*
X154416185Y-61746185D01*
X154495537Y-61649494D01*
X154549754Y-61548061D01*
X156485000Y-61548061D01*
X156485000Y-61751939D01*
X156524774Y-61951898D01*
X156602795Y-62140256D01*
X156716063Y-62309774D01*
X156860226Y-62453937D01*
X157029744Y-62567205D01*
X157218102Y-62645226D01*
X157418061Y-62685000D01*
X157491386Y-62685000D01*
X157515724Y-62704974D01*
X157647753Y-62775546D01*
X157665449Y-62780914D01*
X157675382Y-62799497D01*
X157782716Y-62930284D01*
X157913503Y-63037618D01*
X158062717Y-63117375D01*
X158224623Y-63166488D01*
X158393000Y-63183072D01*
X158843000Y-63183072D01*
X159011377Y-63166488D01*
X159173283Y-63117375D01*
X159319351Y-63039300D01*
X159363506Y-63075537D01*
X159473820Y-63134502D01*
X159593518Y-63170812D01*
X159718000Y-63183072D01*
X159882250Y-63180000D01*
X160041000Y-63021250D01*
X160041000Y-62197000D01*
X160295000Y-62197000D01*
X160295000Y-63021250D01*
X160453750Y-63180000D01*
X160618000Y-63183072D01*
X160742482Y-63170812D01*
X160862180Y-63134502D01*
X160972494Y-63075537D01*
X161069185Y-62996185D01*
X161148537Y-62899494D01*
X161207502Y-62789180D01*
X161243812Y-62669482D01*
X161256072Y-62545000D01*
X161253000Y-62355750D01*
X161094250Y-62197000D01*
X160295000Y-62197000D01*
X160041000Y-62197000D01*
X160021000Y-62197000D01*
X160021000Y-61943000D01*
X160041000Y-61943000D01*
X160041000Y-61118750D01*
X160295000Y-61118750D01*
X160295000Y-61943000D01*
X161094250Y-61943000D01*
X161253000Y-61784250D01*
X161256072Y-61595000D01*
X161243812Y-61470518D01*
X161207502Y-61350820D01*
X161148537Y-61240506D01*
X161069185Y-61143815D01*
X160972494Y-61064463D01*
X160862180Y-61005498D01*
X160742482Y-60969188D01*
X160618000Y-60956928D01*
X160453750Y-60960000D01*
X160295000Y-61118750D01*
X160041000Y-61118750D01*
X159882250Y-60960000D01*
X159718000Y-60956928D01*
X159593518Y-60969188D01*
X159473820Y-61005498D01*
X159363506Y-61064463D01*
X159319351Y-61100700D01*
X159173283Y-61022625D01*
X159011377Y-60973512D01*
X158843000Y-60956928D01*
X158393000Y-60956928D01*
X158299817Y-60966106D01*
X158179774Y-60846063D01*
X158010256Y-60732795D01*
X157821898Y-60654774D01*
X157621939Y-60615000D01*
X157418061Y-60615000D01*
X157218102Y-60654774D01*
X157029744Y-60732795D01*
X156860226Y-60846063D01*
X156716063Y-60990226D01*
X156602795Y-61159744D01*
X156524774Y-61348102D01*
X156485000Y-61548061D01*
X154549754Y-61548061D01*
X154554502Y-61539180D01*
X154590812Y-61419482D01*
X154603072Y-61295000D01*
X154603072Y-59595000D01*
X154590812Y-59470518D01*
X154554502Y-59350820D01*
X154495537Y-59240506D01*
X154416185Y-59143815D01*
X154319494Y-59064463D01*
X154209180Y-59005498D01*
X154089482Y-58969188D01*
X153965000Y-58956928D01*
X152265000Y-58956928D01*
X152140518Y-58969188D01*
X152020820Y-59005498D01*
X151910506Y-59064463D01*
X151813815Y-59143815D01*
X151734463Y-59240506D01*
X151675498Y-59350820D01*
X151651034Y-59431466D01*
X151575269Y-59347412D01*
X151341920Y-59173359D01*
X151079099Y-59048175D01*
X150931890Y-59003524D01*
X150702000Y-59124845D01*
X150448000Y-59124845D01*
X150218110Y-59003524D01*
X150070901Y-59048175D01*
X149808080Y-59173359D01*
X149574731Y-59347412D01*
X149379822Y-59563645D01*
X149230843Y-59813748D01*
X149133519Y-60088109D01*
X148561675Y-60088109D01*
X148561718Y-60087405D01*
X148517961Y-59768325D01*
X148412795Y-59463912D01*
X148319814Y-59289956D01*
X148055413Y-59194192D01*
X147099605Y-60150000D01*
X146740395Y-60150000D01*
X145784587Y-59194192D01*
X145520186Y-59289956D01*
X145379296Y-59579571D01*
X145297616Y-59891108D01*
X145278282Y-60212595D01*
X143555000Y-60212595D01*
X143555000Y-59988967D01*
X143492168Y-59673088D01*
X143368918Y-59375537D01*
X143189987Y-59107748D01*
X143096826Y-59014587D01*
X145964192Y-59014587D01*
X146920000Y-59970395D01*
X147875808Y-59014587D01*
X147780044Y-58750186D01*
X147490429Y-58609296D01*
X147178892Y-58527616D01*
X146857405Y-58508282D01*
X146538325Y-58552039D01*
X146233912Y-58657205D01*
X146059956Y-58750186D01*
X145964192Y-59014587D01*
X143096826Y-59014587D01*
X142962252Y-58880013D01*
X142819249Y-58784462D01*
X142937937Y-58665774D01*
X143051205Y-58496256D01*
X143129226Y-58307898D01*
X143169000Y-58107939D01*
X143169000Y-57904061D01*
X143129226Y-57704102D01*
X143051205Y-57515744D01*
X142937937Y-57346226D01*
X142793774Y-57202063D01*
X142624256Y-57088795D01*
X142435898Y-57010774D01*
X142235939Y-56971000D01*
X142032061Y-56971000D01*
X141832102Y-57010774D01*
X141643744Y-57088795D01*
X141474226Y-57202063D01*
X141330063Y-57346226D01*
X141216795Y-57515744D01*
X141138774Y-57704102D01*
X141099000Y-57904061D01*
X141099000Y-57966197D01*
X137275199Y-61790000D01*
X120679981Y-61790000D01*
X120624494Y-61744463D01*
X120514180Y-61685498D01*
X120394482Y-61649188D01*
X120270000Y-61636928D01*
X118933072Y-61636928D01*
X118933072Y-61261729D01*
X119931004Y-60263798D01*
X119960001Y-60240001D01*
X120014242Y-60173908D01*
X120054974Y-60124277D01*
X120125546Y-59992247D01*
X120126541Y-59988967D01*
X120169003Y-59848986D01*
X120180000Y-59737333D01*
X120180000Y-59737323D01*
X120183676Y-59700000D01*
X120180000Y-59662678D01*
X120180000Y-59378890D01*
X132564524Y-59378890D01*
X132609175Y-59526099D01*
X132734359Y-59788920D01*
X132908412Y-60022269D01*
X133124645Y-60217178D01*
X133374748Y-60366157D01*
X133649109Y-60463481D01*
X133879000Y-60342814D01*
X133879000Y-59149000D01*
X132685845Y-59149000D01*
X132564524Y-59378890D01*
X120180000Y-59378890D01*
X120180000Y-57842979D01*
X120569282Y-57453697D01*
X120648634Y-57357006D01*
X120707599Y-57246692D01*
X120743909Y-57126994D01*
X120756169Y-57002512D01*
X120743909Y-56878030D01*
X120707599Y-56758332D01*
X120648634Y-56648018D01*
X120642137Y-56640101D01*
X120643399Y-56638839D01*
X120791827Y-56559502D01*
X120922614Y-56452168D01*
X121276168Y-56098614D01*
X121383502Y-55967827D01*
X121463259Y-55818613D01*
X121512372Y-55656707D01*
X121528956Y-55488330D01*
X121512372Y-55319953D01*
X121463259Y-55158047D01*
X121383502Y-55008833D01*
X121276168Y-54878046D01*
X120957970Y-54559848D01*
X120827183Y-54452514D01*
X120677969Y-54372757D01*
X120519476Y-54324679D01*
X120513877Y-54267833D01*
X120477568Y-54148135D01*
X120418604Y-54037820D01*
X120339251Y-53941129D01*
X120220936Y-53827159D01*
X119996430Y-53827159D01*
X119413597Y-54409992D01*
X119427740Y-54424135D01*
X119248135Y-54603740D01*
X119233992Y-54589597D01*
X119219850Y-54603740D01*
X119040245Y-54424135D01*
X119054387Y-54409992D01*
X118489232Y-53844837D01*
X118264725Y-53844837D01*
X118128733Y-53976485D01*
X118049380Y-54073176D01*
X117990416Y-54183490D01*
X117954107Y-54303188D01*
X117951938Y-54325212D01*
X117943006Y-54326092D01*
X117823308Y-54362401D01*
X117712994Y-54421365D01*
X117616303Y-54500718D01*
X117559174Y-54558700D01*
X117498267Y-54484485D01*
X117362275Y-54352837D01*
X117137771Y-54352837D01*
X117243608Y-54247000D01*
X117417592Y-54247000D01*
X117687490Y-54193314D01*
X117941727Y-54088005D01*
X118170535Y-53935120D01*
X118365120Y-53740535D01*
X118518005Y-53511727D01*
X118547415Y-53440725D01*
X118668837Y-53440725D01*
X118668837Y-53665232D01*
X119233992Y-54230387D01*
X119668639Y-53795740D01*
X132521000Y-53795740D01*
X132521000Y-54088260D01*
X132578068Y-54375158D01*
X132690010Y-54645411D01*
X132852525Y-54888632D01*
X133059368Y-55095475D01*
X133233760Y-55212000D01*
X133059368Y-55328525D01*
X132852525Y-55535368D01*
X132690010Y-55778589D01*
X132578068Y-56048842D01*
X132521000Y-56335740D01*
X132521000Y-56628260D01*
X132578068Y-56915158D01*
X132690010Y-57185411D01*
X132852525Y-57428632D01*
X133059368Y-57635475D01*
X133241534Y-57757195D01*
X133124645Y-57826822D01*
X132908412Y-58021731D01*
X132734359Y-58255080D01*
X132609175Y-58517901D01*
X132564524Y-58665110D01*
X132685845Y-58895000D01*
X133879000Y-58895000D01*
X133879000Y-58875000D01*
X134133000Y-58875000D01*
X134133000Y-58895000D01*
X134153000Y-58895000D01*
X134153000Y-59149000D01*
X134133000Y-59149000D01*
X134133000Y-60342814D01*
X134362891Y-60463481D01*
X134637252Y-60366157D01*
X134887355Y-60217178D01*
X135103588Y-60022269D01*
X135274900Y-59792594D01*
X135392525Y-59968632D01*
X135599368Y-60175475D01*
X135842589Y-60337990D01*
X136112842Y-60449932D01*
X136399740Y-60507000D01*
X136692260Y-60507000D01*
X136979158Y-60449932D01*
X137249411Y-60337990D01*
X137492632Y-60175475D01*
X137699475Y-59968632D01*
X137861990Y-59725411D01*
X137973932Y-59455158D01*
X138031000Y-59168260D01*
X138031000Y-58875740D01*
X137973932Y-58588842D01*
X137861990Y-58318589D01*
X137699475Y-58075368D01*
X137492632Y-57868525D01*
X137318240Y-57752000D01*
X137492632Y-57635475D01*
X137699475Y-57428632D01*
X137861990Y-57185411D01*
X137973932Y-56915158D01*
X138031000Y-56628260D01*
X138031000Y-56335740D01*
X137973932Y-56048842D01*
X137861990Y-55778589D01*
X137699475Y-55535368D01*
X137593979Y-55429872D01*
X158935000Y-55429872D01*
X158935000Y-55870128D01*
X159020890Y-56301925D01*
X159189369Y-56708669D01*
X159433962Y-57074729D01*
X159745271Y-57386038D01*
X160111331Y-57630631D01*
X160518075Y-57799110D01*
X160949872Y-57885000D01*
X161390128Y-57885000D01*
X161821925Y-57799110D01*
X162228669Y-57630631D01*
X162594729Y-57386038D01*
X162906038Y-57074729D01*
X163150631Y-56708669D01*
X163319110Y-56301925D01*
X163405000Y-55870128D01*
X163405000Y-55429872D01*
X163319110Y-54998075D01*
X163150631Y-54591331D01*
X162906038Y-54225271D01*
X162594729Y-53913962D01*
X162228669Y-53669369D01*
X161821925Y-53500890D01*
X161390128Y-53415000D01*
X160949872Y-53415000D01*
X160518075Y-53500890D01*
X160111331Y-53669369D01*
X159745271Y-53913962D01*
X159433962Y-54225271D01*
X159189369Y-54591331D01*
X159020890Y-54998075D01*
X158935000Y-55429872D01*
X137593979Y-55429872D01*
X137567620Y-55403513D01*
X137640180Y-55381502D01*
X137750494Y-55322537D01*
X137847185Y-55243185D01*
X137926537Y-55146494D01*
X137985502Y-55036180D01*
X138021812Y-54916482D01*
X138034072Y-54792000D01*
X138034072Y-53092000D01*
X138021812Y-52967518D01*
X137985502Y-52847820D01*
X137926537Y-52737506D01*
X137847185Y-52640815D01*
X137750494Y-52561463D01*
X137640180Y-52502498D01*
X137520482Y-52466188D01*
X137396000Y-52453928D01*
X135696000Y-52453928D01*
X135571518Y-52466188D01*
X135451820Y-52502498D01*
X135341506Y-52561463D01*
X135244815Y-52640815D01*
X135165463Y-52737506D01*
X135106498Y-52847820D01*
X135084487Y-52920380D01*
X134952632Y-52788525D01*
X134709411Y-52626010D01*
X134439158Y-52514068D01*
X134152260Y-52457000D01*
X133859740Y-52457000D01*
X133572842Y-52514068D01*
X133302589Y-52626010D01*
X133059368Y-52788525D01*
X132852525Y-52995368D01*
X132690010Y-53238589D01*
X132578068Y-53508842D01*
X132521000Y-53795740D01*
X119668639Y-53795740D01*
X119816825Y-53647554D01*
X119816825Y-53423048D01*
X119702855Y-53304733D01*
X119606164Y-53225380D01*
X119495849Y-53166416D01*
X119376151Y-53130107D01*
X119251670Y-53117846D01*
X119127188Y-53130107D01*
X119007490Y-53166416D01*
X118897176Y-53225380D01*
X118800485Y-53304733D01*
X118668837Y-53440725D01*
X118547415Y-53440725D01*
X118623314Y-53257490D01*
X118677000Y-52987592D01*
X118677000Y-52712408D01*
X118623314Y-52442510D01*
X118518005Y-52188273D01*
X118365120Y-51959465D01*
X118170535Y-51764880D01*
X117941727Y-51611995D01*
X117687490Y-51506686D01*
X117417592Y-51453000D01*
X117142408Y-51453000D01*
X116872510Y-51506686D01*
X116618273Y-51611995D01*
X116389465Y-51764880D01*
X116194880Y-51959465D01*
X116041995Y-52188273D01*
X116010000Y-52265515D01*
X115978005Y-52188273D01*
X115825120Y-51959465D01*
X115630535Y-51764880D01*
X115401727Y-51611995D01*
X115147490Y-51506686D01*
X114877592Y-51453000D01*
X114602408Y-51453000D01*
X114332510Y-51506686D01*
X114078273Y-51611995D01*
X113849465Y-51764880D01*
X113654880Y-51959465D01*
X113501995Y-52188273D01*
X113470000Y-52265515D01*
X113438005Y-52188273D01*
X113285120Y-51959465D01*
X113090535Y-51764880D01*
X112861727Y-51611995D01*
X112607490Y-51506686D01*
X112337592Y-51453000D01*
X112062408Y-51453000D01*
X111792510Y-51506686D01*
X111538273Y-51611995D01*
X111309465Y-51764880D01*
X111114880Y-51959465D01*
X110961995Y-52188273D01*
X110930000Y-52265515D01*
X110898005Y-52188273D01*
X110745120Y-51959465D01*
X110550535Y-51764880D01*
X110321727Y-51611995D01*
X110067490Y-51506686D01*
X109797592Y-51453000D01*
X109522408Y-51453000D01*
X109252510Y-51506686D01*
X108998273Y-51611995D01*
X108769465Y-51764880D01*
X108574880Y-51959465D01*
X108487659Y-52090000D01*
X103867323Y-52090000D01*
X103830000Y-52086324D01*
X103792677Y-52090000D01*
X103792667Y-52090000D01*
X103681014Y-52100997D01*
X103537753Y-52144454D01*
X103405723Y-52215026D01*
X103322083Y-52283668D01*
X103289999Y-52309999D01*
X103266201Y-52338997D01*
X102438998Y-53166201D01*
X102410000Y-53189999D01*
X102386202Y-53218997D01*
X102386201Y-53218998D01*
X102315026Y-53305724D01*
X102287079Y-53358009D01*
X102274482Y-53354188D01*
X102150000Y-53341928D01*
X101935750Y-53345000D01*
X101777000Y-53503750D01*
X101777000Y-53859407D01*
X101755219Y-53870988D01*
X101702297Y-53898655D01*
X101700563Y-53900049D01*
X101698596Y-53901095D01*
X101652263Y-53938883D01*
X101605714Y-53976310D01*
X101604283Y-53978015D01*
X101602557Y-53979423D01*
X101564461Y-54025473D01*
X101526053Y-54071246D01*
X101524980Y-54073198D01*
X101523561Y-54074913D01*
X101523000Y-54075951D01*
X101523000Y-53503750D01*
X101364250Y-53345000D01*
X101150000Y-53341928D01*
X101025518Y-53354188D01*
X100905820Y-53390498D01*
X100795506Y-53449463D01*
X100698815Y-53528815D01*
X100619463Y-53625506D01*
X100560498Y-53735820D01*
X100524188Y-53855518D01*
X100511928Y-53980000D01*
X100515000Y-54444250D01*
X100673750Y-54603000D01*
X101415000Y-54603000D01*
X101415000Y-54857000D01*
X100673750Y-54857000D01*
X100515000Y-55015750D01*
X100511928Y-55480000D01*
X100524188Y-55604482D01*
X100560498Y-55724180D01*
X100619463Y-55834494D01*
X100698815Y-55931185D01*
X100782667Y-56000000D01*
X100698815Y-56068815D01*
X100619463Y-56165506D01*
X100560498Y-56275820D01*
X100524188Y-56395518D01*
X100511928Y-56520000D01*
X100515000Y-56984250D01*
X100673750Y-57143000D01*
X101523000Y-57143000D01*
X101523000Y-56043750D01*
X101479250Y-56000000D01*
X101523000Y-55956250D01*
X101523000Y-55383740D01*
X101558883Y-55427737D01*
X101596310Y-55474286D01*
X101598015Y-55475717D01*
X101599423Y-55477443D01*
X101645473Y-55515539D01*
X101691246Y-55553947D01*
X101693198Y-55555020D01*
X101694913Y-55556439D01*
X101747461Y-55584851D01*
X101777000Y-55601091D01*
X101777000Y-55956250D01*
X101820750Y-56000000D01*
X101777000Y-56043750D01*
X101777000Y-57143000D01*
X101797000Y-57143000D01*
X101797000Y-57397000D01*
X101777000Y-57397000D01*
X101777000Y-58496250D01*
X101935750Y-58655000D01*
X102150000Y-58658072D01*
X102274482Y-58645812D01*
X102287079Y-58641991D01*
X102315026Y-58694276D01*
X102320557Y-58701015D01*
X102409999Y-58810001D01*
X102439003Y-58833804D01*
X102656196Y-59050997D01*
X102679999Y-59080001D01*
X102795724Y-59174974D01*
X102927753Y-59245546D01*
X103071014Y-59289003D01*
X103182667Y-59300000D01*
X103182675Y-59300000D01*
X103220000Y-59303676D01*
X103257325Y-59300000D01*
X106472678Y-59300000D01*
X106510000Y-59303676D01*
X106547322Y-59300000D01*
X106547333Y-59300000D01*
X106658986Y-59289003D01*
X106802247Y-59245546D01*
X106934276Y-59174974D01*
X107050001Y-59080001D01*
X107073804Y-59050997D01*
X107389801Y-58735000D01*
X110806928Y-58735000D01*
X110819188Y-58859482D01*
X110855498Y-58979180D01*
X110914463Y-59089494D01*
X110993815Y-59186185D01*
X111090506Y-59265537D01*
X111200820Y-59324502D01*
X111320518Y-59360812D01*
X111445000Y-59373072D01*
X111609250Y-59370000D01*
X111768000Y-59211250D01*
X111768000Y-58387000D01*
X110968750Y-58387000D01*
X110810000Y-58545750D01*
X110806928Y-58735000D01*
X107389801Y-58735000D01*
X108913801Y-57211000D01*
X110806928Y-57211000D01*
X110819188Y-57335482D01*
X110855498Y-57455180D01*
X110878386Y-57498000D01*
X110855498Y-57540820D01*
X110819188Y-57660518D01*
X110806928Y-57785000D01*
X110810000Y-57974250D01*
X110968750Y-58133000D01*
X111768000Y-58133000D01*
X111768000Y-56863000D01*
X110968750Y-56863000D01*
X110810000Y-57021750D01*
X110806928Y-57211000D01*
X108913801Y-57211000D01*
X109863801Y-56261000D01*
X110806928Y-56261000D01*
X110810000Y-56450250D01*
X110968750Y-56609000D01*
X111768000Y-56609000D01*
X111768000Y-55784750D01*
X111609250Y-55626000D01*
X111445000Y-55622928D01*
X111320518Y-55635188D01*
X111200820Y-55671498D01*
X111090506Y-55730463D01*
X110993815Y-55809815D01*
X110914463Y-55906506D01*
X110855498Y-56016820D01*
X110819188Y-56136518D01*
X110806928Y-56261000D01*
X109863801Y-56261000D01*
X111908430Y-54216372D01*
X112062408Y-54247000D01*
X112337592Y-54247000D01*
X112607490Y-54193314D01*
X112861727Y-54088005D01*
X113090535Y-53935120D01*
X113285120Y-53740535D01*
X113438005Y-53511727D01*
X113470000Y-53434485D01*
X113501995Y-53511727D01*
X113654880Y-53740535D01*
X113849465Y-53935120D01*
X114078273Y-54088005D01*
X114332510Y-54193314D01*
X114602408Y-54247000D01*
X114877592Y-54247000D01*
X115147490Y-54193314D01*
X115401727Y-54088005D01*
X115630535Y-53935120D01*
X115825120Y-53740535D01*
X115978005Y-53511727D01*
X116010000Y-53434485D01*
X116041995Y-53511727D01*
X116147406Y-53669485D01*
X116131151Y-53674416D01*
X116020836Y-53733380D01*
X115924145Y-53812733D01*
X115810175Y-53931048D01*
X115810175Y-54155554D01*
X116393008Y-54738387D01*
X116407151Y-54724245D01*
X116586756Y-54903850D01*
X116572613Y-54917992D01*
X116586756Y-54932135D01*
X116407151Y-55111740D01*
X116393008Y-55097597D01*
X116378866Y-55111740D01*
X116199261Y-54932135D01*
X116213403Y-54917992D01*
X115630570Y-54335159D01*
X115406064Y-54335159D01*
X115287749Y-54449129D01*
X115208396Y-54545820D01*
X115149432Y-54656135D01*
X115113123Y-54775833D01*
X115107524Y-54832679D01*
X114949031Y-54880757D01*
X114799817Y-54960514D01*
X114669030Y-55067848D01*
X114350832Y-55386046D01*
X114243498Y-55516833D01*
X114163741Y-55666047D01*
X114135042Y-55760656D01*
X114000283Y-55688625D01*
X113838377Y-55639512D01*
X113670000Y-55622928D01*
X113220000Y-55622928D01*
X113051623Y-55639512D01*
X112889717Y-55688625D01*
X112743649Y-55766700D01*
X112699494Y-55730463D01*
X112589180Y-55671498D01*
X112469482Y-55635188D01*
X112345000Y-55622928D01*
X112180750Y-55626000D01*
X112022000Y-55784750D01*
X112022000Y-56609000D01*
X112042000Y-56609000D01*
X112042000Y-56863000D01*
X112022000Y-56863000D01*
X112022000Y-58133000D01*
X112042000Y-58133000D01*
X112042000Y-58387000D01*
X112022000Y-58387000D01*
X112022000Y-59211250D01*
X112180750Y-59370000D01*
X112345000Y-59373072D01*
X112469482Y-59360812D01*
X112589180Y-59324502D01*
X112699494Y-59265537D01*
X112743649Y-59229300D01*
X112889717Y-59307375D01*
X113051623Y-59356488D01*
X113220000Y-59373072D01*
X113470270Y-59373072D01*
X113892998Y-59795801D01*
X113892998Y-59805166D01*
X113849494Y-59769463D01*
X113826333Y-59757083D01*
X113734250Y-59665000D01*
X113620620Y-59674533D01*
X113619482Y-59674188D01*
X113495000Y-59661928D01*
X112945000Y-59661928D01*
X112820518Y-59674188D01*
X112820000Y-59674345D01*
X112819482Y-59674188D01*
X112695000Y-59661928D01*
X112145000Y-59661928D01*
X112020518Y-59674188D01*
X111900820Y-59710498D01*
X111790506Y-59769463D01*
X111693815Y-59848815D01*
X111614463Y-59945506D01*
X111555498Y-60055820D01*
X111519188Y-60175518D01*
X111506928Y-60300000D01*
X111506928Y-61636928D01*
X110170000Y-61636928D01*
X110045518Y-61649188D01*
X109925820Y-61685498D01*
X109815506Y-61744463D01*
X109718815Y-61823815D01*
X109639463Y-61920506D01*
X109580498Y-62030820D01*
X109544188Y-62150518D01*
X109531928Y-62275000D01*
X109531928Y-62695674D01*
X109495723Y-62715026D01*
X109421980Y-62775546D01*
X109379999Y-62809999D01*
X109356200Y-62838998D01*
X108883986Y-63311213D01*
X108854988Y-63335011D01*
X108831190Y-63364009D01*
X108831189Y-63364010D01*
X108760014Y-63450736D01*
X108689442Y-63582766D01*
X108669048Y-63650000D01*
X108645986Y-63726026D01*
X108638629Y-63800725D01*
X108631312Y-63875012D01*
X108634989Y-63912345D01*
X108634989Y-71569195D01*
X108572251Y-71492749D01*
X108452829Y-71394742D01*
X108316582Y-71321916D01*
X108168745Y-71277071D01*
X108015000Y-71261928D01*
X107715000Y-71261928D01*
X107561255Y-71277071D01*
X107413418Y-71321916D01*
X107277171Y-71394742D01*
X107230000Y-71433454D01*
X107182829Y-71394742D01*
X107046582Y-71321916D01*
X106898745Y-71277071D01*
X106745000Y-71261928D01*
X106445000Y-71261928D01*
X106291255Y-71277071D01*
X106143418Y-71321916D01*
X106007171Y-71394742D01*
X105960000Y-71433454D01*
X105912829Y-71394742D01*
X105776582Y-71321916D01*
X105628745Y-71277071D01*
X105475000Y-71261928D01*
X105175000Y-71261928D01*
X105021255Y-71277071D01*
X104873418Y-71321916D01*
X104737171Y-71394742D01*
X104690000Y-71433454D01*
X104642829Y-71394742D01*
X104506582Y-71321916D01*
X104358745Y-71277071D01*
X104205000Y-71261928D01*
X103905000Y-71261928D01*
X103751255Y-71277071D01*
X103603418Y-71321916D01*
X103467171Y-71394742D01*
X103420000Y-71433454D01*
X103372829Y-71394742D01*
X103236582Y-71321916D01*
X103088745Y-71277071D01*
X102935000Y-71261928D01*
X102635000Y-71261928D01*
X102481255Y-71277071D01*
X102333418Y-71321916D01*
X102197171Y-71394742D01*
X102150000Y-71433454D01*
X102102829Y-71394742D01*
X101966582Y-71321916D01*
X101818745Y-71277071D01*
X101665000Y-71261928D01*
X101365000Y-71261928D01*
X101211255Y-71277071D01*
X101063418Y-71321916D01*
X100927171Y-71394742D01*
X100880000Y-71433454D01*
X100832829Y-71394742D01*
X100696582Y-71321916D01*
X100548745Y-71277071D01*
X100395000Y-71261928D01*
X100095000Y-71261928D01*
X99941255Y-71277071D01*
X99793418Y-71321916D01*
X99657171Y-71394742D01*
X99610000Y-71433454D01*
X99562829Y-71394742D01*
X99426582Y-71321916D01*
X99278745Y-71277071D01*
X99125000Y-71261928D01*
X98825000Y-71261928D01*
X98671255Y-71277071D01*
X98523418Y-71321916D01*
X98387171Y-71394742D01*
X98267749Y-71492749D01*
X98169742Y-71612171D01*
X98096916Y-71748418D01*
X98052071Y-71896255D01*
X98036928Y-72050000D01*
X98036928Y-73321482D01*
X97882000Y-73166554D01*
X97882000Y-69515030D01*
X97936525Y-69596632D01*
X98143368Y-69803475D01*
X98386589Y-69965990D01*
X98656842Y-70077932D01*
X98943740Y-70135000D01*
X99236260Y-70135000D01*
X99523158Y-70077932D01*
X99793411Y-69965990D01*
X100036632Y-69803475D01*
X100243475Y-69596632D01*
X100360000Y-69422240D01*
X100476525Y-69596632D01*
X100683368Y-69803475D01*
X100926589Y-69965990D01*
X101196842Y-70077932D01*
X101483740Y-70135000D01*
X101776260Y-70135000D01*
X102063158Y-70077932D01*
X102333411Y-69965990D01*
X102576632Y-69803475D01*
X102708487Y-69671620D01*
X102730498Y-69744180D01*
X102789463Y-69854494D01*
X102868815Y-69951185D01*
X102965506Y-70030537D01*
X103075820Y-70089502D01*
X103195518Y-70125812D01*
X103320000Y-70138072D01*
X105020000Y-70138072D01*
X105144482Y-70125812D01*
X105264180Y-70089502D01*
X105374494Y-70030537D01*
X105471185Y-69951185D01*
X105550537Y-69854494D01*
X105609502Y-69744180D01*
X105645812Y-69624482D01*
X105658072Y-69500000D01*
X105658072Y-67800000D01*
X105645812Y-67675518D01*
X105609502Y-67555820D01*
X105550537Y-67445506D01*
X105471185Y-67348815D01*
X105374494Y-67269463D01*
X105264180Y-67210498D01*
X105144482Y-67174188D01*
X105020000Y-67161928D01*
X103320000Y-67161928D01*
X103195518Y-67174188D01*
X103075820Y-67210498D01*
X102965506Y-67269463D01*
X102868815Y-67348815D01*
X102789463Y-67445506D01*
X102730498Y-67555820D01*
X102708487Y-67628380D01*
X102576632Y-67496525D01*
X102333411Y-67334010D01*
X102063158Y-67222068D01*
X101776260Y-67165000D01*
X101483740Y-67165000D01*
X101196842Y-67222068D01*
X100926589Y-67334010D01*
X100683368Y-67496525D01*
X100476525Y-67703368D01*
X100360000Y-67877760D01*
X100243475Y-67703368D01*
X100036632Y-67496525D01*
X99793411Y-67334010D01*
X99523158Y-67222068D01*
X99236260Y-67165000D01*
X98943740Y-67165000D01*
X98656842Y-67222068D01*
X98386589Y-67334010D01*
X98143368Y-67496525D01*
X97936525Y-67703368D01*
X97774010Y-67946589D01*
X97768347Y-67960262D01*
X97761087Y-67946680D01*
X97713385Y-67888556D01*
X97692253Y-67862806D01*
X97692250Y-67862803D01*
X97669237Y-67834762D01*
X97641197Y-67811750D01*
X96105344Y-66275897D01*
X96155000Y-66026260D01*
X96155000Y-65733740D01*
X96097932Y-65446842D01*
X95985990Y-65176589D01*
X95823475Y-64933368D01*
X95616632Y-64726525D01*
X95434466Y-64604805D01*
X95551355Y-64535178D01*
X95767588Y-64340269D01*
X95941641Y-64106920D01*
X96066825Y-63844099D01*
X96111476Y-63696890D01*
X95990155Y-63467000D01*
X94797000Y-63467000D01*
X94797000Y-63487000D01*
X94543000Y-63487000D01*
X94543000Y-63467000D01*
X93349845Y-63467000D01*
X93228524Y-63696890D01*
X93273175Y-63844099D01*
X93398359Y-64106920D01*
X93572412Y-64340269D01*
X93788645Y-64535178D01*
X93905534Y-64604805D01*
X93723368Y-64726525D01*
X93516525Y-64933368D01*
X93354010Y-65176589D01*
X93242068Y-65446842D01*
X93185000Y-65733740D01*
X93185000Y-66026260D01*
X93217570Y-66190000D01*
X90683923Y-66190000D01*
X90682279Y-66175000D01*
X90692500Y-66081750D01*
X90625351Y-66014601D01*
X90582300Y-65937067D01*
X90501412Y-65841657D01*
X90420006Y-65777000D01*
X90533750Y-65777000D01*
X90692500Y-65618250D01*
X90681241Y-65515526D01*
X90643021Y-65396424D01*
X90582300Y-65287067D01*
X90505310Y-65196255D01*
X90519954Y-65161742D01*
X90567500Y-64933000D01*
X90567500Y-64483000D01*
X89509500Y-64483000D01*
X89509500Y-65997000D01*
X89255500Y-65997000D01*
X89255500Y-64483000D01*
X88214750Y-64483000D01*
X88108750Y-64377000D01*
X88032963Y-64377000D01*
X88129921Y-64230533D01*
X88197500Y-64065379D01*
X88197500Y-64229000D01*
X89255500Y-64229000D01*
X89255500Y-62887639D01*
X89509500Y-62887639D01*
X89509500Y-64229000D01*
X90567500Y-64229000D01*
X90567500Y-63779000D01*
X90519954Y-63550258D01*
X90428696Y-63335187D01*
X90297234Y-63142052D01*
X90135538Y-62983110D01*
X93228524Y-62983110D01*
X93349845Y-63213000D01*
X94543000Y-63213000D01*
X94543000Y-62019186D01*
X94797000Y-62019186D01*
X94797000Y-63213000D01*
X95990155Y-63213000D01*
X96111476Y-62983110D01*
X96066825Y-62835901D01*
X95941641Y-62573080D01*
X95767588Y-62339731D01*
X95551355Y-62144822D01*
X95301252Y-61995843D01*
X95026891Y-61898519D01*
X94797000Y-62019186D01*
X94543000Y-62019186D01*
X94313109Y-61898519D01*
X94038748Y-61995843D01*
X93788645Y-62144822D01*
X93572412Y-62339731D01*
X93398359Y-62573080D01*
X93273175Y-62835901D01*
X93228524Y-62983110D01*
X90135538Y-62983110D01*
X90130619Y-62978275D01*
X89935254Y-62850150D01*
X89718647Y-62762601D01*
X89692244Y-62762197D01*
X89509500Y-62887639D01*
X89255500Y-62887639D01*
X89072756Y-62762197D01*
X89046353Y-62762601D01*
X88829746Y-62850150D01*
X88634381Y-62978275D01*
X88467766Y-63142052D01*
X88336304Y-63335187D01*
X88257158Y-63521713D01*
X88222002Y-63405820D01*
X88202179Y-63368735D01*
X88225962Y-63332391D01*
X88222091Y-63294718D01*
X88129921Y-63069467D01*
X87995578Y-62866526D01*
X87824225Y-62693693D01*
X87622446Y-62557610D01*
X87397996Y-62463507D01*
X87159500Y-62415000D01*
X86809500Y-62415000D01*
X86809500Y-65539399D01*
X86797746Y-65544150D01*
X86602381Y-65672275D01*
X86555500Y-65718357D01*
X86555500Y-62415000D01*
X86205500Y-62415000D01*
X85967004Y-62463507D01*
X85830000Y-62520947D01*
X85830000Y-58020000D01*
X100511928Y-58020000D01*
X100524188Y-58144482D01*
X100560498Y-58264180D01*
X100619463Y-58374494D01*
X100698815Y-58471185D01*
X100795506Y-58550537D01*
X100905820Y-58609502D01*
X101025518Y-58645812D01*
X101150000Y-58658072D01*
X101364250Y-58655000D01*
X101523000Y-58496250D01*
X101523000Y-57397000D01*
X100673750Y-57397000D01*
X100515000Y-57555750D01*
X100511928Y-58020000D01*
X85830000Y-58020000D01*
X85830000Y-55429872D01*
X86935000Y-55429872D01*
X86935000Y-55870128D01*
X87020890Y-56301925D01*
X87189369Y-56708669D01*
X87433962Y-57074729D01*
X87745271Y-57386038D01*
X88111331Y-57630631D01*
X88518075Y-57799110D01*
X88949872Y-57885000D01*
X89390128Y-57885000D01*
X89821925Y-57799110D01*
X90228669Y-57630631D01*
X90594729Y-57386038D01*
X90906038Y-57074729D01*
X91150631Y-56708669D01*
X91319110Y-56301925D01*
X91405000Y-55870128D01*
X91405000Y-55429872D01*
X91319110Y-54998075D01*
X91150631Y-54591331D01*
X90906038Y-54225271D01*
X90594729Y-53913962D01*
X90228669Y-53669369D01*
X89821925Y-53500890D01*
X89390128Y-53415000D01*
X88949872Y-53415000D01*
X88518075Y-53500890D01*
X88111331Y-53669369D01*
X87745271Y-53913962D01*
X87433962Y-54225271D01*
X87189369Y-54591331D01*
X87020890Y-54998075D01*
X86935000Y-55429872D01*
X85830000Y-55429872D01*
X85830000Y-50310000D01*
X164510000Y-50310000D01*
X164510001Y-69018292D01*
G37*
G04 #@! TD.AperFunction*
D31*
X99977000Y-80173000D02*
X100723750Y-80173000D01*
X100798750Y-80248000D01*
X101623000Y-80248000D01*
X101623000Y-80228000D01*
X101877000Y-80228000D01*
X101877000Y-80248000D01*
X101897000Y-80248000D01*
X101897000Y-80502000D01*
X101877000Y-80502000D01*
X101877000Y-80522000D01*
X101623000Y-80522000D01*
X101623000Y-80502000D01*
X101101250Y-80502000D01*
X101026250Y-80427000D01*
X99977000Y-80427000D01*
X99977000Y-80447000D01*
X99723000Y-80447000D01*
X99723000Y-80427000D01*
X99703000Y-80427000D01*
X99703000Y-80173000D01*
X99723000Y-80173000D01*
X99723000Y-80153000D01*
X99977000Y-80153000D01*
X99977000Y-80173000D01*
G04 #@! TA.AperFunction,Conductor*
D32*
G36*
X99977000Y-80173000D02*
G01*
X100723750Y-80173000D01*
X100798750Y-80248000D01*
X101623000Y-80248000D01*
X101623000Y-80228000D01*
X101877000Y-80228000D01*
X101877000Y-80248000D01*
X101897000Y-80248000D01*
X101897000Y-80502000D01*
X101877000Y-80502000D01*
X101877000Y-80522000D01*
X101623000Y-80522000D01*
X101623000Y-80502000D01*
X101101250Y-80502000D01*
X101026250Y-80427000D01*
X99977000Y-80427000D01*
X99977000Y-80447000D01*
X99723000Y-80447000D01*
X99723000Y-80427000D01*
X99703000Y-80427000D01*
X99703000Y-80173000D01*
X99723000Y-80173000D01*
X99723000Y-80153000D01*
X99977000Y-80153000D01*
X99977000Y-80173000D01*
G37*
G04 #@! TD.AperFunction*
D31*
X106007171Y-74355258D02*
X106143418Y-74428084D01*
X106291255Y-74472929D01*
X106445000Y-74488072D01*
X106745000Y-74488072D01*
X106809008Y-74481768D01*
X106809008Y-74617939D01*
X106848782Y-74817898D01*
X106926803Y-75006256D01*
X107040071Y-75175774D01*
X107184234Y-75319937D01*
X107353752Y-75433205D01*
X107542110Y-75511226D01*
X107742069Y-75551000D01*
X107945947Y-75551000D01*
X108145906Y-75511226D01*
X108334264Y-75433205D01*
X108503782Y-75319937D01*
X108634988Y-75188731D01*
X108634988Y-76421727D01*
X108616185Y-76398815D01*
X108519494Y-76319463D01*
X108409180Y-76260498D01*
X108289482Y-76224188D01*
X108165000Y-76211928D01*
X108150750Y-76215000D01*
X107992000Y-76373750D01*
X107992000Y-77698000D01*
X108012000Y-77698000D01*
X108012000Y-77952000D01*
X107992000Y-77952000D01*
X107992000Y-77972000D01*
X107738000Y-77972000D01*
X107738000Y-77952000D01*
X107718000Y-77952000D01*
X107718000Y-77698000D01*
X107738000Y-77698000D01*
X107738000Y-76373750D01*
X107579250Y-76215000D01*
X107565000Y-76211928D01*
X107440518Y-76224188D01*
X107320820Y-76260498D01*
X107210506Y-76319463D01*
X107180936Y-76343730D01*
X107046582Y-76271916D01*
X106898745Y-76227071D01*
X106745000Y-76211928D01*
X106445000Y-76211928D01*
X106291255Y-76227071D01*
X106143418Y-76271916D01*
X106007171Y-76344742D01*
X105960000Y-76383454D01*
X105912829Y-76344742D01*
X105776582Y-76271916D01*
X105628745Y-76227071D01*
X105475000Y-76211928D01*
X105175000Y-76211928D01*
X105021255Y-76227071D01*
X104873418Y-76271916D01*
X104737171Y-76344742D01*
X104690000Y-76383454D01*
X104642829Y-76344742D01*
X104506582Y-76271916D01*
X104358745Y-76227071D01*
X104205000Y-76211928D01*
X103905000Y-76211928D01*
X103751255Y-76227071D01*
X103603418Y-76271916D01*
X103467171Y-76344742D01*
X103420000Y-76383454D01*
X103372829Y-76344742D01*
X103236582Y-76271916D01*
X103088745Y-76227071D01*
X102935000Y-76211928D01*
X102635000Y-76211928D01*
X102560158Y-76219300D01*
X102396661Y-76055803D01*
X102373640Y-76027752D01*
X102261722Y-75935903D01*
X102134035Y-75867653D01*
X101995487Y-75825625D01*
X101887507Y-75814990D01*
X101851402Y-75811434D01*
X101815297Y-75814990D01*
X101814437Y-75814990D01*
X100479223Y-74479777D01*
X100548745Y-74472929D01*
X100696582Y-74428084D01*
X100832829Y-74355258D01*
X100880000Y-74316546D01*
X100927171Y-74355258D01*
X101063418Y-74428084D01*
X101211255Y-74472929D01*
X101365000Y-74488072D01*
X101665000Y-74488072D01*
X101818745Y-74472929D01*
X101966582Y-74428084D01*
X102102829Y-74355258D01*
X102150000Y-74316546D01*
X102197171Y-74355258D01*
X102333418Y-74428084D01*
X102481255Y-74472929D01*
X102635000Y-74488072D01*
X102935000Y-74488072D01*
X103088745Y-74472929D01*
X103089151Y-74472806D01*
X103124774Y-74651898D01*
X103202795Y-74840256D01*
X103316063Y-75009774D01*
X103460226Y-75153937D01*
X103629744Y-75267205D01*
X103818102Y-75345226D01*
X104018061Y-75385000D01*
X104221939Y-75385000D01*
X104421898Y-75345226D01*
X104610256Y-75267205D01*
X104779774Y-75153937D01*
X104923937Y-75009774D01*
X105037205Y-74840256D01*
X105115226Y-74651898D01*
X105148335Y-74485446D01*
X105175000Y-74488072D01*
X105475000Y-74488072D01*
X105628745Y-74472929D01*
X105776582Y-74428084D01*
X105912829Y-74355258D01*
X105960000Y-74316546D01*
X106007171Y-74355258D01*
G04 #@! TA.AperFunction,Conductor*
D32*
G36*
X106007171Y-74355258D02*
G01*
X106143418Y-74428084D01*
X106291255Y-74472929D01*
X106445000Y-74488072D01*
X106745000Y-74488072D01*
X106809008Y-74481768D01*
X106809008Y-74617939D01*
X106848782Y-74817898D01*
X106926803Y-75006256D01*
X107040071Y-75175774D01*
X107184234Y-75319937D01*
X107353752Y-75433205D01*
X107542110Y-75511226D01*
X107742069Y-75551000D01*
X107945947Y-75551000D01*
X108145906Y-75511226D01*
X108334264Y-75433205D01*
X108503782Y-75319937D01*
X108634988Y-75188731D01*
X108634988Y-76421727D01*
X108616185Y-76398815D01*
X108519494Y-76319463D01*
X108409180Y-76260498D01*
X108289482Y-76224188D01*
X108165000Y-76211928D01*
X108150750Y-76215000D01*
X107992000Y-76373750D01*
X107992000Y-77698000D01*
X108012000Y-77698000D01*
X108012000Y-77952000D01*
X107992000Y-77952000D01*
X107992000Y-77972000D01*
X107738000Y-77972000D01*
X107738000Y-77952000D01*
X107718000Y-77952000D01*
X107718000Y-77698000D01*
X107738000Y-77698000D01*
X107738000Y-76373750D01*
X107579250Y-76215000D01*
X107565000Y-76211928D01*
X107440518Y-76224188D01*
X107320820Y-76260498D01*
X107210506Y-76319463D01*
X107180936Y-76343730D01*
X107046582Y-76271916D01*
X106898745Y-76227071D01*
X106745000Y-76211928D01*
X106445000Y-76211928D01*
X106291255Y-76227071D01*
X106143418Y-76271916D01*
X106007171Y-76344742D01*
X105960000Y-76383454D01*
X105912829Y-76344742D01*
X105776582Y-76271916D01*
X105628745Y-76227071D01*
X105475000Y-76211928D01*
X105175000Y-76211928D01*
X105021255Y-76227071D01*
X104873418Y-76271916D01*
X104737171Y-76344742D01*
X104690000Y-76383454D01*
X104642829Y-76344742D01*
X104506582Y-76271916D01*
X104358745Y-76227071D01*
X104205000Y-76211928D01*
X103905000Y-76211928D01*
X103751255Y-76227071D01*
X103603418Y-76271916D01*
X103467171Y-76344742D01*
X103420000Y-76383454D01*
X103372829Y-76344742D01*
X103236582Y-76271916D01*
X103088745Y-76227071D01*
X102935000Y-76211928D01*
X102635000Y-76211928D01*
X102560158Y-76219300D01*
X102396661Y-76055803D01*
X102373640Y-76027752D01*
X102261722Y-75935903D01*
X102134035Y-75867653D01*
X101995487Y-75825625D01*
X101887507Y-75814990D01*
X101851402Y-75811434D01*
X101815297Y-75814990D01*
X101814437Y-75814990D01*
X100479223Y-74479777D01*
X100548745Y-74472929D01*
X100696582Y-74428084D01*
X100832829Y-74355258D01*
X100880000Y-74316546D01*
X100927171Y-74355258D01*
X101063418Y-74428084D01*
X101211255Y-74472929D01*
X101365000Y-74488072D01*
X101665000Y-74488072D01*
X101818745Y-74472929D01*
X101966582Y-74428084D01*
X102102829Y-74355258D01*
X102150000Y-74316546D01*
X102197171Y-74355258D01*
X102333418Y-74428084D01*
X102481255Y-74472929D01*
X102635000Y-74488072D01*
X102935000Y-74488072D01*
X103088745Y-74472929D01*
X103089151Y-74472806D01*
X103124774Y-74651898D01*
X103202795Y-74840256D01*
X103316063Y-75009774D01*
X103460226Y-75153937D01*
X103629744Y-75267205D01*
X103818102Y-75345226D01*
X104018061Y-75385000D01*
X104221939Y-75385000D01*
X104421898Y-75345226D01*
X104610256Y-75267205D01*
X104779774Y-75153937D01*
X104923937Y-75009774D01*
X105037205Y-74840256D01*
X105115226Y-74651898D01*
X105148335Y-74485446D01*
X105175000Y-74488072D01*
X105475000Y-74488072D01*
X105628745Y-74472929D01*
X105776582Y-74428084D01*
X105912829Y-74355258D01*
X105960000Y-74316546D01*
X106007171Y-74355258D01*
G37*
G04 #@! TD.AperFunction*
D31*
X115693815Y-62351185D02*
X115790506Y-62430537D01*
X115813667Y-62442917D01*
X115905750Y-62535000D01*
X116019380Y-62525467D01*
X116020518Y-62525812D01*
X116145000Y-62538072D01*
X116695000Y-62538072D01*
X116819482Y-62525812D01*
X116820000Y-62525655D01*
X116820518Y-62525812D01*
X116945000Y-62538072D01*
X117495000Y-62538072D01*
X117619482Y-62525812D01*
X117620000Y-62525655D01*
X117620518Y-62525812D01*
X117745000Y-62538072D01*
X118031928Y-62538072D01*
X118031928Y-62825000D01*
X118044188Y-62949482D01*
X118044345Y-62950000D01*
X118044188Y-62950518D01*
X118031928Y-63075000D01*
X118031928Y-63625000D01*
X118044188Y-63749482D01*
X118044345Y-63750000D01*
X118044188Y-63750518D01*
X118031928Y-63875000D01*
X118031928Y-64425000D01*
X118044188Y-64549482D01*
X118044345Y-64550000D01*
X118044188Y-64550518D01*
X118031928Y-64675000D01*
X118031928Y-65225000D01*
X118044188Y-65349482D01*
X118044345Y-65350000D01*
X118044188Y-65350518D01*
X118031928Y-65475000D01*
X118031928Y-66025000D01*
X118044188Y-66149482D01*
X118044345Y-66150000D01*
X118044188Y-66150518D01*
X118031928Y-66275000D01*
X118031928Y-66825000D01*
X118044188Y-66949482D01*
X118044345Y-66950000D01*
X118044188Y-66950518D01*
X118031928Y-67075000D01*
X118031928Y-67625000D01*
X118044188Y-67749482D01*
X118044345Y-67750000D01*
X118044188Y-67750518D01*
X118031928Y-67875000D01*
X118031928Y-68161928D01*
X117745000Y-68161928D01*
X117620518Y-68174188D01*
X117620000Y-68174345D01*
X117619482Y-68174188D01*
X117495000Y-68161928D01*
X116945000Y-68161928D01*
X116820518Y-68174188D01*
X116820000Y-68174345D01*
X116819482Y-68174188D01*
X116695000Y-68161928D01*
X116145000Y-68161928D01*
X116020518Y-68174188D01*
X116020000Y-68174345D01*
X116019482Y-68174188D01*
X115895000Y-68161928D01*
X115345000Y-68161928D01*
X115220518Y-68174188D01*
X115219380Y-68174533D01*
X115105750Y-68165000D01*
X115013667Y-68257083D01*
X114990506Y-68269463D01*
X114893815Y-68348815D01*
X114820000Y-68438759D01*
X114746185Y-68348815D01*
X114649494Y-68269463D01*
X114626333Y-68257083D01*
X114534250Y-68165000D01*
X114420620Y-68174533D01*
X114419482Y-68174188D01*
X114295000Y-68161928D01*
X113745000Y-68161928D01*
X113620518Y-68174188D01*
X113620000Y-68174345D01*
X113619482Y-68174188D01*
X113495000Y-68161928D01*
X112945000Y-68161928D01*
X112820518Y-68174188D01*
X112820000Y-68174345D01*
X112819482Y-68174188D01*
X112695000Y-68161928D01*
X112408072Y-68161928D01*
X112408072Y-67875000D01*
X112395812Y-67750518D01*
X112395655Y-67750000D01*
X112395812Y-67749482D01*
X112408072Y-67625000D01*
X112408072Y-67385907D01*
X112529744Y-67467205D01*
X112718102Y-67545226D01*
X112918061Y-67585000D01*
X113121939Y-67585000D01*
X113321898Y-67545226D01*
X113510256Y-67467205D01*
X113669801Y-67360601D01*
X113702795Y-67440256D01*
X113816063Y-67609774D01*
X113960226Y-67753937D01*
X114129744Y-67867205D01*
X114318102Y-67945226D01*
X114518061Y-67985000D01*
X114721939Y-67985000D01*
X114921898Y-67945226D01*
X115110256Y-67867205D01*
X115279774Y-67753937D01*
X115423937Y-67609774D01*
X115537205Y-67440256D01*
X115615226Y-67251898D01*
X115655000Y-67051939D01*
X115655000Y-66848061D01*
X115615226Y-66648102D01*
X115537205Y-66459744D01*
X115423937Y-66290226D01*
X115380000Y-66246289D01*
X115380000Y-65887322D01*
X115383676Y-65849999D01*
X115380000Y-65812676D01*
X115380000Y-65812667D01*
X115369003Y-65701014D01*
X115325546Y-65557753D01*
X115254974Y-65425724D01*
X115160001Y-65309999D01*
X115131004Y-65286202D01*
X114283803Y-64439002D01*
X114260001Y-64409999D01*
X114144276Y-64315026D01*
X114012247Y-64244454D01*
X113868986Y-64200997D01*
X113757333Y-64190000D01*
X113757322Y-64190000D01*
X113720000Y-64186324D01*
X113682678Y-64190000D01*
X112408072Y-64190000D01*
X112408072Y-63875000D01*
X112395812Y-63750518D01*
X112395655Y-63750000D01*
X112395812Y-63749482D01*
X112408072Y-63625000D01*
X112408072Y-63075000D01*
X112395812Y-62950518D01*
X112395655Y-62950000D01*
X112395812Y-62949482D01*
X112408072Y-62825000D01*
X112408072Y-62538072D01*
X112695000Y-62538072D01*
X112819482Y-62525812D01*
X112820000Y-62525655D01*
X112820518Y-62525812D01*
X112945000Y-62538072D01*
X113495000Y-62538072D01*
X113619482Y-62525812D01*
X113620620Y-62525467D01*
X113734250Y-62535000D01*
X113826333Y-62442917D01*
X113849494Y-62430537D01*
X113946185Y-62351185D01*
X114020000Y-62261241D01*
X114093815Y-62351185D01*
X114190506Y-62430537D01*
X114213667Y-62442917D01*
X114305750Y-62535000D01*
X114419380Y-62525467D01*
X114420518Y-62525812D01*
X114545000Y-62538072D01*
X115095000Y-62538072D01*
X115219482Y-62525812D01*
X115220620Y-62525467D01*
X115334250Y-62535000D01*
X115426333Y-62442917D01*
X115449494Y-62430537D01*
X115546185Y-62351185D01*
X115620000Y-62261241D01*
X115693815Y-62351185D01*
G04 #@! TA.AperFunction,Conductor*
D32*
G36*
X115693815Y-62351185D02*
G01*
X115790506Y-62430537D01*
X115813667Y-62442917D01*
X115905750Y-62535000D01*
X116019380Y-62525467D01*
X116020518Y-62525812D01*
X116145000Y-62538072D01*
X116695000Y-62538072D01*
X116819482Y-62525812D01*
X116820000Y-62525655D01*
X116820518Y-62525812D01*
X116945000Y-62538072D01*
X117495000Y-62538072D01*
X117619482Y-62525812D01*
X117620000Y-62525655D01*
X117620518Y-62525812D01*
X117745000Y-62538072D01*
X118031928Y-62538072D01*
X118031928Y-62825000D01*
X118044188Y-62949482D01*
X118044345Y-62950000D01*
X118044188Y-62950518D01*
X118031928Y-63075000D01*
X118031928Y-63625000D01*
X118044188Y-63749482D01*
X118044345Y-63750000D01*
X118044188Y-63750518D01*
X118031928Y-63875000D01*
X118031928Y-64425000D01*
X118044188Y-64549482D01*
X118044345Y-64550000D01*
X118044188Y-64550518D01*
X118031928Y-64675000D01*
X118031928Y-65225000D01*
X118044188Y-65349482D01*
X118044345Y-65350000D01*
X118044188Y-65350518D01*
X118031928Y-65475000D01*
X118031928Y-66025000D01*
X118044188Y-66149482D01*
X118044345Y-66150000D01*
X118044188Y-66150518D01*
X118031928Y-66275000D01*
X118031928Y-66825000D01*
X118044188Y-66949482D01*
X118044345Y-66950000D01*
X118044188Y-66950518D01*
X118031928Y-67075000D01*
X118031928Y-67625000D01*
X118044188Y-67749482D01*
X118044345Y-67750000D01*
X118044188Y-67750518D01*
X118031928Y-67875000D01*
X118031928Y-68161928D01*
X117745000Y-68161928D01*
X117620518Y-68174188D01*
X117620000Y-68174345D01*
X117619482Y-68174188D01*
X117495000Y-68161928D01*
X116945000Y-68161928D01*
X116820518Y-68174188D01*
X116820000Y-68174345D01*
X116819482Y-68174188D01*
X116695000Y-68161928D01*
X116145000Y-68161928D01*
X116020518Y-68174188D01*
X116020000Y-68174345D01*
X116019482Y-68174188D01*
X115895000Y-68161928D01*
X115345000Y-68161928D01*
X115220518Y-68174188D01*
X115219380Y-68174533D01*
X115105750Y-68165000D01*
X115013667Y-68257083D01*
X114990506Y-68269463D01*
X114893815Y-68348815D01*
X114820000Y-68438759D01*
X114746185Y-68348815D01*
X114649494Y-68269463D01*
X114626333Y-68257083D01*
X114534250Y-68165000D01*
X114420620Y-68174533D01*
X114419482Y-68174188D01*
X114295000Y-68161928D01*
X113745000Y-68161928D01*
X113620518Y-68174188D01*
X113620000Y-68174345D01*
X113619482Y-68174188D01*
X113495000Y-68161928D01*
X112945000Y-68161928D01*
X112820518Y-68174188D01*
X112820000Y-68174345D01*
X112819482Y-68174188D01*
X112695000Y-68161928D01*
X112408072Y-68161928D01*
X112408072Y-67875000D01*
X112395812Y-67750518D01*
X112395655Y-67750000D01*
X112395812Y-67749482D01*
X112408072Y-67625000D01*
X112408072Y-67385907D01*
X112529744Y-67467205D01*
X112718102Y-67545226D01*
X112918061Y-67585000D01*
X113121939Y-67585000D01*
X113321898Y-67545226D01*
X113510256Y-67467205D01*
X113669801Y-67360601D01*
X113702795Y-67440256D01*
X113816063Y-67609774D01*
X113960226Y-67753937D01*
X114129744Y-67867205D01*
X114318102Y-67945226D01*
X114518061Y-67985000D01*
X114721939Y-67985000D01*
X114921898Y-67945226D01*
X115110256Y-67867205D01*
X115279774Y-67753937D01*
X115423937Y-67609774D01*
X115537205Y-67440256D01*
X115615226Y-67251898D01*
X115655000Y-67051939D01*
X115655000Y-66848061D01*
X115615226Y-66648102D01*
X115537205Y-66459744D01*
X115423937Y-66290226D01*
X115380000Y-66246289D01*
X115380000Y-65887322D01*
X115383676Y-65849999D01*
X115380000Y-65812676D01*
X115380000Y-65812667D01*
X115369003Y-65701014D01*
X115325546Y-65557753D01*
X115254974Y-65425724D01*
X115160001Y-65309999D01*
X115131004Y-65286202D01*
X114283803Y-64439002D01*
X114260001Y-64409999D01*
X114144276Y-64315026D01*
X114012247Y-64244454D01*
X113868986Y-64200997D01*
X113757333Y-64190000D01*
X113757322Y-64190000D01*
X113720000Y-64186324D01*
X113682678Y-64190000D01*
X112408072Y-64190000D01*
X112408072Y-63875000D01*
X112395812Y-63750518D01*
X112395655Y-63750000D01*
X112395812Y-63749482D01*
X112408072Y-63625000D01*
X112408072Y-63075000D01*
X112395812Y-62950518D01*
X112395655Y-62950000D01*
X112395812Y-62949482D01*
X112408072Y-62825000D01*
X112408072Y-62538072D01*
X112695000Y-62538072D01*
X112819482Y-62525812D01*
X112820000Y-62525655D01*
X112820518Y-62525812D01*
X112945000Y-62538072D01*
X113495000Y-62538072D01*
X113619482Y-62525812D01*
X113620620Y-62525467D01*
X113734250Y-62535000D01*
X113826333Y-62442917D01*
X113849494Y-62430537D01*
X113946185Y-62351185D01*
X114020000Y-62261241D01*
X114093815Y-62351185D01*
X114190506Y-62430537D01*
X114213667Y-62442917D01*
X114305750Y-62535000D01*
X114419380Y-62525467D01*
X114420518Y-62525812D01*
X114545000Y-62538072D01*
X115095000Y-62538072D01*
X115219482Y-62525812D01*
X115220620Y-62525467D01*
X115334250Y-62535000D01*
X115426333Y-62442917D01*
X115449494Y-62430537D01*
X115546185Y-62351185D01*
X115620000Y-62261241D01*
X115693815Y-62351185D01*
G37*
G04 #@! TD.AperFunction*
D31*
X117836971Y-58614716D02*
X117822828Y-58628858D01*
X118494049Y-59300079D01*
X118660000Y-59300079D01*
X118660000Y-59385198D01*
X118375356Y-59669842D01*
X118314444Y-59663843D01*
X118314444Y-59479684D01*
X117643223Y-58808463D01*
X117629081Y-58822606D01*
X117449476Y-58643001D01*
X117463618Y-58628858D01*
X117449476Y-58614716D01*
X117629081Y-58435111D01*
X117643223Y-58449253D01*
X117657366Y-58435111D01*
X117836971Y-58614716D01*
G04 #@! TA.AperFunction,Conductor*
D32*
G36*
X117836971Y-58614716D02*
G01*
X117822828Y-58628858D01*
X118494049Y-59300079D01*
X118660000Y-59300079D01*
X118660000Y-59385198D01*
X118375356Y-59669842D01*
X118314444Y-59663843D01*
X118314444Y-59479684D01*
X117643223Y-58808463D01*
X117629081Y-58822606D01*
X117449476Y-58643001D01*
X117463618Y-58628858D01*
X117449476Y-58614716D01*
X117629081Y-58435111D01*
X117643223Y-58449253D01*
X117657366Y-58435111D01*
X117836971Y-58614716D01*
G37*
G04 #@! TD.AperFunction*
D31*
X118190525Y-55857000D02*
X118176382Y-55871142D01*
X118190525Y-55885285D01*
X118010920Y-56064890D01*
X117996777Y-56050747D01*
X117982635Y-56064890D01*
X117803030Y-55885285D01*
X117817172Y-55871142D01*
X117803030Y-55857000D01*
X117982635Y-55677395D01*
X117996777Y-55691537D01*
X118010920Y-55677395D01*
X118190525Y-55857000D01*
G04 #@! TA.AperFunction,Conductor*
D32*
G36*
X118190525Y-55857000D02*
G01*
X118176382Y-55871142D01*
X118190525Y-55885285D01*
X118010920Y-56064890D01*
X117996777Y-56050747D01*
X117982635Y-56064890D01*
X117803030Y-55885285D01*
X117817172Y-55871142D01*
X117803030Y-55857000D01*
X117982635Y-55677395D01*
X117996777Y-55691537D01*
X118010920Y-55677395D01*
X118190525Y-55857000D01*
G37*
G04 #@! TD.AperFunction*
M02*
