G04 #@! TF.GenerationSoftware,KiCad,Pcbnew,(5.1.9)-1*
G04 #@! TF.CreationDate,2021-05-05T15:50:03+02:00*
G04 #@! TF.ProjectId,V0_Display,56305f44-6973-4706-9c61-792e6b696361,rev?*
G04 #@! TF.SameCoordinates,Original*
G04 #@! TF.FileFunction,Copper,L1,Top*
G04 #@! TF.FilePolarity,Positive*
%FSLAX46Y46*%
G04 Gerber Fmt 4.6, Leading zero omitted, Abs format (unit mm)*
G04 Created by KiCad (PCBNEW (5.1.9)-1) date 2021-05-05 15:50:03*
%MOMM*%
%LPD*%
G01*
G04 APERTURE LIST*
G04 #@! TA.AperFunction,ComponentPad*
%ADD10O,1.700000X1.700000*%
G04 #@! TD*
G04 #@! TA.AperFunction,ComponentPad*
%ADD11R,1.700000X1.700000*%
G04 #@! TD*
G04 #@! TA.AperFunction,ComponentPad*
%ADD12C,1.524000*%
G04 #@! TD*
G04 #@! TA.AperFunction,SMDPad,CuDef*
%ADD13R,1.500000X1.000000*%
G04 #@! TD*
G04 #@! TA.AperFunction,ComponentPad*
%ADD14O,2.500000X4.000000*%
G04 #@! TD*
G04 #@! TA.AperFunction,ComponentPad*
%ADD15C,2.000000*%
G04 #@! TD*
G04 #@! TA.AperFunction,ComponentPad*
%ADD16O,1.100000X2.200000*%
G04 #@! TD*
G04 #@! TA.AperFunction,ComponentPad*
%ADD17O,1.100000X2.000000*%
G04 #@! TD*
G04 #@! TA.AperFunction,ComponentPad*
%ADD18O,1.900000X1.200000*%
G04 #@! TD*
G04 #@! TA.AperFunction,ViaPad*
%ADD19C,0.800000*%
G04 #@! TD*
G04 #@! TA.AperFunction,Conductor*
%ADD20C,0.250000*%
G04 #@! TD*
G04 #@! TA.AperFunction,Conductor*
%ADD21C,0.254000*%
G04 #@! TD*
G04 #@! TA.AperFunction,Conductor*
%ADD22C,0.100000*%
G04 #@! TD*
G04 APERTURE END LIST*
D10*
X134006000Y-59022000D03*
X136546000Y-59022000D03*
X134006000Y-56482000D03*
X136546000Y-56482000D03*
X134006000Y-53942000D03*
D11*
X136546000Y-53942000D03*
D12*
X117280000Y-52850000D03*
X114740000Y-52850000D03*
X112200000Y-52850000D03*
X109660000Y-52850000D03*
D13*
X157470000Y-60550000D03*
X157470000Y-63750000D03*
X162370000Y-60550000D03*
X162370000Y-63750000D03*
D14*
X149500000Y-67150000D03*
X139340000Y-67150000D03*
D15*
X146920000Y-60150000D03*
X141920000Y-60150000D03*
X146920000Y-74650000D03*
X144420000Y-74650000D03*
X141920000Y-74650000D03*
X163170000Y-69900000D03*
X163170000Y-74400000D03*
X156670000Y-69900000D03*
X156670000Y-74400000D03*
X122475000Y-73145000D03*
X122475000Y-77645000D03*
X128975000Y-73145000D03*
X128975000Y-77645000D03*
D10*
X150575000Y-60445000D03*
D11*
X153115000Y-60445000D03*
D10*
X94670000Y-63340000D03*
X94670000Y-65880000D03*
X94670000Y-68420000D03*
D11*
X94670000Y-70960000D03*
D16*
X87350500Y-67150000D03*
D17*
X89382500Y-69944000D03*
D18*
X86682500Y-63650000D03*
X86682500Y-70650000D03*
D17*
X89382500Y-64356000D03*
D10*
X99090000Y-68650000D03*
X101630000Y-68650000D03*
D11*
X104170000Y-68650000D03*
D19*
X161370000Y-62350000D03*
X163275000Y-62350000D03*
X102050000Y-79450002D03*
X94650000Y-81950000D03*
X107720000Y-76050000D03*
X113020000Y-66550000D03*
X112294990Y-65715530D03*
X142134000Y-58006000D03*
X114620000Y-66950000D03*
X110820000Y-69050000D03*
X110720000Y-71250000D03*
X111735507Y-71259812D03*
X104120000Y-74350000D03*
X113305000Y-73754000D03*
X106760000Y-56000000D03*
X96320000Y-75950000D03*
X95220000Y-77250000D03*
X115120000Y-58550000D03*
X117220000Y-71250000D03*
X118120000Y-76750000D03*
X157520000Y-61650000D03*
X107844008Y-74516000D03*
X132990000Y-67912000D03*
X131720000Y-67912000D03*
X130704000Y-67404000D03*
D20*
X162370000Y-63750000D02*
X162370000Y-63350000D01*
X162370000Y-63350000D02*
X161370000Y-62350000D01*
X162370000Y-63750000D02*
X162370000Y-63255000D01*
X162370000Y-63255000D02*
X163275000Y-62350000D01*
X102050000Y-79450002D02*
X99550002Y-81950000D01*
X99550002Y-81950000D02*
X94650000Y-81950000D01*
X107720000Y-76150000D02*
X104419998Y-79450002D01*
X107720000Y-76050000D02*
X107720000Y-76150000D01*
X103149998Y-79450002D02*
X102050000Y-79450002D01*
X104419998Y-79450002D02*
X103149998Y-79450002D01*
X116820000Y-52850000D02*
X117280000Y-52850000D01*
X113020000Y-56650000D02*
X116820000Y-52850000D01*
X113020000Y-66550000D02*
X113020000Y-56650000D01*
X112294990Y-56375010D02*
X112294990Y-65715530D01*
X114740000Y-53930000D02*
X112294990Y-56375010D01*
X114740000Y-52850000D02*
X114740000Y-53930000D01*
X156670000Y-74400000D02*
X163170000Y-74400000D01*
X159826000Y-58006000D02*
X142134000Y-58006000D01*
X162370000Y-60550000D02*
X159826000Y-58006000D01*
X114620000Y-66950000D02*
X120815000Y-73145000D01*
X120815000Y-73145000D02*
X122475000Y-73145000D01*
X136546000Y-65574000D02*
X136546000Y-59022000D01*
X128975000Y-73145000D02*
X136546000Y-65574000D01*
X157370000Y-63650000D02*
X157470000Y-63750000D01*
X156470000Y-63750000D02*
X157470000Y-63750000D01*
X155320000Y-63750000D02*
X156470000Y-63750000D01*
X153115000Y-61545000D02*
X155320000Y-63750000D01*
X153115000Y-60445000D02*
X153115000Y-61545000D01*
X100265001Y-67474999D02*
X99090000Y-68650000D01*
X109244999Y-67474999D02*
X100265001Y-67474999D01*
X110820000Y-69050000D02*
X109244999Y-67474999D01*
X109620000Y-70150000D02*
X110720000Y-71250000D01*
X103130000Y-70150000D02*
X109620000Y-70150000D01*
X101630000Y-68650000D02*
X103130000Y-70150000D01*
X110220000Y-69650000D02*
X105170000Y-69650000D01*
X105170000Y-69650000D02*
X104170000Y-68650000D01*
X111735507Y-71165507D02*
X110220000Y-69650000D01*
X111735507Y-71259812D02*
X111735507Y-71165507D01*
X104716000Y-73754000D02*
X113305000Y-73754000D01*
X104120000Y-74350000D02*
X104716000Y-73754000D01*
X157470000Y-60550000D02*
X157470000Y-61600000D01*
X157470000Y-61600000D02*
X157520000Y-61650000D01*
X135370999Y-57657001D02*
X136546000Y-56482000D01*
X135370999Y-65531001D02*
X135370999Y-57657001D01*
X132990000Y-67912000D02*
X135370999Y-65531001D01*
X131720000Y-67912000D02*
X132482000Y-67150000D01*
X132482000Y-58006000D02*
X134006000Y-56482000D01*
X132482000Y-67150000D02*
X132482000Y-58006000D01*
X131720000Y-66388000D02*
X130704000Y-67404000D01*
X131720000Y-56990000D02*
X131720000Y-66388000D01*
X133403001Y-55306999D02*
X131720000Y-56990000D01*
X135181001Y-55306999D02*
X133403001Y-55306999D01*
X136546000Y-53942000D02*
X135181001Y-55306999D01*
D21*
X164510001Y-68962531D02*
X164439987Y-68857748D01*
X164212252Y-68630013D01*
X163944463Y-68451082D01*
X163646912Y-68327832D01*
X163331033Y-68265000D01*
X163008967Y-68265000D01*
X162693088Y-68327832D01*
X162395537Y-68451082D01*
X162127748Y-68630013D01*
X161900013Y-68857748D01*
X161721082Y-69125537D01*
X161597832Y-69423088D01*
X161535000Y-69738967D01*
X161535000Y-70061033D01*
X161597832Y-70376912D01*
X161721082Y-70674463D01*
X161900013Y-70942252D01*
X162127748Y-71169987D01*
X162395537Y-71348918D01*
X162693088Y-71472168D01*
X163008967Y-71535000D01*
X163331033Y-71535000D01*
X163646912Y-71472168D01*
X163944463Y-71348918D01*
X164212252Y-71169987D01*
X164439987Y-70942252D01*
X164510001Y-70837469D01*
X164510001Y-73462531D01*
X164439987Y-73357748D01*
X164212252Y-73130013D01*
X163944463Y-72951082D01*
X163646912Y-72827832D01*
X163331033Y-72765000D01*
X163008967Y-72765000D01*
X162693088Y-72827832D01*
X162395537Y-72951082D01*
X162127748Y-73130013D01*
X161900013Y-73357748D01*
X161721082Y-73625537D01*
X161715091Y-73640000D01*
X158124909Y-73640000D01*
X158118918Y-73625537D01*
X157939987Y-73357748D01*
X157712252Y-73130013D01*
X157444463Y-72951082D01*
X157146912Y-72827832D01*
X156831033Y-72765000D01*
X156508967Y-72765000D01*
X156193088Y-72827832D01*
X155895537Y-72951082D01*
X155627748Y-73130013D01*
X155400013Y-73357748D01*
X155221082Y-73625537D01*
X155097832Y-73923088D01*
X155035000Y-74238967D01*
X155035000Y-74561033D01*
X155097832Y-74876912D01*
X155221082Y-75174463D01*
X155400013Y-75442252D01*
X155627748Y-75669987D01*
X155895537Y-75848918D01*
X156193088Y-75972168D01*
X156508967Y-76035000D01*
X156831033Y-76035000D01*
X157146912Y-75972168D01*
X157444463Y-75848918D01*
X157712252Y-75669987D01*
X157939987Y-75442252D01*
X158118918Y-75174463D01*
X158124909Y-75160000D01*
X161715091Y-75160000D01*
X161721082Y-75174463D01*
X161900013Y-75442252D01*
X162127748Y-75669987D01*
X162395537Y-75848918D01*
X162693088Y-75972168D01*
X163008967Y-76035000D01*
X163331033Y-76035000D01*
X163646912Y-75972168D01*
X163944463Y-75848918D01*
X164212252Y-75669987D01*
X164439987Y-75442252D01*
X164510001Y-75337469D01*
X164510001Y-83990000D01*
X85830000Y-83990000D01*
X85830000Y-80429872D01*
X86935000Y-80429872D01*
X86935000Y-80870128D01*
X87020890Y-81301925D01*
X87189369Y-81708669D01*
X87433962Y-82074729D01*
X87745271Y-82386038D01*
X88111331Y-82630631D01*
X88518075Y-82799110D01*
X88949872Y-82885000D01*
X89390128Y-82885000D01*
X89821925Y-82799110D01*
X90228669Y-82630631D01*
X90594729Y-82386038D01*
X90906038Y-82074729D01*
X91057492Y-81848061D01*
X93615000Y-81848061D01*
X93615000Y-82051939D01*
X93654774Y-82251898D01*
X93732795Y-82440256D01*
X93846063Y-82609774D01*
X93990226Y-82753937D01*
X94159744Y-82867205D01*
X94348102Y-82945226D01*
X94548061Y-82985000D01*
X94751939Y-82985000D01*
X94951898Y-82945226D01*
X95140256Y-82867205D01*
X95309774Y-82753937D01*
X95353711Y-82710000D01*
X99512680Y-82710000D01*
X99550002Y-82713676D01*
X99587324Y-82710000D01*
X99587335Y-82710000D01*
X99698988Y-82699003D01*
X99842249Y-82655546D01*
X99974278Y-82584974D01*
X100090003Y-82490001D01*
X100113806Y-82460997D01*
X102089802Y-80485002D01*
X102151939Y-80485002D01*
X102351898Y-80445228D01*
X102388970Y-80429872D01*
X158935000Y-80429872D01*
X158935000Y-80870128D01*
X159020890Y-81301925D01*
X159189369Y-81708669D01*
X159433962Y-82074729D01*
X159745271Y-82386038D01*
X160111331Y-82630631D01*
X160518075Y-82799110D01*
X160949872Y-82885000D01*
X161390128Y-82885000D01*
X161821925Y-82799110D01*
X162228669Y-82630631D01*
X162594729Y-82386038D01*
X162906038Y-82074729D01*
X163150631Y-81708669D01*
X163319110Y-81301925D01*
X163405000Y-80870128D01*
X163405000Y-80429872D01*
X163319110Y-79998075D01*
X163150631Y-79591331D01*
X162906038Y-79225271D01*
X162594729Y-78913962D01*
X162228669Y-78669369D01*
X161821925Y-78500890D01*
X161390128Y-78415000D01*
X160949872Y-78415000D01*
X160518075Y-78500890D01*
X160111331Y-78669369D01*
X159745271Y-78913962D01*
X159433962Y-79225271D01*
X159189369Y-79591331D01*
X159020890Y-79998075D01*
X158935000Y-80429872D01*
X102388970Y-80429872D01*
X102540256Y-80367207D01*
X102709774Y-80253939D01*
X102753711Y-80210002D01*
X104382676Y-80210002D01*
X104419998Y-80213678D01*
X104457320Y-80210002D01*
X104457331Y-80210002D01*
X104568984Y-80199005D01*
X104712245Y-80155548D01*
X104844274Y-80084976D01*
X104959999Y-79990003D01*
X104983802Y-79960999D01*
X107460834Y-77483967D01*
X120840000Y-77483967D01*
X120840000Y-77806033D01*
X120902832Y-78121912D01*
X121026082Y-78419463D01*
X121205013Y-78687252D01*
X121432748Y-78914987D01*
X121700537Y-79093918D01*
X121998088Y-79217168D01*
X122313967Y-79280000D01*
X122636033Y-79280000D01*
X122951912Y-79217168D01*
X123249463Y-79093918D01*
X123517252Y-78914987D01*
X123744987Y-78687252D01*
X123923918Y-78419463D01*
X124047168Y-78121912D01*
X124110000Y-77806033D01*
X124110000Y-77483967D01*
X127340000Y-77483967D01*
X127340000Y-77806033D01*
X127402832Y-78121912D01*
X127526082Y-78419463D01*
X127705013Y-78687252D01*
X127932748Y-78914987D01*
X128200537Y-79093918D01*
X128498088Y-79217168D01*
X128813967Y-79280000D01*
X129136033Y-79280000D01*
X129451912Y-79217168D01*
X129749463Y-79093918D01*
X130017252Y-78914987D01*
X130244987Y-78687252D01*
X130423918Y-78419463D01*
X130547168Y-78121912D01*
X130610000Y-77806033D01*
X130610000Y-77483967D01*
X130547168Y-77168088D01*
X130423918Y-76870537D01*
X130244987Y-76602748D01*
X130017252Y-76375013D01*
X129749463Y-76196082D01*
X129451912Y-76072832D01*
X129136033Y-76010000D01*
X128813967Y-76010000D01*
X128498088Y-76072832D01*
X128200537Y-76196082D01*
X127932748Y-76375013D01*
X127705013Y-76602748D01*
X127526082Y-76870537D01*
X127402832Y-77168088D01*
X127340000Y-77483967D01*
X124110000Y-77483967D01*
X124047168Y-77168088D01*
X123923918Y-76870537D01*
X123744987Y-76602748D01*
X123517252Y-76375013D01*
X123249463Y-76196082D01*
X122951912Y-76072832D01*
X122636033Y-76010000D01*
X122313967Y-76010000D01*
X121998088Y-76072832D01*
X121700537Y-76196082D01*
X121432748Y-76375013D01*
X121205013Y-76602748D01*
X121026082Y-76870537D01*
X120902832Y-77168088D01*
X120840000Y-77483967D01*
X107460834Y-77483967D01*
X107869203Y-77075599D01*
X108021898Y-77045226D01*
X108210256Y-76967205D01*
X108379774Y-76853937D01*
X108523937Y-76709774D01*
X108637205Y-76540256D01*
X108715226Y-76351898D01*
X108755000Y-76151939D01*
X108755000Y-75948061D01*
X108715226Y-75748102D01*
X108637205Y-75559744D01*
X108523937Y-75390226D01*
X108379774Y-75246063D01*
X108210256Y-75132795D01*
X108021898Y-75054774D01*
X107821939Y-75015000D01*
X107618061Y-75015000D01*
X107418102Y-75054774D01*
X107229744Y-75132795D01*
X107060226Y-75246063D01*
X106916063Y-75390226D01*
X106802795Y-75559744D01*
X106724774Y-75748102D01*
X106685000Y-75948061D01*
X106685000Y-76110198D01*
X104105197Y-78690002D01*
X102753711Y-78690002D01*
X102709774Y-78646065D01*
X102540256Y-78532797D01*
X102351898Y-78454776D01*
X102151939Y-78415002D01*
X101948061Y-78415002D01*
X101748102Y-78454776D01*
X101559744Y-78532797D01*
X101390226Y-78646065D01*
X101246063Y-78790228D01*
X101132795Y-78959746D01*
X101054774Y-79148104D01*
X101015000Y-79348063D01*
X101015000Y-79410200D01*
X99235201Y-81190000D01*
X95353711Y-81190000D01*
X95309774Y-81146063D01*
X95140256Y-81032795D01*
X94951898Y-80954774D01*
X94751939Y-80915000D01*
X94548061Y-80915000D01*
X94348102Y-80954774D01*
X94159744Y-81032795D01*
X93990226Y-81146063D01*
X93846063Y-81290226D01*
X93732795Y-81459744D01*
X93654774Y-81648102D01*
X93615000Y-81848061D01*
X91057492Y-81848061D01*
X91150631Y-81708669D01*
X91319110Y-81301925D01*
X91405000Y-80870128D01*
X91405000Y-80429872D01*
X91319110Y-79998075D01*
X91150631Y-79591331D01*
X90906038Y-79225271D01*
X90594729Y-78913962D01*
X90228669Y-78669369D01*
X89821925Y-78500890D01*
X89390128Y-78415000D01*
X88949872Y-78415000D01*
X88518075Y-78500890D01*
X88111331Y-78669369D01*
X87745271Y-78913962D01*
X87433962Y-79225271D01*
X87189369Y-79591331D01*
X87020890Y-79998075D01*
X86935000Y-80429872D01*
X85830000Y-80429872D01*
X85830000Y-74248061D01*
X103085000Y-74248061D01*
X103085000Y-74451939D01*
X103124774Y-74651898D01*
X103202795Y-74840256D01*
X103316063Y-75009774D01*
X103460226Y-75153937D01*
X103629744Y-75267205D01*
X103818102Y-75345226D01*
X104018061Y-75385000D01*
X104221939Y-75385000D01*
X104421898Y-75345226D01*
X104610256Y-75267205D01*
X104779774Y-75153937D01*
X104923937Y-75009774D01*
X105037205Y-74840256D01*
X105115226Y-74651898D01*
X105142655Y-74514000D01*
X112601289Y-74514000D01*
X112645226Y-74557937D01*
X112814744Y-74671205D01*
X113003102Y-74749226D01*
X113203061Y-74789000D01*
X113406939Y-74789000D01*
X113606898Y-74749226D01*
X113795256Y-74671205D01*
X113964774Y-74557937D01*
X114108937Y-74413774D01*
X114222205Y-74244256D01*
X114300226Y-74055898D01*
X114340000Y-73855939D01*
X114340000Y-73652061D01*
X114300226Y-73452102D01*
X114222205Y-73263744D01*
X114108937Y-73094226D01*
X113964774Y-72950063D01*
X113795256Y-72836795D01*
X113606898Y-72758774D01*
X113406939Y-72719000D01*
X113203061Y-72719000D01*
X113003102Y-72758774D01*
X112814744Y-72836795D01*
X112645226Y-72950063D01*
X112601289Y-72994000D01*
X104753322Y-72994000D01*
X104715999Y-72990324D01*
X104678676Y-72994000D01*
X104678667Y-72994000D01*
X104567014Y-73004997D01*
X104423753Y-73048454D01*
X104291724Y-73119026D01*
X104175999Y-73213999D01*
X104152200Y-73242998D01*
X104080198Y-73315000D01*
X104018061Y-73315000D01*
X103818102Y-73354774D01*
X103629744Y-73432795D01*
X103460226Y-73546063D01*
X103316063Y-73690226D01*
X103202795Y-73859744D01*
X103124774Y-74048102D01*
X103085000Y-74248061D01*
X85830000Y-74248061D01*
X85830000Y-71781759D01*
X85857599Y-71796511D01*
X86090398Y-71867130D01*
X86271835Y-71885000D01*
X87093165Y-71885000D01*
X87274602Y-71867130D01*
X87507401Y-71796511D01*
X87721949Y-71681833D01*
X87910002Y-71527502D01*
X88064333Y-71339449D01*
X88179011Y-71124901D01*
X88249630Y-70892102D01*
X88260818Y-70778507D01*
X88282406Y-70849674D01*
X88392443Y-71055536D01*
X88540526Y-71235975D01*
X88720965Y-71384058D01*
X88926827Y-71494094D01*
X89150201Y-71561853D01*
X89382500Y-71584733D01*
X89614800Y-71561853D01*
X89838174Y-71494094D01*
X90044036Y-71384058D01*
X90224475Y-71235975D01*
X90372558Y-71055536D01*
X90482594Y-70849674D01*
X90550353Y-70626300D01*
X90567500Y-70452206D01*
X90567500Y-70110000D01*
X93181928Y-70110000D01*
X93181928Y-71810000D01*
X93194188Y-71934482D01*
X93230498Y-72054180D01*
X93289463Y-72164494D01*
X93368815Y-72261185D01*
X93465506Y-72340537D01*
X93575820Y-72399502D01*
X93695518Y-72435812D01*
X93820000Y-72448072D01*
X95520000Y-72448072D01*
X95644482Y-72435812D01*
X95764180Y-72399502D01*
X95874494Y-72340537D01*
X95971185Y-72261185D01*
X96050537Y-72164494D01*
X96109502Y-72054180D01*
X96145812Y-71934482D01*
X96158072Y-71810000D01*
X96158072Y-70110000D01*
X96145812Y-69985518D01*
X96109502Y-69865820D01*
X96050537Y-69755506D01*
X95971185Y-69658815D01*
X95874494Y-69579463D01*
X95764180Y-69520498D01*
X95691620Y-69498487D01*
X95823475Y-69366632D01*
X95985990Y-69123411D01*
X96097932Y-68853158D01*
X96155000Y-68566260D01*
X96155000Y-68503740D01*
X97605000Y-68503740D01*
X97605000Y-68796260D01*
X97662068Y-69083158D01*
X97774010Y-69353411D01*
X97936525Y-69596632D01*
X98143368Y-69803475D01*
X98386589Y-69965990D01*
X98656842Y-70077932D01*
X98943740Y-70135000D01*
X99236260Y-70135000D01*
X99523158Y-70077932D01*
X99793411Y-69965990D01*
X100036632Y-69803475D01*
X100243475Y-69596632D01*
X100360000Y-69422240D01*
X100476525Y-69596632D01*
X100683368Y-69803475D01*
X100926589Y-69965990D01*
X101196842Y-70077932D01*
X101483740Y-70135000D01*
X101776260Y-70135000D01*
X101996408Y-70091210D01*
X102566200Y-70661002D01*
X102589999Y-70690001D01*
X102705724Y-70784974D01*
X102837753Y-70855546D01*
X102981014Y-70899003D01*
X103092667Y-70910000D01*
X103092676Y-70910000D01*
X103129999Y-70913676D01*
X103167322Y-70910000D01*
X109305199Y-70910000D01*
X109685000Y-71289802D01*
X109685000Y-71351939D01*
X109724774Y-71551898D01*
X109802795Y-71740256D01*
X109916063Y-71909774D01*
X110060226Y-72053937D01*
X110229744Y-72167205D01*
X110418102Y-72245226D01*
X110618061Y-72285000D01*
X110821939Y-72285000D01*
X111021898Y-72245226D01*
X111210256Y-72167205D01*
X111220411Y-72160420D01*
X111245251Y-72177017D01*
X111433609Y-72255038D01*
X111633568Y-72294812D01*
X111837446Y-72294812D01*
X112037405Y-72255038D01*
X112225763Y-72177017D01*
X112395281Y-72063749D01*
X112539444Y-71919586D01*
X112652712Y-71750068D01*
X112730733Y-71561710D01*
X112770507Y-71361751D01*
X112770507Y-71157873D01*
X112730733Y-70957914D01*
X112652712Y-70769556D01*
X112539444Y-70600038D01*
X112395281Y-70455875D01*
X112225763Y-70342607D01*
X112037405Y-70264586D01*
X111877601Y-70232799D01*
X111489256Y-69844455D01*
X111623937Y-69709774D01*
X111737205Y-69540256D01*
X111815226Y-69351898D01*
X111855000Y-69151939D01*
X111855000Y-68948061D01*
X111815226Y-68748102D01*
X111737205Y-68559744D01*
X111623937Y-68390226D01*
X111479774Y-68246063D01*
X111310256Y-68132795D01*
X111121898Y-68054774D01*
X110921939Y-68015000D01*
X110859802Y-68015000D01*
X109808803Y-66964002D01*
X109785000Y-66934998D01*
X109669275Y-66840025D01*
X109537246Y-66769453D01*
X109393985Y-66725996D01*
X109282332Y-66714999D01*
X109282321Y-66714999D01*
X109244999Y-66711323D01*
X109207677Y-66714999D01*
X100302323Y-66714999D01*
X100265000Y-66711323D01*
X100227677Y-66714999D01*
X100227668Y-66714999D01*
X100116015Y-66725996D01*
X99972754Y-66769453D01*
X99840725Y-66840025D01*
X99725000Y-66934998D01*
X99701202Y-66963996D01*
X99456408Y-67208790D01*
X99236260Y-67165000D01*
X98943740Y-67165000D01*
X98656842Y-67222068D01*
X98386589Y-67334010D01*
X98143368Y-67496525D01*
X97936525Y-67703368D01*
X97774010Y-67946589D01*
X97662068Y-68216842D01*
X97605000Y-68503740D01*
X96155000Y-68503740D01*
X96155000Y-68273740D01*
X96097932Y-67986842D01*
X95985990Y-67716589D01*
X95823475Y-67473368D01*
X95616632Y-67266525D01*
X95442240Y-67150000D01*
X95616632Y-67033475D01*
X95823475Y-66826632D01*
X95985990Y-66583411D01*
X96097932Y-66313158D01*
X96155000Y-66026260D01*
X96155000Y-65733740D01*
X96097932Y-65446842D01*
X95985990Y-65176589D01*
X95823475Y-64933368D01*
X95616632Y-64726525D01*
X95442240Y-64610000D01*
X95616632Y-64493475D01*
X95823475Y-64286632D01*
X95985990Y-64043411D01*
X96097932Y-63773158D01*
X96155000Y-63486260D01*
X96155000Y-63193740D01*
X96097932Y-62906842D01*
X95985990Y-62636589D01*
X95823475Y-62393368D01*
X95616632Y-62186525D01*
X95373411Y-62024010D01*
X95103158Y-61912068D01*
X94816260Y-61855000D01*
X94523740Y-61855000D01*
X94236842Y-61912068D01*
X93966589Y-62024010D01*
X93723368Y-62186525D01*
X93516525Y-62393368D01*
X93354010Y-62636589D01*
X93242068Y-62906842D01*
X93185000Y-63193740D01*
X93185000Y-63486260D01*
X93242068Y-63773158D01*
X93354010Y-64043411D01*
X93516525Y-64286632D01*
X93723368Y-64493475D01*
X93897760Y-64610000D01*
X93723368Y-64726525D01*
X93516525Y-64933368D01*
X93354010Y-65176589D01*
X93242068Y-65446842D01*
X93185000Y-65733740D01*
X93185000Y-66026260D01*
X93242068Y-66313158D01*
X93354010Y-66583411D01*
X93516525Y-66826632D01*
X93723368Y-67033475D01*
X93897760Y-67150000D01*
X93723368Y-67266525D01*
X93516525Y-67473368D01*
X93354010Y-67716589D01*
X93242068Y-67986842D01*
X93185000Y-68273740D01*
X93185000Y-68566260D01*
X93242068Y-68853158D01*
X93354010Y-69123411D01*
X93516525Y-69366632D01*
X93648380Y-69498487D01*
X93575820Y-69520498D01*
X93465506Y-69579463D01*
X93368815Y-69658815D01*
X93289463Y-69755506D01*
X93230498Y-69865820D01*
X93194188Y-69985518D01*
X93181928Y-70110000D01*
X90567500Y-70110000D01*
X90567500Y-69435793D01*
X90550353Y-69261700D01*
X90482594Y-69038326D01*
X90372558Y-68832464D01*
X90224475Y-68652025D01*
X90044035Y-68503942D01*
X89838173Y-68393906D01*
X89614799Y-68326147D01*
X89382500Y-68303267D01*
X89150200Y-68326147D01*
X88926826Y-68393906D01*
X88720964Y-68503942D01*
X88540525Y-68652025D01*
X88392442Y-68832465D01*
X88282406Y-69038327D01*
X88214647Y-69261701D01*
X88197500Y-69435794D01*
X88197500Y-70236049D01*
X88179011Y-70175099D01*
X88064333Y-69960551D01*
X87910002Y-69772498D01*
X87721949Y-69618167D01*
X87507401Y-69503489D01*
X87274602Y-69432870D01*
X87093165Y-69415000D01*
X86271835Y-69415000D01*
X86090398Y-69432870D01*
X85857599Y-69503489D01*
X85830000Y-69518241D01*
X85830000Y-66541794D01*
X86165500Y-66541794D01*
X86165500Y-67758207D01*
X86182647Y-67932300D01*
X86250406Y-68155674D01*
X86360443Y-68361536D01*
X86508526Y-68541975D01*
X86688965Y-68690058D01*
X86894827Y-68800094D01*
X87118201Y-68867853D01*
X87350500Y-68890733D01*
X87582800Y-68867853D01*
X87806174Y-68800094D01*
X88012036Y-68690058D01*
X88192475Y-68541975D01*
X88340558Y-68361536D01*
X88450594Y-68155674D01*
X88518353Y-67932300D01*
X88535500Y-67758207D01*
X88535500Y-66541793D01*
X88518353Y-66367700D01*
X88450594Y-66144326D01*
X88340558Y-65938464D01*
X88192475Y-65758025D01*
X88012035Y-65609942D01*
X87806173Y-65499906D01*
X87582799Y-65432147D01*
X87350500Y-65409267D01*
X87118200Y-65432147D01*
X86894826Y-65499906D01*
X86688964Y-65609942D01*
X86508525Y-65758025D01*
X86360442Y-65938465D01*
X86250406Y-66144327D01*
X86182647Y-66367701D01*
X86165500Y-66541794D01*
X85830000Y-66541794D01*
X85830000Y-64781759D01*
X85857599Y-64796511D01*
X86090398Y-64867130D01*
X86271835Y-64885000D01*
X87093165Y-64885000D01*
X87274602Y-64867130D01*
X87507401Y-64796511D01*
X87721949Y-64681833D01*
X87910002Y-64527502D01*
X88064333Y-64339449D01*
X88179011Y-64124901D01*
X88197500Y-64063951D01*
X88197500Y-64864207D01*
X88214647Y-65038300D01*
X88282406Y-65261674D01*
X88392443Y-65467536D01*
X88540526Y-65647975D01*
X88720965Y-65796058D01*
X88926827Y-65906094D01*
X89150201Y-65973853D01*
X89382500Y-65996733D01*
X89614800Y-65973853D01*
X89838174Y-65906094D01*
X90044036Y-65796058D01*
X90224475Y-65647975D01*
X90372558Y-65467536D01*
X90482594Y-65261674D01*
X90550353Y-65038300D01*
X90567500Y-64864206D01*
X90567500Y-63847793D01*
X90550353Y-63673700D01*
X90482594Y-63450326D01*
X90372558Y-63244464D01*
X90224475Y-63064025D01*
X90044035Y-62915942D01*
X89838173Y-62805906D01*
X89614799Y-62738147D01*
X89382500Y-62715267D01*
X89150200Y-62738147D01*
X88926826Y-62805906D01*
X88720964Y-62915942D01*
X88540525Y-63064025D01*
X88392442Y-63244465D01*
X88282406Y-63450327D01*
X88260818Y-63521493D01*
X88249630Y-63407898D01*
X88179011Y-63175099D01*
X88064333Y-62960551D01*
X87910002Y-62772498D01*
X87721949Y-62618167D01*
X87507401Y-62503489D01*
X87274602Y-62432870D01*
X87093165Y-62415000D01*
X86271835Y-62415000D01*
X86090398Y-62432870D01*
X85857599Y-62503489D01*
X85830000Y-62518241D01*
X85830000Y-55429872D01*
X86935000Y-55429872D01*
X86935000Y-55870128D01*
X87020890Y-56301925D01*
X87189369Y-56708669D01*
X87433962Y-57074729D01*
X87745271Y-57386038D01*
X88111331Y-57630631D01*
X88518075Y-57799110D01*
X88949872Y-57885000D01*
X89390128Y-57885000D01*
X89821925Y-57799110D01*
X90228669Y-57630631D01*
X90594729Y-57386038D01*
X90906038Y-57074729D01*
X91150631Y-56708669D01*
X91319110Y-56301925D01*
X91405000Y-55870128D01*
X91405000Y-55429872D01*
X91319110Y-54998075D01*
X91150631Y-54591331D01*
X90906038Y-54225271D01*
X90594729Y-53913962D01*
X90228669Y-53669369D01*
X89821925Y-53500890D01*
X89390128Y-53415000D01*
X88949872Y-53415000D01*
X88518075Y-53500890D01*
X88111331Y-53669369D01*
X87745271Y-53913962D01*
X87433962Y-54225271D01*
X87189369Y-54591331D01*
X87020890Y-54998075D01*
X86935000Y-55429872D01*
X85830000Y-55429872D01*
X85830000Y-52712408D01*
X108263000Y-52712408D01*
X108263000Y-52987592D01*
X108316686Y-53257490D01*
X108421995Y-53511727D01*
X108574880Y-53740535D01*
X108769465Y-53935120D01*
X108998273Y-54088005D01*
X109252510Y-54193314D01*
X109522408Y-54247000D01*
X109797592Y-54247000D01*
X110067490Y-54193314D01*
X110321727Y-54088005D01*
X110550535Y-53935120D01*
X110745120Y-53740535D01*
X110898005Y-53511727D01*
X110930000Y-53434485D01*
X110961995Y-53511727D01*
X111114880Y-53740535D01*
X111309465Y-53935120D01*
X111538273Y-54088005D01*
X111792510Y-54193314D01*
X112062408Y-54247000D01*
X112337592Y-54247000D01*
X112607490Y-54193314D01*
X112861727Y-54088005D01*
X113090535Y-53935120D01*
X113285120Y-53740535D01*
X113438005Y-53511727D01*
X113470000Y-53434485D01*
X113501995Y-53511727D01*
X113654880Y-53740535D01*
X113754772Y-53840427D01*
X111783993Y-55811206D01*
X111754989Y-55835009D01*
X111712877Y-55886323D01*
X111660016Y-55950734D01*
X111626977Y-56012545D01*
X111589444Y-56082764D01*
X111545987Y-56226025D01*
X111534990Y-56337678D01*
X111534990Y-56337688D01*
X111531314Y-56375010D01*
X111534990Y-56412332D01*
X111534991Y-65011818D01*
X111491053Y-65055756D01*
X111377785Y-65225274D01*
X111299764Y-65413632D01*
X111259990Y-65613591D01*
X111259990Y-65817469D01*
X111299764Y-66017428D01*
X111377785Y-66205786D01*
X111491053Y-66375304D01*
X111635216Y-66519467D01*
X111804734Y-66632735D01*
X111993092Y-66710756D01*
X111996848Y-66711503D01*
X112024774Y-66851898D01*
X112102795Y-67040256D01*
X112216063Y-67209774D01*
X112360226Y-67353937D01*
X112529744Y-67467205D01*
X112718102Y-67545226D01*
X112918061Y-67585000D01*
X113121939Y-67585000D01*
X113321898Y-67545226D01*
X113510256Y-67467205D01*
X113669801Y-67360601D01*
X113702795Y-67440256D01*
X113816063Y-67609774D01*
X113960226Y-67753937D01*
X114129744Y-67867205D01*
X114318102Y-67945226D01*
X114518061Y-67985000D01*
X114580199Y-67985000D01*
X120251201Y-73656003D01*
X120274999Y-73685001D01*
X120303997Y-73708799D01*
X120390723Y-73779974D01*
X120522753Y-73850546D01*
X120666014Y-73894003D01*
X120777667Y-73905000D01*
X120777677Y-73905000D01*
X120814999Y-73908676D01*
X120852322Y-73905000D01*
X121020091Y-73905000D01*
X121026082Y-73919463D01*
X121205013Y-74187252D01*
X121432748Y-74414987D01*
X121700537Y-74593918D01*
X121998088Y-74717168D01*
X122313967Y-74780000D01*
X122636033Y-74780000D01*
X122951912Y-74717168D01*
X123249463Y-74593918D01*
X123517252Y-74414987D01*
X123744987Y-74187252D01*
X123923918Y-73919463D01*
X124047168Y-73621912D01*
X124110000Y-73306033D01*
X124110000Y-72983967D01*
X127340000Y-72983967D01*
X127340000Y-73306033D01*
X127402832Y-73621912D01*
X127526082Y-73919463D01*
X127705013Y-74187252D01*
X127932748Y-74414987D01*
X128200537Y-74593918D01*
X128498088Y-74717168D01*
X128813967Y-74780000D01*
X129136033Y-74780000D01*
X129451912Y-74717168D01*
X129749463Y-74593918D01*
X129906533Y-74488967D01*
X140285000Y-74488967D01*
X140285000Y-74811033D01*
X140347832Y-75126912D01*
X140471082Y-75424463D01*
X140650013Y-75692252D01*
X140877748Y-75919987D01*
X141145537Y-76098918D01*
X141443088Y-76222168D01*
X141758967Y-76285000D01*
X142081033Y-76285000D01*
X142396912Y-76222168D01*
X142694463Y-76098918D01*
X142962252Y-75919987D01*
X143170000Y-75712239D01*
X143377748Y-75919987D01*
X143645537Y-76098918D01*
X143943088Y-76222168D01*
X144258967Y-76285000D01*
X144581033Y-76285000D01*
X144896912Y-76222168D01*
X145194463Y-76098918D01*
X145462252Y-75919987D01*
X145670000Y-75712239D01*
X145877748Y-75919987D01*
X146145537Y-76098918D01*
X146443088Y-76222168D01*
X146758967Y-76285000D01*
X147081033Y-76285000D01*
X147396912Y-76222168D01*
X147694463Y-76098918D01*
X147962252Y-75919987D01*
X148189987Y-75692252D01*
X148368918Y-75424463D01*
X148492168Y-75126912D01*
X148555000Y-74811033D01*
X148555000Y-74488967D01*
X148492168Y-74173088D01*
X148368918Y-73875537D01*
X148189987Y-73607748D01*
X147962252Y-73380013D01*
X147694463Y-73201082D01*
X147396912Y-73077832D01*
X147081033Y-73015000D01*
X146758967Y-73015000D01*
X146443088Y-73077832D01*
X146145537Y-73201082D01*
X145877748Y-73380013D01*
X145670000Y-73587761D01*
X145462252Y-73380013D01*
X145194463Y-73201082D01*
X144896912Y-73077832D01*
X144581033Y-73015000D01*
X144258967Y-73015000D01*
X143943088Y-73077832D01*
X143645537Y-73201082D01*
X143377748Y-73380013D01*
X143170000Y-73587761D01*
X142962252Y-73380013D01*
X142694463Y-73201082D01*
X142396912Y-73077832D01*
X142081033Y-73015000D01*
X141758967Y-73015000D01*
X141443088Y-73077832D01*
X141145537Y-73201082D01*
X140877748Y-73380013D01*
X140650013Y-73607748D01*
X140471082Y-73875537D01*
X140347832Y-74173088D01*
X140285000Y-74488967D01*
X129906533Y-74488967D01*
X130017252Y-74414987D01*
X130244987Y-74187252D01*
X130423918Y-73919463D01*
X130547168Y-73621912D01*
X130610000Y-73306033D01*
X130610000Y-72983967D01*
X130547168Y-72668088D01*
X130541177Y-72653624D01*
X136887397Y-66307404D01*
X137455000Y-66307404D01*
X137455000Y-67992597D01*
X137482275Y-68269524D01*
X137590062Y-68624848D01*
X137765098Y-68952317D01*
X138000656Y-69239345D01*
X138287684Y-69474903D01*
X138615153Y-69649939D01*
X138970477Y-69757725D01*
X139340000Y-69794120D01*
X139709524Y-69757725D01*
X140064848Y-69649939D01*
X140392317Y-69474903D01*
X140679345Y-69239345D01*
X140914903Y-68952317D01*
X141089939Y-68624848D01*
X141197725Y-68269524D01*
X141225000Y-67992597D01*
X141225000Y-66307403D01*
X147615000Y-66307403D01*
X147615000Y-67992596D01*
X147642275Y-68269523D01*
X147750061Y-68624847D01*
X147925097Y-68952317D01*
X148160655Y-69239345D01*
X148447683Y-69474903D01*
X148775152Y-69649939D01*
X149130476Y-69757725D01*
X149500000Y-69794120D01*
X149869523Y-69757725D01*
X149931360Y-69738967D01*
X155035000Y-69738967D01*
X155035000Y-70061033D01*
X155097832Y-70376912D01*
X155221082Y-70674463D01*
X155400013Y-70942252D01*
X155627748Y-71169987D01*
X155895537Y-71348918D01*
X156193088Y-71472168D01*
X156508967Y-71535000D01*
X156831033Y-71535000D01*
X157146912Y-71472168D01*
X157444463Y-71348918D01*
X157712252Y-71169987D01*
X157939987Y-70942252D01*
X158118918Y-70674463D01*
X158242168Y-70376912D01*
X158305000Y-70061033D01*
X158305000Y-69738967D01*
X158242168Y-69423088D01*
X158118918Y-69125537D01*
X157939987Y-68857748D01*
X157712252Y-68630013D01*
X157444463Y-68451082D01*
X157146912Y-68327832D01*
X156831033Y-68265000D01*
X156508967Y-68265000D01*
X156193088Y-68327832D01*
X155895537Y-68451082D01*
X155627748Y-68630013D01*
X155400013Y-68857748D01*
X155221082Y-69125537D01*
X155097832Y-69423088D01*
X155035000Y-69738967D01*
X149931360Y-69738967D01*
X150224847Y-69649939D01*
X150552317Y-69474903D01*
X150839345Y-69239345D01*
X151074903Y-68952317D01*
X151249939Y-68624848D01*
X151357725Y-68269524D01*
X151385000Y-67992597D01*
X151385000Y-66307403D01*
X151357725Y-66030476D01*
X151249939Y-65675152D01*
X151074903Y-65347683D01*
X150839345Y-65060655D01*
X150552317Y-64825097D01*
X150224848Y-64650061D01*
X149869524Y-64542275D01*
X149500000Y-64505880D01*
X149130477Y-64542275D01*
X148775153Y-64650061D01*
X148447684Y-64825097D01*
X148160656Y-65060655D01*
X147925098Y-65347683D01*
X147750062Y-65675152D01*
X147642275Y-66030476D01*
X147615000Y-66307403D01*
X141225000Y-66307403D01*
X141197725Y-66030476D01*
X141089939Y-65675152D01*
X140914903Y-65347683D01*
X140679345Y-65060655D01*
X140392317Y-64825097D01*
X140064847Y-64650061D01*
X139709523Y-64542275D01*
X139340000Y-64505880D01*
X138970476Y-64542275D01*
X138615152Y-64650061D01*
X138287683Y-64825097D01*
X138000655Y-65060655D01*
X137765097Y-65347683D01*
X137590061Y-65675153D01*
X137482275Y-66030477D01*
X137455000Y-66307404D01*
X136887397Y-66307404D01*
X137057004Y-66137798D01*
X137086001Y-66114001D01*
X137130529Y-66059744D01*
X137180974Y-65998277D01*
X137251546Y-65866247D01*
X137264589Y-65823248D01*
X137295003Y-65722986D01*
X137306000Y-65611333D01*
X137306000Y-65611323D01*
X137309676Y-65574000D01*
X137306000Y-65536677D01*
X137306000Y-60300178D01*
X137492632Y-60175475D01*
X137679140Y-59988967D01*
X140285000Y-59988967D01*
X140285000Y-60311033D01*
X140347832Y-60626912D01*
X140471082Y-60924463D01*
X140650013Y-61192252D01*
X140877748Y-61419987D01*
X141145537Y-61598918D01*
X141443088Y-61722168D01*
X141758967Y-61785000D01*
X142081033Y-61785000D01*
X142396912Y-61722168D01*
X142694463Y-61598918D01*
X142962252Y-61419987D01*
X143189987Y-61192252D01*
X143368918Y-60924463D01*
X143492168Y-60626912D01*
X143555000Y-60311033D01*
X143555000Y-59988967D01*
X143492168Y-59673088D01*
X143368918Y-59375537D01*
X143189987Y-59107748D01*
X142962252Y-58880013D01*
X142819249Y-58784462D01*
X142837711Y-58766000D01*
X146048380Y-58766000D01*
X145877748Y-58880013D01*
X145650013Y-59107748D01*
X145471082Y-59375537D01*
X145347832Y-59673088D01*
X145285000Y-59988967D01*
X145285000Y-60311033D01*
X145347832Y-60626912D01*
X145471082Y-60924463D01*
X145650013Y-61192252D01*
X145877748Y-61419987D01*
X146145537Y-61598918D01*
X146443088Y-61722168D01*
X146758967Y-61785000D01*
X147081033Y-61785000D01*
X147396912Y-61722168D01*
X147694463Y-61598918D01*
X147962252Y-61419987D01*
X148189987Y-61192252D01*
X148368918Y-60924463D01*
X148492168Y-60626912D01*
X148555000Y-60311033D01*
X148555000Y-60298740D01*
X149090000Y-60298740D01*
X149090000Y-60591260D01*
X149147068Y-60878158D01*
X149259010Y-61148411D01*
X149421525Y-61391632D01*
X149628368Y-61598475D01*
X149871589Y-61760990D01*
X150141842Y-61872932D01*
X150428740Y-61930000D01*
X150721260Y-61930000D01*
X151008158Y-61872932D01*
X151278411Y-61760990D01*
X151521632Y-61598475D01*
X151653487Y-61466620D01*
X151675498Y-61539180D01*
X151734463Y-61649494D01*
X151813815Y-61746185D01*
X151910506Y-61825537D01*
X152020820Y-61884502D01*
X152140518Y-61920812D01*
X152265000Y-61933072D01*
X152460674Y-61933072D01*
X152480026Y-61969276D01*
X152524946Y-62024010D01*
X152575000Y-62085001D01*
X152603998Y-62108799D01*
X154756201Y-64261003D01*
X154779999Y-64290001D01*
X154808997Y-64313799D01*
X154895723Y-64384974D01*
X155021246Y-64452068D01*
X155027753Y-64455546D01*
X155171014Y-64499003D01*
X155282667Y-64510000D01*
X155282677Y-64510000D01*
X155320000Y-64513676D01*
X155357323Y-64510000D01*
X156138954Y-64510000D01*
X156189463Y-64604494D01*
X156268815Y-64701185D01*
X156365506Y-64780537D01*
X156475820Y-64839502D01*
X156595518Y-64875812D01*
X156720000Y-64888072D01*
X158220000Y-64888072D01*
X158344482Y-64875812D01*
X158464180Y-64839502D01*
X158574494Y-64780537D01*
X158671185Y-64701185D01*
X158750537Y-64604494D01*
X158809502Y-64494180D01*
X158845812Y-64374482D01*
X158858072Y-64250000D01*
X158858072Y-63250000D01*
X158845812Y-63125518D01*
X158809502Y-63005820D01*
X158750537Y-62895506D01*
X158671185Y-62798815D01*
X158574494Y-62719463D01*
X158464180Y-62660498D01*
X158344482Y-62624188D01*
X158220000Y-62611928D01*
X156720000Y-62611928D01*
X156595518Y-62624188D01*
X156475820Y-62660498D01*
X156365506Y-62719463D01*
X156268815Y-62798815D01*
X156189463Y-62895506D01*
X156138954Y-62990000D01*
X155634802Y-62990000D01*
X154402345Y-61757543D01*
X154416185Y-61746185D01*
X154495537Y-61649494D01*
X154554502Y-61539180D01*
X154590812Y-61419482D01*
X154603072Y-61295000D01*
X154603072Y-61050000D01*
X156081928Y-61050000D01*
X156094188Y-61174482D01*
X156130498Y-61294180D01*
X156189463Y-61404494D01*
X156268815Y-61501185D01*
X156365506Y-61580537D01*
X156475820Y-61639502D01*
X156595518Y-61675812D01*
X156720000Y-61688072D01*
X157184250Y-61685000D01*
X157343000Y-61526250D01*
X157343000Y-60677000D01*
X157597000Y-60677000D01*
X157597000Y-61526250D01*
X157755750Y-61685000D01*
X158220000Y-61688072D01*
X158344482Y-61675812D01*
X158464180Y-61639502D01*
X158574494Y-61580537D01*
X158671185Y-61501185D01*
X158750537Y-61404494D01*
X158809502Y-61294180D01*
X158845812Y-61174482D01*
X158858072Y-61050000D01*
X158855000Y-60835750D01*
X158696250Y-60677000D01*
X157597000Y-60677000D01*
X157343000Y-60677000D01*
X156243750Y-60677000D01*
X156085000Y-60835750D01*
X156081928Y-61050000D01*
X154603072Y-61050000D01*
X154603072Y-60050000D01*
X156081928Y-60050000D01*
X156085000Y-60264250D01*
X156243750Y-60423000D01*
X157343000Y-60423000D01*
X157343000Y-59573750D01*
X157597000Y-59573750D01*
X157597000Y-60423000D01*
X158696250Y-60423000D01*
X158855000Y-60264250D01*
X158858072Y-60050000D01*
X158845812Y-59925518D01*
X158809502Y-59805820D01*
X158750537Y-59695506D01*
X158671185Y-59598815D01*
X158574494Y-59519463D01*
X158464180Y-59460498D01*
X158344482Y-59424188D01*
X158220000Y-59411928D01*
X157755750Y-59415000D01*
X157597000Y-59573750D01*
X157343000Y-59573750D01*
X157184250Y-59415000D01*
X156720000Y-59411928D01*
X156595518Y-59424188D01*
X156475820Y-59460498D01*
X156365506Y-59519463D01*
X156268815Y-59598815D01*
X156189463Y-59695506D01*
X156130498Y-59805820D01*
X156094188Y-59925518D01*
X156081928Y-60050000D01*
X154603072Y-60050000D01*
X154603072Y-59595000D01*
X154590812Y-59470518D01*
X154554502Y-59350820D01*
X154495537Y-59240506D01*
X154416185Y-59143815D01*
X154319494Y-59064463D01*
X154209180Y-59005498D01*
X154089482Y-58969188D01*
X153965000Y-58956928D01*
X152265000Y-58956928D01*
X152140518Y-58969188D01*
X152020820Y-59005498D01*
X151910506Y-59064463D01*
X151813815Y-59143815D01*
X151734463Y-59240506D01*
X151675498Y-59350820D01*
X151653487Y-59423380D01*
X151521632Y-59291525D01*
X151278411Y-59129010D01*
X151008158Y-59017068D01*
X150721260Y-58960000D01*
X150428740Y-58960000D01*
X150141842Y-59017068D01*
X149871589Y-59129010D01*
X149628368Y-59291525D01*
X149421525Y-59498368D01*
X149259010Y-59741589D01*
X149147068Y-60011842D01*
X149090000Y-60298740D01*
X148555000Y-60298740D01*
X148555000Y-59988967D01*
X148492168Y-59673088D01*
X148368918Y-59375537D01*
X148189987Y-59107748D01*
X147962252Y-58880013D01*
X147791620Y-58766000D01*
X159511199Y-58766000D01*
X160981928Y-60236730D01*
X160981928Y-61050000D01*
X160994188Y-61174482D01*
X161030498Y-61294180D01*
X161063832Y-61356543D01*
X160879744Y-61432795D01*
X160710226Y-61546063D01*
X160566063Y-61690226D01*
X160452795Y-61859744D01*
X160374774Y-62048102D01*
X160335000Y-62248061D01*
X160335000Y-62451939D01*
X160374774Y-62651898D01*
X160452795Y-62840256D01*
X160566063Y-63009774D01*
X160710226Y-63153937D01*
X160879744Y-63267205D01*
X160981928Y-63309531D01*
X160981928Y-64250000D01*
X160994188Y-64374482D01*
X161030498Y-64494180D01*
X161089463Y-64604494D01*
X161168815Y-64701185D01*
X161265506Y-64780537D01*
X161375820Y-64839502D01*
X161495518Y-64875812D01*
X161620000Y-64888072D01*
X163120000Y-64888072D01*
X163244482Y-64875812D01*
X163364180Y-64839502D01*
X163474494Y-64780537D01*
X163571185Y-64701185D01*
X163650537Y-64604494D01*
X163709502Y-64494180D01*
X163745812Y-64374482D01*
X163758072Y-64250000D01*
X163758072Y-63270181D01*
X163765256Y-63267205D01*
X163934774Y-63153937D01*
X164078937Y-63009774D01*
X164192205Y-62840256D01*
X164270226Y-62651898D01*
X164310000Y-62451939D01*
X164310000Y-62248061D01*
X164270226Y-62048102D01*
X164192205Y-61859744D01*
X164078937Y-61690226D01*
X163934774Y-61546063D01*
X163765256Y-61432795D01*
X163658947Y-61388760D01*
X163709502Y-61294180D01*
X163745812Y-61174482D01*
X163758072Y-61050000D01*
X163758072Y-60050000D01*
X163745812Y-59925518D01*
X163709502Y-59805820D01*
X163650537Y-59695506D01*
X163571185Y-59598815D01*
X163474494Y-59519463D01*
X163364180Y-59460498D01*
X163244482Y-59424188D01*
X163120000Y-59411928D01*
X162306730Y-59411928D01*
X160737572Y-57842771D01*
X160949872Y-57885000D01*
X161390128Y-57885000D01*
X161821925Y-57799110D01*
X162228669Y-57630631D01*
X162594729Y-57386038D01*
X162906038Y-57074729D01*
X163150631Y-56708669D01*
X163319110Y-56301925D01*
X163405000Y-55870128D01*
X163405000Y-55429872D01*
X163319110Y-54998075D01*
X163150631Y-54591331D01*
X162906038Y-54225271D01*
X162594729Y-53913962D01*
X162228669Y-53669369D01*
X161821925Y-53500890D01*
X161390128Y-53415000D01*
X160949872Y-53415000D01*
X160518075Y-53500890D01*
X160111331Y-53669369D01*
X159745271Y-53913962D01*
X159433962Y-54225271D01*
X159189369Y-54591331D01*
X159020890Y-54998075D01*
X158935000Y-55429872D01*
X158935000Y-55870128D01*
X159020890Y-56301925D01*
X159189369Y-56708669D01*
X159433962Y-57074729D01*
X159605233Y-57246000D01*
X142837711Y-57246000D01*
X142793774Y-57202063D01*
X142624256Y-57088795D01*
X142435898Y-57010774D01*
X142235939Y-56971000D01*
X142032061Y-56971000D01*
X141832102Y-57010774D01*
X141643744Y-57088795D01*
X141474226Y-57202063D01*
X141330063Y-57346226D01*
X141216795Y-57515744D01*
X141138774Y-57704102D01*
X141099000Y-57904061D01*
X141099000Y-58107939D01*
X141138774Y-58307898D01*
X141216795Y-58496256D01*
X141308541Y-58633563D01*
X141145537Y-58701082D01*
X140877748Y-58880013D01*
X140650013Y-59107748D01*
X140471082Y-59375537D01*
X140347832Y-59673088D01*
X140285000Y-59988967D01*
X137679140Y-59988967D01*
X137699475Y-59968632D01*
X137861990Y-59725411D01*
X137973932Y-59455158D01*
X138031000Y-59168260D01*
X138031000Y-58875740D01*
X137973932Y-58588842D01*
X137861990Y-58318589D01*
X137699475Y-58075368D01*
X137492632Y-57868525D01*
X137318240Y-57752000D01*
X137492632Y-57635475D01*
X137699475Y-57428632D01*
X137861990Y-57185411D01*
X137973932Y-56915158D01*
X138031000Y-56628260D01*
X138031000Y-56335740D01*
X137973932Y-56048842D01*
X137861990Y-55778589D01*
X137699475Y-55535368D01*
X137567620Y-55403513D01*
X137640180Y-55381502D01*
X137750494Y-55322537D01*
X137847185Y-55243185D01*
X137926537Y-55146494D01*
X137985502Y-55036180D01*
X138021812Y-54916482D01*
X138034072Y-54792000D01*
X138034072Y-53092000D01*
X138021812Y-52967518D01*
X137985502Y-52847820D01*
X137926537Y-52737506D01*
X137847185Y-52640815D01*
X137750494Y-52561463D01*
X137640180Y-52502498D01*
X137520482Y-52466188D01*
X137396000Y-52453928D01*
X135696000Y-52453928D01*
X135571518Y-52466188D01*
X135451820Y-52502498D01*
X135341506Y-52561463D01*
X135244815Y-52640815D01*
X135165463Y-52737506D01*
X135106498Y-52847820D01*
X135083502Y-52923626D01*
X134887355Y-52746822D01*
X134637252Y-52597843D01*
X134362891Y-52500519D01*
X134133000Y-52621186D01*
X134133000Y-53815000D01*
X134153000Y-53815000D01*
X134153000Y-54069000D01*
X134133000Y-54069000D01*
X134133000Y-54089000D01*
X133879000Y-54089000D01*
X133879000Y-54069000D01*
X132685845Y-54069000D01*
X132564524Y-54298890D01*
X132609175Y-54446099D01*
X132734359Y-54708920D01*
X132816352Y-54818846D01*
X131209003Y-56426196D01*
X131179999Y-56449999D01*
X131138132Y-56501015D01*
X131085026Y-56565724D01*
X131051600Y-56628260D01*
X131014454Y-56697754D01*
X130970997Y-56841015D01*
X130960000Y-56952668D01*
X130960000Y-56952678D01*
X130956324Y-56990000D01*
X130960000Y-57027322D01*
X130960001Y-66073197D01*
X130664199Y-66369000D01*
X130602061Y-66369000D01*
X130402102Y-66408774D01*
X130213744Y-66486795D01*
X130044226Y-66600063D01*
X129900063Y-66744226D01*
X129786795Y-66913744D01*
X129708774Y-67102102D01*
X129669000Y-67302061D01*
X129669000Y-67505939D01*
X129708774Y-67705898D01*
X129786795Y-67894256D01*
X129900063Y-68063774D01*
X130044226Y-68207937D01*
X130213744Y-68321205D01*
X130402102Y-68399226D01*
X130602061Y-68439000D01*
X130805939Y-68439000D01*
X130824835Y-68435241D01*
X130916063Y-68571774D01*
X131060226Y-68715937D01*
X131229744Y-68829205D01*
X131418102Y-68907226D01*
X131618061Y-68947000D01*
X131821939Y-68947000D01*
X132021898Y-68907226D01*
X132210256Y-68829205D01*
X132227547Y-68817652D01*
X129466376Y-71578823D01*
X129451912Y-71572832D01*
X129136033Y-71510000D01*
X128813967Y-71510000D01*
X128498088Y-71572832D01*
X128200537Y-71696082D01*
X127932748Y-71875013D01*
X127705013Y-72102748D01*
X127526082Y-72370537D01*
X127402832Y-72668088D01*
X127340000Y-72983967D01*
X124110000Y-72983967D01*
X124047168Y-72668088D01*
X123923918Y-72370537D01*
X123744987Y-72102748D01*
X123517252Y-71875013D01*
X123249463Y-71696082D01*
X122951912Y-71572832D01*
X122636033Y-71510000D01*
X122313967Y-71510000D01*
X121998088Y-71572832D01*
X121700537Y-71696082D01*
X121432748Y-71875013D01*
X121205013Y-72102748D01*
X121061833Y-72317031D01*
X115655000Y-66910199D01*
X115655000Y-66848061D01*
X115615226Y-66648102D01*
X115537205Y-66459744D01*
X115423937Y-66290226D01*
X115279774Y-66146063D01*
X115110256Y-66032795D01*
X114921898Y-65954774D01*
X114721939Y-65915000D01*
X114518061Y-65915000D01*
X114318102Y-65954774D01*
X114129744Y-66032795D01*
X113970199Y-66139399D01*
X113937205Y-66059744D01*
X113823937Y-65890226D01*
X113780000Y-65846289D01*
X113780000Y-56964801D01*
X116645513Y-54099288D01*
X116872510Y-54193314D01*
X117142408Y-54247000D01*
X117417592Y-54247000D01*
X117687490Y-54193314D01*
X117941727Y-54088005D01*
X118170535Y-53935120D01*
X118365120Y-53740535D01*
X118468971Y-53585110D01*
X132564524Y-53585110D01*
X132685845Y-53815000D01*
X133879000Y-53815000D01*
X133879000Y-52621186D01*
X133649109Y-52500519D01*
X133374748Y-52597843D01*
X133124645Y-52746822D01*
X132908412Y-52941731D01*
X132734359Y-53175080D01*
X132609175Y-53437901D01*
X132564524Y-53585110D01*
X118468971Y-53585110D01*
X118518005Y-53511727D01*
X118623314Y-53257490D01*
X118677000Y-52987592D01*
X118677000Y-52712408D01*
X118623314Y-52442510D01*
X118518005Y-52188273D01*
X118365120Y-51959465D01*
X118170535Y-51764880D01*
X117941727Y-51611995D01*
X117687490Y-51506686D01*
X117417592Y-51453000D01*
X117142408Y-51453000D01*
X116872510Y-51506686D01*
X116618273Y-51611995D01*
X116389465Y-51764880D01*
X116194880Y-51959465D01*
X116041995Y-52188273D01*
X116010000Y-52265515D01*
X115978005Y-52188273D01*
X115825120Y-51959465D01*
X115630535Y-51764880D01*
X115401727Y-51611995D01*
X115147490Y-51506686D01*
X114877592Y-51453000D01*
X114602408Y-51453000D01*
X114332510Y-51506686D01*
X114078273Y-51611995D01*
X113849465Y-51764880D01*
X113654880Y-51959465D01*
X113501995Y-52188273D01*
X113470000Y-52265515D01*
X113438005Y-52188273D01*
X113285120Y-51959465D01*
X113090535Y-51764880D01*
X112861727Y-51611995D01*
X112607490Y-51506686D01*
X112337592Y-51453000D01*
X112062408Y-51453000D01*
X111792510Y-51506686D01*
X111538273Y-51611995D01*
X111309465Y-51764880D01*
X111114880Y-51959465D01*
X110961995Y-52188273D01*
X110930000Y-52265515D01*
X110898005Y-52188273D01*
X110745120Y-51959465D01*
X110550535Y-51764880D01*
X110321727Y-51611995D01*
X110067490Y-51506686D01*
X109797592Y-51453000D01*
X109522408Y-51453000D01*
X109252510Y-51506686D01*
X108998273Y-51611995D01*
X108769465Y-51764880D01*
X108574880Y-51959465D01*
X108421995Y-52188273D01*
X108316686Y-52442510D01*
X108263000Y-52712408D01*
X85830000Y-52712408D01*
X85830000Y-50310000D01*
X164510000Y-50310000D01*
X164510001Y-68962531D01*
G04 #@! TA.AperFunction,Conductor*
D22*
G36*
X164510001Y-68962531D02*
G01*
X164439987Y-68857748D01*
X164212252Y-68630013D01*
X163944463Y-68451082D01*
X163646912Y-68327832D01*
X163331033Y-68265000D01*
X163008967Y-68265000D01*
X162693088Y-68327832D01*
X162395537Y-68451082D01*
X162127748Y-68630013D01*
X161900013Y-68857748D01*
X161721082Y-69125537D01*
X161597832Y-69423088D01*
X161535000Y-69738967D01*
X161535000Y-70061033D01*
X161597832Y-70376912D01*
X161721082Y-70674463D01*
X161900013Y-70942252D01*
X162127748Y-71169987D01*
X162395537Y-71348918D01*
X162693088Y-71472168D01*
X163008967Y-71535000D01*
X163331033Y-71535000D01*
X163646912Y-71472168D01*
X163944463Y-71348918D01*
X164212252Y-71169987D01*
X164439987Y-70942252D01*
X164510001Y-70837469D01*
X164510001Y-73462531D01*
X164439987Y-73357748D01*
X164212252Y-73130013D01*
X163944463Y-72951082D01*
X163646912Y-72827832D01*
X163331033Y-72765000D01*
X163008967Y-72765000D01*
X162693088Y-72827832D01*
X162395537Y-72951082D01*
X162127748Y-73130013D01*
X161900013Y-73357748D01*
X161721082Y-73625537D01*
X161715091Y-73640000D01*
X158124909Y-73640000D01*
X158118918Y-73625537D01*
X157939987Y-73357748D01*
X157712252Y-73130013D01*
X157444463Y-72951082D01*
X157146912Y-72827832D01*
X156831033Y-72765000D01*
X156508967Y-72765000D01*
X156193088Y-72827832D01*
X155895537Y-72951082D01*
X155627748Y-73130013D01*
X155400013Y-73357748D01*
X155221082Y-73625537D01*
X155097832Y-73923088D01*
X155035000Y-74238967D01*
X155035000Y-74561033D01*
X155097832Y-74876912D01*
X155221082Y-75174463D01*
X155400013Y-75442252D01*
X155627748Y-75669987D01*
X155895537Y-75848918D01*
X156193088Y-75972168D01*
X156508967Y-76035000D01*
X156831033Y-76035000D01*
X157146912Y-75972168D01*
X157444463Y-75848918D01*
X157712252Y-75669987D01*
X157939987Y-75442252D01*
X158118918Y-75174463D01*
X158124909Y-75160000D01*
X161715091Y-75160000D01*
X161721082Y-75174463D01*
X161900013Y-75442252D01*
X162127748Y-75669987D01*
X162395537Y-75848918D01*
X162693088Y-75972168D01*
X163008967Y-76035000D01*
X163331033Y-76035000D01*
X163646912Y-75972168D01*
X163944463Y-75848918D01*
X164212252Y-75669987D01*
X164439987Y-75442252D01*
X164510001Y-75337469D01*
X164510001Y-83990000D01*
X85830000Y-83990000D01*
X85830000Y-80429872D01*
X86935000Y-80429872D01*
X86935000Y-80870128D01*
X87020890Y-81301925D01*
X87189369Y-81708669D01*
X87433962Y-82074729D01*
X87745271Y-82386038D01*
X88111331Y-82630631D01*
X88518075Y-82799110D01*
X88949872Y-82885000D01*
X89390128Y-82885000D01*
X89821925Y-82799110D01*
X90228669Y-82630631D01*
X90594729Y-82386038D01*
X90906038Y-82074729D01*
X91057492Y-81848061D01*
X93615000Y-81848061D01*
X93615000Y-82051939D01*
X93654774Y-82251898D01*
X93732795Y-82440256D01*
X93846063Y-82609774D01*
X93990226Y-82753937D01*
X94159744Y-82867205D01*
X94348102Y-82945226D01*
X94548061Y-82985000D01*
X94751939Y-82985000D01*
X94951898Y-82945226D01*
X95140256Y-82867205D01*
X95309774Y-82753937D01*
X95353711Y-82710000D01*
X99512680Y-82710000D01*
X99550002Y-82713676D01*
X99587324Y-82710000D01*
X99587335Y-82710000D01*
X99698988Y-82699003D01*
X99842249Y-82655546D01*
X99974278Y-82584974D01*
X100090003Y-82490001D01*
X100113806Y-82460997D01*
X102089802Y-80485002D01*
X102151939Y-80485002D01*
X102351898Y-80445228D01*
X102388970Y-80429872D01*
X158935000Y-80429872D01*
X158935000Y-80870128D01*
X159020890Y-81301925D01*
X159189369Y-81708669D01*
X159433962Y-82074729D01*
X159745271Y-82386038D01*
X160111331Y-82630631D01*
X160518075Y-82799110D01*
X160949872Y-82885000D01*
X161390128Y-82885000D01*
X161821925Y-82799110D01*
X162228669Y-82630631D01*
X162594729Y-82386038D01*
X162906038Y-82074729D01*
X163150631Y-81708669D01*
X163319110Y-81301925D01*
X163405000Y-80870128D01*
X163405000Y-80429872D01*
X163319110Y-79998075D01*
X163150631Y-79591331D01*
X162906038Y-79225271D01*
X162594729Y-78913962D01*
X162228669Y-78669369D01*
X161821925Y-78500890D01*
X161390128Y-78415000D01*
X160949872Y-78415000D01*
X160518075Y-78500890D01*
X160111331Y-78669369D01*
X159745271Y-78913962D01*
X159433962Y-79225271D01*
X159189369Y-79591331D01*
X159020890Y-79998075D01*
X158935000Y-80429872D01*
X102388970Y-80429872D01*
X102540256Y-80367207D01*
X102709774Y-80253939D01*
X102753711Y-80210002D01*
X104382676Y-80210002D01*
X104419998Y-80213678D01*
X104457320Y-80210002D01*
X104457331Y-80210002D01*
X104568984Y-80199005D01*
X104712245Y-80155548D01*
X104844274Y-80084976D01*
X104959999Y-79990003D01*
X104983802Y-79960999D01*
X107460834Y-77483967D01*
X120840000Y-77483967D01*
X120840000Y-77806033D01*
X120902832Y-78121912D01*
X121026082Y-78419463D01*
X121205013Y-78687252D01*
X121432748Y-78914987D01*
X121700537Y-79093918D01*
X121998088Y-79217168D01*
X122313967Y-79280000D01*
X122636033Y-79280000D01*
X122951912Y-79217168D01*
X123249463Y-79093918D01*
X123517252Y-78914987D01*
X123744987Y-78687252D01*
X123923918Y-78419463D01*
X124047168Y-78121912D01*
X124110000Y-77806033D01*
X124110000Y-77483967D01*
X127340000Y-77483967D01*
X127340000Y-77806033D01*
X127402832Y-78121912D01*
X127526082Y-78419463D01*
X127705013Y-78687252D01*
X127932748Y-78914987D01*
X128200537Y-79093918D01*
X128498088Y-79217168D01*
X128813967Y-79280000D01*
X129136033Y-79280000D01*
X129451912Y-79217168D01*
X129749463Y-79093918D01*
X130017252Y-78914987D01*
X130244987Y-78687252D01*
X130423918Y-78419463D01*
X130547168Y-78121912D01*
X130610000Y-77806033D01*
X130610000Y-77483967D01*
X130547168Y-77168088D01*
X130423918Y-76870537D01*
X130244987Y-76602748D01*
X130017252Y-76375013D01*
X129749463Y-76196082D01*
X129451912Y-76072832D01*
X129136033Y-76010000D01*
X128813967Y-76010000D01*
X128498088Y-76072832D01*
X128200537Y-76196082D01*
X127932748Y-76375013D01*
X127705013Y-76602748D01*
X127526082Y-76870537D01*
X127402832Y-77168088D01*
X127340000Y-77483967D01*
X124110000Y-77483967D01*
X124047168Y-77168088D01*
X123923918Y-76870537D01*
X123744987Y-76602748D01*
X123517252Y-76375013D01*
X123249463Y-76196082D01*
X122951912Y-76072832D01*
X122636033Y-76010000D01*
X122313967Y-76010000D01*
X121998088Y-76072832D01*
X121700537Y-76196082D01*
X121432748Y-76375013D01*
X121205013Y-76602748D01*
X121026082Y-76870537D01*
X120902832Y-77168088D01*
X120840000Y-77483967D01*
X107460834Y-77483967D01*
X107869203Y-77075599D01*
X108021898Y-77045226D01*
X108210256Y-76967205D01*
X108379774Y-76853937D01*
X108523937Y-76709774D01*
X108637205Y-76540256D01*
X108715226Y-76351898D01*
X108755000Y-76151939D01*
X108755000Y-75948061D01*
X108715226Y-75748102D01*
X108637205Y-75559744D01*
X108523937Y-75390226D01*
X108379774Y-75246063D01*
X108210256Y-75132795D01*
X108021898Y-75054774D01*
X107821939Y-75015000D01*
X107618061Y-75015000D01*
X107418102Y-75054774D01*
X107229744Y-75132795D01*
X107060226Y-75246063D01*
X106916063Y-75390226D01*
X106802795Y-75559744D01*
X106724774Y-75748102D01*
X106685000Y-75948061D01*
X106685000Y-76110198D01*
X104105197Y-78690002D01*
X102753711Y-78690002D01*
X102709774Y-78646065D01*
X102540256Y-78532797D01*
X102351898Y-78454776D01*
X102151939Y-78415002D01*
X101948061Y-78415002D01*
X101748102Y-78454776D01*
X101559744Y-78532797D01*
X101390226Y-78646065D01*
X101246063Y-78790228D01*
X101132795Y-78959746D01*
X101054774Y-79148104D01*
X101015000Y-79348063D01*
X101015000Y-79410200D01*
X99235201Y-81190000D01*
X95353711Y-81190000D01*
X95309774Y-81146063D01*
X95140256Y-81032795D01*
X94951898Y-80954774D01*
X94751939Y-80915000D01*
X94548061Y-80915000D01*
X94348102Y-80954774D01*
X94159744Y-81032795D01*
X93990226Y-81146063D01*
X93846063Y-81290226D01*
X93732795Y-81459744D01*
X93654774Y-81648102D01*
X93615000Y-81848061D01*
X91057492Y-81848061D01*
X91150631Y-81708669D01*
X91319110Y-81301925D01*
X91405000Y-80870128D01*
X91405000Y-80429872D01*
X91319110Y-79998075D01*
X91150631Y-79591331D01*
X90906038Y-79225271D01*
X90594729Y-78913962D01*
X90228669Y-78669369D01*
X89821925Y-78500890D01*
X89390128Y-78415000D01*
X88949872Y-78415000D01*
X88518075Y-78500890D01*
X88111331Y-78669369D01*
X87745271Y-78913962D01*
X87433962Y-79225271D01*
X87189369Y-79591331D01*
X87020890Y-79998075D01*
X86935000Y-80429872D01*
X85830000Y-80429872D01*
X85830000Y-74248061D01*
X103085000Y-74248061D01*
X103085000Y-74451939D01*
X103124774Y-74651898D01*
X103202795Y-74840256D01*
X103316063Y-75009774D01*
X103460226Y-75153937D01*
X103629744Y-75267205D01*
X103818102Y-75345226D01*
X104018061Y-75385000D01*
X104221939Y-75385000D01*
X104421898Y-75345226D01*
X104610256Y-75267205D01*
X104779774Y-75153937D01*
X104923937Y-75009774D01*
X105037205Y-74840256D01*
X105115226Y-74651898D01*
X105142655Y-74514000D01*
X112601289Y-74514000D01*
X112645226Y-74557937D01*
X112814744Y-74671205D01*
X113003102Y-74749226D01*
X113203061Y-74789000D01*
X113406939Y-74789000D01*
X113606898Y-74749226D01*
X113795256Y-74671205D01*
X113964774Y-74557937D01*
X114108937Y-74413774D01*
X114222205Y-74244256D01*
X114300226Y-74055898D01*
X114340000Y-73855939D01*
X114340000Y-73652061D01*
X114300226Y-73452102D01*
X114222205Y-73263744D01*
X114108937Y-73094226D01*
X113964774Y-72950063D01*
X113795256Y-72836795D01*
X113606898Y-72758774D01*
X113406939Y-72719000D01*
X113203061Y-72719000D01*
X113003102Y-72758774D01*
X112814744Y-72836795D01*
X112645226Y-72950063D01*
X112601289Y-72994000D01*
X104753322Y-72994000D01*
X104715999Y-72990324D01*
X104678676Y-72994000D01*
X104678667Y-72994000D01*
X104567014Y-73004997D01*
X104423753Y-73048454D01*
X104291724Y-73119026D01*
X104175999Y-73213999D01*
X104152200Y-73242998D01*
X104080198Y-73315000D01*
X104018061Y-73315000D01*
X103818102Y-73354774D01*
X103629744Y-73432795D01*
X103460226Y-73546063D01*
X103316063Y-73690226D01*
X103202795Y-73859744D01*
X103124774Y-74048102D01*
X103085000Y-74248061D01*
X85830000Y-74248061D01*
X85830000Y-71781759D01*
X85857599Y-71796511D01*
X86090398Y-71867130D01*
X86271835Y-71885000D01*
X87093165Y-71885000D01*
X87274602Y-71867130D01*
X87507401Y-71796511D01*
X87721949Y-71681833D01*
X87910002Y-71527502D01*
X88064333Y-71339449D01*
X88179011Y-71124901D01*
X88249630Y-70892102D01*
X88260818Y-70778507D01*
X88282406Y-70849674D01*
X88392443Y-71055536D01*
X88540526Y-71235975D01*
X88720965Y-71384058D01*
X88926827Y-71494094D01*
X89150201Y-71561853D01*
X89382500Y-71584733D01*
X89614800Y-71561853D01*
X89838174Y-71494094D01*
X90044036Y-71384058D01*
X90224475Y-71235975D01*
X90372558Y-71055536D01*
X90482594Y-70849674D01*
X90550353Y-70626300D01*
X90567500Y-70452206D01*
X90567500Y-70110000D01*
X93181928Y-70110000D01*
X93181928Y-71810000D01*
X93194188Y-71934482D01*
X93230498Y-72054180D01*
X93289463Y-72164494D01*
X93368815Y-72261185D01*
X93465506Y-72340537D01*
X93575820Y-72399502D01*
X93695518Y-72435812D01*
X93820000Y-72448072D01*
X95520000Y-72448072D01*
X95644482Y-72435812D01*
X95764180Y-72399502D01*
X95874494Y-72340537D01*
X95971185Y-72261185D01*
X96050537Y-72164494D01*
X96109502Y-72054180D01*
X96145812Y-71934482D01*
X96158072Y-71810000D01*
X96158072Y-70110000D01*
X96145812Y-69985518D01*
X96109502Y-69865820D01*
X96050537Y-69755506D01*
X95971185Y-69658815D01*
X95874494Y-69579463D01*
X95764180Y-69520498D01*
X95691620Y-69498487D01*
X95823475Y-69366632D01*
X95985990Y-69123411D01*
X96097932Y-68853158D01*
X96155000Y-68566260D01*
X96155000Y-68503740D01*
X97605000Y-68503740D01*
X97605000Y-68796260D01*
X97662068Y-69083158D01*
X97774010Y-69353411D01*
X97936525Y-69596632D01*
X98143368Y-69803475D01*
X98386589Y-69965990D01*
X98656842Y-70077932D01*
X98943740Y-70135000D01*
X99236260Y-70135000D01*
X99523158Y-70077932D01*
X99793411Y-69965990D01*
X100036632Y-69803475D01*
X100243475Y-69596632D01*
X100360000Y-69422240D01*
X100476525Y-69596632D01*
X100683368Y-69803475D01*
X100926589Y-69965990D01*
X101196842Y-70077932D01*
X101483740Y-70135000D01*
X101776260Y-70135000D01*
X101996408Y-70091210D01*
X102566200Y-70661002D01*
X102589999Y-70690001D01*
X102705724Y-70784974D01*
X102837753Y-70855546D01*
X102981014Y-70899003D01*
X103092667Y-70910000D01*
X103092676Y-70910000D01*
X103129999Y-70913676D01*
X103167322Y-70910000D01*
X109305199Y-70910000D01*
X109685000Y-71289802D01*
X109685000Y-71351939D01*
X109724774Y-71551898D01*
X109802795Y-71740256D01*
X109916063Y-71909774D01*
X110060226Y-72053937D01*
X110229744Y-72167205D01*
X110418102Y-72245226D01*
X110618061Y-72285000D01*
X110821939Y-72285000D01*
X111021898Y-72245226D01*
X111210256Y-72167205D01*
X111220411Y-72160420D01*
X111245251Y-72177017D01*
X111433609Y-72255038D01*
X111633568Y-72294812D01*
X111837446Y-72294812D01*
X112037405Y-72255038D01*
X112225763Y-72177017D01*
X112395281Y-72063749D01*
X112539444Y-71919586D01*
X112652712Y-71750068D01*
X112730733Y-71561710D01*
X112770507Y-71361751D01*
X112770507Y-71157873D01*
X112730733Y-70957914D01*
X112652712Y-70769556D01*
X112539444Y-70600038D01*
X112395281Y-70455875D01*
X112225763Y-70342607D01*
X112037405Y-70264586D01*
X111877601Y-70232799D01*
X111489256Y-69844455D01*
X111623937Y-69709774D01*
X111737205Y-69540256D01*
X111815226Y-69351898D01*
X111855000Y-69151939D01*
X111855000Y-68948061D01*
X111815226Y-68748102D01*
X111737205Y-68559744D01*
X111623937Y-68390226D01*
X111479774Y-68246063D01*
X111310256Y-68132795D01*
X111121898Y-68054774D01*
X110921939Y-68015000D01*
X110859802Y-68015000D01*
X109808803Y-66964002D01*
X109785000Y-66934998D01*
X109669275Y-66840025D01*
X109537246Y-66769453D01*
X109393985Y-66725996D01*
X109282332Y-66714999D01*
X109282321Y-66714999D01*
X109244999Y-66711323D01*
X109207677Y-66714999D01*
X100302323Y-66714999D01*
X100265000Y-66711323D01*
X100227677Y-66714999D01*
X100227668Y-66714999D01*
X100116015Y-66725996D01*
X99972754Y-66769453D01*
X99840725Y-66840025D01*
X99725000Y-66934998D01*
X99701202Y-66963996D01*
X99456408Y-67208790D01*
X99236260Y-67165000D01*
X98943740Y-67165000D01*
X98656842Y-67222068D01*
X98386589Y-67334010D01*
X98143368Y-67496525D01*
X97936525Y-67703368D01*
X97774010Y-67946589D01*
X97662068Y-68216842D01*
X97605000Y-68503740D01*
X96155000Y-68503740D01*
X96155000Y-68273740D01*
X96097932Y-67986842D01*
X95985990Y-67716589D01*
X95823475Y-67473368D01*
X95616632Y-67266525D01*
X95442240Y-67150000D01*
X95616632Y-67033475D01*
X95823475Y-66826632D01*
X95985990Y-66583411D01*
X96097932Y-66313158D01*
X96155000Y-66026260D01*
X96155000Y-65733740D01*
X96097932Y-65446842D01*
X95985990Y-65176589D01*
X95823475Y-64933368D01*
X95616632Y-64726525D01*
X95442240Y-64610000D01*
X95616632Y-64493475D01*
X95823475Y-64286632D01*
X95985990Y-64043411D01*
X96097932Y-63773158D01*
X96155000Y-63486260D01*
X96155000Y-63193740D01*
X96097932Y-62906842D01*
X95985990Y-62636589D01*
X95823475Y-62393368D01*
X95616632Y-62186525D01*
X95373411Y-62024010D01*
X95103158Y-61912068D01*
X94816260Y-61855000D01*
X94523740Y-61855000D01*
X94236842Y-61912068D01*
X93966589Y-62024010D01*
X93723368Y-62186525D01*
X93516525Y-62393368D01*
X93354010Y-62636589D01*
X93242068Y-62906842D01*
X93185000Y-63193740D01*
X93185000Y-63486260D01*
X93242068Y-63773158D01*
X93354010Y-64043411D01*
X93516525Y-64286632D01*
X93723368Y-64493475D01*
X93897760Y-64610000D01*
X93723368Y-64726525D01*
X93516525Y-64933368D01*
X93354010Y-65176589D01*
X93242068Y-65446842D01*
X93185000Y-65733740D01*
X93185000Y-66026260D01*
X93242068Y-66313158D01*
X93354010Y-66583411D01*
X93516525Y-66826632D01*
X93723368Y-67033475D01*
X93897760Y-67150000D01*
X93723368Y-67266525D01*
X93516525Y-67473368D01*
X93354010Y-67716589D01*
X93242068Y-67986842D01*
X93185000Y-68273740D01*
X93185000Y-68566260D01*
X93242068Y-68853158D01*
X93354010Y-69123411D01*
X93516525Y-69366632D01*
X93648380Y-69498487D01*
X93575820Y-69520498D01*
X93465506Y-69579463D01*
X93368815Y-69658815D01*
X93289463Y-69755506D01*
X93230498Y-69865820D01*
X93194188Y-69985518D01*
X93181928Y-70110000D01*
X90567500Y-70110000D01*
X90567500Y-69435793D01*
X90550353Y-69261700D01*
X90482594Y-69038326D01*
X90372558Y-68832464D01*
X90224475Y-68652025D01*
X90044035Y-68503942D01*
X89838173Y-68393906D01*
X89614799Y-68326147D01*
X89382500Y-68303267D01*
X89150200Y-68326147D01*
X88926826Y-68393906D01*
X88720964Y-68503942D01*
X88540525Y-68652025D01*
X88392442Y-68832465D01*
X88282406Y-69038327D01*
X88214647Y-69261701D01*
X88197500Y-69435794D01*
X88197500Y-70236049D01*
X88179011Y-70175099D01*
X88064333Y-69960551D01*
X87910002Y-69772498D01*
X87721949Y-69618167D01*
X87507401Y-69503489D01*
X87274602Y-69432870D01*
X87093165Y-69415000D01*
X86271835Y-69415000D01*
X86090398Y-69432870D01*
X85857599Y-69503489D01*
X85830000Y-69518241D01*
X85830000Y-66541794D01*
X86165500Y-66541794D01*
X86165500Y-67758207D01*
X86182647Y-67932300D01*
X86250406Y-68155674D01*
X86360443Y-68361536D01*
X86508526Y-68541975D01*
X86688965Y-68690058D01*
X86894827Y-68800094D01*
X87118201Y-68867853D01*
X87350500Y-68890733D01*
X87582800Y-68867853D01*
X87806174Y-68800094D01*
X88012036Y-68690058D01*
X88192475Y-68541975D01*
X88340558Y-68361536D01*
X88450594Y-68155674D01*
X88518353Y-67932300D01*
X88535500Y-67758207D01*
X88535500Y-66541793D01*
X88518353Y-66367700D01*
X88450594Y-66144326D01*
X88340558Y-65938464D01*
X88192475Y-65758025D01*
X88012035Y-65609942D01*
X87806173Y-65499906D01*
X87582799Y-65432147D01*
X87350500Y-65409267D01*
X87118200Y-65432147D01*
X86894826Y-65499906D01*
X86688964Y-65609942D01*
X86508525Y-65758025D01*
X86360442Y-65938465D01*
X86250406Y-66144327D01*
X86182647Y-66367701D01*
X86165500Y-66541794D01*
X85830000Y-66541794D01*
X85830000Y-64781759D01*
X85857599Y-64796511D01*
X86090398Y-64867130D01*
X86271835Y-64885000D01*
X87093165Y-64885000D01*
X87274602Y-64867130D01*
X87507401Y-64796511D01*
X87721949Y-64681833D01*
X87910002Y-64527502D01*
X88064333Y-64339449D01*
X88179011Y-64124901D01*
X88197500Y-64063951D01*
X88197500Y-64864207D01*
X88214647Y-65038300D01*
X88282406Y-65261674D01*
X88392443Y-65467536D01*
X88540526Y-65647975D01*
X88720965Y-65796058D01*
X88926827Y-65906094D01*
X89150201Y-65973853D01*
X89382500Y-65996733D01*
X89614800Y-65973853D01*
X89838174Y-65906094D01*
X90044036Y-65796058D01*
X90224475Y-65647975D01*
X90372558Y-65467536D01*
X90482594Y-65261674D01*
X90550353Y-65038300D01*
X90567500Y-64864206D01*
X90567500Y-63847793D01*
X90550353Y-63673700D01*
X90482594Y-63450326D01*
X90372558Y-63244464D01*
X90224475Y-63064025D01*
X90044035Y-62915942D01*
X89838173Y-62805906D01*
X89614799Y-62738147D01*
X89382500Y-62715267D01*
X89150200Y-62738147D01*
X88926826Y-62805906D01*
X88720964Y-62915942D01*
X88540525Y-63064025D01*
X88392442Y-63244465D01*
X88282406Y-63450327D01*
X88260818Y-63521493D01*
X88249630Y-63407898D01*
X88179011Y-63175099D01*
X88064333Y-62960551D01*
X87910002Y-62772498D01*
X87721949Y-62618167D01*
X87507401Y-62503489D01*
X87274602Y-62432870D01*
X87093165Y-62415000D01*
X86271835Y-62415000D01*
X86090398Y-62432870D01*
X85857599Y-62503489D01*
X85830000Y-62518241D01*
X85830000Y-55429872D01*
X86935000Y-55429872D01*
X86935000Y-55870128D01*
X87020890Y-56301925D01*
X87189369Y-56708669D01*
X87433962Y-57074729D01*
X87745271Y-57386038D01*
X88111331Y-57630631D01*
X88518075Y-57799110D01*
X88949872Y-57885000D01*
X89390128Y-57885000D01*
X89821925Y-57799110D01*
X90228669Y-57630631D01*
X90594729Y-57386038D01*
X90906038Y-57074729D01*
X91150631Y-56708669D01*
X91319110Y-56301925D01*
X91405000Y-55870128D01*
X91405000Y-55429872D01*
X91319110Y-54998075D01*
X91150631Y-54591331D01*
X90906038Y-54225271D01*
X90594729Y-53913962D01*
X90228669Y-53669369D01*
X89821925Y-53500890D01*
X89390128Y-53415000D01*
X88949872Y-53415000D01*
X88518075Y-53500890D01*
X88111331Y-53669369D01*
X87745271Y-53913962D01*
X87433962Y-54225271D01*
X87189369Y-54591331D01*
X87020890Y-54998075D01*
X86935000Y-55429872D01*
X85830000Y-55429872D01*
X85830000Y-52712408D01*
X108263000Y-52712408D01*
X108263000Y-52987592D01*
X108316686Y-53257490D01*
X108421995Y-53511727D01*
X108574880Y-53740535D01*
X108769465Y-53935120D01*
X108998273Y-54088005D01*
X109252510Y-54193314D01*
X109522408Y-54247000D01*
X109797592Y-54247000D01*
X110067490Y-54193314D01*
X110321727Y-54088005D01*
X110550535Y-53935120D01*
X110745120Y-53740535D01*
X110898005Y-53511727D01*
X110930000Y-53434485D01*
X110961995Y-53511727D01*
X111114880Y-53740535D01*
X111309465Y-53935120D01*
X111538273Y-54088005D01*
X111792510Y-54193314D01*
X112062408Y-54247000D01*
X112337592Y-54247000D01*
X112607490Y-54193314D01*
X112861727Y-54088005D01*
X113090535Y-53935120D01*
X113285120Y-53740535D01*
X113438005Y-53511727D01*
X113470000Y-53434485D01*
X113501995Y-53511727D01*
X113654880Y-53740535D01*
X113754772Y-53840427D01*
X111783993Y-55811206D01*
X111754989Y-55835009D01*
X111712877Y-55886323D01*
X111660016Y-55950734D01*
X111626977Y-56012545D01*
X111589444Y-56082764D01*
X111545987Y-56226025D01*
X111534990Y-56337678D01*
X111534990Y-56337688D01*
X111531314Y-56375010D01*
X111534990Y-56412332D01*
X111534991Y-65011818D01*
X111491053Y-65055756D01*
X111377785Y-65225274D01*
X111299764Y-65413632D01*
X111259990Y-65613591D01*
X111259990Y-65817469D01*
X111299764Y-66017428D01*
X111377785Y-66205786D01*
X111491053Y-66375304D01*
X111635216Y-66519467D01*
X111804734Y-66632735D01*
X111993092Y-66710756D01*
X111996848Y-66711503D01*
X112024774Y-66851898D01*
X112102795Y-67040256D01*
X112216063Y-67209774D01*
X112360226Y-67353937D01*
X112529744Y-67467205D01*
X112718102Y-67545226D01*
X112918061Y-67585000D01*
X113121939Y-67585000D01*
X113321898Y-67545226D01*
X113510256Y-67467205D01*
X113669801Y-67360601D01*
X113702795Y-67440256D01*
X113816063Y-67609774D01*
X113960226Y-67753937D01*
X114129744Y-67867205D01*
X114318102Y-67945226D01*
X114518061Y-67985000D01*
X114580199Y-67985000D01*
X120251201Y-73656003D01*
X120274999Y-73685001D01*
X120303997Y-73708799D01*
X120390723Y-73779974D01*
X120522753Y-73850546D01*
X120666014Y-73894003D01*
X120777667Y-73905000D01*
X120777677Y-73905000D01*
X120814999Y-73908676D01*
X120852322Y-73905000D01*
X121020091Y-73905000D01*
X121026082Y-73919463D01*
X121205013Y-74187252D01*
X121432748Y-74414987D01*
X121700537Y-74593918D01*
X121998088Y-74717168D01*
X122313967Y-74780000D01*
X122636033Y-74780000D01*
X122951912Y-74717168D01*
X123249463Y-74593918D01*
X123517252Y-74414987D01*
X123744987Y-74187252D01*
X123923918Y-73919463D01*
X124047168Y-73621912D01*
X124110000Y-73306033D01*
X124110000Y-72983967D01*
X127340000Y-72983967D01*
X127340000Y-73306033D01*
X127402832Y-73621912D01*
X127526082Y-73919463D01*
X127705013Y-74187252D01*
X127932748Y-74414987D01*
X128200537Y-74593918D01*
X128498088Y-74717168D01*
X128813967Y-74780000D01*
X129136033Y-74780000D01*
X129451912Y-74717168D01*
X129749463Y-74593918D01*
X129906533Y-74488967D01*
X140285000Y-74488967D01*
X140285000Y-74811033D01*
X140347832Y-75126912D01*
X140471082Y-75424463D01*
X140650013Y-75692252D01*
X140877748Y-75919987D01*
X141145537Y-76098918D01*
X141443088Y-76222168D01*
X141758967Y-76285000D01*
X142081033Y-76285000D01*
X142396912Y-76222168D01*
X142694463Y-76098918D01*
X142962252Y-75919987D01*
X143170000Y-75712239D01*
X143377748Y-75919987D01*
X143645537Y-76098918D01*
X143943088Y-76222168D01*
X144258967Y-76285000D01*
X144581033Y-76285000D01*
X144896912Y-76222168D01*
X145194463Y-76098918D01*
X145462252Y-75919987D01*
X145670000Y-75712239D01*
X145877748Y-75919987D01*
X146145537Y-76098918D01*
X146443088Y-76222168D01*
X146758967Y-76285000D01*
X147081033Y-76285000D01*
X147396912Y-76222168D01*
X147694463Y-76098918D01*
X147962252Y-75919987D01*
X148189987Y-75692252D01*
X148368918Y-75424463D01*
X148492168Y-75126912D01*
X148555000Y-74811033D01*
X148555000Y-74488967D01*
X148492168Y-74173088D01*
X148368918Y-73875537D01*
X148189987Y-73607748D01*
X147962252Y-73380013D01*
X147694463Y-73201082D01*
X147396912Y-73077832D01*
X147081033Y-73015000D01*
X146758967Y-73015000D01*
X146443088Y-73077832D01*
X146145537Y-73201082D01*
X145877748Y-73380013D01*
X145670000Y-73587761D01*
X145462252Y-73380013D01*
X145194463Y-73201082D01*
X144896912Y-73077832D01*
X144581033Y-73015000D01*
X144258967Y-73015000D01*
X143943088Y-73077832D01*
X143645537Y-73201082D01*
X143377748Y-73380013D01*
X143170000Y-73587761D01*
X142962252Y-73380013D01*
X142694463Y-73201082D01*
X142396912Y-73077832D01*
X142081033Y-73015000D01*
X141758967Y-73015000D01*
X141443088Y-73077832D01*
X141145537Y-73201082D01*
X140877748Y-73380013D01*
X140650013Y-73607748D01*
X140471082Y-73875537D01*
X140347832Y-74173088D01*
X140285000Y-74488967D01*
X129906533Y-74488967D01*
X130017252Y-74414987D01*
X130244987Y-74187252D01*
X130423918Y-73919463D01*
X130547168Y-73621912D01*
X130610000Y-73306033D01*
X130610000Y-72983967D01*
X130547168Y-72668088D01*
X130541177Y-72653624D01*
X136887397Y-66307404D01*
X137455000Y-66307404D01*
X137455000Y-67992597D01*
X137482275Y-68269524D01*
X137590062Y-68624848D01*
X137765098Y-68952317D01*
X138000656Y-69239345D01*
X138287684Y-69474903D01*
X138615153Y-69649939D01*
X138970477Y-69757725D01*
X139340000Y-69794120D01*
X139709524Y-69757725D01*
X140064848Y-69649939D01*
X140392317Y-69474903D01*
X140679345Y-69239345D01*
X140914903Y-68952317D01*
X141089939Y-68624848D01*
X141197725Y-68269524D01*
X141225000Y-67992597D01*
X141225000Y-66307403D01*
X147615000Y-66307403D01*
X147615000Y-67992596D01*
X147642275Y-68269523D01*
X147750061Y-68624847D01*
X147925097Y-68952317D01*
X148160655Y-69239345D01*
X148447683Y-69474903D01*
X148775152Y-69649939D01*
X149130476Y-69757725D01*
X149500000Y-69794120D01*
X149869523Y-69757725D01*
X149931360Y-69738967D01*
X155035000Y-69738967D01*
X155035000Y-70061033D01*
X155097832Y-70376912D01*
X155221082Y-70674463D01*
X155400013Y-70942252D01*
X155627748Y-71169987D01*
X155895537Y-71348918D01*
X156193088Y-71472168D01*
X156508967Y-71535000D01*
X156831033Y-71535000D01*
X157146912Y-71472168D01*
X157444463Y-71348918D01*
X157712252Y-71169987D01*
X157939987Y-70942252D01*
X158118918Y-70674463D01*
X158242168Y-70376912D01*
X158305000Y-70061033D01*
X158305000Y-69738967D01*
X158242168Y-69423088D01*
X158118918Y-69125537D01*
X157939987Y-68857748D01*
X157712252Y-68630013D01*
X157444463Y-68451082D01*
X157146912Y-68327832D01*
X156831033Y-68265000D01*
X156508967Y-68265000D01*
X156193088Y-68327832D01*
X155895537Y-68451082D01*
X155627748Y-68630013D01*
X155400013Y-68857748D01*
X155221082Y-69125537D01*
X155097832Y-69423088D01*
X155035000Y-69738967D01*
X149931360Y-69738967D01*
X150224847Y-69649939D01*
X150552317Y-69474903D01*
X150839345Y-69239345D01*
X151074903Y-68952317D01*
X151249939Y-68624848D01*
X151357725Y-68269524D01*
X151385000Y-67992597D01*
X151385000Y-66307403D01*
X151357725Y-66030476D01*
X151249939Y-65675152D01*
X151074903Y-65347683D01*
X150839345Y-65060655D01*
X150552317Y-64825097D01*
X150224848Y-64650061D01*
X149869524Y-64542275D01*
X149500000Y-64505880D01*
X149130477Y-64542275D01*
X148775153Y-64650061D01*
X148447684Y-64825097D01*
X148160656Y-65060655D01*
X147925098Y-65347683D01*
X147750062Y-65675152D01*
X147642275Y-66030476D01*
X147615000Y-66307403D01*
X141225000Y-66307403D01*
X141197725Y-66030476D01*
X141089939Y-65675152D01*
X140914903Y-65347683D01*
X140679345Y-65060655D01*
X140392317Y-64825097D01*
X140064847Y-64650061D01*
X139709523Y-64542275D01*
X139340000Y-64505880D01*
X138970476Y-64542275D01*
X138615152Y-64650061D01*
X138287683Y-64825097D01*
X138000655Y-65060655D01*
X137765097Y-65347683D01*
X137590061Y-65675153D01*
X137482275Y-66030477D01*
X137455000Y-66307404D01*
X136887397Y-66307404D01*
X137057004Y-66137798D01*
X137086001Y-66114001D01*
X137130529Y-66059744D01*
X137180974Y-65998277D01*
X137251546Y-65866247D01*
X137264589Y-65823248D01*
X137295003Y-65722986D01*
X137306000Y-65611333D01*
X137306000Y-65611323D01*
X137309676Y-65574000D01*
X137306000Y-65536677D01*
X137306000Y-60300178D01*
X137492632Y-60175475D01*
X137679140Y-59988967D01*
X140285000Y-59988967D01*
X140285000Y-60311033D01*
X140347832Y-60626912D01*
X140471082Y-60924463D01*
X140650013Y-61192252D01*
X140877748Y-61419987D01*
X141145537Y-61598918D01*
X141443088Y-61722168D01*
X141758967Y-61785000D01*
X142081033Y-61785000D01*
X142396912Y-61722168D01*
X142694463Y-61598918D01*
X142962252Y-61419987D01*
X143189987Y-61192252D01*
X143368918Y-60924463D01*
X143492168Y-60626912D01*
X143555000Y-60311033D01*
X143555000Y-59988967D01*
X143492168Y-59673088D01*
X143368918Y-59375537D01*
X143189987Y-59107748D01*
X142962252Y-58880013D01*
X142819249Y-58784462D01*
X142837711Y-58766000D01*
X146048380Y-58766000D01*
X145877748Y-58880013D01*
X145650013Y-59107748D01*
X145471082Y-59375537D01*
X145347832Y-59673088D01*
X145285000Y-59988967D01*
X145285000Y-60311033D01*
X145347832Y-60626912D01*
X145471082Y-60924463D01*
X145650013Y-61192252D01*
X145877748Y-61419987D01*
X146145537Y-61598918D01*
X146443088Y-61722168D01*
X146758967Y-61785000D01*
X147081033Y-61785000D01*
X147396912Y-61722168D01*
X147694463Y-61598918D01*
X147962252Y-61419987D01*
X148189987Y-61192252D01*
X148368918Y-60924463D01*
X148492168Y-60626912D01*
X148555000Y-60311033D01*
X148555000Y-60298740D01*
X149090000Y-60298740D01*
X149090000Y-60591260D01*
X149147068Y-60878158D01*
X149259010Y-61148411D01*
X149421525Y-61391632D01*
X149628368Y-61598475D01*
X149871589Y-61760990D01*
X150141842Y-61872932D01*
X150428740Y-61930000D01*
X150721260Y-61930000D01*
X151008158Y-61872932D01*
X151278411Y-61760990D01*
X151521632Y-61598475D01*
X151653487Y-61466620D01*
X151675498Y-61539180D01*
X151734463Y-61649494D01*
X151813815Y-61746185D01*
X151910506Y-61825537D01*
X152020820Y-61884502D01*
X152140518Y-61920812D01*
X152265000Y-61933072D01*
X152460674Y-61933072D01*
X152480026Y-61969276D01*
X152524946Y-62024010D01*
X152575000Y-62085001D01*
X152603998Y-62108799D01*
X154756201Y-64261003D01*
X154779999Y-64290001D01*
X154808997Y-64313799D01*
X154895723Y-64384974D01*
X155021246Y-64452068D01*
X155027753Y-64455546D01*
X155171014Y-64499003D01*
X155282667Y-64510000D01*
X155282677Y-64510000D01*
X155320000Y-64513676D01*
X155357323Y-64510000D01*
X156138954Y-64510000D01*
X156189463Y-64604494D01*
X156268815Y-64701185D01*
X156365506Y-64780537D01*
X156475820Y-64839502D01*
X156595518Y-64875812D01*
X156720000Y-64888072D01*
X158220000Y-64888072D01*
X158344482Y-64875812D01*
X158464180Y-64839502D01*
X158574494Y-64780537D01*
X158671185Y-64701185D01*
X158750537Y-64604494D01*
X158809502Y-64494180D01*
X158845812Y-64374482D01*
X158858072Y-64250000D01*
X158858072Y-63250000D01*
X158845812Y-63125518D01*
X158809502Y-63005820D01*
X158750537Y-62895506D01*
X158671185Y-62798815D01*
X158574494Y-62719463D01*
X158464180Y-62660498D01*
X158344482Y-62624188D01*
X158220000Y-62611928D01*
X156720000Y-62611928D01*
X156595518Y-62624188D01*
X156475820Y-62660498D01*
X156365506Y-62719463D01*
X156268815Y-62798815D01*
X156189463Y-62895506D01*
X156138954Y-62990000D01*
X155634802Y-62990000D01*
X154402345Y-61757543D01*
X154416185Y-61746185D01*
X154495537Y-61649494D01*
X154554502Y-61539180D01*
X154590812Y-61419482D01*
X154603072Y-61295000D01*
X154603072Y-61050000D01*
X156081928Y-61050000D01*
X156094188Y-61174482D01*
X156130498Y-61294180D01*
X156189463Y-61404494D01*
X156268815Y-61501185D01*
X156365506Y-61580537D01*
X156475820Y-61639502D01*
X156595518Y-61675812D01*
X156720000Y-61688072D01*
X157184250Y-61685000D01*
X157343000Y-61526250D01*
X157343000Y-60677000D01*
X157597000Y-60677000D01*
X157597000Y-61526250D01*
X157755750Y-61685000D01*
X158220000Y-61688072D01*
X158344482Y-61675812D01*
X158464180Y-61639502D01*
X158574494Y-61580537D01*
X158671185Y-61501185D01*
X158750537Y-61404494D01*
X158809502Y-61294180D01*
X158845812Y-61174482D01*
X158858072Y-61050000D01*
X158855000Y-60835750D01*
X158696250Y-60677000D01*
X157597000Y-60677000D01*
X157343000Y-60677000D01*
X156243750Y-60677000D01*
X156085000Y-60835750D01*
X156081928Y-61050000D01*
X154603072Y-61050000D01*
X154603072Y-60050000D01*
X156081928Y-60050000D01*
X156085000Y-60264250D01*
X156243750Y-60423000D01*
X157343000Y-60423000D01*
X157343000Y-59573750D01*
X157597000Y-59573750D01*
X157597000Y-60423000D01*
X158696250Y-60423000D01*
X158855000Y-60264250D01*
X158858072Y-60050000D01*
X158845812Y-59925518D01*
X158809502Y-59805820D01*
X158750537Y-59695506D01*
X158671185Y-59598815D01*
X158574494Y-59519463D01*
X158464180Y-59460498D01*
X158344482Y-59424188D01*
X158220000Y-59411928D01*
X157755750Y-59415000D01*
X157597000Y-59573750D01*
X157343000Y-59573750D01*
X157184250Y-59415000D01*
X156720000Y-59411928D01*
X156595518Y-59424188D01*
X156475820Y-59460498D01*
X156365506Y-59519463D01*
X156268815Y-59598815D01*
X156189463Y-59695506D01*
X156130498Y-59805820D01*
X156094188Y-59925518D01*
X156081928Y-60050000D01*
X154603072Y-60050000D01*
X154603072Y-59595000D01*
X154590812Y-59470518D01*
X154554502Y-59350820D01*
X154495537Y-59240506D01*
X154416185Y-59143815D01*
X154319494Y-59064463D01*
X154209180Y-59005498D01*
X154089482Y-58969188D01*
X153965000Y-58956928D01*
X152265000Y-58956928D01*
X152140518Y-58969188D01*
X152020820Y-59005498D01*
X151910506Y-59064463D01*
X151813815Y-59143815D01*
X151734463Y-59240506D01*
X151675498Y-59350820D01*
X151653487Y-59423380D01*
X151521632Y-59291525D01*
X151278411Y-59129010D01*
X151008158Y-59017068D01*
X150721260Y-58960000D01*
X150428740Y-58960000D01*
X150141842Y-59017068D01*
X149871589Y-59129010D01*
X149628368Y-59291525D01*
X149421525Y-59498368D01*
X149259010Y-59741589D01*
X149147068Y-60011842D01*
X149090000Y-60298740D01*
X148555000Y-60298740D01*
X148555000Y-59988967D01*
X148492168Y-59673088D01*
X148368918Y-59375537D01*
X148189987Y-59107748D01*
X147962252Y-58880013D01*
X147791620Y-58766000D01*
X159511199Y-58766000D01*
X160981928Y-60236730D01*
X160981928Y-61050000D01*
X160994188Y-61174482D01*
X161030498Y-61294180D01*
X161063832Y-61356543D01*
X160879744Y-61432795D01*
X160710226Y-61546063D01*
X160566063Y-61690226D01*
X160452795Y-61859744D01*
X160374774Y-62048102D01*
X160335000Y-62248061D01*
X160335000Y-62451939D01*
X160374774Y-62651898D01*
X160452795Y-62840256D01*
X160566063Y-63009774D01*
X160710226Y-63153937D01*
X160879744Y-63267205D01*
X160981928Y-63309531D01*
X160981928Y-64250000D01*
X160994188Y-64374482D01*
X161030498Y-64494180D01*
X161089463Y-64604494D01*
X161168815Y-64701185D01*
X161265506Y-64780537D01*
X161375820Y-64839502D01*
X161495518Y-64875812D01*
X161620000Y-64888072D01*
X163120000Y-64888072D01*
X163244482Y-64875812D01*
X163364180Y-64839502D01*
X163474494Y-64780537D01*
X163571185Y-64701185D01*
X163650537Y-64604494D01*
X163709502Y-64494180D01*
X163745812Y-64374482D01*
X163758072Y-64250000D01*
X163758072Y-63270181D01*
X163765256Y-63267205D01*
X163934774Y-63153937D01*
X164078937Y-63009774D01*
X164192205Y-62840256D01*
X164270226Y-62651898D01*
X164310000Y-62451939D01*
X164310000Y-62248061D01*
X164270226Y-62048102D01*
X164192205Y-61859744D01*
X164078937Y-61690226D01*
X163934774Y-61546063D01*
X163765256Y-61432795D01*
X163658947Y-61388760D01*
X163709502Y-61294180D01*
X163745812Y-61174482D01*
X163758072Y-61050000D01*
X163758072Y-60050000D01*
X163745812Y-59925518D01*
X163709502Y-59805820D01*
X163650537Y-59695506D01*
X163571185Y-59598815D01*
X163474494Y-59519463D01*
X163364180Y-59460498D01*
X163244482Y-59424188D01*
X163120000Y-59411928D01*
X162306730Y-59411928D01*
X160737572Y-57842771D01*
X160949872Y-57885000D01*
X161390128Y-57885000D01*
X161821925Y-57799110D01*
X162228669Y-57630631D01*
X162594729Y-57386038D01*
X162906038Y-57074729D01*
X163150631Y-56708669D01*
X163319110Y-56301925D01*
X163405000Y-55870128D01*
X163405000Y-55429872D01*
X163319110Y-54998075D01*
X163150631Y-54591331D01*
X162906038Y-54225271D01*
X162594729Y-53913962D01*
X162228669Y-53669369D01*
X161821925Y-53500890D01*
X161390128Y-53415000D01*
X160949872Y-53415000D01*
X160518075Y-53500890D01*
X160111331Y-53669369D01*
X159745271Y-53913962D01*
X159433962Y-54225271D01*
X159189369Y-54591331D01*
X159020890Y-54998075D01*
X158935000Y-55429872D01*
X158935000Y-55870128D01*
X159020890Y-56301925D01*
X159189369Y-56708669D01*
X159433962Y-57074729D01*
X159605233Y-57246000D01*
X142837711Y-57246000D01*
X142793774Y-57202063D01*
X142624256Y-57088795D01*
X142435898Y-57010774D01*
X142235939Y-56971000D01*
X142032061Y-56971000D01*
X141832102Y-57010774D01*
X141643744Y-57088795D01*
X141474226Y-57202063D01*
X141330063Y-57346226D01*
X141216795Y-57515744D01*
X141138774Y-57704102D01*
X141099000Y-57904061D01*
X141099000Y-58107939D01*
X141138774Y-58307898D01*
X141216795Y-58496256D01*
X141308541Y-58633563D01*
X141145537Y-58701082D01*
X140877748Y-58880013D01*
X140650013Y-59107748D01*
X140471082Y-59375537D01*
X140347832Y-59673088D01*
X140285000Y-59988967D01*
X137679140Y-59988967D01*
X137699475Y-59968632D01*
X137861990Y-59725411D01*
X137973932Y-59455158D01*
X138031000Y-59168260D01*
X138031000Y-58875740D01*
X137973932Y-58588842D01*
X137861990Y-58318589D01*
X137699475Y-58075368D01*
X137492632Y-57868525D01*
X137318240Y-57752000D01*
X137492632Y-57635475D01*
X137699475Y-57428632D01*
X137861990Y-57185411D01*
X137973932Y-56915158D01*
X138031000Y-56628260D01*
X138031000Y-56335740D01*
X137973932Y-56048842D01*
X137861990Y-55778589D01*
X137699475Y-55535368D01*
X137567620Y-55403513D01*
X137640180Y-55381502D01*
X137750494Y-55322537D01*
X137847185Y-55243185D01*
X137926537Y-55146494D01*
X137985502Y-55036180D01*
X138021812Y-54916482D01*
X138034072Y-54792000D01*
X138034072Y-53092000D01*
X138021812Y-52967518D01*
X137985502Y-52847820D01*
X137926537Y-52737506D01*
X137847185Y-52640815D01*
X137750494Y-52561463D01*
X137640180Y-52502498D01*
X137520482Y-52466188D01*
X137396000Y-52453928D01*
X135696000Y-52453928D01*
X135571518Y-52466188D01*
X135451820Y-52502498D01*
X135341506Y-52561463D01*
X135244815Y-52640815D01*
X135165463Y-52737506D01*
X135106498Y-52847820D01*
X135083502Y-52923626D01*
X134887355Y-52746822D01*
X134637252Y-52597843D01*
X134362891Y-52500519D01*
X134133000Y-52621186D01*
X134133000Y-53815000D01*
X134153000Y-53815000D01*
X134153000Y-54069000D01*
X134133000Y-54069000D01*
X134133000Y-54089000D01*
X133879000Y-54089000D01*
X133879000Y-54069000D01*
X132685845Y-54069000D01*
X132564524Y-54298890D01*
X132609175Y-54446099D01*
X132734359Y-54708920D01*
X132816352Y-54818846D01*
X131209003Y-56426196D01*
X131179999Y-56449999D01*
X131138132Y-56501015D01*
X131085026Y-56565724D01*
X131051600Y-56628260D01*
X131014454Y-56697754D01*
X130970997Y-56841015D01*
X130960000Y-56952668D01*
X130960000Y-56952678D01*
X130956324Y-56990000D01*
X130960000Y-57027322D01*
X130960001Y-66073197D01*
X130664199Y-66369000D01*
X130602061Y-66369000D01*
X130402102Y-66408774D01*
X130213744Y-66486795D01*
X130044226Y-66600063D01*
X129900063Y-66744226D01*
X129786795Y-66913744D01*
X129708774Y-67102102D01*
X129669000Y-67302061D01*
X129669000Y-67505939D01*
X129708774Y-67705898D01*
X129786795Y-67894256D01*
X129900063Y-68063774D01*
X130044226Y-68207937D01*
X130213744Y-68321205D01*
X130402102Y-68399226D01*
X130602061Y-68439000D01*
X130805939Y-68439000D01*
X130824835Y-68435241D01*
X130916063Y-68571774D01*
X131060226Y-68715937D01*
X131229744Y-68829205D01*
X131418102Y-68907226D01*
X131618061Y-68947000D01*
X131821939Y-68947000D01*
X132021898Y-68907226D01*
X132210256Y-68829205D01*
X132227547Y-68817652D01*
X129466376Y-71578823D01*
X129451912Y-71572832D01*
X129136033Y-71510000D01*
X128813967Y-71510000D01*
X128498088Y-71572832D01*
X128200537Y-71696082D01*
X127932748Y-71875013D01*
X127705013Y-72102748D01*
X127526082Y-72370537D01*
X127402832Y-72668088D01*
X127340000Y-72983967D01*
X124110000Y-72983967D01*
X124047168Y-72668088D01*
X123923918Y-72370537D01*
X123744987Y-72102748D01*
X123517252Y-71875013D01*
X123249463Y-71696082D01*
X122951912Y-71572832D01*
X122636033Y-71510000D01*
X122313967Y-71510000D01*
X121998088Y-71572832D01*
X121700537Y-71696082D01*
X121432748Y-71875013D01*
X121205013Y-72102748D01*
X121061833Y-72317031D01*
X115655000Y-66910199D01*
X115655000Y-66848061D01*
X115615226Y-66648102D01*
X115537205Y-66459744D01*
X115423937Y-66290226D01*
X115279774Y-66146063D01*
X115110256Y-66032795D01*
X114921898Y-65954774D01*
X114721939Y-65915000D01*
X114518061Y-65915000D01*
X114318102Y-65954774D01*
X114129744Y-66032795D01*
X113970199Y-66139399D01*
X113937205Y-66059744D01*
X113823937Y-65890226D01*
X113780000Y-65846289D01*
X113780000Y-56964801D01*
X116645513Y-54099288D01*
X116872510Y-54193314D01*
X117142408Y-54247000D01*
X117417592Y-54247000D01*
X117687490Y-54193314D01*
X117941727Y-54088005D01*
X118170535Y-53935120D01*
X118365120Y-53740535D01*
X118468971Y-53585110D01*
X132564524Y-53585110D01*
X132685845Y-53815000D01*
X133879000Y-53815000D01*
X133879000Y-52621186D01*
X133649109Y-52500519D01*
X133374748Y-52597843D01*
X133124645Y-52746822D01*
X132908412Y-52941731D01*
X132734359Y-53175080D01*
X132609175Y-53437901D01*
X132564524Y-53585110D01*
X118468971Y-53585110D01*
X118518005Y-53511727D01*
X118623314Y-53257490D01*
X118677000Y-52987592D01*
X118677000Y-52712408D01*
X118623314Y-52442510D01*
X118518005Y-52188273D01*
X118365120Y-51959465D01*
X118170535Y-51764880D01*
X117941727Y-51611995D01*
X117687490Y-51506686D01*
X117417592Y-51453000D01*
X117142408Y-51453000D01*
X116872510Y-51506686D01*
X116618273Y-51611995D01*
X116389465Y-51764880D01*
X116194880Y-51959465D01*
X116041995Y-52188273D01*
X116010000Y-52265515D01*
X115978005Y-52188273D01*
X115825120Y-51959465D01*
X115630535Y-51764880D01*
X115401727Y-51611995D01*
X115147490Y-51506686D01*
X114877592Y-51453000D01*
X114602408Y-51453000D01*
X114332510Y-51506686D01*
X114078273Y-51611995D01*
X113849465Y-51764880D01*
X113654880Y-51959465D01*
X113501995Y-52188273D01*
X113470000Y-52265515D01*
X113438005Y-52188273D01*
X113285120Y-51959465D01*
X113090535Y-51764880D01*
X112861727Y-51611995D01*
X112607490Y-51506686D01*
X112337592Y-51453000D01*
X112062408Y-51453000D01*
X111792510Y-51506686D01*
X111538273Y-51611995D01*
X111309465Y-51764880D01*
X111114880Y-51959465D01*
X110961995Y-52188273D01*
X110930000Y-52265515D01*
X110898005Y-52188273D01*
X110745120Y-51959465D01*
X110550535Y-51764880D01*
X110321727Y-51611995D01*
X110067490Y-51506686D01*
X109797592Y-51453000D01*
X109522408Y-51453000D01*
X109252510Y-51506686D01*
X108998273Y-51611995D01*
X108769465Y-51764880D01*
X108574880Y-51959465D01*
X108421995Y-52188273D01*
X108316686Y-52442510D01*
X108263000Y-52712408D01*
X85830000Y-52712408D01*
X85830000Y-50310000D01*
X164510000Y-50310000D01*
X164510001Y-68962531D01*
G37*
G04 #@! TD.AperFunction*
M02*
