G04 #@! TF.GenerationSoftware,KiCad,Pcbnew,(5.1.9)-1*
G04 #@! TF.CreationDate,2021-05-05T15:50:03+02:00*
G04 #@! TF.ProjectId,V0_Display,56305f44-6973-4706-9c61-792e6b696361,rev?*
G04 #@! TF.SameCoordinates,Original*
G04 #@! TF.FileFunction,Legend,Top*
G04 #@! TF.FilePolarity,Positive*
%FSLAX46Y46*%
G04 Gerber Fmt 4.6, Leading zero omitted, Abs format (unit mm)*
G04 Created by KiCad (PCBNEW (5.1.9)-1) date 2021-05-05 15:50:03*
%MOMM*%
%LPD*%
G01*
G04 APERTURE LIST*
%ADD10C,0.250000*%
%ADD11C,0.075000*%
%ADD12C,0.150000*%
%ADD13C,0.100000*%
%ADD14C,0.010000*%
%ADD15C,0.120000*%
G04 APERTURE END LIST*
D10*
X106803333Y-55662142D02*
X106755714Y-55709761D01*
X106612857Y-55757380D01*
X106517619Y-55757380D01*
X106374761Y-55709761D01*
X106279523Y-55614523D01*
X106231904Y-55519285D01*
X106184285Y-55328809D01*
X106184285Y-55185952D01*
X106231904Y-54995476D01*
X106279523Y-54900238D01*
X106374761Y-54805000D01*
X106517619Y-54757380D01*
X106612857Y-54757380D01*
X106755714Y-54805000D01*
X106803333Y-54852619D01*
X107231904Y-55757380D02*
X107231904Y-54757380D01*
X107660476Y-55757380D02*
X107660476Y-55233571D01*
X107612857Y-55138333D01*
X107517619Y-55090714D01*
X107374761Y-55090714D01*
X107279523Y-55138333D01*
X107231904Y-55185952D01*
X108517619Y-55709761D02*
X108422380Y-55757380D01*
X108231904Y-55757380D01*
X108136666Y-55709761D01*
X108089047Y-55614523D01*
X108089047Y-55233571D01*
X108136666Y-55138333D01*
X108231904Y-55090714D01*
X108422380Y-55090714D01*
X108517619Y-55138333D01*
X108565238Y-55233571D01*
X108565238Y-55328809D01*
X108089047Y-55424047D01*
X109422380Y-55709761D02*
X109327142Y-55757380D01*
X109136666Y-55757380D01*
X109041428Y-55709761D01*
X108993809Y-55662142D01*
X108946190Y-55566904D01*
X108946190Y-55281190D01*
X108993809Y-55185952D01*
X109041428Y-55138333D01*
X109136666Y-55090714D01*
X109327142Y-55090714D01*
X109422380Y-55138333D01*
X109850952Y-55757380D02*
X109850952Y-54757380D01*
X109946190Y-55376428D02*
X110231904Y-55757380D01*
X110231904Y-55090714D02*
X109850952Y-55471666D01*
X111279523Y-55090714D02*
X111660476Y-55090714D01*
X111422380Y-54757380D02*
X111422380Y-55614523D01*
X111470000Y-55709761D01*
X111565238Y-55757380D01*
X111660476Y-55757380D01*
X111993809Y-55757380D02*
X111993809Y-54757380D01*
X112422380Y-55757380D02*
X112422380Y-55233571D01*
X112374761Y-55138333D01*
X112279523Y-55090714D01*
X112136666Y-55090714D01*
X112041428Y-55138333D01*
X111993809Y-55185952D01*
X113279523Y-55709761D02*
X113184285Y-55757380D01*
X112993809Y-55757380D01*
X112898571Y-55709761D01*
X112850952Y-55614523D01*
X112850952Y-55233571D01*
X112898571Y-55138333D01*
X112993809Y-55090714D01*
X113184285Y-55090714D01*
X113279523Y-55138333D01*
X113327142Y-55233571D01*
X113327142Y-55328809D01*
X112850952Y-55424047D01*
X114517619Y-55090714D02*
X114517619Y-55947857D01*
X114470000Y-56043095D01*
X114374761Y-56090714D01*
X114327142Y-56090714D01*
X114517619Y-54757380D02*
X114470000Y-54805000D01*
X114517619Y-54852619D01*
X114565238Y-54805000D01*
X114517619Y-54757380D01*
X114517619Y-54852619D01*
X115422380Y-55090714D02*
X115422380Y-55757380D01*
X114993809Y-55090714D02*
X114993809Y-55614523D01*
X115041428Y-55709761D01*
X115136666Y-55757380D01*
X115279523Y-55757380D01*
X115374761Y-55709761D01*
X115422380Y-55662142D01*
X115898571Y-55757380D02*
X115898571Y-55090714D01*
X115898571Y-55185952D02*
X115946190Y-55138333D01*
X116041428Y-55090714D01*
X116184285Y-55090714D01*
X116279523Y-55138333D01*
X116327142Y-55233571D01*
X116327142Y-55757380D01*
X116327142Y-55233571D02*
X116374761Y-55138333D01*
X116470000Y-55090714D01*
X116612857Y-55090714D01*
X116708095Y-55138333D01*
X116755714Y-55233571D01*
X116755714Y-55757380D01*
X117231904Y-55090714D02*
X117231904Y-56090714D01*
X117231904Y-55138333D02*
X117327142Y-55090714D01*
X117517619Y-55090714D01*
X117612857Y-55138333D01*
X117660476Y-55185952D01*
X117708095Y-55281190D01*
X117708095Y-55566904D01*
X117660476Y-55662142D01*
X117612857Y-55709761D01*
X117517619Y-55757380D01*
X117327142Y-55757380D01*
X117231904Y-55709761D01*
X118517619Y-55709761D02*
X118422380Y-55757380D01*
X118231904Y-55757380D01*
X118136666Y-55709761D01*
X118089047Y-55614523D01*
X118089047Y-55233571D01*
X118136666Y-55138333D01*
X118231904Y-55090714D01*
X118422380Y-55090714D01*
X118517619Y-55138333D01*
X118565238Y-55233571D01*
X118565238Y-55328809D01*
X118089047Y-55424047D01*
X118993809Y-55757380D02*
X118993809Y-55090714D01*
X118993809Y-55281190D02*
X119041428Y-55185952D01*
X119089047Y-55138333D01*
X119184285Y-55090714D01*
X119279523Y-55090714D01*
X119565238Y-55709761D02*
X119660476Y-55757380D01*
X119850952Y-55757380D01*
X119946190Y-55709761D01*
X119993809Y-55614523D01*
X119993809Y-55566904D01*
X119946190Y-55471666D01*
X119850952Y-55424047D01*
X119708095Y-55424047D01*
X119612857Y-55376428D01*
X119565238Y-55281190D01*
X119565238Y-55233571D01*
X119612857Y-55138333D01*
X119708095Y-55090714D01*
X119850952Y-55090714D01*
X119946190Y-55138333D01*
X105446190Y-57507380D02*
X105350952Y-57459761D01*
X105303333Y-57412142D01*
X105255714Y-57316904D01*
X105255714Y-57031190D01*
X105303333Y-56935952D01*
X105350952Y-56888333D01*
X105446190Y-56840714D01*
X105589047Y-56840714D01*
X105684285Y-56888333D01*
X105731904Y-56935952D01*
X105779523Y-57031190D01*
X105779523Y-57316904D01*
X105731904Y-57412142D01*
X105684285Y-57459761D01*
X105589047Y-57507380D01*
X105446190Y-57507380D01*
X106208095Y-56840714D02*
X106208095Y-57507380D01*
X106208095Y-56935952D02*
X106255714Y-56888333D01*
X106350952Y-56840714D01*
X106493809Y-56840714D01*
X106589047Y-56888333D01*
X106636666Y-56983571D01*
X106636666Y-57507380D01*
X107731904Y-56840714D02*
X108112857Y-56840714D01*
X107874761Y-56507380D02*
X107874761Y-57364523D01*
X107922380Y-57459761D01*
X108017619Y-57507380D01*
X108112857Y-57507380D01*
X108446190Y-57507380D02*
X108446190Y-56507380D01*
X108874761Y-57507380D02*
X108874761Y-56983571D01*
X108827142Y-56888333D01*
X108731904Y-56840714D01*
X108589047Y-56840714D01*
X108493809Y-56888333D01*
X108446190Y-56935952D01*
X109731904Y-57459761D02*
X109636666Y-57507380D01*
X109446190Y-57507380D01*
X109350952Y-57459761D01*
X109303333Y-57364523D01*
X109303333Y-56983571D01*
X109350952Y-56888333D01*
X109446190Y-56840714D01*
X109636666Y-56840714D01*
X109731904Y-56888333D01*
X109779523Y-56983571D01*
X109779523Y-57078809D01*
X109303333Y-57174047D01*
X110970000Y-57507380D02*
X110970000Y-56507380D01*
X110970000Y-56888333D02*
X111065238Y-56840714D01*
X111255714Y-56840714D01*
X111350952Y-56888333D01*
X111398571Y-56935952D01*
X111446190Y-57031190D01*
X111446190Y-57316904D01*
X111398571Y-57412142D01*
X111350952Y-57459761D01*
X111255714Y-57507380D01*
X111065238Y-57507380D01*
X110970000Y-57459761D01*
X112303333Y-57507380D02*
X112303333Y-56983571D01*
X112255714Y-56888333D01*
X112160476Y-56840714D01*
X111970000Y-56840714D01*
X111874761Y-56888333D01*
X112303333Y-57459761D02*
X112208095Y-57507380D01*
X111970000Y-57507380D01*
X111874761Y-57459761D01*
X111827142Y-57364523D01*
X111827142Y-57269285D01*
X111874761Y-57174047D01*
X111970000Y-57126428D01*
X112208095Y-57126428D01*
X112303333Y-57078809D01*
X113208095Y-57459761D02*
X113112857Y-57507380D01*
X112922380Y-57507380D01*
X112827142Y-57459761D01*
X112779523Y-57412142D01*
X112731904Y-57316904D01*
X112731904Y-57031190D01*
X112779523Y-56935952D01*
X112827142Y-56888333D01*
X112922380Y-56840714D01*
X113112857Y-56840714D01*
X113208095Y-56888333D01*
X113636666Y-57507380D02*
X113636666Y-56507380D01*
X113731904Y-57126428D02*
X114017619Y-57507380D01*
X114017619Y-56840714D02*
X113636666Y-57221666D01*
X115065238Y-56840714D02*
X115446190Y-56840714D01*
X115208095Y-56507380D02*
X115208095Y-57364523D01*
X115255714Y-57459761D01*
X115350952Y-57507380D01*
X115446190Y-57507380D01*
X115922380Y-57507380D02*
X115827142Y-57459761D01*
X115779523Y-57412142D01*
X115731904Y-57316904D01*
X115731904Y-57031190D01*
X115779523Y-56935952D01*
X115827142Y-56888333D01*
X115922380Y-56840714D01*
X116065238Y-56840714D01*
X116160476Y-56888333D01*
X116208095Y-56935952D01*
X116255714Y-57031190D01*
X116255714Y-57316904D01*
X116208095Y-57412142D01*
X116160476Y-57459761D01*
X116065238Y-57507380D01*
X115922380Y-57507380D01*
X117446190Y-57507380D02*
X117446190Y-56840714D01*
X117446190Y-56935952D02*
X117493809Y-56888333D01*
X117589047Y-56840714D01*
X117731904Y-56840714D01*
X117827142Y-56888333D01*
X117874761Y-56983571D01*
X117874761Y-57507380D01*
X117874761Y-56983571D02*
X117922380Y-56888333D01*
X118017619Y-56840714D01*
X118160476Y-56840714D01*
X118255714Y-56888333D01*
X118303333Y-56983571D01*
X118303333Y-57507380D01*
X119208095Y-57507380D02*
X119208095Y-56983571D01*
X119160476Y-56888333D01*
X119065238Y-56840714D01*
X118874761Y-56840714D01*
X118779523Y-56888333D01*
X119208095Y-57459761D02*
X119112857Y-57507380D01*
X118874761Y-57507380D01*
X118779523Y-57459761D01*
X118731904Y-57364523D01*
X118731904Y-57269285D01*
X118779523Y-57174047D01*
X118874761Y-57126428D01*
X119112857Y-57126428D01*
X119208095Y-57078809D01*
X119684285Y-57507380D02*
X119684285Y-56507380D01*
X119779523Y-57126428D02*
X120065238Y-57507380D01*
X120065238Y-56840714D02*
X119684285Y-57221666D01*
X120874761Y-57459761D02*
X120779523Y-57507380D01*
X120589047Y-57507380D01*
X120493809Y-57459761D01*
X120446190Y-57364523D01*
X120446190Y-56983571D01*
X120493809Y-56888333D01*
X120589047Y-56840714D01*
X120779523Y-56840714D01*
X120874761Y-56888333D01*
X120922380Y-56983571D01*
X120922380Y-57078809D01*
X120446190Y-57174047D01*
X104470000Y-59209761D02*
X104565238Y-59257380D01*
X104755714Y-59257380D01*
X104850952Y-59209761D01*
X104898571Y-59114523D01*
X104898571Y-59066904D01*
X104850952Y-58971666D01*
X104755714Y-58924047D01*
X104612857Y-58924047D01*
X104517619Y-58876428D01*
X104470000Y-58781190D01*
X104470000Y-58733571D01*
X104517619Y-58638333D01*
X104612857Y-58590714D01*
X104755714Y-58590714D01*
X104850952Y-58638333D01*
X105755714Y-58590714D02*
X105755714Y-59257380D01*
X105327142Y-58590714D02*
X105327142Y-59114523D01*
X105374761Y-59209761D01*
X105470000Y-59257380D01*
X105612857Y-59257380D01*
X105708095Y-59209761D01*
X105755714Y-59162142D01*
X106231904Y-59257380D02*
X106231904Y-58590714D01*
X106231904Y-58781190D02*
X106279523Y-58685952D01*
X106327142Y-58638333D01*
X106422380Y-58590714D01*
X106517619Y-58590714D01*
X107231904Y-59209761D02*
X107136666Y-59257380D01*
X106946190Y-59257380D01*
X106850952Y-59209761D01*
X106803333Y-59114523D01*
X106803333Y-58733571D01*
X106850952Y-58638333D01*
X106946190Y-58590714D01*
X107136666Y-58590714D01*
X107231904Y-58638333D01*
X107279523Y-58733571D01*
X107279523Y-58828809D01*
X106803333Y-58924047D01*
X108327142Y-58590714D02*
X108708095Y-58590714D01*
X108470000Y-58257380D02*
X108470000Y-59114523D01*
X108517619Y-59209761D01*
X108612857Y-59257380D01*
X108708095Y-59257380D01*
X109041428Y-59257380D02*
X109041428Y-58257380D01*
X109470000Y-59257380D02*
X109470000Y-58733571D01*
X109422380Y-58638333D01*
X109327142Y-58590714D01*
X109184285Y-58590714D01*
X109089047Y-58638333D01*
X109041428Y-58685952D01*
X110327142Y-59209761D02*
X110231904Y-59257380D01*
X110041428Y-59257380D01*
X109946190Y-59209761D01*
X109898571Y-59114523D01*
X109898571Y-58733571D01*
X109946190Y-58638333D01*
X110041428Y-58590714D01*
X110231904Y-58590714D01*
X110327142Y-58638333D01*
X110374761Y-58733571D01*
X110374761Y-58828809D01*
X109898571Y-58924047D01*
X111565238Y-58590714D02*
X111565238Y-59590714D01*
X111565238Y-58638333D02*
X111660476Y-58590714D01*
X111850952Y-58590714D01*
X111946190Y-58638333D01*
X111993809Y-58685952D01*
X112041428Y-58781190D01*
X112041428Y-59066904D01*
X111993809Y-59162142D01*
X111946190Y-59209761D01*
X111850952Y-59257380D01*
X111660476Y-59257380D01*
X111565238Y-59209761D01*
X112612857Y-59257380D02*
X112517619Y-59209761D01*
X112470000Y-59162142D01*
X112422380Y-59066904D01*
X112422380Y-58781190D01*
X112470000Y-58685952D01*
X112517619Y-58638333D01*
X112612857Y-58590714D01*
X112755714Y-58590714D01*
X112850952Y-58638333D01*
X112898571Y-58685952D01*
X112946190Y-58781190D01*
X112946190Y-59066904D01*
X112898571Y-59162142D01*
X112850952Y-59209761D01*
X112755714Y-59257380D01*
X112612857Y-59257380D01*
X113279523Y-58590714D02*
X113470000Y-59257380D01*
X113660476Y-58781190D01*
X113850952Y-59257380D01*
X114041428Y-58590714D01*
X114803333Y-59209761D02*
X114708095Y-59257380D01*
X114517619Y-59257380D01*
X114422380Y-59209761D01*
X114374761Y-59114523D01*
X114374761Y-58733571D01*
X114422380Y-58638333D01*
X114517619Y-58590714D01*
X114708095Y-58590714D01*
X114803333Y-58638333D01*
X114850952Y-58733571D01*
X114850952Y-58828809D01*
X114374761Y-58924047D01*
X115279523Y-59257380D02*
X115279523Y-58590714D01*
X115279523Y-58781190D02*
X115327142Y-58685952D01*
X115374761Y-58638333D01*
X115470000Y-58590714D01*
X115565238Y-58590714D01*
X116660476Y-58590714D02*
X116660476Y-59590714D01*
X116660476Y-58638333D02*
X116755714Y-58590714D01*
X116946190Y-58590714D01*
X117041428Y-58638333D01*
X117089047Y-58685952D01*
X117136666Y-58781190D01*
X117136666Y-59066904D01*
X117089047Y-59162142D01*
X117041428Y-59209761D01*
X116946190Y-59257380D01*
X116755714Y-59257380D01*
X116660476Y-59209761D01*
X117565238Y-59257380D02*
X117565238Y-58590714D01*
X117565238Y-58257380D02*
X117517619Y-58305000D01*
X117565238Y-58352619D01*
X117612857Y-58305000D01*
X117565238Y-58257380D01*
X117565238Y-58352619D01*
X118041428Y-58590714D02*
X118041428Y-59257380D01*
X118041428Y-58685952D02*
X118089047Y-58638333D01*
X118184285Y-58590714D01*
X118327142Y-58590714D01*
X118422380Y-58638333D01*
X118470000Y-58733571D01*
X118470000Y-59257380D01*
X118898571Y-59209761D02*
X118993809Y-59257380D01*
X119184285Y-59257380D01*
X119279523Y-59209761D01*
X119327142Y-59114523D01*
X119327142Y-59066904D01*
X119279523Y-58971666D01*
X119184285Y-58924047D01*
X119041428Y-58924047D01*
X118946190Y-58876428D01*
X118898571Y-58781190D01*
X118898571Y-58733571D01*
X118946190Y-58638333D01*
X119041428Y-58590714D01*
X119184285Y-58590714D01*
X119279523Y-58638333D01*
X120946190Y-59257380D02*
X120946190Y-58733571D01*
X120898571Y-58638333D01*
X120803333Y-58590714D01*
X120612857Y-58590714D01*
X120517619Y-58638333D01*
X120946190Y-59209761D02*
X120850952Y-59257380D01*
X120612857Y-59257380D01*
X120517619Y-59209761D01*
X120470000Y-59114523D01*
X120470000Y-59019285D01*
X120517619Y-58924047D01*
X120612857Y-58876428D01*
X120850952Y-58876428D01*
X120946190Y-58828809D01*
X121422380Y-59257380D02*
X121422380Y-58590714D01*
X121422380Y-58781190D02*
X121470000Y-58685952D01*
X121517619Y-58638333D01*
X121612857Y-58590714D01*
X121708095Y-58590714D01*
X122422380Y-59209761D02*
X122327142Y-59257380D01*
X122136666Y-59257380D01*
X122041428Y-59209761D01*
X121993809Y-59114523D01*
X121993809Y-58733571D01*
X122041428Y-58638333D01*
X122136666Y-58590714D01*
X122327142Y-58590714D01*
X122422380Y-58638333D01*
X122470000Y-58733571D01*
X122470000Y-58828809D01*
X121993809Y-58924047D01*
X104089047Y-60959761D02*
X103993809Y-61007380D01*
X103803333Y-61007380D01*
X103708095Y-60959761D01*
X103660476Y-60912142D01*
X103612857Y-60816904D01*
X103612857Y-60531190D01*
X103660476Y-60435952D01*
X103708095Y-60388333D01*
X103803333Y-60340714D01*
X103993809Y-60340714D01*
X104089047Y-60388333D01*
X104660476Y-61007380D02*
X104565238Y-60959761D01*
X104517619Y-60912142D01*
X104470000Y-60816904D01*
X104470000Y-60531190D01*
X104517619Y-60435952D01*
X104565238Y-60388333D01*
X104660476Y-60340714D01*
X104803333Y-60340714D01*
X104898571Y-60388333D01*
X104946190Y-60435952D01*
X104993809Y-60531190D01*
X104993809Y-60816904D01*
X104946190Y-60912142D01*
X104898571Y-60959761D01*
X104803333Y-61007380D01*
X104660476Y-61007380D01*
X105422380Y-60340714D02*
X105422380Y-61007380D01*
X105422380Y-60435952D02*
X105470000Y-60388333D01*
X105565238Y-60340714D01*
X105708095Y-60340714D01*
X105803333Y-60388333D01*
X105850952Y-60483571D01*
X105850952Y-61007380D01*
X106184285Y-60340714D02*
X106565238Y-60340714D01*
X106327142Y-61007380D02*
X106327142Y-60150238D01*
X106374761Y-60055000D01*
X106470000Y-60007380D01*
X106565238Y-60007380D01*
X106898571Y-61007380D02*
X106898571Y-60340714D01*
X106898571Y-60007380D02*
X106850952Y-60055000D01*
X106898571Y-60102619D01*
X106946190Y-60055000D01*
X106898571Y-60007380D01*
X106898571Y-60102619D01*
X107803333Y-60340714D02*
X107803333Y-61150238D01*
X107755714Y-61245476D01*
X107708095Y-61293095D01*
X107612857Y-61340714D01*
X107470000Y-61340714D01*
X107374761Y-61293095D01*
X107803333Y-60959761D02*
X107708095Y-61007380D01*
X107517619Y-61007380D01*
X107422380Y-60959761D01*
X107374761Y-60912142D01*
X107327142Y-60816904D01*
X107327142Y-60531190D01*
X107374761Y-60435952D01*
X107422380Y-60388333D01*
X107517619Y-60340714D01*
X107708095Y-60340714D01*
X107803333Y-60388333D01*
X108708095Y-60340714D02*
X108708095Y-61007380D01*
X108279523Y-60340714D02*
X108279523Y-60864523D01*
X108327142Y-60959761D01*
X108422380Y-61007380D01*
X108565238Y-61007380D01*
X108660476Y-60959761D01*
X108708095Y-60912142D01*
X109184285Y-61007380D02*
X109184285Y-60340714D01*
X109184285Y-60531190D02*
X109231904Y-60435952D01*
X109279523Y-60388333D01*
X109374761Y-60340714D01*
X109470000Y-60340714D01*
X110184285Y-60959761D02*
X110089047Y-61007380D01*
X109898571Y-61007380D01*
X109803333Y-60959761D01*
X109755714Y-60864523D01*
X109755714Y-60483571D01*
X109803333Y-60388333D01*
X109898571Y-60340714D01*
X110089047Y-60340714D01*
X110184285Y-60388333D01*
X110231904Y-60483571D01*
X110231904Y-60578809D01*
X109755714Y-60674047D01*
X111089047Y-61007380D02*
X111089047Y-60007380D01*
X111089047Y-60959761D02*
X110993809Y-61007380D01*
X110803333Y-61007380D01*
X110708095Y-60959761D01*
X110660476Y-60912142D01*
X110612857Y-60816904D01*
X110612857Y-60531190D01*
X110660476Y-60435952D01*
X110708095Y-60388333D01*
X110803333Y-60340714D01*
X110993809Y-60340714D01*
X111089047Y-60388333D01*
X112184285Y-60340714D02*
X112565238Y-60340714D01*
X112327142Y-61007380D02*
X112327142Y-60150238D01*
X112374761Y-60055000D01*
X112470000Y-60007380D01*
X112565238Y-60007380D01*
X113041428Y-61007380D02*
X112946190Y-60959761D01*
X112898571Y-60912142D01*
X112850952Y-60816904D01*
X112850952Y-60531190D01*
X112898571Y-60435952D01*
X112946190Y-60388333D01*
X113041428Y-60340714D01*
X113184285Y-60340714D01*
X113279523Y-60388333D01*
X113327142Y-60435952D01*
X113374761Y-60531190D01*
X113374761Y-60816904D01*
X113327142Y-60912142D01*
X113279523Y-60959761D01*
X113184285Y-61007380D01*
X113041428Y-61007380D01*
X113803333Y-61007380D02*
X113803333Y-60340714D01*
X113803333Y-60531190D02*
X113850952Y-60435952D01*
X113898571Y-60388333D01*
X113993809Y-60340714D01*
X114089047Y-60340714D01*
X115089047Y-60340714D02*
X115327142Y-61007380D01*
X115565238Y-60340714D02*
X115327142Y-61007380D01*
X115231904Y-61245476D01*
X115184285Y-61293095D01*
X115089047Y-61340714D01*
X116089047Y-61007380D02*
X115993809Y-60959761D01*
X115946190Y-60912142D01*
X115898571Y-60816904D01*
X115898571Y-60531190D01*
X115946190Y-60435952D01*
X115993809Y-60388333D01*
X116089047Y-60340714D01*
X116231904Y-60340714D01*
X116327142Y-60388333D01*
X116374761Y-60435952D01*
X116422380Y-60531190D01*
X116422380Y-60816904D01*
X116374761Y-60912142D01*
X116327142Y-60959761D01*
X116231904Y-61007380D01*
X116089047Y-61007380D01*
X117279523Y-60340714D02*
X117279523Y-61007380D01*
X116850952Y-60340714D02*
X116850952Y-60864523D01*
X116898571Y-60959761D01*
X116993809Y-61007380D01*
X117136666Y-61007380D01*
X117231904Y-60959761D01*
X117279523Y-60912142D01*
X117755714Y-61007380D02*
X117755714Y-60340714D01*
X117755714Y-60531190D02*
X117803333Y-60435952D01*
X117850952Y-60388333D01*
X117946190Y-60340714D01*
X118041428Y-60340714D01*
X119089047Y-60959761D02*
X119184285Y-61007380D01*
X119374761Y-61007380D01*
X119470000Y-60959761D01*
X119517619Y-60864523D01*
X119517619Y-60816904D01*
X119470000Y-60721666D01*
X119374761Y-60674047D01*
X119231904Y-60674047D01*
X119136666Y-60626428D01*
X119089047Y-60531190D01*
X119089047Y-60483571D01*
X119136666Y-60388333D01*
X119231904Y-60340714D01*
X119374761Y-60340714D01*
X119470000Y-60388333D01*
X120374761Y-60959761D02*
X120279523Y-61007380D01*
X120089047Y-61007380D01*
X119993809Y-60959761D01*
X119946190Y-60912142D01*
X119898571Y-60816904D01*
X119898571Y-60531190D01*
X119946190Y-60435952D01*
X119993809Y-60388333D01*
X120089047Y-60340714D01*
X120279523Y-60340714D01*
X120374761Y-60388333D01*
X120803333Y-61007380D02*
X120803333Y-60340714D01*
X120803333Y-60531190D02*
X120850952Y-60435952D01*
X120898571Y-60388333D01*
X120993809Y-60340714D01*
X121089047Y-60340714D01*
X121803333Y-60959761D02*
X121708095Y-61007380D01*
X121517619Y-61007380D01*
X121422380Y-60959761D01*
X121374761Y-60864523D01*
X121374761Y-60483571D01*
X121422380Y-60388333D01*
X121517619Y-60340714D01*
X121708095Y-60340714D01*
X121803333Y-60388333D01*
X121850952Y-60483571D01*
X121850952Y-60578809D01*
X121374761Y-60674047D01*
X122660476Y-60959761D02*
X122565238Y-61007380D01*
X122374761Y-61007380D01*
X122279523Y-60959761D01*
X122231904Y-60864523D01*
X122231904Y-60483571D01*
X122279523Y-60388333D01*
X122374761Y-60340714D01*
X122565238Y-60340714D01*
X122660476Y-60388333D01*
X122708095Y-60483571D01*
X122708095Y-60578809D01*
X122231904Y-60674047D01*
X123136666Y-60340714D02*
X123136666Y-61007380D01*
X123136666Y-60435952D02*
X123184285Y-60388333D01*
X123279523Y-60340714D01*
X123422380Y-60340714D01*
X123517619Y-60388333D01*
X123565238Y-60483571D01*
X123565238Y-61007380D01*
X124041428Y-60912142D02*
X124089047Y-60959761D01*
X124041428Y-61007380D01*
X123993809Y-60959761D01*
X124041428Y-60912142D01*
X124041428Y-61007380D01*
D11*
X156829809Y-58520190D02*
X156996476Y-59020190D01*
X157163142Y-58520190D01*
X157329809Y-58829714D02*
X157710761Y-58829714D01*
X157520285Y-59020190D02*
X157520285Y-58639238D01*
X162318571Y-65275000D02*
X162270952Y-65251190D01*
X162199523Y-65251190D01*
X162128095Y-65275000D01*
X162080476Y-65322619D01*
X162056666Y-65370238D01*
X162032857Y-65465476D01*
X162032857Y-65536904D01*
X162056666Y-65632142D01*
X162080476Y-65679761D01*
X162128095Y-65727380D01*
X162199523Y-65751190D01*
X162247142Y-65751190D01*
X162318571Y-65727380D01*
X162342380Y-65703571D01*
X162342380Y-65536904D01*
X162247142Y-65536904D01*
X162556666Y-65417857D02*
X162556666Y-65751190D01*
X162556666Y-65465476D02*
X162580476Y-65441666D01*
X162628095Y-65417857D01*
X162699523Y-65417857D01*
X162747142Y-65441666D01*
X162770952Y-65489285D01*
X162770952Y-65751190D01*
X163223333Y-65751190D02*
X163223333Y-65251190D01*
X163223333Y-65727380D02*
X163175714Y-65751190D01*
X163080476Y-65751190D01*
X163032857Y-65727380D01*
X163009047Y-65703571D01*
X162985238Y-65655952D01*
X162985238Y-65513095D01*
X163009047Y-65465476D01*
X163032857Y-65441666D01*
X163080476Y-65417857D01*
X163175714Y-65417857D01*
X163223333Y-65441666D01*
X156833809Y-65751190D02*
X156833809Y-65251190D01*
X156952857Y-65251190D01*
X157024285Y-65275000D01*
X157071904Y-65322619D01*
X157095714Y-65370238D01*
X157119523Y-65465476D01*
X157119523Y-65536904D01*
X157095714Y-65632142D01*
X157071904Y-65679761D01*
X157024285Y-65727380D01*
X156952857Y-65751190D01*
X156833809Y-65751190D01*
X157405238Y-65751190D02*
X157357619Y-65727380D01*
X157333809Y-65703571D01*
X157310000Y-65655952D01*
X157310000Y-65513095D01*
X157333809Y-65465476D01*
X157357619Y-65441666D01*
X157405238Y-65417857D01*
X157476666Y-65417857D01*
X157524285Y-65441666D01*
X157548095Y-65465476D01*
X157571904Y-65513095D01*
X157571904Y-65655952D01*
X157548095Y-65703571D01*
X157524285Y-65727380D01*
X157476666Y-65751190D01*
X157405238Y-65751190D01*
X158000476Y-65417857D02*
X158000476Y-65751190D01*
X157786190Y-65417857D02*
X157786190Y-65679761D01*
X157810000Y-65727380D01*
X157857619Y-65751190D01*
X157929047Y-65751190D01*
X157976666Y-65727380D01*
X158000476Y-65703571D01*
X158167142Y-65417857D02*
X158357619Y-65417857D01*
X158238571Y-65251190D02*
X158238571Y-65679761D01*
X158262380Y-65727380D01*
X158310000Y-65751190D01*
X158357619Y-65751190D01*
X162163809Y-59020190D02*
X162163809Y-58520190D01*
X162282857Y-58520190D01*
X162354285Y-58544000D01*
X162401904Y-58591619D01*
X162425714Y-58639238D01*
X162449523Y-58734476D01*
X162449523Y-58805904D01*
X162425714Y-58901142D01*
X162401904Y-58948761D01*
X162354285Y-58996380D01*
X162282857Y-59020190D01*
X162163809Y-59020190D01*
X162663809Y-59020190D02*
X162663809Y-58686857D01*
X162663809Y-58520190D02*
X162640000Y-58544000D01*
X162663809Y-58567809D01*
X162687619Y-58544000D01*
X162663809Y-58520190D01*
X162663809Y-58567809D01*
X162901904Y-58686857D02*
X162901904Y-59020190D01*
X162901904Y-58734476D02*
X162925714Y-58710666D01*
X162973333Y-58686857D01*
X163044761Y-58686857D01*
X163092380Y-58710666D01*
X163116190Y-58758285D01*
X163116190Y-59020190D01*
D12*
X92231904Y-71130952D02*
X92231904Y-71511904D01*
X92612857Y-71550000D01*
X92574761Y-71511904D01*
X92536666Y-71435714D01*
X92536666Y-71245238D01*
X92574761Y-71169047D01*
X92612857Y-71130952D01*
X92689047Y-71092857D01*
X92879523Y-71092857D01*
X92955714Y-71130952D01*
X92993809Y-71169047D01*
X93031904Y-71245238D01*
X93031904Y-71435714D01*
X92993809Y-71511904D01*
X92955714Y-71550000D01*
X92231904Y-70864285D02*
X93031904Y-70597619D01*
X92231904Y-70330952D01*
X93031904Y-69454761D02*
X92231904Y-69454761D01*
X92231904Y-69264285D01*
X92270000Y-69150000D01*
X92346190Y-69073809D01*
X92422380Y-69035714D01*
X92574761Y-68997619D01*
X92689047Y-68997619D01*
X92841428Y-69035714D01*
X92917619Y-69073809D01*
X92993809Y-69150000D01*
X93031904Y-69264285D01*
X93031904Y-69454761D01*
X92727142Y-68654761D02*
X92727142Y-68045238D01*
X93031904Y-67054761D02*
X92231904Y-67054761D01*
X92231904Y-66864285D01*
X92270000Y-66750000D01*
X92346190Y-66673809D01*
X92422380Y-66635714D01*
X92574761Y-66597619D01*
X92689047Y-66597619D01*
X92841428Y-66635714D01*
X92917619Y-66673809D01*
X92993809Y-66750000D01*
X93031904Y-66864285D01*
X93031904Y-67054761D01*
X92727142Y-66254761D02*
X92727142Y-65645238D01*
X93031904Y-65950000D02*
X92422380Y-65950000D01*
X92270000Y-64235714D02*
X92231904Y-64311904D01*
X92231904Y-64426190D01*
X92270000Y-64540476D01*
X92346190Y-64616666D01*
X92422380Y-64654761D01*
X92574761Y-64692857D01*
X92689047Y-64692857D01*
X92841428Y-64654761D01*
X92917619Y-64616666D01*
X92993809Y-64540476D01*
X93031904Y-64426190D01*
X93031904Y-64350000D01*
X92993809Y-64235714D01*
X92955714Y-64197619D01*
X92689047Y-64197619D01*
X92689047Y-64350000D01*
X92498571Y-63854761D02*
X93031904Y-63854761D01*
X92574761Y-63854761D02*
X92536666Y-63816666D01*
X92498571Y-63740476D01*
X92498571Y-63626190D01*
X92536666Y-63550000D01*
X92612857Y-63511904D01*
X93031904Y-63511904D01*
X93031904Y-62788095D02*
X92231904Y-62788095D01*
X92993809Y-62788095D02*
X93031904Y-62864285D01*
X93031904Y-63016666D01*
X92993809Y-63092857D01*
X92955714Y-63130952D01*
X92879523Y-63169047D01*
X92650952Y-63169047D01*
X92574761Y-63130952D01*
X92536666Y-63092857D01*
X92498571Y-63016666D01*
X92498571Y-62864285D01*
X92536666Y-62788095D01*
D13*
X107902142Y-51687285D02*
X107902142Y-50937285D01*
X108187857Y-50937285D01*
X108259285Y-50973000D01*
X108295000Y-51008714D01*
X108330714Y-51080142D01*
X108330714Y-51187285D01*
X108295000Y-51258714D01*
X108259285Y-51294428D01*
X108187857Y-51330142D01*
X107902142Y-51330142D01*
X108652142Y-51687285D02*
X108652142Y-51187285D01*
X108652142Y-50937285D02*
X108616428Y-50973000D01*
X108652142Y-51008714D01*
X108687857Y-50973000D01*
X108652142Y-50937285D01*
X108652142Y-51008714D01*
X109009285Y-51187285D02*
X109009285Y-51687285D01*
X109009285Y-51258714D02*
X109045000Y-51223000D01*
X109116428Y-51187285D01*
X109223571Y-51187285D01*
X109295000Y-51223000D01*
X109330714Y-51294428D01*
X109330714Y-51687285D01*
X110080714Y-51687285D02*
X109652142Y-51687285D01*
X109866428Y-51687285D02*
X109866428Y-50937285D01*
X109795000Y-51044428D01*
X109723571Y-51115857D01*
X109652142Y-51151571D01*
X110973571Y-51687285D02*
X110973571Y-50937285D01*
X111259285Y-50937285D01*
X111330714Y-50973000D01*
X111366428Y-51008714D01*
X111402142Y-51080142D01*
X111402142Y-51187285D01*
X111366428Y-51258714D01*
X111330714Y-51294428D01*
X111259285Y-51330142D01*
X110973571Y-51330142D01*
X111723571Y-51687285D02*
X111723571Y-51187285D01*
X111723571Y-50937285D02*
X111687857Y-50973000D01*
X111723571Y-51008714D01*
X111759285Y-50973000D01*
X111723571Y-50937285D01*
X111723571Y-51008714D01*
X112080714Y-51187285D02*
X112080714Y-51687285D01*
X112080714Y-51258714D02*
X112116428Y-51223000D01*
X112187857Y-51187285D01*
X112295000Y-51187285D01*
X112366428Y-51223000D01*
X112402142Y-51294428D01*
X112402142Y-51687285D01*
X112723571Y-51008714D02*
X112759285Y-50973000D01*
X112830714Y-50937285D01*
X113009285Y-50937285D01*
X113080714Y-50973000D01*
X113116428Y-51008714D01*
X113152142Y-51080142D01*
X113152142Y-51151571D01*
X113116428Y-51258714D01*
X112687857Y-51687285D01*
X113152142Y-51687285D01*
X114009285Y-51651571D02*
X114116428Y-51687285D01*
X114295000Y-51687285D01*
X114366428Y-51651571D01*
X114402142Y-51615857D01*
X114437857Y-51544428D01*
X114437857Y-51473000D01*
X114402142Y-51401571D01*
X114366428Y-51365857D01*
X114295000Y-51330142D01*
X114152142Y-51294428D01*
X114080714Y-51258714D01*
X114045000Y-51223000D01*
X114009285Y-51151571D01*
X114009285Y-51080142D01*
X114045000Y-51008714D01*
X114080714Y-50973000D01*
X114152142Y-50937285D01*
X114330714Y-50937285D01*
X114437857Y-50973000D01*
X115187857Y-51615857D02*
X115152142Y-51651571D01*
X115045000Y-51687285D01*
X114973571Y-51687285D01*
X114866428Y-51651571D01*
X114795000Y-51580142D01*
X114759285Y-51508714D01*
X114723571Y-51365857D01*
X114723571Y-51258714D01*
X114759285Y-51115857D01*
X114795000Y-51044428D01*
X114866428Y-50973000D01*
X114973571Y-50937285D01*
X115045000Y-50937285D01*
X115152142Y-50973000D01*
X115187857Y-51008714D01*
X115866428Y-51687285D02*
X115509285Y-51687285D01*
X115509285Y-50937285D01*
X116652142Y-51651571D02*
X116759285Y-51687285D01*
X116937857Y-51687285D01*
X117009285Y-51651571D01*
X117045000Y-51615857D01*
X117080714Y-51544428D01*
X117080714Y-51473000D01*
X117045000Y-51401571D01*
X117009285Y-51365857D01*
X116937857Y-51330142D01*
X116795000Y-51294428D01*
X116723571Y-51258714D01*
X116687857Y-51223000D01*
X116652142Y-51151571D01*
X116652142Y-51080142D01*
X116687857Y-51008714D01*
X116723571Y-50973000D01*
X116795000Y-50937285D01*
X116973571Y-50937285D01*
X117080714Y-50973000D01*
X117402142Y-51687285D02*
X117402142Y-50937285D01*
X117580714Y-50937285D01*
X117687857Y-50973000D01*
X117759285Y-51044428D01*
X117795000Y-51115857D01*
X117830714Y-51258714D01*
X117830714Y-51365857D01*
X117795000Y-51508714D01*
X117759285Y-51580142D01*
X117687857Y-51651571D01*
X117580714Y-51687285D01*
X117402142Y-51687285D01*
X118116428Y-51473000D02*
X118473571Y-51473000D01*
X118045000Y-51687285D02*
X118295000Y-50937285D01*
X118545000Y-51687285D01*
D14*
G36*
X118663080Y-68259174D02*
G01*
X118769523Y-68299429D01*
X118883611Y-68393535D01*
X119027079Y-68563592D01*
X119221662Y-68831704D01*
X119473877Y-69197681D01*
X120120666Y-70144696D01*
X120120666Y-68250667D01*
X120713333Y-68250667D01*
X120713333Y-70960000D01*
X120386455Y-70960000D01*
X120251972Y-70955105D01*
X120141578Y-70925742D01*
X120032636Y-70849892D01*
X119902507Y-70705537D01*
X119728553Y-70470658D01*
X119488136Y-70123236D01*
X119412788Y-70012986D01*
X118766000Y-69065971D01*
X118766000Y-70960000D01*
X118258000Y-70960000D01*
X118258000Y-68250667D01*
X118542544Y-68250667D01*
X118663080Y-68259174D01*
G37*
X118663080Y-68259174D02*
X118769523Y-68299429D01*
X118883611Y-68393535D01*
X119027079Y-68563592D01*
X119221662Y-68831704D01*
X119473877Y-69197681D01*
X120120666Y-70144696D01*
X120120666Y-68250667D01*
X120713333Y-68250667D01*
X120713333Y-70960000D01*
X120386455Y-70960000D01*
X120251972Y-70955105D01*
X120141578Y-70925742D01*
X120032636Y-70849892D01*
X119902507Y-70705537D01*
X119728553Y-70470658D01*
X119488136Y-70123236D01*
X119412788Y-70012986D01*
X118766000Y-69065971D01*
X118766000Y-70960000D01*
X118258000Y-70960000D01*
X118258000Y-68250667D01*
X118542544Y-68250667D01*
X118663080Y-68259174D01*
G36*
X116930758Y-68318217D02*
G01*
X117301508Y-68450527D01*
X117501497Y-68594831D01*
X117580543Y-68698678D01*
X117629748Y-68843554D01*
X117655667Y-69067921D01*
X117664855Y-69410244D01*
X117665333Y-69556075D01*
X117659958Y-69920220D01*
X117645555Y-70229622D01*
X117624705Y-70438402D01*
X117612739Y-70490540D01*
X117468980Y-70653118D01*
X117200112Y-70786317D01*
X116849127Y-70881163D01*
X116459019Y-70928682D01*
X116072777Y-70919896D01*
X115802666Y-70868422D01*
X115554898Y-70775247D01*
X115386239Y-70645287D01*
X115282255Y-70447553D01*
X115228513Y-70151057D01*
X115210579Y-69724810D01*
X115210043Y-69605334D01*
X115802666Y-69605334D01*
X115815091Y-70009988D01*
X115850345Y-70295180D01*
X115904266Y-70435067D01*
X116043207Y-70493852D01*
X116284172Y-70530537D01*
X116437666Y-70536667D01*
X116706363Y-70517807D01*
X116910340Y-70469741D01*
X116971066Y-70435067D01*
X117025698Y-70291063D01*
X117060493Y-70001715D01*
X117072666Y-69591379D01*
X117068183Y-69226614D01*
X117049930Y-68994547D01*
X117010701Y-68858673D01*
X116943292Y-68782483D01*
X116908899Y-68761646D01*
X116700043Y-68699694D01*
X116424945Y-68676922D01*
X116151954Y-68692379D01*
X115949417Y-68745116D01*
X115904266Y-68775600D01*
X115849536Y-68919373D01*
X115814661Y-69206904D01*
X115802666Y-69605334D01*
X115210043Y-69605334D01*
X115210000Y-69595954D01*
X115214573Y-69196753D01*
X115232357Y-68929484D01*
X115269449Y-68756894D01*
X115331945Y-68641731D01*
X115373835Y-68594831D01*
X115669940Y-68404799D01*
X116062867Y-68295352D01*
X116500508Y-68266492D01*
X116930758Y-68318217D01*
G37*
X116930758Y-68318217D02*
X117301508Y-68450527D01*
X117501497Y-68594831D01*
X117580543Y-68698678D01*
X117629748Y-68843554D01*
X117655667Y-69067921D01*
X117664855Y-69410244D01*
X117665333Y-69556075D01*
X117659958Y-69920220D01*
X117645555Y-70229622D01*
X117624705Y-70438402D01*
X117612739Y-70490540D01*
X117468980Y-70653118D01*
X117200112Y-70786317D01*
X116849127Y-70881163D01*
X116459019Y-70928682D01*
X116072777Y-70919896D01*
X115802666Y-70868422D01*
X115554898Y-70775247D01*
X115386239Y-70645287D01*
X115282255Y-70447553D01*
X115228513Y-70151057D01*
X115210579Y-69724810D01*
X115210043Y-69605334D01*
X115802666Y-69605334D01*
X115815091Y-70009988D01*
X115850345Y-70295180D01*
X115904266Y-70435067D01*
X116043207Y-70493852D01*
X116284172Y-70530537D01*
X116437666Y-70536667D01*
X116706363Y-70517807D01*
X116910340Y-70469741D01*
X116971066Y-70435067D01*
X117025698Y-70291063D01*
X117060493Y-70001715D01*
X117072666Y-69591379D01*
X117068183Y-69226614D01*
X117049930Y-68994547D01*
X117010701Y-68858673D01*
X116943292Y-68782483D01*
X116908899Y-68761646D01*
X116700043Y-68699694D01*
X116424945Y-68676922D01*
X116151954Y-68692379D01*
X115949417Y-68745116D01*
X115904266Y-68775600D01*
X115849536Y-68919373D01*
X115814661Y-69206904D01*
X115802666Y-69605334D01*
X115210043Y-69605334D01*
X115210000Y-69595954D01*
X115214573Y-69196753D01*
X115232357Y-68929484D01*
X115269449Y-68756894D01*
X115331945Y-68641731D01*
X115373835Y-68594831D01*
X115669940Y-68404799D01*
X116062867Y-68295352D01*
X116500508Y-68266492D01*
X116930758Y-68318217D01*
G36*
X113467529Y-68264118D02*
G01*
X113952387Y-68292515D01*
X114292774Y-68345873D01*
X114513265Y-68439213D01*
X114638429Y-68587560D01*
X114692838Y-68805936D01*
X114702000Y-69018864D01*
X114685750Y-69366692D01*
X114624195Y-69590103D01*
X114498125Y-69731991D01*
X114346839Y-69811909D01*
X114101688Y-69914987D01*
X114486335Y-70437494D01*
X114870983Y-70960000D01*
X114511324Y-70959260D01*
X114318531Y-70950800D01*
X114181910Y-70905487D01*
X114059096Y-70791971D01*
X113907724Y-70578901D01*
X113824846Y-70451260D01*
X113602871Y-70144291D01*
X113423622Y-69974719D01*
X113338012Y-69944000D01*
X113248283Y-69965289D01*
X113199795Y-70054584D01*
X113180536Y-70250023D01*
X113178000Y-70452000D01*
X113178000Y-70960000D01*
X112585333Y-70960000D01*
X112585333Y-69529516D01*
X113178000Y-69529516D01*
X114067000Y-69478334D01*
X114067000Y-68716334D01*
X113622500Y-68690742D01*
X113178000Y-68665151D01*
X113178000Y-69529516D01*
X112585333Y-69529516D01*
X112585333Y-68231461D01*
X113467529Y-68264118D01*
G37*
X113467529Y-68264118D02*
X113952387Y-68292515D01*
X114292774Y-68345873D01*
X114513265Y-68439213D01*
X114638429Y-68587560D01*
X114692838Y-68805936D01*
X114702000Y-69018864D01*
X114685750Y-69366692D01*
X114624195Y-69590103D01*
X114498125Y-69731991D01*
X114346839Y-69811909D01*
X114101688Y-69914987D01*
X114486335Y-70437494D01*
X114870983Y-70960000D01*
X114511324Y-70959260D01*
X114318531Y-70950800D01*
X114181910Y-70905487D01*
X114059096Y-70791971D01*
X113907724Y-70578901D01*
X113824846Y-70451260D01*
X113602871Y-70144291D01*
X113423622Y-69974719D01*
X113338012Y-69944000D01*
X113248283Y-69965289D01*
X113199795Y-70054584D01*
X113180536Y-70250023D01*
X113178000Y-70452000D01*
X113178000Y-70960000D01*
X112585333Y-70960000D01*
X112585333Y-69529516D01*
X113178000Y-69529516D01*
X114067000Y-69478334D01*
X114067000Y-68716334D01*
X113622500Y-68690742D01*
X113178000Y-68665151D01*
X113178000Y-69529516D01*
X112585333Y-69529516D01*
X112585333Y-68231461D01*
X113467529Y-68264118D01*
G36*
X111258091Y-68318217D02*
G01*
X111628842Y-68450527D01*
X111828830Y-68594831D01*
X111907877Y-68698678D01*
X111957082Y-68843554D01*
X111983000Y-69067921D01*
X111992188Y-69410244D01*
X111992666Y-69556075D01*
X111987291Y-69920220D01*
X111972888Y-70229622D01*
X111952038Y-70438402D01*
X111940073Y-70490540D01*
X111796313Y-70653118D01*
X111527445Y-70786317D01*
X111176461Y-70881163D01*
X110786352Y-70928682D01*
X110400110Y-70919896D01*
X110130000Y-70868422D01*
X109882232Y-70775247D01*
X109713572Y-70645287D01*
X109609588Y-70447553D01*
X109555846Y-70151057D01*
X109537913Y-69724810D01*
X109537333Y-69595954D01*
X109538534Y-69491066D01*
X110129722Y-69491066D01*
X110132782Y-69830641D01*
X110154352Y-70136633D01*
X110194431Y-70358568D01*
X110231600Y-70435067D01*
X110370540Y-70493852D01*
X110611505Y-70530537D01*
X110765000Y-70536667D01*
X111033696Y-70517807D01*
X111237673Y-70469741D01*
X111298400Y-70435067D01*
X111353032Y-70291063D01*
X111387827Y-70001715D01*
X111400000Y-69591379D01*
X111395516Y-69226614D01*
X111377263Y-68994547D01*
X111338035Y-68858673D01*
X111270625Y-68782483D01*
X111236232Y-68761646D01*
X111027376Y-68699694D01*
X110752279Y-68676922D01*
X110479287Y-68692379D01*
X110276750Y-68745116D01*
X110231599Y-68775600D01*
X110179131Y-68913070D01*
X110145172Y-69168384D01*
X110129722Y-69491066D01*
X109538534Y-69491066D01*
X109541906Y-69196753D01*
X109559691Y-68929484D01*
X109596783Y-68756894D01*
X109659279Y-68641731D01*
X109701169Y-68594831D01*
X109997273Y-68404799D01*
X110390200Y-68295352D01*
X110827841Y-68266492D01*
X111258091Y-68318217D01*
G37*
X111258091Y-68318217D02*
X111628842Y-68450527D01*
X111828830Y-68594831D01*
X111907877Y-68698678D01*
X111957082Y-68843554D01*
X111983000Y-69067921D01*
X111992188Y-69410244D01*
X111992666Y-69556075D01*
X111987291Y-69920220D01*
X111972888Y-70229622D01*
X111952038Y-70438402D01*
X111940073Y-70490540D01*
X111796313Y-70653118D01*
X111527445Y-70786317D01*
X111176461Y-70881163D01*
X110786352Y-70928682D01*
X110400110Y-70919896D01*
X110130000Y-70868422D01*
X109882232Y-70775247D01*
X109713572Y-70645287D01*
X109609588Y-70447553D01*
X109555846Y-70151057D01*
X109537913Y-69724810D01*
X109537333Y-69595954D01*
X109538534Y-69491066D01*
X110129722Y-69491066D01*
X110132782Y-69830641D01*
X110154352Y-70136633D01*
X110194431Y-70358568D01*
X110231600Y-70435067D01*
X110370540Y-70493852D01*
X110611505Y-70530537D01*
X110765000Y-70536667D01*
X111033696Y-70517807D01*
X111237673Y-70469741D01*
X111298400Y-70435067D01*
X111353032Y-70291063D01*
X111387827Y-70001715D01*
X111400000Y-69591379D01*
X111395516Y-69226614D01*
X111377263Y-68994547D01*
X111338035Y-68858673D01*
X111270625Y-68782483D01*
X111236232Y-68761646D01*
X111027376Y-68699694D01*
X110752279Y-68676922D01*
X110479287Y-68692379D01*
X110276750Y-68745116D01*
X110231599Y-68775600D01*
X110179131Y-68913070D01*
X110145172Y-69168384D01*
X110129722Y-69491066D01*
X109538534Y-69491066D01*
X109541906Y-69196753D01*
X109559691Y-68929484D01*
X109596783Y-68756894D01*
X109659279Y-68641731D01*
X109701169Y-68594831D01*
X109997273Y-68404799D01*
X110390200Y-68295352D01*
X110827841Y-68266492D01*
X111258091Y-68318217D01*
G36*
X108289502Y-70917667D02*
G01*
X107908388Y-70943024D01*
X107660564Y-70945682D01*
X107532703Y-70901457D01*
X107483706Y-70816024D01*
X107441121Y-70685171D01*
X107353077Y-70427020D01*
X107230725Y-70073865D01*
X107085215Y-69657999D01*
X107014504Y-69457167D01*
X106588870Y-68250667D01*
X106898935Y-68252277D01*
X107209000Y-68253888D01*
X107541871Y-69310611D01*
X107669142Y-69703073D01*
X107781944Y-70029514D01*
X107869379Y-70259910D01*
X107920551Y-70364237D01*
X107925410Y-70367334D01*
X107969263Y-70291677D01*
X108053098Y-70084792D01*
X108165523Y-69776802D01*
X108295150Y-69397831D01*
X108317534Y-69330167D01*
X108658993Y-68293000D01*
X108962357Y-68267248D01*
X109265722Y-68241495D01*
X108289502Y-70917667D01*
G37*
X108289502Y-70917667D02*
X107908388Y-70943024D01*
X107660564Y-70945682D01*
X107532703Y-70901457D01*
X107483706Y-70816024D01*
X107441121Y-70685171D01*
X107353077Y-70427020D01*
X107230725Y-70073865D01*
X107085215Y-69657999D01*
X107014504Y-69457167D01*
X106588870Y-68250667D01*
X106898935Y-68252277D01*
X107209000Y-68253888D01*
X107541871Y-69310611D01*
X107669142Y-69703073D01*
X107781944Y-70029514D01*
X107869379Y-70259910D01*
X107920551Y-70364237D01*
X107925410Y-70367334D01*
X107969263Y-70291677D01*
X108053098Y-70084792D01*
X108165523Y-69776802D01*
X108295150Y-69397831D01*
X108317534Y-69330167D01*
X108658993Y-68293000D01*
X108962357Y-68267248D01*
X109265722Y-68241495D01*
X108289502Y-70917667D01*
G36*
X113149807Y-72590151D02*
G01*
X113301852Y-72684150D01*
X113432000Y-72865000D01*
X113552100Y-73049255D01*
X113631785Y-73152978D01*
X113643666Y-73161334D01*
X113701371Y-73096661D01*
X113811396Y-72934790D01*
X113855333Y-72865000D01*
X113999919Y-72669387D01*
X114156509Y-72585427D01*
X114375499Y-72568667D01*
X114712521Y-72568667D01*
X114432094Y-72951855D01*
X114261406Y-73186599D01*
X114124292Y-73377831D01*
X114071825Y-73452891D01*
X114057556Y-73586975D01*
X114159309Y-73799270D01*
X114241159Y-73920813D01*
X114465911Y-74235305D01*
X114602949Y-74434967D01*
X114658929Y-74545567D01*
X114640507Y-74592875D01*
X114554341Y-74602659D01*
X114416771Y-74600667D01*
X114195244Y-74574626D01*
X114039267Y-74467621D01*
X113919611Y-74305382D01*
X113786841Y-74121367D01*
X113685605Y-74017506D01*
X113665611Y-74009048D01*
X113584799Y-74072914D01*
X113458261Y-74234011D01*
X113411611Y-74303285D01*
X113258612Y-74499651D01*
X113094978Y-74583713D01*
X112897572Y-74599619D01*
X112574811Y-74600667D01*
X112855239Y-74217329D01*
X113030775Y-73975695D01*
X113177239Y-73771175D01*
X113235331Y-73688162D01*
X113271963Y-73589595D01*
X113239592Y-73463302D01*
X113122774Y-73273753D01*
X112960297Y-73055500D01*
X112585598Y-72568667D01*
X112917227Y-72568667D01*
X113149807Y-72590151D01*
G37*
X113149807Y-72590151D02*
X113301852Y-72684150D01*
X113432000Y-72865000D01*
X113552100Y-73049255D01*
X113631785Y-73152978D01*
X113643666Y-73161334D01*
X113701371Y-73096661D01*
X113811396Y-72934790D01*
X113855333Y-72865000D01*
X113999919Y-72669387D01*
X114156509Y-72585427D01*
X114375499Y-72568667D01*
X114712521Y-72568667D01*
X114432094Y-72951855D01*
X114261406Y-73186599D01*
X114124292Y-73377831D01*
X114071825Y-73452891D01*
X114057556Y-73586975D01*
X114159309Y-73799270D01*
X114241159Y-73920813D01*
X114465911Y-74235305D01*
X114602949Y-74434967D01*
X114658929Y-74545567D01*
X114640507Y-74592875D01*
X114554341Y-74602659D01*
X114416771Y-74600667D01*
X114195244Y-74574626D01*
X114039267Y-74467621D01*
X113919611Y-74305382D01*
X113786841Y-74121367D01*
X113685605Y-74017506D01*
X113665611Y-74009048D01*
X113584799Y-74072914D01*
X113458261Y-74234011D01*
X113411611Y-74303285D01*
X113258612Y-74499651D01*
X113094978Y-74583713D01*
X112897572Y-74599619D01*
X112574811Y-74600667D01*
X112855239Y-74217329D01*
X113030775Y-73975695D01*
X113177239Y-73771175D01*
X113235331Y-73688162D01*
X113271963Y-73589595D01*
X113239592Y-73463302D01*
X113122774Y-73273753D01*
X112960297Y-73055500D01*
X112585598Y-72568667D01*
X112917227Y-72568667D01*
X113149807Y-72590151D01*
G36*
X119147907Y-75712275D02*
G01*
X119478820Y-75767486D01*
X119695081Y-75829676D01*
X119850296Y-75924880D01*
X119998070Y-76079133D01*
X120061142Y-76155827D01*
X120262622Y-76409490D01*
X120385265Y-76590012D01*
X120457786Y-76755040D01*
X120508901Y-76962223D01*
X120537904Y-77112952D01*
X120569940Y-77504567D01*
X120548136Y-78035090D01*
X120514521Y-78368334D01*
X120466812Y-78752070D01*
X120426221Y-78997076D01*
X120382402Y-79133049D01*
X120325010Y-79189689D01*
X120243698Y-79196694D01*
X120226537Y-79195063D01*
X120060734Y-79246389D01*
X119976446Y-79437310D01*
X119976001Y-79757747D01*
X120027596Y-80057189D01*
X120074648Y-80420920D01*
X120045791Y-80710971D01*
X119948152Y-80896997D01*
X119817835Y-80950667D01*
X119746120Y-80928940D01*
X119712560Y-80840214D01*
X119711944Y-80649173D01*
X119733506Y-80379167D01*
X119751471Y-79973282D01*
X119716640Y-79717836D01*
X119630313Y-79616761D01*
X119498954Y-79669639D01*
X119381332Y-79726325D01*
X119292509Y-79632081D01*
X119179375Y-79514555D01*
X119075827Y-79546178D01*
X119002017Y-79707099D01*
X118977666Y-79942239D01*
X118960384Y-80190606D01*
X118901849Y-80302040D01*
X118850666Y-80315667D01*
X118757161Y-80250214D01*
X118705575Y-80041733D01*
X118697631Y-79955834D01*
X118656266Y-79697440D01*
X118581996Y-79604033D01*
X118475619Y-79676237D01*
X118428828Y-79744167D01*
X118350916Y-79843272D01*
X118283110Y-79802093D01*
X118234121Y-79727977D01*
X118076301Y-79514835D01*
X117895311Y-79322988D01*
X117736868Y-79197453D01*
X117670182Y-79172667D01*
X117603705Y-79247561D01*
X117543143Y-79434938D01*
X117527989Y-79514608D01*
X117472875Y-79724944D01*
X117401886Y-79824084D01*
X117379128Y-79825154D01*
X117304210Y-79739889D01*
X117244575Y-79531827D01*
X117198706Y-79189498D01*
X117165085Y-78701436D01*
X117142194Y-78056171D01*
X117141546Y-78029667D01*
X117138414Y-77871928D01*
X118210744Y-77871928D01*
X118272695Y-78170286D01*
X118397944Y-78406035D01*
X118497183Y-78492106D01*
X118779934Y-78571919D01*
X119091866Y-78534900D01*
X119202067Y-78488519D01*
X119372191Y-78320973D01*
X119514301Y-78047612D01*
X119599921Y-77731949D01*
X119612666Y-77572608D01*
X119581150Y-77381507D01*
X119464319Y-77301936D01*
X119425637Y-77294722D01*
X119250780Y-77192034D01*
X119190468Y-77062277D01*
X119115860Y-76891730D01*
X119038831Y-76822388D01*
X118977969Y-76857957D01*
X118944274Y-77027025D01*
X118934036Y-77324111D01*
X118913617Y-77679988D01*
X118863346Y-77931058D01*
X118796769Y-78065889D01*
X118727429Y-78073051D01*
X118668874Y-77941110D01*
X118634647Y-77658635D01*
X118631820Y-77579176D01*
X118622633Y-77287975D01*
X118602930Y-77134624D01*
X118558376Y-77087682D01*
X118474634Y-77115710D01*
X118430976Y-77138717D01*
X118287255Y-77302392D01*
X118214721Y-77564713D01*
X118210744Y-77871928D01*
X117138414Y-77871928D01*
X117132484Y-77573371D01*
X117134185Y-77249255D01*
X117151285Y-77020275D01*
X117188423Y-76849389D01*
X117250237Y-76699552D01*
X117325349Y-76561589D01*
X117583694Y-76231509D01*
X117969932Y-75940404D01*
X118026767Y-75906371D01*
X118517835Y-75618564D01*
X119147907Y-75712275D01*
G37*
X119147907Y-75712275D02*
X119478820Y-75767486D01*
X119695081Y-75829676D01*
X119850296Y-75924880D01*
X119998070Y-76079133D01*
X120061142Y-76155827D01*
X120262622Y-76409490D01*
X120385265Y-76590012D01*
X120457786Y-76755040D01*
X120508901Y-76962223D01*
X120537904Y-77112952D01*
X120569940Y-77504567D01*
X120548136Y-78035090D01*
X120514521Y-78368334D01*
X120466812Y-78752070D01*
X120426221Y-78997076D01*
X120382402Y-79133049D01*
X120325010Y-79189689D01*
X120243698Y-79196694D01*
X120226537Y-79195063D01*
X120060734Y-79246389D01*
X119976446Y-79437310D01*
X119976001Y-79757747D01*
X120027596Y-80057189D01*
X120074648Y-80420920D01*
X120045791Y-80710971D01*
X119948152Y-80896997D01*
X119817835Y-80950667D01*
X119746120Y-80928940D01*
X119712560Y-80840214D01*
X119711944Y-80649173D01*
X119733506Y-80379167D01*
X119751471Y-79973282D01*
X119716640Y-79717836D01*
X119630313Y-79616761D01*
X119498954Y-79669639D01*
X119381332Y-79726325D01*
X119292509Y-79632081D01*
X119179375Y-79514555D01*
X119075827Y-79546178D01*
X119002017Y-79707099D01*
X118977666Y-79942239D01*
X118960384Y-80190606D01*
X118901849Y-80302040D01*
X118850666Y-80315667D01*
X118757161Y-80250214D01*
X118705575Y-80041733D01*
X118697631Y-79955834D01*
X118656266Y-79697440D01*
X118581996Y-79604033D01*
X118475619Y-79676237D01*
X118428828Y-79744167D01*
X118350916Y-79843272D01*
X118283110Y-79802093D01*
X118234121Y-79727977D01*
X118076301Y-79514835D01*
X117895311Y-79322988D01*
X117736868Y-79197453D01*
X117670182Y-79172667D01*
X117603705Y-79247561D01*
X117543143Y-79434938D01*
X117527989Y-79514608D01*
X117472875Y-79724944D01*
X117401886Y-79824084D01*
X117379128Y-79825154D01*
X117304210Y-79739889D01*
X117244575Y-79531827D01*
X117198706Y-79189498D01*
X117165085Y-78701436D01*
X117142194Y-78056171D01*
X117141546Y-78029667D01*
X117138414Y-77871928D01*
X118210744Y-77871928D01*
X118272695Y-78170286D01*
X118397944Y-78406035D01*
X118497183Y-78492106D01*
X118779934Y-78571919D01*
X119091866Y-78534900D01*
X119202067Y-78488519D01*
X119372191Y-78320973D01*
X119514301Y-78047612D01*
X119599921Y-77731949D01*
X119612666Y-77572608D01*
X119581150Y-77381507D01*
X119464319Y-77301936D01*
X119425637Y-77294722D01*
X119250780Y-77192034D01*
X119190468Y-77062277D01*
X119115860Y-76891730D01*
X119038831Y-76822388D01*
X118977969Y-76857957D01*
X118944274Y-77027025D01*
X118934036Y-77324111D01*
X118913617Y-77679988D01*
X118863346Y-77931058D01*
X118796769Y-78065889D01*
X118727429Y-78073051D01*
X118668874Y-77941110D01*
X118634647Y-77658635D01*
X118631820Y-77579176D01*
X118622633Y-77287975D01*
X118602930Y-77134624D01*
X118558376Y-77087682D01*
X118474634Y-77115710D01*
X118430976Y-77138717D01*
X118287255Y-77302392D01*
X118214721Y-77564713D01*
X118210744Y-77871928D01*
X117138414Y-77871928D01*
X117132484Y-77573371D01*
X117134185Y-77249255D01*
X117151285Y-77020275D01*
X117188423Y-76849389D01*
X117250237Y-76699552D01*
X117325349Y-76561589D01*
X117583694Y-76231509D01*
X117969932Y-75940404D01*
X118026767Y-75906371D01*
X118517835Y-75618564D01*
X119147907Y-75712275D01*
G36*
X111951240Y-75712275D02*
G01*
X112282153Y-75767486D01*
X112498414Y-75829676D01*
X112653629Y-75924880D01*
X112801404Y-76079133D01*
X112864475Y-76155827D01*
X113065956Y-76409490D01*
X113188599Y-76590012D01*
X113261120Y-76755040D01*
X113312234Y-76962223D01*
X113341237Y-77112952D01*
X113373273Y-77504567D01*
X113351469Y-78035090D01*
X113317854Y-78368334D01*
X113270146Y-78752070D01*
X113229555Y-78997076D01*
X113185736Y-79133049D01*
X113128343Y-79189689D01*
X113047031Y-79196694D01*
X113029871Y-79195063D01*
X112864067Y-79246389D01*
X112779780Y-79437310D01*
X112779335Y-79757747D01*
X112830930Y-80057189D01*
X112877981Y-80420920D01*
X112849125Y-80710971D01*
X112751485Y-80896997D01*
X112621169Y-80950667D01*
X112549453Y-80928940D01*
X112515893Y-80840214D01*
X112515278Y-80649173D01*
X112536839Y-80379167D01*
X112554804Y-79973282D01*
X112519973Y-79717836D01*
X112433646Y-79616761D01*
X112302287Y-79669639D01*
X112184665Y-79726325D01*
X112095842Y-79632081D01*
X111982708Y-79514555D01*
X111879160Y-79546178D01*
X111805350Y-79707099D01*
X111781000Y-79942239D01*
X111763717Y-80190606D01*
X111705182Y-80302040D01*
X111654000Y-80315667D01*
X111560495Y-80250214D01*
X111508908Y-80041733D01*
X111500965Y-79955834D01*
X111459599Y-79697440D01*
X111385330Y-79604033D01*
X111278952Y-79676237D01*
X111232161Y-79744167D01*
X111154249Y-79843272D01*
X111086443Y-79802093D01*
X111037454Y-79727977D01*
X110879634Y-79514835D01*
X110698645Y-79322988D01*
X110540201Y-79197453D01*
X110473515Y-79172667D01*
X110407038Y-79247561D01*
X110346476Y-79434938D01*
X110331322Y-79514608D01*
X110276209Y-79724944D01*
X110205219Y-79824084D01*
X110182461Y-79825154D01*
X110107543Y-79739889D01*
X110047909Y-79531827D01*
X110002039Y-79189498D01*
X109968418Y-78701436D01*
X109945527Y-78056171D01*
X109944879Y-78029667D01*
X109941747Y-77871928D01*
X111014077Y-77871928D01*
X111076028Y-78170286D01*
X111201277Y-78406035D01*
X111300517Y-78492106D01*
X111583268Y-78571919D01*
X111895199Y-78534900D01*
X112005400Y-78488519D01*
X112175525Y-78320973D01*
X112317634Y-78047612D01*
X112403254Y-77731949D01*
X112416000Y-77572608D01*
X112384483Y-77381507D01*
X112267653Y-77301936D01*
X112228970Y-77294722D01*
X112054113Y-77192034D01*
X111993802Y-77062277D01*
X111919193Y-76891730D01*
X111842164Y-76822388D01*
X111781303Y-76857957D01*
X111747607Y-77027025D01*
X111737370Y-77324111D01*
X111716951Y-77679988D01*
X111666680Y-77931058D01*
X111600102Y-78065889D01*
X111530763Y-78073051D01*
X111472207Y-77941110D01*
X111437981Y-77658635D01*
X111435153Y-77579176D01*
X111425966Y-77287975D01*
X111406264Y-77134624D01*
X111361710Y-77087682D01*
X111277968Y-77115710D01*
X111234310Y-77138717D01*
X111090589Y-77302392D01*
X111018054Y-77564713D01*
X111014077Y-77871928D01*
X109941747Y-77871928D01*
X109935817Y-77573371D01*
X109937518Y-77249255D01*
X109954618Y-77020275D01*
X109991757Y-76849389D01*
X110053571Y-76699552D01*
X110128682Y-76561589D01*
X110387027Y-76231509D01*
X110773266Y-75940404D01*
X110830100Y-75906371D01*
X111321169Y-75618564D01*
X111951240Y-75712275D01*
G37*
X111951240Y-75712275D02*
X112282153Y-75767486D01*
X112498414Y-75829676D01*
X112653629Y-75924880D01*
X112801404Y-76079133D01*
X112864475Y-76155827D01*
X113065956Y-76409490D01*
X113188599Y-76590012D01*
X113261120Y-76755040D01*
X113312234Y-76962223D01*
X113341237Y-77112952D01*
X113373273Y-77504567D01*
X113351469Y-78035090D01*
X113317854Y-78368334D01*
X113270146Y-78752070D01*
X113229555Y-78997076D01*
X113185736Y-79133049D01*
X113128343Y-79189689D01*
X113047031Y-79196694D01*
X113029871Y-79195063D01*
X112864067Y-79246389D01*
X112779780Y-79437310D01*
X112779335Y-79757747D01*
X112830930Y-80057189D01*
X112877981Y-80420920D01*
X112849125Y-80710971D01*
X112751485Y-80896997D01*
X112621169Y-80950667D01*
X112549453Y-80928940D01*
X112515893Y-80840214D01*
X112515278Y-80649173D01*
X112536839Y-80379167D01*
X112554804Y-79973282D01*
X112519973Y-79717836D01*
X112433646Y-79616761D01*
X112302287Y-79669639D01*
X112184665Y-79726325D01*
X112095842Y-79632081D01*
X111982708Y-79514555D01*
X111879160Y-79546178D01*
X111805350Y-79707099D01*
X111781000Y-79942239D01*
X111763717Y-80190606D01*
X111705182Y-80302040D01*
X111654000Y-80315667D01*
X111560495Y-80250214D01*
X111508908Y-80041733D01*
X111500965Y-79955834D01*
X111459599Y-79697440D01*
X111385330Y-79604033D01*
X111278952Y-79676237D01*
X111232161Y-79744167D01*
X111154249Y-79843272D01*
X111086443Y-79802093D01*
X111037454Y-79727977D01*
X110879634Y-79514835D01*
X110698645Y-79322988D01*
X110540201Y-79197453D01*
X110473515Y-79172667D01*
X110407038Y-79247561D01*
X110346476Y-79434938D01*
X110331322Y-79514608D01*
X110276209Y-79724944D01*
X110205219Y-79824084D01*
X110182461Y-79825154D01*
X110107543Y-79739889D01*
X110047909Y-79531827D01*
X110002039Y-79189498D01*
X109968418Y-78701436D01*
X109945527Y-78056171D01*
X109944879Y-78029667D01*
X109941747Y-77871928D01*
X111014077Y-77871928D01*
X111076028Y-78170286D01*
X111201277Y-78406035D01*
X111300517Y-78492106D01*
X111583268Y-78571919D01*
X111895199Y-78534900D01*
X112005400Y-78488519D01*
X112175525Y-78320973D01*
X112317634Y-78047612D01*
X112403254Y-77731949D01*
X112416000Y-77572608D01*
X112384483Y-77381507D01*
X112267653Y-77301936D01*
X112228970Y-77294722D01*
X112054113Y-77192034D01*
X111993802Y-77062277D01*
X111919193Y-76891730D01*
X111842164Y-76822388D01*
X111781303Y-76857957D01*
X111747607Y-77027025D01*
X111737370Y-77324111D01*
X111716951Y-77679988D01*
X111666680Y-77931058D01*
X111600102Y-78065889D01*
X111530763Y-78073051D01*
X111472207Y-77941110D01*
X111437981Y-77658635D01*
X111435153Y-77579176D01*
X111425966Y-77287975D01*
X111406264Y-77134624D01*
X111361710Y-77087682D01*
X111277968Y-77115710D01*
X111234310Y-77138717D01*
X111090589Y-77302392D01*
X111018054Y-77564713D01*
X111014077Y-77871928D01*
X109941747Y-77871928D01*
X109935817Y-77573371D01*
X109937518Y-77249255D01*
X109954618Y-77020275D01*
X109991757Y-76849389D01*
X110053571Y-76699552D01*
X110128682Y-76561589D01*
X110387027Y-76231509D01*
X110773266Y-75940404D01*
X110830100Y-75906371D01*
X111321169Y-75618564D01*
X111951240Y-75712275D01*
G36*
X115271110Y-75625239D02*
G01*
X115552793Y-75648234D01*
X115726387Y-75681566D01*
X115760333Y-75701334D01*
X115873227Y-75759208D01*
X116077255Y-75785809D01*
X116096470Y-75786000D01*
X116344914Y-75832604D01*
X116556175Y-75997121D01*
X116599473Y-76046496D01*
X116713536Y-76201403D01*
X116779512Y-76362868D01*
X116809952Y-76583312D01*
X116817406Y-76915157D01*
X116817370Y-76956663D01*
X116807964Y-77283276D01*
X116784302Y-77550162D01*
X116751184Y-77706528D01*
X116745438Y-77717725D01*
X116555946Y-77883667D01*
X116199306Y-78049000D01*
X115854796Y-78162777D01*
X115557981Y-78281443D01*
X115312158Y-78435367D01*
X115136373Y-78601004D01*
X115049674Y-78754806D01*
X115071107Y-78873225D01*
X115219720Y-78932715D01*
X115231166Y-78933747D01*
X115411396Y-78942283D01*
X115697687Y-78949950D01*
X116014333Y-78954914D01*
X116607000Y-78961000D01*
X116617113Y-79977000D01*
X116619890Y-80396102D01*
X116616675Y-80663249D01*
X116605106Y-80795777D01*
X116582822Y-80811027D01*
X116547462Y-80726336D01*
X116524866Y-80654334D01*
X116418168Y-80422343D01*
X116287228Y-80296365D01*
X116162938Y-80294875D01*
X116089685Y-80394076D01*
X115991431Y-80515304D01*
X115850979Y-80473727D01*
X115724009Y-80344396D01*
X115575875Y-80161458D01*
X115388606Y-80348727D01*
X115251882Y-80561549D01*
X115253707Y-80700998D01*
X115273250Y-80896128D01*
X115232982Y-81084491D01*
X115151457Y-81196391D01*
X115119627Y-81204667D01*
X115073929Y-81128659D01*
X115045420Y-80934962D01*
X115040666Y-80795445D01*
X115029004Y-80499621D01*
X114984938Y-80350340D01*
X114894845Y-80325858D01*
X114781124Y-80381110D01*
X114647653Y-80427525D01*
X114510137Y-80364654D01*
X114413560Y-80280749D01*
X114216748Y-80148664D01*
X114066115Y-80134957D01*
X113995419Y-80187837D01*
X113963393Y-80301673D01*
X113965352Y-80514702D01*
X113987584Y-80775630D01*
X114012211Y-81210179D01*
X113993255Y-81538989D01*
X113933473Y-81741013D01*
X113853720Y-81797334D01*
X113765329Y-81780305D01*
X113762037Y-81776167D01*
X113757836Y-81689163D01*
X113750939Y-81457677D01*
X113741968Y-81106530D01*
X113731545Y-80660540D01*
X113720290Y-80144528D01*
X113715913Y-79934667D01*
X113704813Y-79281566D01*
X113703682Y-78777866D01*
X113715397Y-78403785D01*
X113742832Y-78139539D01*
X113788863Y-77965346D01*
X113856363Y-77861423D01*
X113948208Y-77807985D01*
X114027560Y-77790166D01*
X114185402Y-77730224D01*
X114361579Y-77625558D01*
X114555980Y-77519027D01*
X114703905Y-77479334D01*
X114872596Y-77433508D01*
X114917899Y-77401182D01*
X115054916Y-77336035D01*
X115251609Y-77295348D01*
X115466544Y-77227848D01*
X115537959Y-77115066D01*
X115462209Y-76997974D01*
X115284401Y-76926746D01*
X115058778Y-76907994D01*
X114923945Y-76986230D01*
X114912176Y-77001386D01*
X114818737Y-77084831D01*
X114683596Y-77080863D01*
X114538773Y-77032570D01*
X114341546Y-76974218D01*
X114217998Y-77006101D01*
X114108073Y-77121320D01*
X113987316Y-77237542D01*
X113914039Y-77248956D01*
X113913650Y-77248320D01*
X113893423Y-77137094D01*
X113875820Y-76904202D01*
X113864299Y-76597307D01*
X113863467Y-76556576D01*
X113866736Y-76169363D01*
X113911236Y-75905974D01*
X114023641Y-75742718D01*
X114230626Y-75655906D01*
X114558864Y-75621849D01*
X114921792Y-75616667D01*
X115271110Y-75625239D01*
G37*
X115271110Y-75625239D02*
X115552793Y-75648234D01*
X115726387Y-75681566D01*
X115760333Y-75701334D01*
X115873227Y-75759208D01*
X116077255Y-75785809D01*
X116096470Y-75786000D01*
X116344914Y-75832604D01*
X116556175Y-75997121D01*
X116599473Y-76046496D01*
X116713536Y-76201403D01*
X116779512Y-76362868D01*
X116809952Y-76583312D01*
X116817406Y-76915157D01*
X116817370Y-76956663D01*
X116807964Y-77283276D01*
X116784302Y-77550162D01*
X116751184Y-77706528D01*
X116745438Y-77717725D01*
X116555946Y-77883667D01*
X116199306Y-78049000D01*
X115854796Y-78162777D01*
X115557981Y-78281443D01*
X115312158Y-78435367D01*
X115136373Y-78601004D01*
X115049674Y-78754806D01*
X115071107Y-78873225D01*
X115219720Y-78932715D01*
X115231166Y-78933747D01*
X115411396Y-78942283D01*
X115697687Y-78949950D01*
X116014333Y-78954914D01*
X116607000Y-78961000D01*
X116617113Y-79977000D01*
X116619890Y-80396102D01*
X116616675Y-80663249D01*
X116605106Y-80795777D01*
X116582822Y-80811027D01*
X116547462Y-80726336D01*
X116524866Y-80654334D01*
X116418168Y-80422343D01*
X116287228Y-80296365D01*
X116162938Y-80294875D01*
X116089685Y-80394076D01*
X115991431Y-80515304D01*
X115850979Y-80473727D01*
X115724009Y-80344396D01*
X115575875Y-80161458D01*
X115388606Y-80348727D01*
X115251882Y-80561549D01*
X115253707Y-80700998D01*
X115273250Y-80896128D01*
X115232982Y-81084491D01*
X115151457Y-81196391D01*
X115119627Y-81204667D01*
X115073929Y-81128659D01*
X115045420Y-80934962D01*
X115040666Y-80795445D01*
X115029004Y-80499621D01*
X114984938Y-80350340D01*
X114894845Y-80325858D01*
X114781124Y-80381110D01*
X114647653Y-80427525D01*
X114510137Y-80364654D01*
X114413560Y-80280749D01*
X114216748Y-80148664D01*
X114066115Y-80134957D01*
X113995419Y-80187837D01*
X113963393Y-80301673D01*
X113965352Y-80514702D01*
X113987584Y-80775630D01*
X114012211Y-81210179D01*
X113993255Y-81538989D01*
X113933473Y-81741013D01*
X113853720Y-81797334D01*
X113765329Y-81780305D01*
X113762037Y-81776167D01*
X113757836Y-81689163D01*
X113750939Y-81457677D01*
X113741968Y-81106530D01*
X113731545Y-80660540D01*
X113720290Y-80144528D01*
X113715913Y-79934667D01*
X113704813Y-79281566D01*
X113703682Y-78777866D01*
X113715397Y-78403785D01*
X113742832Y-78139539D01*
X113788863Y-77965346D01*
X113856363Y-77861423D01*
X113948208Y-77807985D01*
X114027560Y-77790166D01*
X114185402Y-77730224D01*
X114361579Y-77625558D01*
X114555980Y-77519027D01*
X114703905Y-77479334D01*
X114872596Y-77433508D01*
X114917899Y-77401182D01*
X115054916Y-77336035D01*
X115251609Y-77295348D01*
X115466544Y-77227848D01*
X115537959Y-77115066D01*
X115462209Y-76997974D01*
X115284401Y-76926746D01*
X115058778Y-76907994D01*
X114923945Y-76986230D01*
X114912176Y-77001386D01*
X114818737Y-77084831D01*
X114683596Y-77080863D01*
X114538773Y-77032570D01*
X114341546Y-76974218D01*
X114217998Y-77006101D01*
X114108073Y-77121320D01*
X113987316Y-77237542D01*
X113914039Y-77248956D01*
X113913650Y-77248320D01*
X113893423Y-77137094D01*
X113875820Y-76904202D01*
X113864299Y-76597307D01*
X113863467Y-76556576D01*
X113866736Y-76169363D01*
X113911236Y-75905974D01*
X114023641Y-75742718D01*
X114230626Y-75655906D01*
X114558864Y-75621849D01*
X114921792Y-75616667D01*
X115271110Y-75625239D01*
G36*
X108074443Y-75625239D02*
G01*
X108356127Y-75648234D01*
X108529721Y-75681566D01*
X108563666Y-75701334D01*
X108676560Y-75759208D01*
X108880588Y-75785809D01*
X108899803Y-75786000D01*
X109148247Y-75832604D01*
X109359509Y-75997121D01*
X109402807Y-76046496D01*
X109516869Y-76201403D01*
X109582846Y-76362868D01*
X109613286Y-76583312D01*
X109620739Y-76915157D01*
X109620703Y-76956663D01*
X109611297Y-77283276D01*
X109587635Y-77550162D01*
X109554517Y-77706528D01*
X109548771Y-77717725D01*
X109359279Y-77883667D01*
X109002639Y-78049000D01*
X108658130Y-78162777D01*
X108361315Y-78281443D01*
X108115491Y-78435367D01*
X107939706Y-78601004D01*
X107853007Y-78754806D01*
X107874440Y-78873225D01*
X108023053Y-78932715D01*
X108034500Y-78933747D01*
X108214729Y-78942283D01*
X108501021Y-78949950D01*
X108817666Y-78954914D01*
X109410333Y-78961000D01*
X109420446Y-79977000D01*
X109423223Y-80396102D01*
X109420008Y-80663249D01*
X109408439Y-80795777D01*
X109386155Y-80811027D01*
X109350795Y-80726336D01*
X109328199Y-80654334D01*
X109221502Y-80422343D01*
X109090561Y-80296365D01*
X108966271Y-80294875D01*
X108893018Y-80394076D01*
X108794765Y-80515304D01*
X108654312Y-80473727D01*
X108527342Y-80344396D01*
X108379208Y-80161458D01*
X108191939Y-80348727D01*
X108055215Y-80561549D01*
X108057041Y-80700998D01*
X108076583Y-80896128D01*
X108036315Y-81084491D01*
X107954791Y-81196391D01*
X107922961Y-81204667D01*
X107877263Y-81128659D01*
X107848754Y-80934962D01*
X107844000Y-80795445D01*
X107832338Y-80499621D01*
X107788271Y-80350340D01*
X107698179Y-80325858D01*
X107584457Y-80381110D01*
X107450987Y-80427525D01*
X107313471Y-80364654D01*
X107216893Y-80280749D01*
X107020082Y-80148664D01*
X106869449Y-80134957D01*
X106798752Y-80187837D01*
X106766727Y-80301673D01*
X106768685Y-80514702D01*
X106790917Y-80775630D01*
X106815544Y-81210179D01*
X106796588Y-81538989D01*
X106736806Y-81741013D01*
X106657053Y-81797334D01*
X106568662Y-81780305D01*
X106565371Y-81776167D01*
X106561170Y-81689163D01*
X106554273Y-81457677D01*
X106545302Y-81106530D01*
X106534878Y-80660540D01*
X106523624Y-80144528D01*
X106519246Y-79934667D01*
X106508146Y-79281566D01*
X106507016Y-78777866D01*
X106518731Y-78403785D01*
X106546166Y-78139539D01*
X106592196Y-77965346D01*
X106659696Y-77861423D01*
X106751541Y-77807985D01*
X106830893Y-77790166D01*
X106988735Y-77730224D01*
X107164913Y-77625558D01*
X107359313Y-77519027D01*
X107507238Y-77479334D01*
X107675929Y-77433508D01*
X107721233Y-77401182D01*
X107858249Y-77336035D01*
X108054942Y-77295348D01*
X108269877Y-77227848D01*
X108341293Y-77115066D01*
X108265543Y-76997974D01*
X108087735Y-76926746D01*
X107862111Y-76907994D01*
X107727278Y-76986230D01*
X107715509Y-77001386D01*
X107622070Y-77084831D01*
X107486929Y-77080863D01*
X107342106Y-77032570D01*
X107144879Y-76974218D01*
X107021331Y-77006101D01*
X106911406Y-77121320D01*
X106790649Y-77237542D01*
X106717372Y-77248956D01*
X106716983Y-77248320D01*
X106696756Y-77137094D01*
X106679153Y-76904202D01*
X106667632Y-76597307D01*
X106666800Y-76556576D01*
X106670069Y-76169363D01*
X106714569Y-75905974D01*
X106826974Y-75742718D01*
X107033959Y-75655906D01*
X107362198Y-75621849D01*
X107725125Y-75616667D01*
X108074443Y-75625239D01*
G37*
X108074443Y-75625239D02*
X108356127Y-75648234D01*
X108529721Y-75681566D01*
X108563666Y-75701334D01*
X108676560Y-75759208D01*
X108880588Y-75785809D01*
X108899803Y-75786000D01*
X109148247Y-75832604D01*
X109359509Y-75997121D01*
X109402807Y-76046496D01*
X109516869Y-76201403D01*
X109582846Y-76362868D01*
X109613286Y-76583312D01*
X109620739Y-76915157D01*
X109620703Y-76956663D01*
X109611297Y-77283276D01*
X109587635Y-77550162D01*
X109554517Y-77706528D01*
X109548771Y-77717725D01*
X109359279Y-77883667D01*
X109002639Y-78049000D01*
X108658130Y-78162777D01*
X108361315Y-78281443D01*
X108115491Y-78435367D01*
X107939706Y-78601004D01*
X107853007Y-78754806D01*
X107874440Y-78873225D01*
X108023053Y-78932715D01*
X108034500Y-78933747D01*
X108214729Y-78942283D01*
X108501021Y-78949950D01*
X108817666Y-78954914D01*
X109410333Y-78961000D01*
X109420446Y-79977000D01*
X109423223Y-80396102D01*
X109420008Y-80663249D01*
X109408439Y-80795777D01*
X109386155Y-80811027D01*
X109350795Y-80726336D01*
X109328199Y-80654334D01*
X109221502Y-80422343D01*
X109090561Y-80296365D01*
X108966271Y-80294875D01*
X108893018Y-80394076D01*
X108794765Y-80515304D01*
X108654312Y-80473727D01*
X108527342Y-80344396D01*
X108379208Y-80161458D01*
X108191939Y-80348727D01*
X108055215Y-80561549D01*
X108057041Y-80700998D01*
X108076583Y-80896128D01*
X108036315Y-81084491D01*
X107954791Y-81196391D01*
X107922961Y-81204667D01*
X107877263Y-81128659D01*
X107848754Y-80934962D01*
X107844000Y-80795445D01*
X107832338Y-80499621D01*
X107788271Y-80350340D01*
X107698179Y-80325858D01*
X107584457Y-80381110D01*
X107450987Y-80427525D01*
X107313471Y-80364654D01*
X107216893Y-80280749D01*
X107020082Y-80148664D01*
X106869449Y-80134957D01*
X106798752Y-80187837D01*
X106766727Y-80301673D01*
X106768685Y-80514702D01*
X106790917Y-80775630D01*
X106815544Y-81210179D01*
X106796588Y-81538989D01*
X106736806Y-81741013D01*
X106657053Y-81797334D01*
X106568662Y-81780305D01*
X106565371Y-81776167D01*
X106561170Y-81689163D01*
X106554273Y-81457677D01*
X106545302Y-81106530D01*
X106534878Y-80660540D01*
X106523624Y-80144528D01*
X106519246Y-79934667D01*
X106508146Y-79281566D01*
X106507016Y-78777866D01*
X106518731Y-78403785D01*
X106546166Y-78139539D01*
X106592196Y-77965346D01*
X106659696Y-77861423D01*
X106751541Y-77807985D01*
X106830893Y-77790166D01*
X106988735Y-77730224D01*
X107164913Y-77625558D01*
X107359313Y-77519027D01*
X107507238Y-77479334D01*
X107675929Y-77433508D01*
X107721233Y-77401182D01*
X107858249Y-77336035D01*
X108054942Y-77295348D01*
X108269877Y-77227848D01*
X108341293Y-77115066D01*
X108265543Y-76997974D01*
X108087735Y-76926746D01*
X107862111Y-76907994D01*
X107727278Y-76986230D01*
X107715509Y-77001386D01*
X107622070Y-77084831D01*
X107486929Y-77080863D01*
X107342106Y-77032570D01*
X107144879Y-76974218D01*
X107021331Y-77006101D01*
X106911406Y-77121320D01*
X106790649Y-77237542D01*
X106717372Y-77248956D01*
X106716983Y-77248320D01*
X106696756Y-77137094D01*
X106679153Y-76904202D01*
X106667632Y-76597307D01*
X106666800Y-76556576D01*
X106670069Y-76169363D01*
X106714569Y-75905974D01*
X106826974Y-75742718D01*
X107033959Y-75655906D01*
X107362198Y-75621849D01*
X107725125Y-75616667D01*
X108074443Y-75625239D01*
G36*
X115889815Y-81333201D02*
G01*
X115947711Y-81439167D01*
X115969925Y-81614532D01*
X115956119Y-81785710D01*
X115905957Y-81879117D01*
X115892330Y-81882000D01*
X115778400Y-81820211D01*
X115757359Y-81792521D01*
X115730885Y-81658578D01*
X115756900Y-81492735D01*
X115816117Y-81361869D01*
X115889251Y-81332858D01*
X115889815Y-81333201D01*
G37*
X115889815Y-81333201D02*
X115947711Y-81439167D01*
X115969925Y-81614532D01*
X115956119Y-81785710D01*
X115905957Y-81879117D01*
X115892330Y-81882000D01*
X115778400Y-81820211D01*
X115757359Y-81792521D01*
X115730885Y-81658578D01*
X115756900Y-81492735D01*
X115816117Y-81361869D01*
X115889251Y-81332858D01*
X115889815Y-81333201D01*
G36*
X108693148Y-81333201D02*
G01*
X108751045Y-81439167D01*
X108773259Y-81614532D01*
X108759453Y-81785710D01*
X108709290Y-81879117D01*
X108695663Y-81882000D01*
X108581733Y-81820211D01*
X108560692Y-81792521D01*
X108534218Y-81658578D01*
X108560233Y-81492735D01*
X108619450Y-81361869D01*
X108692585Y-81332858D01*
X108693148Y-81333201D01*
G37*
X108693148Y-81333201D02*
X108751045Y-81439167D01*
X108773259Y-81614532D01*
X108759453Y-81785710D01*
X108709290Y-81879117D01*
X108695663Y-81882000D01*
X108581733Y-81820211D01*
X108560692Y-81792521D01*
X108534218Y-81658578D01*
X108560233Y-81492735D01*
X108619450Y-81361869D01*
X108692585Y-81332858D01*
X108693148Y-81333201D01*
D12*
X95770000Y-84150000D02*
X131170000Y-84150000D01*
X95770000Y-50650000D02*
X131170000Y-50650000D01*
X95770000Y-50650000D02*
X95770000Y-84150000D01*
X131170000Y-50650000D02*
X131170000Y-84150000D01*
D15*
X163570000Y-64900000D02*
X163570000Y-63750000D01*
X156270000Y-64900000D02*
X163570000Y-64900000D01*
X156270000Y-59400000D02*
X163570000Y-59400000D01*
D12*
X148170000Y-67150000D02*
G75*
G03*
X148170000Y-67150000I-3750000J0D01*
G01*
D15*
X163420000Y-72900000D02*
X163420000Y-71400000D01*
X162170000Y-68900000D02*
X157670000Y-68900000D01*
X156420000Y-71400000D02*
X156420000Y-72900000D01*
X157670000Y-75400000D02*
X162170000Y-75400000D01*
D12*
X105004666Y-51108380D02*
X105004666Y-51822666D01*
X104957047Y-51965523D01*
X104861809Y-52060761D01*
X104718952Y-52108380D01*
X104623714Y-52108380D01*
X105433238Y-51203619D02*
X105480857Y-51156000D01*
X105576095Y-51108380D01*
X105814190Y-51108380D01*
X105909428Y-51156000D01*
X105957047Y-51203619D01*
X106004666Y-51298857D01*
X106004666Y-51394095D01*
X105957047Y-51536952D01*
X105385619Y-52108380D01*
X106004666Y-52108380D01*
X159181904Y-59102380D02*
X159181904Y-58102380D01*
X159420000Y-58102380D01*
X159562857Y-58150000D01*
X159658095Y-58245238D01*
X159705714Y-58340476D01*
X159753333Y-58530952D01*
X159753333Y-58673809D01*
X159705714Y-58864285D01*
X159658095Y-58959523D01*
X159562857Y-59054761D01*
X159420000Y-59102380D01*
X159181904Y-59102380D01*
X160705714Y-59102380D02*
X160134285Y-59102380D01*
X160420000Y-59102380D02*
X160420000Y-58102380D01*
X160324761Y-58245238D01*
X160229523Y-58340476D01*
X160134285Y-58388095D01*
X156055714Y-61002380D02*
X155484285Y-61002380D01*
X155770000Y-61002380D02*
X155770000Y-60002380D01*
X155674761Y-60145238D01*
X155579523Y-60240476D01*
X155484285Y-60288095D01*
X143086666Y-72634761D02*
X143229523Y-72682380D01*
X143467619Y-72682380D01*
X143562857Y-72634761D01*
X143610476Y-72587142D01*
X143658095Y-72491904D01*
X143658095Y-72396666D01*
X143610476Y-72301428D01*
X143562857Y-72253809D01*
X143467619Y-72206190D01*
X143277142Y-72158571D01*
X143181904Y-72110952D01*
X143134285Y-72063333D01*
X143086666Y-71968095D01*
X143086666Y-71872857D01*
X143134285Y-71777619D01*
X143181904Y-71730000D01*
X143277142Y-71682380D01*
X143515238Y-71682380D01*
X143658095Y-71730000D01*
X143991428Y-71682380D02*
X144229523Y-72682380D01*
X144420000Y-71968095D01*
X144610476Y-72682380D01*
X144848571Y-71682380D01*
X145134285Y-71682380D02*
X145800952Y-71682380D01*
X145372380Y-72682380D01*
X158586666Y-68304761D02*
X158729523Y-68352380D01*
X158967619Y-68352380D01*
X159062857Y-68304761D01*
X159110476Y-68257142D01*
X159158095Y-68161904D01*
X159158095Y-68066666D01*
X159110476Y-67971428D01*
X159062857Y-67923809D01*
X158967619Y-67876190D01*
X158777142Y-67828571D01*
X158681904Y-67780952D01*
X158634285Y-67733333D01*
X158586666Y-67638095D01*
X158586666Y-67542857D01*
X158634285Y-67447619D01*
X158681904Y-67400000D01*
X158777142Y-67352380D01*
X159015238Y-67352380D01*
X159158095Y-67400000D01*
X159491428Y-67352380D02*
X159729523Y-68352380D01*
X159920000Y-67638095D01*
X160110476Y-68352380D01*
X160348571Y-67352380D01*
X161158095Y-67352380D02*
X160967619Y-67352380D01*
X160872380Y-67400000D01*
X160824761Y-67447619D01*
X160729523Y-67590476D01*
X160681904Y-67780952D01*
X160681904Y-68161904D01*
X160729523Y-68257142D01*
X160777142Y-68304761D01*
X160872380Y-68352380D01*
X161062857Y-68352380D01*
X161158095Y-68304761D01*
X161205714Y-68257142D01*
X161253333Y-68161904D01*
X161253333Y-67923809D01*
X161205714Y-67828571D01*
X161158095Y-67780952D01*
X161062857Y-67733333D01*
X160872380Y-67733333D01*
X160777142Y-67780952D01*
X160729523Y-67828571D01*
X160681904Y-67923809D01*
M02*
