%TF.GenerationSoftware,KiCad,Pcbnew,(6.0.0)*%
%TF.CreationDate,2022-05-19T20:56:05+02:00*%
%TF.ProjectId,Daylight,4461796c-6967-4687-942e-6b696361645f,rev?*%
%TF.SameCoordinates,Original*%
%TF.FileFunction,Paste,Top*%
%TF.FilePolarity,Positive*%
%FSLAX46Y46*%
G04 Gerber Fmt 4.6, Leading zero omitted, Abs format (unit mm)*
G04 Created by KiCad (PCBNEW (6.0.0)) date 2022-05-19 20:56:05*
%MOMM*%
%LPD*%
G01*
G04 APERTURE LIST*
G04 Aperture macros list*
%AMRoundRect*
0 Rectangle with rounded corners*
0 $1 Rounding radius*
0 $2 $3 $4 $5 $6 $7 $8 $9 X,Y pos of 4 corners*
0 Add a 4 corners polygon primitive as box body*
4,1,4,$2,$3,$4,$5,$6,$7,$8,$9,$2,$3,0*
0 Add four circle primitives for the rounded corners*
1,1,$1+$1,$2,$3*
1,1,$1+$1,$4,$5*
1,1,$1+$1,$6,$7*
1,1,$1+$1,$8,$9*
0 Add four rect primitives between the rounded corners*
20,1,$1+$1,$2,$3,$4,$5,0*
20,1,$1+$1,$4,$5,$6,$7,0*
20,1,$1+$1,$6,$7,$8,$9,0*
20,1,$1+$1,$8,$9,$2,$3,0*%
G04 Aperture macros list end*
%ADD10R,2.200000X1.550000*%
%ADD11R,2.200000X2.300000*%
%ADD12RoundRect,0.250000X-1.075000X0.400000X-1.075000X-0.400000X1.075000X-0.400000X1.075000X0.400000X0*%
G04 APERTURE END LIST*
D10*
%TO.C,D18*%
X268000000Y-34524000D03*
D11*
X268000000Y-31850000D03*
%TD*%
D10*
%TO.C,D17*%
X253882352Y-34524000D03*
D11*
X253882352Y-31850000D03*
%TD*%
D10*
%TO.C,D16*%
X239764705Y-34524000D03*
D11*
X239764705Y-31850000D03*
%TD*%
D10*
%TO.C,D15*%
X225647058Y-34524000D03*
D11*
X225647058Y-31850000D03*
%TD*%
D10*
%TO.C,D14*%
X211529411Y-34524000D03*
D11*
X211529411Y-31850000D03*
%TD*%
D10*
%TO.C,D13*%
X197411764Y-34524000D03*
D11*
X197411764Y-31850000D03*
%TD*%
D10*
%TO.C,D12*%
X183294117Y-34524000D03*
D11*
X183294117Y-31850000D03*
%TD*%
D10*
%TO.C,D11*%
X169176470Y-34524000D03*
D11*
X169176470Y-31850000D03*
%TD*%
D10*
%TO.C,D10*%
X155058822Y-34524000D03*
D11*
X155058822Y-31850000D03*
%TD*%
D10*
%TO.C,D9*%
X140941175Y-34524000D03*
D11*
X140941175Y-31850000D03*
%TD*%
D10*
%TO.C,D8*%
X126823529Y-34524000D03*
D11*
X126823529Y-31850000D03*
%TD*%
D10*
%TO.C,D7*%
X112705882Y-34524000D03*
D11*
X112705882Y-31850000D03*
%TD*%
D10*
%TO.C,D6*%
X98588235Y-34524000D03*
D11*
X98588235Y-31850000D03*
%TD*%
D10*
%TO.C,D5*%
X84470588Y-34524000D03*
D11*
X84470588Y-31850000D03*
%TD*%
D10*
%TO.C,D4*%
X70352941Y-34524000D03*
D11*
X70352941Y-31850000D03*
%TD*%
D10*
%TO.C,D3*%
X56235294Y-34524000D03*
D11*
X56235294Y-31850000D03*
%TD*%
D10*
%TO.C,D2*%
X42117647Y-34524000D03*
D11*
X42117647Y-31850000D03*
%TD*%
D10*
%TO.C,D1*%
X28000000Y-34524000D03*
D11*
X28000000Y-31850000D03*
%TD*%
D12*
%TO.C,R6*%
X232750000Y-31450000D03*
X232750000Y-34550000D03*
%TD*%
%TO.C,R4*%
X162117646Y-31450000D03*
X162117646Y-34550000D03*
%TD*%
%TO.C,R1*%
X63500000Y-31450000D03*
X63500000Y-34550000D03*
%TD*%
%TO.C,R5*%
X218588234Y-31450000D03*
X218588234Y-34550000D03*
%TD*%
%TO.C,R3*%
X133882352Y-31450000D03*
X133882352Y-34550000D03*
%TD*%
%TO.C,R2*%
X77411764Y-31450000D03*
X77411764Y-34550000D03*
%TD*%
M02*
