%TF.GenerationSoftware,KiCad,Pcbnew,(6.0.0)*%
%TF.CreationDate,2022-05-19T20:56:05+02:00*%
%TF.ProjectId,Daylight,4461796c-6967-4687-942e-6b696361645f,rev?*%
%TF.SameCoordinates,Original*%
%TF.FileFunction,Copper,L2,Bot*%
%TF.FilePolarity,Positive*%
%FSLAX46Y46*%
G04 Gerber Fmt 4.6, Leading zero omitted, Abs format (unit mm)*
G04 Created by KiCad (PCBNEW (6.0.0)) date 2022-05-19 20:56:05*
%MOMM*%
%LPD*%
G01*
G04 APERTURE LIST*
%TA.AperFunction,ComponentPad*%
%ADD10C,0.800000*%
%TD*%
%TA.AperFunction,ComponentPad*%
%ADD11C,6.400000*%
%TD*%
%TA.AperFunction,ComponentPad*%
%ADD12R,1.700000X1.700000*%
%TD*%
%TA.AperFunction,ComponentPad*%
%ADD13O,1.700000X1.700000*%
%TD*%
%TA.AperFunction,ViaPad*%
%ADD14C,0.800000*%
%TD*%
G04 APERTURE END LIST*
D10*
%TO.P,H2,1,1*%
%TO.N,unconnected-(H2-Pad1)*%
X248520584Y-31302944D03*
D11*
X246823528Y-33000000D03*
D10*
X245126472Y-34697056D03*
X246823528Y-35400000D03*
X249223528Y-33000000D03*
X244423528Y-33000000D03*
X246823528Y-30600000D03*
X248520584Y-34697056D03*
X245126472Y-31302944D03*
%TD*%
%TO.P,H1,1,1*%
%TO.N,unconnected-(H1-Pad1)*%
X50697056Y-34697056D03*
X51400000Y-33000000D03*
X50697056Y-31302944D03*
X49000000Y-35400000D03*
X47302944Y-31302944D03*
X46600000Y-33000000D03*
D11*
X49000000Y-33000000D03*
D10*
X49000000Y-30600000D03*
X47302944Y-34697056D03*
%TD*%
D12*
%TO.P,J1,1,Pin_1*%
%TO.N,GND*%
X38500000Y-34265000D03*
D13*
%TO.P,J1,2,Pin_2*%
%TO.N,+24V*%
X38500000Y-31725000D03*
%TD*%
D12*
%TO.P,J2,1,Pin_1*%
%TO.N,GND*%
X257500000Y-34275000D03*
D13*
%TO.P,J2,2,Pin_2*%
%TO.N,+24V*%
X257500000Y-31735000D03*
%TD*%
D14*
%TO.N,GND*%
X137500000Y-34250000D03*
X98600000Y-36600000D03*
X185750000Y-34250000D03*
X261000000Y-34250000D03*
X259500000Y-34250000D03*
X239500000Y-37000000D03*
X252250000Y-37000000D03*
X268000000Y-36450000D03*
X222250000Y-34250000D03*
X101000000Y-34250000D03*
X35500000Y-34250000D03*
X195000000Y-34250000D03*
X36500000Y-34250000D03*
X41750000Y-37000000D03*
X272250000Y-34250000D03*
X165750000Y-34250000D03*
X272250000Y-37250000D03*
X183250000Y-36750000D03*
X24800000Y-37200000D03*
X270450000Y-34250000D03*
X56000000Y-37000000D03*
X24800000Y-34200000D03*
X110000000Y-34250000D03*
X81000000Y-34200000D03*
X236250000Y-34250000D03*
X67000000Y-34200000D03*
%TD*%
%TA.AperFunction,Conductor*%
%TO.N,GND*%
G36*
X278892662Y-28025006D02*
G01*
X282290313Y-29995643D01*
X282429216Y-30076207D01*
X282478108Y-30127687D01*
X282492000Y-30185201D01*
X282492000Y-35814799D01*
X282471998Y-35882920D01*
X282429217Y-35923792D01*
X281067796Y-36713416D01*
X278892661Y-37974994D01*
X278829445Y-37992000D01*
X17170553Y-37992000D01*
X17107337Y-37974994D01*
X14932203Y-36713416D01*
X13570783Y-35923792D01*
X13521892Y-35872313D01*
X13508000Y-35814799D01*
X13508000Y-35159669D01*
X37142001Y-35159669D01*
X37142371Y-35166490D01*
X37147895Y-35217352D01*
X37151521Y-35232604D01*
X37196676Y-35353054D01*
X37205214Y-35368649D01*
X37281715Y-35470724D01*
X37294276Y-35483285D01*
X37396351Y-35559786D01*
X37411946Y-35568324D01*
X37532394Y-35613478D01*
X37547649Y-35617105D01*
X37598514Y-35622631D01*
X37605328Y-35623000D01*
X38227885Y-35623000D01*
X38243124Y-35618525D01*
X38244329Y-35617135D01*
X38246000Y-35609452D01*
X38246000Y-35604884D01*
X38754000Y-35604884D01*
X38758475Y-35620123D01*
X38759865Y-35621328D01*
X38767548Y-35622999D01*
X39394669Y-35622999D01*
X39401490Y-35622629D01*
X39452352Y-35617105D01*
X39467604Y-35613479D01*
X39588054Y-35568324D01*
X39603649Y-35559786D01*
X39705724Y-35483285D01*
X39718285Y-35470724D01*
X39794786Y-35368649D01*
X39803324Y-35353054D01*
X39848478Y-35232606D01*
X39852105Y-35217351D01*
X39857631Y-35166486D01*
X39858000Y-35159672D01*
X39858000Y-34537115D01*
X39853525Y-34521876D01*
X39852135Y-34520671D01*
X39844452Y-34519000D01*
X38772115Y-34519000D01*
X38756876Y-34523475D01*
X38755671Y-34524865D01*
X38754000Y-34532548D01*
X38754000Y-35604884D01*
X38246000Y-35604884D01*
X38246000Y-34537115D01*
X38241525Y-34521876D01*
X38240135Y-34520671D01*
X38232452Y-34519000D01*
X37160116Y-34519000D01*
X37144877Y-34523475D01*
X37143672Y-34524865D01*
X37142001Y-34532548D01*
X37142001Y-35159669D01*
X13508000Y-35159669D01*
X13508000Y-31691695D01*
X37137251Y-31691695D01*
X37137548Y-31696848D01*
X37137548Y-31696851D01*
X37143011Y-31791590D01*
X37150110Y-31914715D01*
X37151247Y-31919761D01*
X37151248Y-31919767D01*
X37153502Y-31929767D01*
X37199222Y-32132639D01*
X37283266Y-32339616D01*
X37399987Y-32530088D01*
X37546250Y-32698938D01*
X37550225Y-32702238D01*
X37550231Y-32702244D01*
X37555425Y-32706556D01*
X37595059Y-32765460D01*
X37596555Y-32836441D01*
X37559439Y-32896962D01*
X37519168Y-32921480D01*
X37411946Y-32961676D01*
X37396351Y-32970214D01*
X37294276Y-33046715D01*
X37281715Y-33059276D01*
X37205214Y-33161351D01*
X37196676Y-33176946D01*
X37151522Y-33297394D01*
X37147895Y-33312649D01*
X37142369Y-33363514D01*
X37142000Y-33370328D01*
X37142000Y-33992885D01*
X37146475Y-34008124D01*
X37147865Y-34009329D01*
X37155548Y-34011000D01*
X39839884Y-34011000D01*
X39855123Y-34006525D01*
X39856328Y-34005135D01*
X39857999Y-33997452D01*
X39857999Y-33370331D01*
X39857629Y-33363510D01*
X39852105Y-33312648D01*
X39848479Y-33297396D01*
X39803324Y-33176946D01*
X39794786Y-33161351D01*
X39718285Y-33059276D01*
X39705724Y-33046715D01*
X39643392Y-33000000D01*
X45286411Y-33000000D01*
X45306754Y-33388176D01*
X45367562Y-33772099D01*
X45468167Y-34147562D01*
X45607468Y-34510453D01*
X45783938Y-34856794D01*
X45995643Y-35182793D01*
X46035981Y-35232606D01*
X46236904Y-35480724D01*
X46240266Y-35484876D01*
X46515124Y-35759734D01*
X46817207Y-36004357D01*
X46819970Y-36006152D01*
X46819971Y-36006152D01*
X47103934Y-36190559D01*
X47143205Y-36216062D01*
X47146139Y-36217557D01*
X47146146Y-36217561D01*
X47366923Y-36330052D01*
X47489547Y-36392532D01*
X47656215Y-36456510D01*
X47759885Y-36496305D01*
X47852438Y-36531833D01*
X48227901Y-36632438D01*
X48431793Y-36664732D01*
X48608576Y-36692732D01*
X48608584Y-36692733D01*
X48611824Y-36693246D01*
X49000000Y-36713589D01*
X49388176Y-36693246D01*
X49391416Y-36692733D01*
X49391424Y-36692732D01*
X49568207Y-36664732D01*
X49772099Y-36632438D01*
X50147562Y-36531833D01*
X50240116Y-36496305D01*
X50343785Y-36456510D01*
X50510453Y-36392532D01*
X50633077Y-36330052D01*
X50853854Y-36217561D01*
X50853861Y-36217557D01*
X50856795Y-36216062D01*
X50896067Y-36190559D01*
X51180029Y-36006152D01*
X51180030Y-36006152D01*
X51182793Y-36004357D01*
X51484876Y-35759734D01*
X51759734Y-35484876D01*
X51763097Y-35480724D01*
X51964019Y-35232606D01*
X52004357Y-35182793D01*
X52216062Y-34856794D01*
X52392532Y-34510453D01*
X52531833Y-34147562D01*
X52632438Y-33772099D01*
X52693246Y-33388176D01*
X52713589Y-33000000D01*
X243109939Y-33000000D01*
X243130282Y-33388176D01*
X243191090Y-33772099D01*
X243291695Y-34147562D01*
X243430996Y-34510453D01*
X243607466Y-34856794D01*
X243819171Y-35182793D01*
X243859509Y-35232606D01*
X244060432Y-35480724D01*
X244063794Y-35484876D01*
X244338652Y-35759734D01*
X244640735Y-36004357D01*
X244643498Y-36006152D01*
X244643499Y-36006152D01*
X244927462Y-36190559D01*
X244966733Y-36216062D01*
X244969667Y-36217557D01*
X244969674Y-36217561D01*
X245190451Y-36330052D01*
X245313075Y-36392532D01*
X245479743Y-36456510D01*
X245583413Y-36496305D01*
X245675966Y-36531833D01*
X246051429Y-36632438D01*
X246255321Y-36664732D01*
X246432104Y-36692732D01*
X246432112Y-36692733D01*
X246435352Y-36693246D01*
X246823528Y-36713589D01*
X247211704Y-36693246D01*
X247214944Y-36692733D01*
X247214952Y-36692732D01*
X247391735Y-36664732D01*
X247595627Y-36632438D01*
X247971090Y-36531833D01*
X248063644Y-36496305D01*
X248167313Y-36456510D01*
X248333981Y-36392532D01*
X248456605Y-36330052D01*
X248677382Y-36217561D01*
X248677389Y-36217557D01*
X248680323Y-36216062D01*
X248719595Y-36190559D01*
X249003557Y-36006152D01*
X249003558Y-36006152D01*
X249006321Y-36004357D01*
X249308404Y-35759734D01*
X249583262Y-35484876D01*
X249586625Y-35480724D01*
X249787547Y-35232606D01*
X249827885Y-35182793D01*
X249836408Y-35169669D01*
X256142001Y-35169669D01*
X256142371Y-35176490D01*
X256147895Y-35227352D01*
X256151521Y-35242604D01*
X256196676Y-35363054D01*
X256205214Y-35378649D01*
X256281715Y-35480724D01*
X256294276Y-35493285D01*
X256396351Y-35569786D01*
X256411946Y-35578324D01*
X256532394Y-35623478D01*
X256547649Y-35627105D01*
X256598514Y-35632631D01*
X256605328Y-35633000D01*
X257227885Y-35633000D01*
X257243124Y-35628525D01*
X257244329Y-35627135D01*
X257246000Y-35619452D01*
X257246000Y-35614884D01*
X257754000Y-35614884D01*
X257758475Y-35630123D01*
X257759865Y-35631328D01*
X257767548Y-35632999D01*
X258394669Y-35632999D01*
X258401490Y-35632629D01*
X258452352Y-35627105D01*
X258467604Y-35623479D01*
X258588054Y-35578324D01*
X258603649Y-35569786D01*
X258705724Y-35493285D01*
X258718285Y-35480724D01*
X258794786Y-35378649D01*
X258803324Y-35363054D01*
X258848478Y-35242606D01*
X258852105Y-35227351D01*
X258857631Y-35176486D01*
X258858000Y-35169672D01*
X258858000Y-34547115D01*
X258853525Y-34531876D01*
X258852135Y-34530671D01*
X258844452Y-34529000D01*
X257772115Y-34529000D01*
X257756876Y-34533475D01*
X257755671Y-34534865D01*
X257754000Y-34542548D01*
X257754000Y-35614884D01*
X257246000Y-35614884D01*
X257246000Y-34547115D01*
X257241525Y-34531876D01*
X257240135Y-34530671D01*
X257232452Y-34529000D01*
X256160116Y-34529000D01*
X256144877Y-34533475D01*
X256143672Y-34534865D01*
X256142001Y-34542548D01*
X256142001Y-35169669D01*
X249836408Y-35169669D01*
X250039590Y-34856794D01*
X250216060Y-34510453D01*
X250355361Y-34147562D01*
X250455966Y-33772099D01*
X250516774Y-33388176D01*
X250537117Y-33000000D01*
X250516774Y-32611824D01*
X250504716Y-32535689D01*
X250474486Y-32344829D01*
X250455966Y-32227901D01*
X250355361Y-31852438D01*
X250297496Y-31701695D01*
X256137251Y-31701695D01*
X256137548Y-31706848D01*
X256137548Y-31706851D01*
X256143011Y-31801590D01*
X256150110Y-31924715D01*
X256151247Y-31929761D01*
X256151248Y-31929767D01*
X256170022Y-32013069D01*
X256199222Y-32142639D01*
X256237461Y-32236811D01*
X256277262Y-32334829D01*
X256283266Y-32349616D01*
X256399987Y-32540088D01*
X256546250Y-32708938D01*
X256550225Y-32712238D01*
X256550231Y-32712244D01*
X256555425Y-32716556D01*
X256595059Y-32775460D01*
X256596555Y-32846441D01*
X256559439Y-32906962D01*
X256519168Y-32931480D01*
X256411946Y-32971676D01*
X256396351Y-32980214D01*
X256294276Y-33056715D01*
X256281715Y-33069276D01*
X256205214Y-33171351D01*
X256196676Y-33186946D01*
X256151522Y-33307394D01*
X256147895Y-33322649D01*
X256142369Y-33373514D01*
X256142000Y-33380328D01*
X256142000Y-34002885D01*
X256146475Y-34018124D01*
X256147865Y-34019329D01*
X256155548Y-34021000D01*
X258839884Y-34021000D01*
X258855123Y-34016525D01*
X258856328Y-34015135D01*
X258857999Y-34007452D01*
X258857999Y-33380331D01*
X258857629Y-33373510D01*
X258852105Y-33322648D01*
X258848479Y-33307396D01*
X258803324Y-33186946D01*
X258794786Y-33171351D01*
X258718285Y-33069276D01*
X258705724Y-33056715D01*
X258603649Y-32980214D01*
X258588054Y-32971676D01*
X258477813Y-32930348D01*
X258421049Y-32887706D01*
X258396349Y-32821145D01*
X258411557Y-32751796D01*
X258433104Y-32723115D01*
X258534430Y-32622144D01*
X258534440Y-32622132D01*
X258538096Y-32618489D01*
X258597594Y-32535689D01*
X258665435Y-32441277D01*
X258668453Y-32437077D01*
X258673396Y-32427077D01*
X258765136Y-32241453D01*
X258765137Y-32241451D01*
X258767430Y-32236811D01*
X258832370Y-32023069D01*
X258861529Y-31801590D01*
X258863156Y-31735000D01*
X258844852Y-31512361D01*
X258790431Y-31295702D01*
X258701354Y-31090840D01*
X258580014Y-30903277D01*
X258429670Y-30738051D01*
X258425619Y-30734852D01*
X258425615Y-30734848D01*
X258258414Y-30602800D01*
X258258410Y-30602798D01*
X258254359Y-30599598D01*
X258242045Y-30592800D01*
X258199144Y-30569118D01*
X258058789Y-30491638D01*
X258053920Y-30489914D01*
X258053916Y-30489912D01*
X257853087Y-30418795D01*
X257853083Y-30418794D01*
X257848212Y-30417069D01*
X257843119Y-30416162D01*
X257843116Y-30416161D01*
X257633373Y-30378800D01*
X257633367Y-30378799D01*
X257628284Y-30377894D01*
X257554452Y-30376992D01*
X257410081Y-30375228D01*
X257410079Y-30375228D01*
X257404911Y-30375165D01*
X257184091Y-30408955D01*
X256971756Y-30478357D01*
X256773607Y-30581507D01*
X256769474Y-30584610D01*
X256769471Y-30584612D01*
X256603305Y-30709373D01*
X256594965Y-30715635D01*
X256440629Y-30877138D01*
X256437715Y-30881410D01*
X256437714Y-30881411D01*
X256429620Y-30893277D01*
X256314743Y-31061680D01*
X256299003Y-31095590D01*
X256223013Y-31259297D01*
X256220688Y-31264305D01*
X256160989Y-31479570D01*
X256137251Y-31701695D01*
X250297496Y-31701695D01*
X250216060Y-31489547D01*
X250114872Y-31290954D01*
X250041089Y-31146147D01*
X250041085Y-31146140D01*
X250039590Y-31143206D01*
X249881299Y-30899457D01*
X249829680Y-30819971D01*
X249829680Y-30819970D01*
X249827885Y-30817207D01*
X249583262Y-30515124D01*
X249308404Y-30240266D01*
X249006321Y-29995643D01*
X248719573Y-29809427D01*
X248683092Y-29785736D01*
X248683089Y-29785734D01*
X248680323Y-29783938D01*
X248677389Y-29782443D01*
X248677382Y-29782439D01*
X248336921Y-29608966D01*
X248333981Y-29607468D01*
X248076401Y-29508592D01*
X247974180Y-29469353D01*
X247974178Y-29469352D01*
X247971090Y-29468167D01*
X247595627Y-29367562D01*
X247391735Y-29335268D01*
X247214952Y-29307268D01*
X247214944Y-29307267D01*
X247211704Y-29306754D01*
X246823528Y-29286411D01*
X246435352Y-29306754D01*
X246432112Y-29307267D01*
X246432104Y-29307268D01*
X246255321Y-29335268D01*
X246051429Y-29367562D01*
X245675966Y-29468167D01*
X245672878Y-29469352D01*
X245672876Y-29469353D01*
X245570655Y-29508592D01*
X245313075Y-29607468D01*
X245310135Y-29608966D01*
X244969675Y-29782439D01*
X244969668Y-29782443D01*
X244966734Y-29783938D01*
X244963968Y-29785734D01*
X244963965Y-29785736D01*
X244818603Y-29880135D01*
X244640735Y-29995643D01*
X244338652Y-30240266D01*
X244063794Y-30515124D01*
X243819171Y-30817207D01*
X243817376Y-30819970D01*
X243817376Y-30819971D01*
X243765758Y-30899457D01*
X243607466Y-31143206D01*
X243605971Y-31146140D01*
X243605967Y-31146147D01*
X243532184Y-31290954D01*
X243430996Y-31489547D01*
X243291695Y-31852438D01*
X243191090Y-32227901D01*
X243172570Y-32344829D01*
X243142341Y-32535689D01*
X243130282Y-32611824D01*
X243109939Y-33000000D01*
X52713589Y-33000000D01*
X52693246Y-32611824D01*
X52681188Y-32535689D01*
X52650958Y-32344829D01*
X52632438Y-32227901D01*
X52531833Y-31852438D01*
X52392532Y-31489547D01*
X52291344Y-31290954D01*
X52217561Y-31146147D01*
X52217557Y-31146140D01*
X52216062Y-31143206D01*
X52057771Y-30899457D01*
X52006152Y-30819971D01*
X52006152Y-30819970D01*
X52004357Y-30817207D01*
X51759734Y-30515124D01*
X51484876Y-30240266D01*
X51182793Y-29995643D01*
X50896045Y-29809427D01*
X50859564Y-29785736D01*
X50859561Y-29785734D01*
X50856795Y-29783938D01*
X50853861Y-29782443D01*
X50853854Y-29782439D01*
X50513393Y-29608966D01*
X50510453Y-29607468D01*
X50252873Y-29508592D01*
X50150652Y-29469353D01*
X50150650Y-29469352D01*
X50147562Y-29468167D01*
X49772099Y-29367562D01*
X49568207Y-29335268D01*
X49391424Y-29307268D01*
X49391416Y-29307267D01*
X49388176Y-29306754D01*
X49000000Y-29286411D01*
X48611824Y-29306754D01*
X48608584Y-29307267D01*
X48608576Y-29307268D01*
X48431793Y-29335268D01*
X48227901Y-29367562D01*
X47852438Y-29468167D01*
X47849350Y-29469352D01*
X47849348Y-29469353D01*
X47747127Y-29508592D01*
X47489547Y-29607468D01*
X47486607Y-29608966D01*
X47146147Y-29782439D01*
X47146140Y-29782443D01*
X47143206Y-29783938D01*
X47140440Y-29785734D01*
X47140437Y-29785736D01*
X46995075Y-29880135D01*
X46817207Y-29995643D01*
X46515124Y-30240266D01*
X46240266Y-30515124D01*
X45995643Y-30817207D01*
X45993848Y-30819970D01*
X45993848Y-30819971D01*
X45942230Y-30899457D01*
X45783938Y-31143206D01*
X45782443Y-31146140D01*
X45782439Y-31146147D01*
X45708656Y-31290954D01*
X45607468Y-31489547D01*
X45468167Y-31852438D01*
X45367562Y-32227901D01*
X45349042Y-32344829D01*
X45318813Y-32535689D01*
X45306754Y-32611824D01*
X45286411Y-33000000D01*
X39643392Y-33000000D01*
X39603649Y-32970214D01*
X39588054Y-32961676D01*
X39477813Y-32920348D01*
X39421049Y-32877706D01*
X39396349Y-32811145D01*
X39411557Y-32741796D01*
X39433104Y-32713115D01*
X39534430Y-32612144D01*
X39534440Y-32612132D01*
X39538096Y-32608489D01*
X39597594Y-32525689D01*
X39665435Y-32431277D01*
X39668453Y-32427077D01*
X39706737Y-32349616D01*
X39765136Y-32231453D01*
X39765137Y-32231451D01*
X39767430Y-32226811D01*
X39832370Y-32013069D01*
X39861529Y-31791590D01*
X39861611Y-31788240D01*
X39863074Y-31728365D01*
X39863074Y-31728361D01*
X39863156Y-31725000D01*
X39844852Y-31502361D01*
X39790431Y-31285702D01*
X39701354Y-31080840D01*
X39589291Y-30907617D01*
X39582822Y-30897617D01*
X39582820Y-30897614D01*
X39580014Y-30893277D01*
X39429670Y-30728051D01*
X39425619Y-30724852D01*
X39425615Y-30724848D01*
X39258414Y-30592800D01*
X39258410Y-30592798D01*
X39254359Y-30589598D01*
X39235375Y-30579118D01*
X39124090Y-30517686D01*
X39058789Y-30481638D01*
X39053920Y-30479914D01*
X39053916Y-30479912D01*
X38853087Y-30408795D01*
X38853083Y-30408794D01*
X38848212Y-30407069D01*
X38843119Y-30406162D01*
X38843116Y-30406161D01*
X38633373Y-30368800D01*
X38633367Y-30368799D01*
X38628284Y-30367894D01*
X38554452Y-30366992D01*
X38410081Y-30365228D01*
X38410079Y-30365228D01*
X38404911Y-30365165D01*
X38184091Y-30398955D01*
X37971756Y-30468357D01*
X37773607Y-30571507D01*
X37769474Y-30574610D01*
X37769471Y-30574612D01*
X37599100Y-30702530D01*
X37594965Y-30705635D01*
X37591393Y-30709373D01*
X37490793Y-30814645D01*
X37440629Y-30867138D01*
X37437715Y-30871410D01*
X37437714Y-30871411D01*
X37425404Y-30889457D01*
X37314743Y-31051680D01*
X37220688Y-31254305D01*
X37160989Y-31469570D01*
X37137251Y-31691695D01*
X13508000Y-31691695D01*
X13508000Y-30185201D01*
X13528002Y-30117080D01*
X13570783Y-30076208D01*
X17107340Y-28025006D01*
X17170555Y-28008000D01*
X278829447Y-28008000D01*
X278892662Y-28025006D01*
G37*
%TD.AperFunction*%
%TD*%
M02*
